<svg width="383" height="342" viewBox="0 0 383 342" fill="none" xmlns="http://www.w3.org/2000/svg">
<g clip-path="url(#clip0_54_4586)">
<path d="M159.364 308.304C159.364 308.304 143.526 320.186 126.669 328.571C111.456 336.135 95.4058 340.855 89.396 331.429C83.8739 322.763 93.3422 308.791 104.89 296.445C117.832 282.618 133.379 270.827 133.379 270.827L159.364 308.304Z" fill="#F9A429"/>
<path d="M126.669 328.571C111.456 336.135 95.4058 340.855 89.396 331.429C83.8739 322.763 93.3422 308.791 104.89 296.445C105.172 304.131 108.539 317.761 126.669 328.571Z" fill="white"/>
<g opacity="0.3">
<path d="M109.461 304.047C122.403 290.22 137.95 278.429 137.95 278.429L158.901 308.646C159.2 308.426 159.363 308.304 159.363 308.304L133.379 270.827C133.379 270.827 117.832 282.617 104.89 296.445C93.341 308.791 83.8726 322.763 89.396 331.429C90.2225 332.725 91.244 333.745 92.4208 334.535C91.502 325.974 99.7434 314.435 109.461 304.047Z" fill="#1E1D2B"/>
</g>
<path d="M100.489 338.951C99.18 338.951 97.9313 338.85 96.7468 338.634C92.6415 337.89 89.5192 335.878 87.4633 332.655C81.9617 324.028 87.9792 310.567 105.35 292.648C117.788 279.816 131.856 269.111 131.997 269.003C132.495 268.626 133.126 268.467 133.744 268.565C134.361 268.664 134.913 269.01 135.268 269.523L161.249 307.006C161.948 308.016 161.725 309.397 160.741 310.135C159.083 311.378 122.073 338.951 100.489 338.951ZM132.88 274.118C128.671 277.446 118.145 286.022 108.614 295.862C93.3768 311.589 87.2387 323.784 91.3312 330.201C92.6916 332.335 94.732 333.622 97.5669 334.137C98.5499 334.315 99.5945 334.399 100.692 334.399C118.044 334.401 148.553 313.281 156.209 307.777L132.88 274.118Z" fill="#1E1D2B"/>
<path d="M25.8525 285.127C21.5662 286.496 17.2517 287.795 12.9526 289.129C8.63423 290.417 4.33126 291.744 0.00134277 292.998C4.05791 291.031 8.14143 289.137 12.2096 287.203C16.2969 285.317 20.3689 283.393 24.4691 281.541C25.4393 281.103 26.5814 281.532 27.0203 282.5C27.4592 283.468 27.0293 284.608 26.0591 285.046C25.9911 285.078 25.9205 285.105 25.8525 285.127Z" fill="#1E1D2B"/>
<path d="M61.9638 293.406C57.6775 294.777 53.363 296.074 49.0639 297.409C44.7455 298.697 40.4425 300.024 36.1113 301.277C40.1679 299.31 44.2514 297.416 48.3208 295.482C52.4082 293.596 56.4802 291.672 60.5804 289.821C61.5506 289.383 62.6927 289.812 63.1316 290.781C63.5705 291.749 63.1406 292.889 62.1691 293.327C62.1024 293.357 62.0331 293.383 61.9638 293.406Z" fill="#1E1D2B"/>
<path d="M96.9895 307.902C92.7032 309.271 88.3887 310.57 84.0896 311.904C79.7712 313.193 75.4682 314.518 71.1383 315.773C75.1936 313.806 79.2784 311.911 83.3465 309.978C87.4339 308.092 91.5058 306.168 95.6061 304.316C96.5762 303.878 97.7184 304.307 98.1573 305.276C98.5962 306.244 98.1663 307.384 97.1948 307.822C97.1281 307.854 97.0588 307.881 96.9895 307.902Z" fill="#1E1D2B"/>
<path d="M182.528 200.921C182.528 200.921 181.583 203.946 179.694 208.88C178.643 211.625 177.302 214.954 175.657 218.694C174.941 220.328 174.164 222.047 173.334 223.825C163.073 245.734 144.182 276.863 116.546 286.814C72.3793 302.709 66.7725 292.956 55.9105 289.162C45.0484 285.369 36.9045 292.233 25.3187 289.162C13.7329 286.091 21.8833 263.872 47.4021 255.745C72.9285 247.611 80.3474 242.373 112.928 220.875C124.667 213.128 136.984 208.378 147.939 205.466C167.385 200.291 182.528 200.921 182.528 200.921Z" fill="#F21449"/>
<g opacity="0.3">
<path d="M39.4403 274.209C39.4403 274.209 51.1134 270.349 62.1088 275.329C73.1043 280.308 86.9411 293.449 118.511 271.772C150.08 250.096 137.183 228.961 137.183 228.961C137.183 228.961 53.4259 260.253 39.4403 274.209Z" fill="#1E1D2B"/>
</g>
<g opacity="0.6">
<path d="M47.4008 260.306C72.9272 252.173 80.3461 246.935 112.927 225.437C124.666 217.69 136.983 212.94 147.937 210.028C163.7 205.831 176.634 205.452 180.97 205.458C182.008 202.587 182.529 200.921 182.529 200.921C182.529 200.921 167.386 200.289 147.937 205.467C136.983 208.378 124.666 213.129 112.927 220.876C80.3474 242.373 72.9272 247.611 47.4008 255.746C27.8276 261.979 18.485 276.495 20.4177 284.31C22.0141 276.297 31.2027 265.465 47.4008 260.306Z" fill="white"/>
</g>
<path d="M78.1593 297.921C69.4917 297.921 64.5676 295.582 59.9541 293.392C58.3256 292.619 56.7882 291.889 55.1519 291.318C50.1393 289.567 45.6451 290.366 40.8878 291.21C35.9548 292.086 30.8549 292.993 24.7296 291.369C20.4805 290.242 17.9793 286.999 17.8677 282.472C17.629 272.852 28.3511 259.407 46.7038 253.562C70.9688 245.835 78.8356 240.641 108.105 221.319L111.663 218.972C144.488 197.316 181.08 198.569 182.62 198.635C183.331 198.664 183.988 199.022 184.398 199.602C184.807 200.182 184.924 200.919 184.713 201.598C184.487 202.322 179.063 219.552 168.096 239.024C157.893 257.142 140.802 280.513 117.325 288.963C98.6025 295.701 86.6048 297.921 78.1593 297.921ZM48.8277 285.696C51.3122 285.696 53.9045 286.036 56.6675 287.002C58.536 287.655 60.2583 288.472 61.924 289.264C70.2219 293.204 79.6261 297.67 115.771 284.661C153.232 271.178 174.594 216.588 179.33 203.207C169.859 203.413 140.378 205.511 114.191 222.787L110.635 225.134C80.9479 244.732 72.9682 250.001 48.0988 257.921C30.33 263.58 22.29 275.85 22.4504 282.361C22.5107 284.814 23.6747 286.358 25.9077 286.949C31.0512 288.313 35.4402 287.533 40.087 286.707C42.9104 286.207 45.7863 285.696 48.8277 285.696Z" fill="#1E1D2B"/>
<path d="M146.492 260.219C146.492 275.331 134.213 287.585 119.064 287.585C103.921 287.585 91.6418 275.331 91.6418 260.219C91.6418 255.147 93.0253 250.397 95.4328 246.327C95.4264 246.32 95.4264 246.313 95.4328 246.313C100.213 238.248 109.004 232.848 119.064 232.848C124.639 232.848 129.826 234.509 134.158 237.36C141.591 242.257 146.492 250.664 146.492 260.219Z" fill="#F9A429"/>
<path d="M134.157 237.36C129.826 234.508 124.637 232.848 119.063 232.848C118.703 232.848 118.345 232.854 117.99 232.868C102.323 233.469 91.8652 249.078 96.4094 264.051C99.7178 274.952 109.048 282.742 129.053 277.013L126.371 274.679C126.371 274.679 106.539 278.386 103.035 262.531C103.035 262.531 102.404 251.168 112.794 251.168C120.526 251.168 118.903 258.219 117.57 261.819C117.162 262.923 117.958 264.113 119.136 264.151C123.631 264.3 133.056 262.911 136.439 249.422C137.653 244.576 136.579 240.561 134.157 237.36Z" fill="white"/>
<g opacity="0.3">
<path d="M108.287 250.741C108.287 250.741 93.4398 257.412 101.864 271.564C110.289 285.714 130.641 283.717 130.641 283.717L127.054 274.644C127.054 274.644 115.438 278.471 107.592 270.641C99.7486 262.811 102.997 256.021 108.287 250.741Z" fill="#1E1D2B"/>
</g>
<path d="M148.444 257.233C147.931 258.246 147.433 259.057 146.898 259.933C146.365 260.789 145.812 261.627 145.227 262.441C144.059 264.072 142.795 265.634 141.44 267.121C138.706 270.068 135.503 272.665 131.816 274.497C129.973 275.405 128.006 276.094 125.977 276.499C123.958 276.918 121.842 276.997 119.843 276.89C115.823 276.68 111.712 275.671 108.185 273.408C106.422 272.299 104.838 270.848 103.583 269.129C102.335 267.408 101.425 265.397 101.056 263.252C100.857 262.184 100.815 261.083 100.902 259.993C100.987 258.903 101.208 257.816 101.594 256.788C101.976 255.764 102.456 254.768 103.089 253.88C103.703 252.998 104.424 252.14 105.316 251.425C107.079 249.997 109.409 249.167 111.705 249.311C113.991 249.431 116.224 250.397 117.805 252.062C118.59 252.893 119.196 253.899 119.546 254.975C119.906 256.048 120.006 257.183 119.894 258.256C119.635 260.414 118.622 262.284 117.263 263.708C117.221 263.751 117.152 263.754 117.107 263.712C117.076 263.682 117.066 263.637 117.077 263.599C117.634 261.734 118.006 259.913 117.816 258.232C117.642 256.558 116.918 255.103 115.791 254.057C114.674 253.002 113.127 252.395 111.592 252.386C110.055 252.373 108.553 252.907 107.364 253.911C106.772 254.409 106.261 255.035 105.78 255.714C105.3 256.384 104.954 257.13 104.669 257.89C104.118 259.418 103.962 261.088 104.238 262.712C104.501 264.338 105.177 265.909 106.154 267.289C107.137 268.665 108.403 269.868 109.865 270.809C111.331 271.745 112.958 272.457 114.67 272.935C116.387 273.401 118.176 273.638 119.98 273.701C123.58 273.865 127.062 273.007 130.186 271.32C133.323 269.655 136.029 267.19 138.343 264.414C139.497 263.016 140.557 261.533 141.498 259.977C141.974 259.204 142.419 258.411 142.84 257.612C143.254 256.831 143.663 255.957 143.953 255.238L143.965 255.206C144.474 253.948 145.906 253.34 147.166 253.846C148.426 254.353 149.036 255.783 148.529 257.041C148.504 257.106 148.475 257.173 148.444 257.233Z" fill="#1E1D2B"/>
<path d="M119.064 289.873C102.677 289.873 89.3473 276.57 89.3473 260.218C89.3473 243.865 102.678 230.563 119.064 230.563C135.449 230.563 148.78 243.867 148.78 260.218C148.78 276.571 135.451 289.873 119.064 289.873ZM119.064 235.136C105.205 235.136 93.93 246.388 93.93 260.218C93.93 274.048 105.205 285.3 119.064 285.3C132.922 285.3 144.198 274.048 144.198 260.218C144.198 246.388 132.922 235.136 119.064 235.136Z" fill="#1E1D2B"/>
<path d="M379.83 150.294C377.423 158.085 370.529 166.242 352.225 166.288C352.225 166.288 347.357 170.073 340.074 175.775C320.855 190.842 284.839 219.302 277.283 226.844C277.283 226.844 278.303 216.772 279.058 203.362C279.971 186.873 280.49 165.338 278.189 151.244C278.189 151.244 298.71 142.122 318.432 133.722C329.424 129.046 340.173 124.592 346.975 122.068C346.975 122.068 359.993 117.681 372.569 127.686C374.214 128.994 375.639 130.506 376.812 132.179C380.485 137.378 381.758 144.038 379.83 150.294Z" fill="#F9A429"/>
<path d="M379.83 150.294C377.423 158.085 370.529 166.242 352.225 166.288C352.225 166.288 347.357 170.073 340.074 175.775C315.043 166.668 315.127 146.827 318.432 133.722C329.424 129.046 340.173 124.592 346.975 122.068C346.975 122.068 359.993 117.681 372.569 127.686C379.343 133.067 382.374 142.031 379.83 150.294Z" fill="white"/>
<g opacity="0.3">
<path d="M379.83 150.294C377.423 158.085 370.529 166.242 352.225 166.288C352.225 166.288 347.357 170.073 340.074 175.775C320.855 190.842 284.839 219.302 277.283 226.844C277.283 226.844 278.303 216.772 279.058 203.362C290.682 196.444 307.989 184.799 326.248 167.748C326.248 167.748 341.857 153.243 328.199 146.251C328.199 146.251 328.267 136.566 342.246 137.584C342.246 137.584 339.267 142.123 341.446 148.447C341.446 148.447 350.504 160.404 365.076 156.368C376.311 153.258 377.972 141.218 376.814 132.179C380.485 137.378 381.758 144.038 379.83 150.294Z" fill="#1E1D2B"/>
</g>
<path d="M322.823 147.443C323.555 146.922 324.28 146.493 325.052 146.094C325.814 145.688 326.605 145.332 327.42 145.02C329.049 144.395 330.775 143.922 332.634 143.737C334.485 143.561 336.517 143.633 338.6 144.473C339.625 144.898 340.638 145.527 341.499 146.349C342.352 147.184 343 148.179 343.476 149.205C343.949 150.227 344.221 151.373 344.312 152.498C344.385 153.625 344.29 154.746 344.021 155.765C343.496 157.817 342.495 159.521 341.354 160.965C340.196 162.406 338.877 163.61 337.456 164.631C336.027 165.645 334.528 166.497 332.842 167.074C332.521 167.184 332.172 167.014 332.061 166.694C331.997 166.507 332.028 166.311 332.129 166.158L332.15 166.126C333.994 163.365 335.865 160.789 337.143 158.212C337.467 157.577 337.739 156.939 337.971 156.326C338.181 155.706 338.357 155.111 338.448 154.543C338.554 153.974 338.566 153.452 338.515 152.959C338.473 152.466 338.378 151.997 338.16 151.541C337.771 150.612 337.237 149.993 336.318 149.492C335.417 148.969 334.118 148.686 332.722 148.553C329.899 148.321 326.693 148.668 323.521 149.088L323.473 149.095C322.973 149.161 322.512 148.809 322.447 148.31C322.402 147.959 322.557 147.632 322.823 147.443Z" fill="#1E1D2B"/>
<path d="M352.226 168.575C352.2 168.575 352.175 168.575 352.15 168.574C351.708 168.56 341.278 168.138 337.116 160.951C336.482 159.858 336.858 158.459 337.953 157.828C339.049 157.196 340.45 157.57 341.083 158.664C343.94 163.596 352.216 164.002 352.299 164.004C353.565 164.045 354.557 165.102 354.515 166.365C354.473 167.601 353.457 168.575 352.226 168.575Z" fill="#1E1D2B"/>
<path d="M332.501 146.284C332.505 146.101 332.517 146.03 332.526 145.927C332.535 145.823 332.549 145.741 332.562 145.654C332.586 145.477 332.623 145.312 332.661 145.152C332.73 144.823 332.83 144.52 332.928 144.214C333.146 143.616 333.407 143.044 333.727 142.515C334.342 141.443 335.163 140.534 336.056 139.779C336.967 139.042 337.957 138.464 338.984 138.05C339.493 137.837 340.029 137.705 340.538 137.538C341.069 137.424 341.595 137.328 342.119 137.253C342.318 137.224 342.502 137.361 342.531 137.56C342.55 137.689 342.497 137.812 342.405 137.89L342.377 137.913C341.977 138.246 341.573 138.537 341.19 138.847C340.824 139.181 340.44 139.473 340.114 139.823C339.433 140.484 338.858 141.196 338.378 141.917C337.92 142.656 337.582 143.419 337.354 144.177C337.229 144.554 337.177 144.943 337.121 145.312C337.102 145.495 337.075 145.681 337.077 145.851C337.071 145.939 337.073 146.023 337.077 146.097C337.077 146.134 337.075 146.178 337.079 146.201C337.082 146.224 337.084 146.277 337.088 146.22C337.106 147.483 336.095 148.521 334.829 148.539C333.56 148.556 332.521 147.547 332.501 146.284Z" fill="#1E1D2B"/>
<path d="M277.285 229.127C276.953 229.127 276.618 229.056 276.304 228.906C275.428 228.492 274.909 227.573 275.006 226.611C275.056 226.114 279.996 176.579 275.929 151.611C275.762 150.587 276.307 149.578 277.258 149.156C277.756 148.935 327.321 126.918 346.178 119.928C346.2 119.92 346.22 119.912 346.242 119.905C346.821 119.709 360.597 115.238 374.003 125.893C381.569 131.907 384.79 141.982 382.02 150.962C379.581 158.863 372.563 168.272 353.023 168.569C346.407 173.72 288.562 218.824 278.909 228.458C278.466 228.896 277.881 229.127 277.285 229.127ZM280.718 152.626C283.674 173.453 281.276 207.474 280.107 221.159C297.662 205.827 348.434 166.335 350.816 164.485C351.216 164.173 351.71 164.003 352.217 164.002C366.149 163.966 374.702 159.125 377.637 149.616C379.858 142.419 377.249 134.322 371.146 129.471C359.916 120.545 348.325 124.041 347.731 124.231C330.893 130.477 289.378 148.793 280.718 152.626Z" fill="#1E1D2B"/>
<path d="M200.719 303.88C200.711 303.895 200.703 303.91 200.696 303.926C200.649 303.994 200.612 304.063 200.581 304.131C200.506 304.252 200.444 304.374 200.376 304.496C200.376 304.503 200.376 304.511 200.368 304.519C198.708 307.408 190.809 319.524 170.851 328.54C166.966 330.296 163.111 331.922 159.364 333.359C159.25 333.405 159.135 333.45 159.021 333.489C140.892 340.407 125.352 342.893 121.619 333.96C121.443 333.541 121.284 333.108 121.154 332.668C117.75 321.774 125.991 305.249 140.085 296.567C140.085 296.567 131.592 287.483 128.574 273.374H128.567C124.834 255.891 129.504 230.69 169.221 205.529L267.723 194.338L281.359 192.787C281.359 192.787 296.563 277.326 200.719 303.88Z" fill="#F9A429"/>
<path d="M159.364 333.359C141.089 340.376 125.374 342.945 121.619 333.96C117.094 323.12 125.42 305.597 140.083 296.567C140.083 296.567 133.243 322.42 159.364 333.359Z" fill="white"/>
<path d="M200.719 303.88C207.369 292.363 201.313 284.374 201.313 284.374C198.288 216.596 248.687 208.774 248.687 208.774C248.687 208.774 259.146 199.279 267.723 194.338L281.359 192.787C281.359 192.787 296.563 277.326 200.719 303.88Z" fill="white"/>
<g opacity="0.3">
<path d="M139.085 280.17C139.085 280.17 147.279 284.606 164.325 282.203C166.215 281.937 167.214 284.371 165.684 285.511C152.931 295.006 126.791 316.004 130.851 325.826C134.263 334.082 146.665 335.146 159.021 333.489C140.892 340.407 125.352 342.893 121.619 333.96C117.094 323.12 125.42 305.597 140.083 296.567C140.083 296.567 131.59 287.483 128.573 273.374C129.754 273.686 156.08 280.254 190.565 254.674C189.886 255.418 168.085 279.242 139.085 280.17Z" fill="#1E1D2B"/>
</g>
<g opacity="0.3">
<path d="M194.609 280.173C194.609 280.173 203.755 277.606 210.236 284.977C213.171 288.316 217.766 289.686 222.048 288.472C230.873 285.97 245.214 280.747 258.096 270.827C258.096 270.827 237.508 295.888 200.717 303.881C200.719 303.881 210.493 283.967 194.609 280.173Z" fill="#1E1D2B"/>
</g>
<g opacity="0.6">
<path d="M200.719 303.88C200.711 303.895 200.703 303.911 200.696 303.926C200.649 303.994 200.612 304.063 200.581 304.131C200.506 304.252 200.444 304.374 200.376 304.496C200.376 304.503 200.376 304.511 200.368 304.519C198.708 307.408 190.809 319.524 170.851 328.54C166.966 330.296 163.111 331.922 159.364 333.359C159.25 333.405 159.135 333.45 159.021 333.489C140.892 340.407 125.352 342.893 121.619 333.96C121.443 333.541 121.284 333.108 121.154 332.668C121.154 332.668 144.758 340.511 178.316 318.143C212.122 295.608 194.61 280.17 194.61 280.17C212.663 286.267 200.719 303.88 200.719 303.88Z" fill="white"/>
</g>
<path d="M198.718 302.766C198.931 302.367 199.187 301.826 199.414 301.339C199.643 300.837 199.865 300.328 200.066 299.812C200.465 298.779 200.842 297.738 201.128 296.681C201.718 294.578 202.059 292.424 201.896 290.365C201.815 289.338 201.602 288.339 201.236 287.399C200.888 286.45 200.377 285.56 199.717 284.749C198.417 283.1 196.52 281.814 194.443 280.692L194.424 280.682C194.156 280.537 194.057 280.203 194.201 279.935C194.316 279.723 194.551 279.616 194.777 279.655C196 279.86 197.238 280.15 198.417 280.678C199.613 281.158 200.744 281.877 201.763 282.76C202.802 283.631 203.65 284.753 204.308 285.965C204.954 287.186 205.394 288.508 205.652 289.844C206.143 292.527 205.924 295.202 205.391 297.726C205.109 298.988 204.76 300.226 204.311 301.423C204.091 302.024 203.85 302.617 203.596 303.206C203.337 303.809 203.075 304.345 202.718 304.997C202.112 306.104 200.72 306.513 199.61 305.908C198.506 305.308 198.096 303.932 198.685 302.827L198.718 302.766Z" fill="#1E1D2B"/>
<path d="M138.761 294.695C140.747 293.451 142.678 292.333 144.697 291.275C146.699 290.212 148.737 289.22 150.807 288.3C152.869 287.368 154.968 286.51 157.104 285.76L158.709 285.209C159.25 285.039 159.798 284.887 160.34 284.727C161.418 284.389 162.536 284.16 163.635 283.907C163.902 283.845 164.167 284.01 164.23 284.277C164.283 284.505 164.169 284.733 163.967 284.832L163.95 284.84C161.948 285.825 159.975 286.808 158.03 287.853C156.095 288.914 154.168 289.97 152.29 291.124C150.414 292.273 148.56 293.455 146.735 294.674C144.93 295.904 143.086 297.16 141.399 298.437L141.368 298.46C140.358 299.223 138.919 299.026 138.153 298.018C137.388 297.01 137.586 295.575 138.596 294.81C138.648 294.769 138.706 294.731 138.761 294.695Z" fill="#1E1D2B"/>
<path d="M133.16 342C130.262 342 127.788 341.599 125.745 340.795C122.762 339.622 120.663 337.618 119.501 334.837C114.742 323.438 122.702 305.878 136.68 296.066C132.643 290.886 123.187 276.457 125.619 257.481C128.12 237.955 142.378 219.826 167.995 203.595C168.288 203.409 168.619 203.293 168.964 203.253L281.099 190.518C282.298 190.382 283.4 191.199 283.613 192.386C283.774 193.273 287.422 214.379 279.153 239.103C274.286 253.652 266.277 266.39 255.347 276.963C241.93 289.942 224.074 299.648 202.264 305.824C200.243 309.293 192.008 321.498 171.795 330.623C155.024 338.194 142.083 342 133.16 342ZM170.008 207.738C145.904 223.111 132.501 240.021 130.172 258.001C127.413 279.299 141.614 294.855 141.757 295.009C142.223 295.511 142.441 296.195 142.348 296.873C142.256 297.551 141.866 298.154 141.282 298.512C127.967 306.714 119.6 323.19 123.73 333.079C124.405 334.696 125.613 335.829 127.423 336.541C134.363 339.271 149.451 335.689 169.905 326.455C191.58 316.671 198.594 303.005 198.663 302.869C198.953 302.289 199.478 301.852 200.104 301.68C238.994 290.905 264.106 269.426 274.743 237.84C281.23 218.577 280.065 201.205 279.39 195.317L170.008 207.738Z" fill="#1E1D2B"/>
<path d="M176.545 227.56C191.003 227.559 201.817 242.163 190.582 254.657C177.912 268.747 126.142 284.643 119.988 266.037C113.833 247.432 128.908 230.528 128.908 230.528C128.908 230.528 136.558 215.42 156.33 217.608C156.33 217.608 165.585 218.079 172.925 223.678L176.545 227.56Z" fill="#F9A429"/>
<path d="M158.297 232.455C158.297 232.455 152.83 254.099 172.294 266.255C172.294 266.255 202.582 255.113 193.233 236.484C183.884 217.854 158.297 232.455 158.297 232.455Z" fill="white"/>
<g opacity="0.3">
<path d="M189.3 231.192C189.3 231.192 196.645 252.761 152.57 264.864C108.494 276.967 129.22 228.376 136.099 223.318C136.099 223.318 123.879 230.9 119.626 248.333C115.373 265.767 121.612 274.18 132.478 274.18C143.344 274.18 152.027 275.323 171.395 266.255C190.763 257.187 202.499 247.465 189.3 231.192Z" fill="#1E1D2B"/>
</g>
<path d="M130.62 232.05C130.069 232.704 129.448 233.529 128.898 234.313C128.336 235.111 127.797 235.929 127.287 236.764C126.255 238.429 125.344 240.165 124.529 241.933C122.893 245.466 121.733 249.194 121.266 252.97C120.795 256.744 121.064 260.551 122.113 264.145L122.317 264.816C122.384 265.041 122.452 265.275 122.525 265.435C122.652 265.802 122.825 266.14 122.997 266.478C123.364 267.139 123.84 267.729 124.405 268.259C125.529 269.324 127.051 270.115 128.741 270.671C132.151 271.777 136.095 271.963 139.988 271.775C143.905 271.576 147.851 270.95 151.756 270.114C159.565 268.41 167.254 265.797 174.467 262.366C178.06 260.637 181.561 258.707 184.687 256.429C186.239 255.284 187.699 254.064 188.87 252.712C190.085 251.347 191.089 249.846 191.759 248.249C193.105 245.07 193.068 241.495 191.467 238.431C189.932 235.35 187.082 232.855 183.77 231.417C180.453 229.956 176.665 229.532 173.034 230.178C172.579 230.256 172.13 230.371 171.677 230.463C171.224 230.56 170.716 230.719 170.239 230.845C169.27 231.112 168.297 231.365 167.336 231.673C165.406 232.25 163.49 232.891 161.584 233.567C159.679 234.248 157.788 234.971 155.91 235.734L150.283 238.055C146.509 239.57 142.691 241.021 138.665 242.191L138.654 242.194C138.426 242.261 138.189 242.13 138.124 241.903C138.077 241.743 138.129 241.578 138.243 241.472C141.36 238.572 144.906 236.344 148.59 234.404C150.436 233.436 152.336 232.581 154.256 231.769C156.175 230.955 158.113 230.179 160.07 229.445C162.028 228.715 164.002 228.02 166.002 227.387C166.994 227.051 168.008 226.771 169.017 226.475C169.531 226.332 170.004 226.174 170.553 226.042C171.105 225.917 171.652 225.771 172.208 225.667C176.66 224.805 181.41 225.235 185.654 227.023C189.88 228.793 193.699 231.908 195.89 236.19C196.453 237.244 196.862 238.384 197.201 239.542C197.485 240.716 197.707 241.917 197.73 243.133C197.822 245.562 197.349 247.995 196.444 250.19C195.542 252.393 194.235 254.356 192.74 256.073C191.23 257.837 189.518 259.274 187.78 260.584C184.281 263.18 180.567 265.269 176.757 267.107C169.129 270.757 161.148 273.495 152.893 275.325C148.762 276.22 144.553 276.862 140.25 277.073C135.956 277.247 131.529 277.102 127.084 275.667C125.978 275.293 124.877 274.839 123.808 274.25C122.746 273.648 121.716 272.916 120.795 272.028C119.873 271.143 119.06 270.104 118.444 268.96C118.149 268.384 117.871 267.798 117.665 267.193C117.54 266.879 117.47 266.618 117.393 266.351L117.159 265.547C115.957 261.243 115.705 256.691 116.307 252.327C116.904 247.954 118.277 243.769 120.135 239.879C121.071 237.933 122.126 236.055 123.295 234.253C123.876 233.348 124.486 232.465 125.127 231.598C125.781 230.718 126.407 229.909 127.2 229.01C128.035 228.062 129.483 227.968 130.433 228.803C131.368 229.624 131.472 231.039 130.676 231.987L130.62 232.05Z" fill="#1E1D2B"/>
<path d="M287.581 201.355C284.808 208.615 276.604 219.599 252.488 225.757C220.334 233.975 192.065 230.432 173.334 223.826C169.182 222.358 165.495 220.747 162.342 219.074C162.342 219.074 143.443 210.918 128.909 230.53C128.909 230.53 113.56 233.57 101.478 241.97C89.3973 250.37 53.2821 260.388 39.4415 274.209C39.4415 274.209 53.2873 264.433 69.9845 254.702C99.3892 237.568 110.11 226.252 126.67 226.252C126.67 226.252 134.326 213.601 151.068 207.633C155.373 206.097 160.171 204.934 165.42 204.44C165.42 204.44 170.752 206.607 179.695 208.879C202.342 214.611 248.146 220.95 288.961 194.146C288.961 194.149 289.197 197.113 287.581 201.355Z" fill="#F21449"/>
<g opacity="0.3">
<path d="M287.581 200.074C283.186 204.833 263.594 222.363 213.386 222.363C198.288 222.363 185.826 220.372 175.657 217.414C165.145 214.374 157.078 210.307 151.067 206.353C149.955 205.631 148.911 204.901 147.936 204.186C167.383 199.01 182.528 199.64 182.528 199.64C182.528 199.64 181.583 202.665 179.694 207.599C202.341 213.332 248.145 219.671 288.96 192.867C288.961 192.868 289.197 195.833 287.581 200.074Z" fill="#1E1D2B"/>
</g>
<path d="M291.245 193.967C291.267 194.314 291.262 194.491 291.263 194.735C291.256 194.955 291.254 195.182 291.238 195.395C291.215 195.829 291.172 196.25 291.12 196.67C291.021 197.51 290.849 198.322 290.665 199.132C290.269 200.739 289.717 202.291 289.039 203.777C287.676 206.748 285.805 209.428 283.657 211.799C279.312 216.527 273.919 219.971 268.319 222.623C265.508 223.95 262.613 225.036 259.699 226.031C258.229 226.479 256.77 226.98 255.285 227.361L253.067 227.968L250.841 228.482L246.391 229.506C244.907 229.847 243.398 230.069 241.903 230.354L239.656 230.76C238.908 230.902 238.157 231.032 237.4 231.12L232.87 231.722C231.363 231.953 229.841 232.049 228.324 232.186C226.805 232.303 225.29 232.476 223.768 232.548C220.722 232.659 217.678 232.853 214.627 232.78L212.341 232.77L211.197 232.763L210.055 232.708L205.485 232.485C203.963 232.391 202.446 232.218 200.927 232.086C200.167 232.009 199.406 231.958 198.649 231.862L196.38 231.552C190.329 230.75 184.317 229.559 178.434 227.837C172.553 226.126 166.775 223.965 161.27 221.09L161.435 221.169L161.014 221.011C160.854 220.953 160.688 220.897 160.519 220.843C160.183 220.734 159.837 220.634 159.49 220.541C158.791 220.357 158.081 220.194 157.362 220.073C155.926 219.814 154.463 219.693 153.006 219.681C150.092 219.668 147.183 220.128 144.457 221.127C143.094 221.621 141.761 222.213 140.502 222.952C139.856 223.289 139.261 223.722 138.64 224.106C138.053 224.548 137.436 224.943 136.879 225.428C134.588 227.277 132.542 229.471 130.751 231.886C130.403 232.355 129.909 232.653 129.379 232.765L129.355 232.77H129.353C127.467 233.192 125.464 233.781 123.532 234.359C121.587 234.948 119.663 235.613 117.766 236.336C113.982 237.8 110.268 239.444 106.794 241.451C105.935 241.965 105.054 242.45 104.23 243.009L101.577 244.726C99.6883 245.894 97.7761 246.872 95.8563 247.805C92.0114 249.647 88.1294 251.247 84.2589 252.838C76.5013 255.97 68.7616 258.996 61.19 262.347C59.2894 263.167 57.4068 264.02 55.5434 264.913C53.6697 265.786 51.8269 266.711 50.002 267.674C46.3587 269.608 42.8167 271.73 39.575 274.345L39.5725 274.348C39.4903 274.414 39.3684 274.401 39.3017 274.319C39.2427 274.246 39.2465 274.144 39.3043 274.075C42.0198 270.84 45.3821 268.179 48.8573 265.785C50.6129 264.61 52.4018 263.484 54.2228 262.418C56.0503 261.366 57.8983 260.353 59.7616 259.377C67.2421 255.518 74.9677 252.254 82.5701 248.874C86.3751 247.2 90.1635 245.505 93.8055 243.666C95.624 242.75 97.4142 241.794 99.0581 240.742L101.63 239.019C102.523 238.393 103.469 237.867 104.397 237.307C108.139 235.122 112.068 233.35 116.085 231.868C118.094 231.125 120.123 230.447 122.176 229.846C123.201 229.541 124.232 229.254 125.275 229.001C126.327 228.739 127.339 228.504 128.464 228.283H128.465L127.069 229.167C129.054 226.491 131.361 224.002 134.008 221.866C134.651 221.312 135.37 220.842 136.052 220.333C136.776 219.877 137.473 219.38 138.233 218.979C139.712 218.114 141.292 217.408 142.91 216.822C146.15 215.637 149.611 215.089 153.041 215.107C154.757 215.121 156.47 215.264 158.16 215.568C159.006 215.711 159.845 215.903 160.681 216.122C161.099 216.234 161.516 216.355 161.934 216.49C162.144 216.556 162.354 216.628 162.566 216.704C162.789 216.784 162.971 216.851 163.257 216.969C163.301 216.987 163.343 217.007 163.384 217.028L163.423 217.048C168.559 219.73 174.076 221.802 179.712 223.44C185.351 225.092 191.15 226.242 196.995 227.016L199.185 227.315C199.917 227.407 200.653 227.457 201.387 227.53C202.857 227.656 204.324 227.825 205.797 227.917L210.219 228.132L211.325 228.186L212.433 228.193L214.648 228.202C217.602 228.273 220.552 228.082 223.504 227.977C224.979 227.908 226.448 227.739 227.921 227.625C229.392 227.492 230.868 227.4 232.329 227.176L236.724 226.592C237.458 226.507 238.187 226.38 238.913 226.242L241.095 225.848C242.546 225.568 244.01 225.356 245.451 225.025L249.774 224.03L251.935 223.533L254.056 222.952C255.479 222.588 256.86 222.111 258.26 221.685C261.022 220.74 263.754 219.717 266.372 218.48C271.591 216.013 276.482 212.845 280.272 208.717C282.145 206.649 283.738 204.354 284.875 201.874C285.44 200.634 285.894 199.351 286.216 198.051C286.362 197.4 286.504 196.746 286.577 196.097C286.618 195.774 286.65 195.45 286.666 195.136C286.679 194.976 286.678 194.827 286.684 194.674L286.681 194.32L286.679 194.129C286.665 192.869 287.679 191.836 288.942 191.822C290.16 191.811 291.168 192.763 291.245 193.967Z" fill="#1E1D2B"/>
<path d="M248.506 225.305C248.506 225.305 233.301 221.783 229.5 237.904C225.699 254.026 219.318 265.541 219.318 265.541C219.318 265.541 255.972 253.349 248.506 225.305Z" fill="#F21449"/>
<g opacity="0.3">
<path d="M248.506 225.305C248.506 225.305 242.999 224.036 237.785 226.533C239.213 226.615 240.126 226.825 240.126 226.825C244.991 245.097 231.124 256.639 220.872 262.464C219.924 264.446 219.318 265.542 219.318 265.542C219.318 265.542 255.972 253.349 248.506 225.305Z" fill="#1E1D2B"/>
</g>
<path d="M219.318 267.829C218.649 267.829 218 267.536 217.556 267.004C216.951 266.281 216.855 265.26 217.311 264.437C217.374 264.324 223.59 252.976 227.268 237.381C230.689 222.873 242.995 221.68 249.023 223.079C249.849 223.27 250.501 223.901 250.719 224.719C254.024 237.13 249.675 248.545 238.14 257.728C229.69 264.458 220.432 267.583 220.042 267.713C219.804 267.791 219.56 267.829 219.318 267.829ZM244.837 227.215C240.744 227.215 234.008 228.768 231.73 238.428C229.448 248.104 226.285 256.097 224.046 261.079C227.256 259.542 231.448 257.22 235.371 254.081C244.998 246.378 248.782 237.379 246.632 227.314C246.129 227.259 245.521 227.215 244.837 227.215Z" fill="#1E1D2B"/>
<path d="M288.588 237.798C288.588 237.798 257.752 247.816 248.771 225.171C248.771 225.171 250.782 222.815 254.08 221.432C257.554 219.98 262.445 219.599 267.899 224.215C278.524 233.199 288.588 237.798 288.588 237.798Z" fill="#F21449"/>
<g opacity="0.3">
<path d="M288.588 237.797C288.588 237.797 257.752 247.816 248.771 225.171C248.771 225.171 250.782 222.815 254.08 221.432C264.805 238.337 288.588 237.797 288.588 237.797Z" fill="#1E1D2B"/>
</g>
<g opacity="0.6">
<path d="M252.556 224.472C256.03 223.02 260.92 222.64 266.375 227.255C273.143 232.978 279.679 236.919 283.535 239.028C286.619 238.438 288.588 237.799 288.588 237.799C288.588 237.799 278.525 233.2 267.898 224.215C262.444 219.601 257.553 219.981 254.079 221.432C250.781 222.815 248.77 225.171 248.77 225.171C248.933 225.584 249.106 225.982 249.283 226.373C250.143 225.723 251.246 225.022 252.556 224.472Z" fill="white"/>
</g>
<path d="M273.656 242.291C273.097 242.291 272.533 242.281 271.965 242.261C259.431 241.8 250.673 236.183 246.64 226.014C246.328 225.228 246.477 224.333 247.026 223.688C250.479 219.647 259.596 214.192 269.379 222.465C279.647 231.15 289.446 235.668 289.544 235.713C290.402 236.104 290.932 236.982 290.878 237.923C290.824 238.864 290.198 239.675 289.301 239.967C288.991 240.069 282.05 242.291 273.656 242.291ZM251.487 225.69C255.042 233.254 261.941 237.288 272.02 237.687C275.754 237.836 279.31 237.44 282.106 236.957C278.098 234.653 272.363 230.987 266.414 225.956C259.431 220.05 253.744 223.691 251.487 225.69Z" fill="#1E1D2B"/>
<path d="M248.506 236.549C254.729 236.549 259.773 231.515 259.773 225.305C259.773 219.095 254.729 214.06 248.506 214.06C242.283 214.06 237.238 219.095 237.238 225.305C237.238 231.515 242.283 236.549 248.506 236.549Z" fill="#F21449"/>
<g opacity="0.3">
<path d="M250.79 231.228C244.567 231.228 239.522 226.193 239.522 219.983C239.522 219.431 239.576 218.894 239.653 218.362C238.145 220.274 237.238 222.682 237.238 225.305C237.238 231.515 242.283 236.549 248.506 236.549C254.175 236.549 258.854 232.365 259.644 226.926C257.58 229.542 254.386 231.228 250.79 231.228Z" fill="#1E1D2B"/>
</g>
<g opacity="0.6">
<path d="M248.506 214.06C244.616 214.06 241.186 216.028 239.161 219.02C240.959 217.809 243.126 217.101 245.458 217.101C251.681 217.101 256.725 222.135 256.725 228.345C256.725 230.673 256.017 232.835 254.802 234.63C257.801 232.61 259.772 229.188 259.772 225.305C259.773 219.095 254.729 214.06 248.506 214.06Z" fill="white"/>
</g>
<path d="M241.272 235.208C240.683 235.208 240.151 234.801 240.019 234.203C239.866 233.512 240.304 232.829 240.994 232.676C241.626 232.535 256.211 229.134 253.976 216.512C253.853 215.815 254.319 215.15 255.017 215.027C255.714 214.906 256.381 215.369 256.505 216.066C259.169 231.116 241.726 235.138 241.549 235.177C241.456 235.198 241.363 235.208 241.272 235.208Z" fill="#1E1D2B"/>
<path d="M251.711 229.518C251.615 229.518 251.518 229.507 251.42 229.485C250.936 229.372 239.537 226.653 237.886 219.334C237.731 218.644 238.165 217.959 238.856 217.804C239.549 217.648 240.235 218.082 240.39 218.772C241.687 224.523 251.899 226.966 252.001 226.99C252.692 227.15 253.121 227.839 252.96 228.527C252.821 229.118 252.294 229.518 251.711 229.518Z" fill="#1E1D2B"/>
<path d="M248.506 238.836C241.029 238.836 234.946 232.766 234.946 225.305C234.946 217.843 241.029 211.773 248.506 211.773C255.982 211.773 262.065 217.843 262.065 225.305C262.065 232.766 255.982 238.836 248.506 238.836ZM248.506 216.348C243.556 216.348 239.529 220.366 239.529 225.306C239.529 230.245 243.556 234.264 248.506 234.264C253.455 234.264 257.483 230.245 257.483 225.306C257.483 220.366 253.455 216.348 248.506 216.348Z" fill="#1E1D2B"/>
<path d="M186.364 72.962L227.73 74.0249L283.711 75.4567C288.798 57.9693 279.743 15.4474 264.407 5.06503C259.777 1.93381 254.58 1.73275 249.022 6.03065C235.032 16.8535 219.972 52.6724 186.364 72.962Z" fill="#F9A429"/>
<g opacity="0.5">
<path d="M186.364 74.8829L193.795 75.0763C223.792 54.4064 237.994 21.7572 251.237 11.5131C256.795 7.21395 261.993 7.4163 266.622 10.5475C269.039 12.1842 271.304 14.6277 273.385 17.6386C270.739 12.9731 267.722 9.231 264.407 6.98728C259.777 3.85605 254.58 3.65499 249.022 7.9529C235.032 18.7745 219.972 54.5934 186.364 74.8829Z" fill="white"/>
</g>
<path d="M283.715 78.1973C283.462 78.1973 283.204 78.1615 282.949 78.0885C281.492 77.6671 280.655 76.147 281.078 74.6947C286.034 57.6465 276.499 16.5795 262.875 7.34205C258.852 4.61423 254.984 4.88445 250.704 8.19497C245.934 11.8858 240.745 19.0678 234.738 27.3844C223.564 42.851 209.66 62.0994 187.784 75.3082C186.487 76.0906 184.8 75.677 184.015 74.3822C183.23 73.0875 183.645 71.4047 184.943 70.6209C205.861 57.991 219.404 39.2447 230.285 24.1815C236.541 15.5204 241.944 8.04129 247.34 3.86632C255.13 -2.16048 261.765 -0.0332973 265.96 2.81106C276.674 10.0763 282.411 29.1005 284.381 36.942C288.208 52.1819 288.961 67.2336 286.348 76.2213C286 77.4187 284.904 78.1973 283.715 78.1973Z" fill="#1E1D2B"/>
<path d="M238.348 43.3851L280.402 66.1015C280.297 65.497 279.622 56.3326 277.509 46.3895C276.585 42.0199 275.38 37.5043 273.824 33.4984C269.85 23.2659 265.562 16.8075 262.557 14.3793C261.705 13.6942 260.959 13.3305 260.351 13.2959C255.546 13.0141 250.935 24.9909 238.348 43.3851Z" fill="#FFF3E9"/>
<g opacity="0.3">
<path d="M238.348 43.385L280.402 66.1014C280.297 65.497 279.622 56.3325 277.509 46.3895C275.704 46.2102 273.423 45.6262 270.93 44.1534C267.304 42.0173 260.24 36.6513 258.564 29.7767C257.675 26.1371 259.76 19.7132 262.557 14.378C261.705 13.6928 260.959 13.3291 260.351 13.2946C255.546 13.0141 250.935 24.9909 238.348 43.385Z" fill="#1E1D2B"/>
</g>
<path d="M280.427 68.3516C280.052 68.3516 279.675 68.2581 279.332 68.0737L237.28 45.356C236.721 45.0537 236.317 44.5287 236.167 43.9127C236.016 43.2967 236.136 42.6448 236.494 42.121C240.842 35.7664 244.268 30.1225 247.021 25.5889C252.999 15.7406 255.987 10.8011 260.482 11.0585C265.798 11.3697 272.121 22.9047 275.919 32.6876C278.982 40.5765 281.207 51.4161 282.532 64.904C282.575 65.3407 282.602 65.6327 282.619 65.7557C282.765 66.6022 282.412 67.4397 281.713 67.9405C281.332 68.2145 280.88 68.3516 280.427 68.3516ZM241.596 42.591L277.719 62.1058C276.092 47.7623 273.598 39.1179 271.73 34.3077C266.452 20.7122 261.415 15.7854 260.179 15.5293C260.165 15.528 260.151 15.528 260.135 15.528C258.38 15.528 254.727 21.5446 250.862 27.9121C248.381 31.9986 245.358 36.9792 241.596 42.591Z" fill="#1E1D2B"/>
<path d="M238.348 43.3851L254.179 51.9373C257.624 49.1096 261.344 45.4059 261.679 42.3823C262.494 34.9826 253.231 37.7604 252.984 37.8026C252.738 37.8449 257.814 31.7195 253.064 29.3887C251.16 28.4525 248.684 29.4348 246.323 31.0356C244.069 34.7009 241.451 38.8464 238.348 43.3851Z" fill="#FFF3E9"/>
<path d="M254.179 53.5381C253.917 53.5381 253.656 53.4741 253.416 53.3447L237.586 44.7925C237.187 44.5773 236.898 44.2021 236.79 43.7628C236.682 43.3223 236.768 42.8574 237.024 42.4834C240.412 37.5285 243.173 33.1 244.955 30.1993C245.073 30.0059 245.232 29.8394 245.421 29.7114C248.747 27.4561 251.557 26.8645 253.772 27.953C255.564 28.8316 256.254 30.134 256.519 31.0727C256.961 32.6492 256.55 34.3141 255.963 35.6882C257.911 35.564 260.034 35.8304 261.539 37.1303C262.511 37.9704 263.6 39.593 263.274 42.5564C262.952 45.4674 260.234 49.0392 255.198 53.1731C254.904 53.4152 254.542 53.5381 254.179 53.5381ZM240.67 42.819L253.983 50.0125C257.672 46.8556 259.881 44.0394 260.084 42.2068C260.224 40.9364 260.005 40.0438 259.438 39.552C258.471 38.717 256.193 38.6312 253.491 39.3266C253.366 39.3586 253.285 39.3753 253.257 39.3804C252.635 39.488 251.992 39.2165 251.641 38.6888C251.048 37.8013 251.551 37.0124 251.851 36.5412C253.173 34.4678 253.704 32.9194 253.428 31.9384C253.348 31.6465 253.146 31.2149 252.356 30.8268C251.325 30.3197 249.612 30.8012 247.505 32.1741C245.886 34.8033 243.532 38.5697 240.67 42.819Z" fill="#1E1D2B"/>
<path d="M134.088 122.065L151 100.982L188.386 54.3821C164.32 30.4759 132.198 23.1108 122.968 28.9942C121.679 29.8138 120.587 31.2687 119.732 33.3331C114.854 45.0473 117.439 76.3416 134.088 122.065Z" fill="#F9A429"/>
<g opacity="0.5">
<path d="M117.796 44.0881C118.159 42.098 118.638 40.3921 119.231 38.9732C120.085 36.9087 121.177 35.4526 122.466 34.6343C131.521 28.8623 162.599 35.8407 186.487 58.6685L188.385 56.3044C164.32 32.397 132.198 25.0319 122.968 30.9152C121.679 31.7349 120.587 33.1897 119.732 35.2541C118.799 37.494 118.138 40.4511 117.796 44.0881Z" fill="white"/>
</g>
<path d="M134.088 122.065L151 100.982C152.077 91.6648 152.308 77.8656 147.055 65.8095C139.149 47.6765 129.877 28.7727 119.734 33.3318C114.854 45.0473 117.439 76.3416 134.088 122.065Z" fill="#FF9343"/>
<path d="M134.086 124.803C132.965 124.803 131.912 124.112 131.507 122.999C120.052 91.5393 116.333 70.0997 115.23 57.6529C114.199 46.0027 114.446 31.1713 121.49 26.6839C127.069 23.1301 138.097 23.5924 150.986 27.921C165.258 32.7133 179.226 41.4205 190.32 52.4393C191.394 53.5061 191.398 55.2401 190.329 56.3121C189.26 57.3852 187.522 57.3891 186.448 56.321C163.195 33.223 132.322 26.283 124.445 31.3007C121.807 32.9809 119.245 40.7635 120.697 57.1701C121.772 69.2903 125.412 90.2253 136.666 121.128C137.184 122.549 136.449 124.121 135.024 124.637C134.714 124.751 134.398 124.803 134.086 124.803Z" fill="#1E1D2B"/>
<path d="M324.7 141.634C324.737 143.588 324.642 145.533 324.413 147.462C321.562 172.206 297.498 194.304 253.847 208.593L226.956 214.993C182.508 222.667 144.749 218.545 130.154 190.279C127.45 185.042 125.082 178.624 123.31 171.405C116.578 144.155 118.185 105.537 141.124 76.4557C165.406 45.6685 207.051 40.2257 216.095 38.9719C270.54 31.407 290.726 66.7828 310.213 109.878C310.217 109.893 311.587 111.082 313.481 113.302C314.276 114.228 315.16 115.344 316.075 116.626C320.004 122.124 324.504 130.757 324.7 141.634Z" fill="#F9A429"/>
<path d="M324.7 141.634C325.196 168.712 300.895 193.191 253.847 208.593L226.956 214.993C182.509 222.666 144.749 218.545 130.154 190.279C127.45 185.042 125.083 178.624 123.31 171.405C128.948 166.53 140.422 159.368 154.139 155.526C184.505 147.023 187.075 159.899 204.992 155.101C221.047 150.803 223.299 136.663 241.977 131.472C256.841 127.34 262.942 135.497 272.206 135.521C291.293 135.572 289.376 116.502 313.481 113.3C317.674 118.226 324.46 128.218 324.7 141.634Z" fill="#FFF3E9"/>
<g opacity="0.3">
<path d="M123.309 171.408C125.081 178.623 127.454 185.042 130.155 190.277C144.753 218.544 182.508 222.669 226.956 214.991L253.848 208.592C292.796 195.84 316.152 176.875 322.755 155.362C311.931 172.764 289.614 187.927 256.481 198.777L228.449 205.445C182.105 213.447 142.742 209.152 127.523 179.682C126.173 177.07 124.903 174.173 123.748 171.029C123.596 171.157 123.451 171.285 123.309 171.408Z" fill="#1E1D2B"/>
</g>
<path d="M257.281 152.467C254.29 159.306 259.801 173.258 248.868 174.374C237.565 175.528 238.143 160.623 231.622 155.385" fill="#1E1D2B"/>
<path d="M262.404 146.836C262.404 146.836 265.285 151.613 261.193 155.078C256.099 159.391 249.328 155.548 247.534 153.672C247.117 153.235 246.15 153.48 246.084 154.08C245.726 157.346 242.791 164.433 234.859 163.902C231.742 163.693 228.148 161.043 228.503 157.214L238.328 136.515L262.404 146.836Z" fill="#FFF3E9"/>
<g opacity="0.3">
<path d="M229.416 160.791C230.638 162.615 232.852 163.766 234.86 163.897C242.787 164.43 245.726 157.347 246.084 154.074C246.149 153.476 247.113 153.233 247.537 153.672C249.327 155.549 256.099 159.39 261.19 155.079C263.047 153.512 263.47 151.673 263.377 150.132C256.76 153.689 249.432 150.956 247.81 146.55C247.526 145.778 240.092 144.933 240.358 145.711C242.944 153.324 240.273 161.525 229.447 160.795C229.439 160.796 229.424 160.79 229.416 160.791Z" fill="#1E1D2B"/>
</g>
<path d="M229.846 157.336C230.005 158.197 230.349 158.887 230.83 159.461C231.328 160.025 231.964 160.488 232.669 160.805C233.37 161.125 234.148 161.309 234.811 161.309C234.897 161.306 234.968 161.312 235.064 161.307L235.388 161.279L236.029 161.23C236.442 161.169 236.847 161.105 237.233 161.011C237.608 160.891 237.996 160.819 238.338 160.646C238.707 160.535 239.024 160.32 239.371 160.16C240.02 159.756 240.649 159.276 241.205 158.665C241.737 158.031 242.211 157.306 242.583 156.516C242.939 155.727 243.207 154.853 243.32 154.082L243.359 153.801L243.383 153.644C243.398 153.546 243.417 153.449 243.44 153.353C243.484 153.16 243.552 152.978 243.63 152.799C243.784 152.445 244.002 152.131 244.224 151.893C244.681 151.4 245.166 151.129 245.634 150.951C246.103 150.778 246.569 150.698 247.082 150.711C247.591 150.728 248.163 150.84 248.755 151.171C248.905 151.26 249.043 151.344 249.186 151.46C249.256 151.517 249.326 151.577 249.392 151.637L249.537 151.775L249.622 151.846C249.714 151.937 249.875 152.054 250.026 152.171C250.663 152.646 251.482 153.083 252.282 153.417C253.908 154.078 255.582 154.398 257.005 154.152C257.733 154.059 258.399 153.792 259.061 153.407C259.768 153.025 260.289 152.583 260.671 152.066C261.078 151.563 261.322 150.919 261.418 150.117C261.467 149.721 261.476 149.286 261.432 148.841C261.421 148.616 261.39 148.389 261.354 148.163C261.325 147.949 261.266 147.68 261.248 147.529L261.198 147.119C261.109 146.393 261.628 145.732 262.355 145.643C262.833 145.586 263.282 145.789 263.56 146.14C263.816 146.464 263.986 146.694 264.172 146.983C264.344 147.264 264.507 147.549 264.652 147.85C264.927 148.453 265.176 149.094 265.299 149.792C265.444 150.481 265.485 151.225 265.425 151.976C265.375 152.35 265.314 152.732 265.226 153.107C265.109 153.472 265.014 153.859 264.853 154.211C264.219 155.633 263.196 156.852 262.07 157.671L261.649 158.004L261.185 158.289C260.869 158.471 260.56 158.67 260.23 158.828C259.552 159.114 258.867 159.397 258.147 159.545C256.725 159.89 255.249 159.931 253.889 159.73C252.522 159.522 251.229 159.138 250.026 158.603C248.815 158.067 247.706 157.414 246.61 156.546C246.334 156.319 246.062 156.099 245.768 155.8L245.554 155.589C245.51 155.544 245.592 155.633 245.622 155.658C245.663 155.697 245.707 155.734 245.752 155.768C245.845 155.836 245.92 155.894 246.013 155.944C246.365 156.14 246.664 156.187 246.899 156.194C247.139 156.196 247.326 156.16 247.541 156.085C247.751 156.004 247.996 155.877 248.267 155.587C248.393 155.446 248.534 155.25 248.634 155.021C248.688 154.904 248.722 154.784 248.757 154.659C248.773 154.597 248.785 154.534 248.794 154.47L248.805 154.379L248.799 154.412L248.717 154.944C248.477 156.334 248.055 157.561 247.497 158.76C246.95 159.957 246.264 161.109 245.408 162.173C244.538 163.23 243.49 164.194 242.282 164.956C241.057 165.701 239.685 166.197 238.301 166.438C237.955 166.512 237.61 166.509 237.266 166.545C236.924 166.561 236.575 166.616 236.24 166.591L235.235 166.527L234.736 166.49C234.56 166.471 234.357 166.434 234.171 166.404C233.785 166.352 233.433 166.235 233.069 166.144C232.723 166.015 232.369 165.905 232.044 165.742C231.377 165.452 230.768 165.067 230.189 164.649C229.061 163.774 228.1 162.642 227.517 161.296C226.946 159.947 226.807 158.412 227.16 157.086C227.354 156.36 228.102 155.927 228.83 156.121C229.356 156.26 229.727 156.688 229.82 157.189L229.846 157.336Z" fill="#1E1D2B"/>
<path d="M255.063 133.573C256.149 137.465 252.761 142.113 249.996 145.109C248.081 147.184 245.147 148 242.433 147.211C238.514 146.071 233.206 143.84 232.12 139.948C230.356 133.626 253.299 127.251 255.063 133.573Z" fill="#1E1D2B"/>
<g opacity="0.35">
<path d="M249.24 133.717C249.441 134.436 248.009 135.52 246.88 136.246C246.097 136.749 245.012 137.05 244.082 137.023C242.738 136.985 240.952 136.795 240.752 136.076C240.426 134.905 248.914 132.546 249.24 133.717Z" fill="white"/>
</g>
<path d="M248.605 155.04L243.562 153.117C243.562 153.117 243.546 153.152 243.525 153.225C243.534 153.194 244.397 150.007 241.542 142.091C241.038 140.691 241.766 139.148 243.168 138.645C244.571 138.139 246.117 138.868 246.622 140.267C250.148 150.048 248.892 154.289 248.605 155.04Z" fill="#1E1D2B"/>
<path d="M131.58 94.1339C125.027 109.839 122.236 126.788 122.622 143.606C122.787 152.014 123.681 160.424 125.494 168.62C126.816 176.917 130.146 184.869 134.184 191.856C138.396 198.781 144.651 204.315 151.973 207.998C159.291 211.723 167.487 213.806 175.807 214.892C184.151 215.983 192.656 216.003 201.153 215.692C209.661 215.374 218.18 214.62 226.766 213.899C227.381 213.847 227.923 214.301 227.975 214.916C228.021 215.464 227.661 215.955 227.146 216.09C218.747 218.296 210.142 219.735 201.44 220.462C197.088 220.82 192.711 220.982 188.324 220.911C183.938 220.845 179.541 220.587 175.156 220.059C166.408 218.996 157.608 216.886 149.523 212.802C145.49 210.773 141.664 208.24 138.262 205.192C134.846 202.162 131.899 198.594 129.516 194.708C127.092 190.8 125.42 186.681 123.965 182.491C123.256 180.394 122.572 178.294 121.959 176.177C121.884 175.626 121.401 175.19 121.308 174.642L120.886 173.042C120.599 171.977 120.346 170.905 120.101 169.83C118.135 161.242 117.1 152.46 117.062 143.669C117.081 139.275 117.275 134.877 117.792 130.514C118.301 126.151 119.042 121.815 120.028 117.538C122.04 108.999 125.083 100.69 129.288 93.0326C129.625 92.4178 130.398 92.1924 131.014 92.5293C131.588 92.843 131.823 93.5346 131.58 94.1237V94.1339Z" fill="#1E1D2B"/>
<path d="M253.454 207.388C258.83 205.152 264.171 202.911 269.407 200.482C274.638 198.043 279.776 195.455 284.748 192.607C289.719 189.765 294.519 186.643 298.966 183.113C303.414 179.591 307.531 175.679 311.038 171.317C314.547 166.965 317.422 162.147 319.329 156.994C321.235 151.847 322.126 146.361 321.892 140.908C321.702 135.476 320.268 130.113 317.9 125.171C316.715 122.698 315.292 120.33 313.683 118.094C312.877 116.977 312.021 115.896 311.123 114.86C310.676 114.34 310.213 113.836 309.744 113.345L309.036 112.625L308.681 112.281L308.505 112.116L308.416 112.034L308.371 111.993C308.476 112.089 308.107 111.775 307.889 111.432C307.664 111.098 307.514 110.707 307.449 110.354L307.644 111.002C302 98.1591 295.963 85.5087 288.197 74.0762C284.309 68.3798 279.962 63.0228 275.015 58.333C270.077 53.6445 264.522 49.645 258.436 46.7135C252.361 43.768 245.783 41.9021 239.041 41.1145C232.31 40.3102 225.393 40.5561 218.541 41.3616C204.7 42.8011 191.019 45.7453 177.919 50.6682L177.915 50.6695C177.217 50.932 176.438 50.5798 176.175 49.8832C175.93 49.2326 176.227 48.509 176.835 48.2029C189.642 41.7996 203.706 37.9691 217.897 36.0302C221.484 35.591 225.099 35.3156 228.73 35.2362C232.359 35.1709 236.04 35.281 239.68 35.7216C246.972 36.5502 254.182 38.5672 260.828 41.7689C267.487 44.9513 273.536 49.2928 278.841 54.3015C284.158 59.314 288.761 64.9719 292.84 70.9091C301.009 82.8154 307.103 95.7988 312.787 108.755L312.982 109.403C312.933 109.065 312.8 108.69 312.592 108.371C312.392 108.045 312.038 107.746 312.161 107.858L312.216 107.909L312.328 108.012L312.55 108.221L312.98 108.637C313.262 108.915 313.535 109.195 313.805 109.478C314.343 110.042 314.865 110.615 315.368 111.2C316.378 112.369 317.333 113.577 318.231 114.827C320.025 117.327 321.613 119.976 322.943 122.763C325.604 128.328 327.244 134.463 327.453 140.691C327.702 146.887 326.616 153.121 324.436 158.888C322.252 164.663 319.018 169.957 315.177 174.651C311.334 179.357 306.903 183.494 302.18 187.178C297.453 190.862 292.427 194.109 287.226 196.987C282.017 199.853 276.626 202.346 271.106 204.461C265.592 206.586 259.968 208.392 254.25 209.793C253.567 209.961 252.877 209.544 252.709 208.862C252.553 208.247 252.883 207.625 253.454 207.388Z" fill="#1E1D2B"/>
<path d="M191.267 108.735C189.55 105.362 197.695 90.3022 205.505 91.2294C213.316 92.1566 214.466 100.161 210.897 103.607C205.713 108.614 192.984 112.108 191.267 108.735Z" fill="#FFF3E9"/>
<path d="M269.51 88.7193C269.136 84.9541 255.243 76.5312 249.67 81.4605C244.096 86.3885 247.243 93.7702 251.742 94.7935C258.276 96.2803 269.882 92.4844 269.51 88.7193Z" fill="#FFF3E9"/>
<path d="M131.631 81.7883C132.548 83.9347 133.569 85.8736 134.701 87.5167C149.73 65.9593 163.239 67.0402 160.874 56.832C158.308 45.7812 137.868 34.6842 126.766 36.6116C126.077 36.7307 125.588 38.1266 125.302 40.4114C124.286 48.76 126.113 68.9561 131.631 81.7883Z" fill="#FFF3E9"/>
<g opacity="0.3">
<path d="M131.631 81.7883C132.548 83.9347 133.569 85.8736 134.701 87.5167C149.73 65.9593 163.239 67.0402 160.874 56.832C158.308 45.7812 137.868 34.6842 126.766 36.6116C126.077 36.7307 125.588 38.1266 125.302 40.4114C131.055 41.1503 140.639 43.768 143.348 52.9311C146.909 64.9886 136.004 70.8386 131.631 81.7883Z" fill="#1E1D2B"/>
</g>
<path d="M146.832 65.132C147.568 68.1377 152.257 66.1924 152.471 69.2891C158.562 64.7197 162.196 62.54 160.876 56.832C160.312 54.4077 158.885 51.9822 156.891 49.6872C153.919 49.0021 150.592 48.9291 148.198 50.8449C145.486 53.0208 146.547 55.098 147.894 56.2237C149.881 57.8924 153.314 58.2267 153.314 58.2267C153.314 58.2267 145.939 61.4719 146.832 65.132Z" fill="#FFF3E9"/>
<path d="M134.701 89.7605C134.698 89.7605 134.696 89.7605 134.693 89.7605C133.955 89.7579 133.266 89.3942 132.849 88.7872C123.417 75.0687 121.249 42.8946 123.88 36.6616C124.567 35.0339 125.62 34.5344 126.384 34.4025C138.37 32.3214 160.135 43.718 163.061 56.3274C164.619 63.0394 160.424 66.163 155.113 70.1176C150.247 73.7406 143.583 78.7032 136.545 88.7987C136.124 89.4019 135.435 89.7605 134.701 89.7605ZM127.881 38.7158C126.267 43.3556 127.631 69.6502 134.879 83.4545C141.571 74.6089 147.779 69.9857 152.426 66.5254C157.979 62.3901 159.541 61.0339 158.684 57.3392C156.431 47.6253 137.793 37.6336 127.881 38.7158ZM126.768 36.6103H126.774H126.768Z" fill="#1E1D2B"/>
<path d="M148.39 64.7529C148.485 65.0129 148.484 65.0372 148.725 65.1947C148.973 65.3433 149.48 65.4778 150.089 65.6084C150.701 65.7595 151.444 65.8607 152.357 66.3755C152.579 66.5049 152.815 66.7059 153.027 66.8852C153.226 67.1119 153.432 67.3552 153.577 67.6126C153.699 67.8726 153.838 68.1608 153.898 68.4195C153.949 68.673 153.992 68.9292 154.023 69.184L151.534 68.0493C153.174 66.8161 154.83 65.6289 156.32 64.3892C157.049 63.7655 157.733 63.1239 158.285 62.4554C158.838 61.7843 159.212 61.0889 159.409 60.35C159.796 58.8939 159.473 57.0536 158.766 55.4028C158.055 53.7315 156.968 52.1576 155.713 50.7092L156.538 51.2048C154.922 50.9281 153.309 50.809 151.879 51.0677C151.17 51.1996 150.502 51.4007 149.924 51.7298C149.362 52.0385 148.784 52.5136 148.459 52.9414C148.149 53.3921 148.069 53.6303 148.162 54.0069C148.262 54.3923 148.626 54.911 149.147 55.3259C150.21 56.1955 151.827 56.8627 153.385 57.457L153.387 57.4583L153.539 57.5236C153.943 57.6977 154.13 58.1677 153.955 58.5711C153.884 58.7325 153.767 58.8593 153.625 58.9425C152.946 59.3395 152.252 59.8083 151.61 60.286C150.963 60.7649 150.35 61.2759 149.813 61.8189C149.283 62.3594 148.815 62.9446 148.565 63.4966C148.438 63.7694 148.372 64.0281 148.355 64.2342C148.344 64.4379 148.355 64.589 148.39 64.7529ZM145.273 65.5111C145.111 64.8554 145.13 64.1433 145.309 63.5337C145.482 62.919 145.775 62.4042 146.088 61.9623C146.726 61.08 147.474 60.4653 148.225 59.921C148.982 59.3844 149.762 58.94 150.553 58.543C151.352 58.1472 152.145 57.8181 152.999 57.5146L153.237 58.9989H153.232C152.236 59.0847 151.303 59.0181 150.332 58.8324C149.371 58.6416 148.402 58.3112 147.456 57.7451C146.532 57.1496 145.614 56.3082 145.141 55.0007C144.907 54.3552 144.83 53.5919 144.956 52.8799C145.082 52.164 145.386 51.5493 145.735 51.0319C146.46 50.0266 147.28 49.3427 148.253 48.7651C149.223 48.217 150.278 47.8776 151.316 47.7111C152.358 47.5421 153.385 47.5331 154.372 47.6343C155.36 47.7316 156.318 47.9071 157.239 48.1734C157.568 48.2452 157.849 48.4206 158.054 48.6575L158.064 48.6703C159.47 50.2981 160.742 52.1076 161.631 54.1887C162.079 55.2222 162.404 56.3466 162.576 57.4954C162.739 58.6544 162.745 59.9171 162.414 61.1504C162.091 62.3824 161.447 63.5055 160.705 64.4046C159.961 65.31 159.146 66.0592 158.328 66.7597C156.684 68.1275 155.02 69.3121 153.404 70.5313H153.403C152.75 71.0307 151.815 70.9078 151.315 70.2572C151.229 70.1458 151.162 70.0267 151.112 69.9025L150.914 69.3979C150.893 69.3428 150.881 69.2877 150.878 69.2301C150.868 69.1827 150.841 69.193 150.849 69.161C150.837 69.1481 150.822 69.1597 150.83 69.1379C150.787 69.1315 150.791 69.1123 150.74 69.0854C150.55 68.9689 150.028 68.8293 149.413 68.7063C148.793 68.5654 148.041 68.4438 147.176 67.9827C146.959 67.8444 146.742 67.7266 146.537 67.5499C146.337 67.3591 146.121 67.1811 145.962 66.9544C145.811 66.7264 145.636 66.4869 145.535 66.2474C145.438 66.0041 145.351 65.7582 145.273 65.5111Z" fill="#1E1D2B"/>
<path d="M239.685 169.528C247.288 174.43 243.191 190.613 254.917 187.661C259.49 186.509 261.534 181.934 261.605 177.086C261.684 171.802 259.431 166.181 255.579 164.276C254.482 163.735 252.381 163.365 249.511 165.175C244.122 164.482 241.601 166.484 240.489 167.999C239.869 168.839 239.685 169.528 239.685 169.528Z" fill="#FF1D74"/>
<g opacity="0.3">
<path d="M239.685 169.528C247.288 174.43 243.191 190.613 254.917 187.661C259.49 186.509 261.534 181.934 261.605 177.086C261.605 177.086 258.926 184.182 254.382 183.851C248.752 183.445 248.839 179.746 246.06 173.363C244.944 170.814 242.583 168.745 240.489 168C239.869 168.839 239.685 169.528 239.685 169.528Z" fill="#1E1D2B"/>
</g>
<path d="M252.314 189.939C246.176 189.939 244.484 184.133 243.202 179.739C242.203 176.314 241.17 172.773 238.642 171.144C237.94 170.692 237.61 169.839 237.826 169.034C238.46 166.666 241.635 162.503 249.079 163.199C252.733 161.16 255.416 162.054 256.433 162.557C261.821 165.221 264.056 172.947 263.423 178.864C262.818 184.504 259.891 188.389 255.388 189.523C254.256 189.808 253.236 189.939 252.314 189.939ZM242.124 169.002C244.815 171.515 245.915 175.284 246.899 178.664C248.717 184.898 249.767 186.974 254.447 185.797C258.494 184.778 259.395 180.324 259.595 178.455C260.158 173.193 257.973 167.606 254.725 166C254.234 165.758 252.845 165.35 250.536 166.804C250.157 167.042 249.708 167.141 249.263 167.084C244.928 166.525 242.969 167.928 242.124 169.002Z" fill="#1E1D2B"/>
<path d="M253.769 177.2C253.403 174.786 252.707 172.413 251.559 170.438C250.989 169.456 250.284 168.599 249.496 167.994C249.1 167.694 248.687 167.454 248.267 167.279C247.841 167.114 247.407 167.013 246.973 166.956C245.849 166.809 245.057 165.782 245.205 164.66C245.353 163.538 246.382 162.748 247.506 162.895C247.704 162.921 247.892 162.975 248.065 163.052L248.168 163.098C248.892 163.419 249.572 163.824 250.179 164.304C250.778 164.795 251.294 165.352 251.728 165.939C252.588 167.127 253.111 168.415 253.437 169.688C253.767 170.963 253.914 172.235 253.955 173.49C253.993 174.743 253.926 175.984 253.769 177.2Z" fill="#1E1D2B"/>
<path d="M185.819 148.058L185.741 147.461L185.694 147.018C185.664 146.731 185.654 146.454 185.64 146.178C185.61 145.626 185.618 145.081 185.626 144.537C185.654 143.45 185.741 142.365 185.891 141.283C186.047 140.202 186.243 139.116 186.533 138.041C186.808 136.962 187.152 135.884 187.597 134.821C188.462 132.69 189.694 130.57 191.561 128.689C192.011 128.224 192.588 127.764 193.038 127.432C193.509 127.066 194.019 126.734 194.525 126.401C195.565 125.766 196.675 125.202 197.854 124.762C200.205 123.872 202.868 123.51 205.447 123.858C208.027 124.187 210.462 125.194 212.489 126.586C214.513 127.993 216.148 129.779 217.371 131.719C218.594 133.664 219.453 135.749 219.913 137.898C220.103 138.78 219.54 139.65 218.654 139.84C218.042 139.97 217.438 139.742 217.059 139.296L217.018 139.248C215.728 137.723 214.527 136.259 213.198 135.022C211.9 133.761 210.521 132.718 209.105 131.93C206.252 130.352 203.203 130.159 200.286 131.276C199.556 131.551 198.827 131.887 198.12 132.305C197.421 132.716 196.663 133.235 196.169 133.641C195.045 134.545 194.053 135.931 193.164 137.464C192.733 138.24 192.317 139.056 191.925 139.9C191.548 140.749 191.171 141.62 190.83 142.514C190.487 143.407 190.16 144.318 189.846 145.239L189.396 146.621L189.187 147.301L189.088 147.62C189.055 147.713 189.033 147.826 189.003 147.786C189.078 148.663 188.426 149.436 187.547 149.51C186.668 149.584 185.894 148.935 185.819 148.058Z" fill="#1E1D2B"/>
<path d="M287.476 119.614C286.079 118.385 284.803 117.194 283.469 116.146C282.147 115.093 280.797 114.184 279.426 113.46C278.048 112.751 276.653 112.216 275.219 111.968C274.513 111.851 273.769 111.749 273.049 111.728C272.328 111.678 271.647 111.728 270.996 111.813C269.697 111.993 268.576 112.428 267.587 113.142C266.607 113.863 265.75 114.892 265.095 116.156C264.448 117.423 263.947 118.869 263.612 120.409C263.268 121.954 263.105 123.574 263.048 125.284L263.044 125.387C263.015 126.273 262.271 126.969 261.383 126.939C260.799 126.92 260.296 126.59 260.03 126.115C259.01 124.282 258.519 122.202 258.389 120.088C258.286 117.97 258.591 115.785 259.393 113.679C260.211 111.588 261.534 109.54 263.42 107.955C265.301 106.363 267.709 105.379 270.048 105.067C271.217 104.921 272.382 104.88 273.493 104.984C274.606 105.081 275.688 105.244 276.768 105.557C278.913 106.161 280.924 107.133 282.645 108.389C286.115 110.894 288.486 114.306 290.007 117.778C290.361 118.587 289.992 119.529 289.181 119.884C288.591 120.14 287.933 120.017 287.48 119.62L287.476 119.614Z" fill="#1E1D2B"/>
</g>
<defs>
<clipPath id="clip0_54_4586">
<rect width="383" height="342" fill="white"/>
</clipPath>
</defs>
</svg>
