<svg width="1440" height="843" viewBox="0 0 1440 843" fill="none" xmlns="http://www.w3.org/2000/svg">
<path d="M-66.2 -9.47549L-85 -57V-280H1607V843L1588.2 814.198C1569.4 785.395 1531.8 727.791 1494.2 664.667C1456.6 601.543 1419 532.9 1381.4 541.864C1343.8 550.828 1306.2 637.4 1268.6 653.308C1231 669.216 1193.4 614.461 1155.8 604.918C1118.2 595.375 1080.6 631.045 1043 623.304C1005.4 615.562 967.8 564.411 930.2 498.827C892.6 433.244 855 353.229 817.4 303.352C779.8 253.476 742.2 233.737 704.6 261.392C667 289.048 629.4 364.097 591.8 404.987C554.2 445.877 516.6 452.609 479 423.313C441.4 394.017 403.8 328.693 366.2 282.124C328.6 235.555 291 207.741 253.4 209.499C215.8 211.257 178.2 242.589 140.6 250.625C103 258.662 65.4 243.405 27.8 188.251C-9.8 133.098 -47.4 38.049 -66.2 -9.47549Z" fill="white"/>
</svg>
