<svg width="383" height="382" viewBox="0 0 383 382" fill="none" xmlns="http://www.w3.org/2000/svg">
<path fill-rule="evenodd" clip-rule="evenodd" opacity="0.35" d="M142.591 300.254C106.87 290.425 65.4726 286.377 45.686 255.097C25.4877 223.166 39.3839 183.474 45.1242 146.173C52.023 101.344 42.4995 43.287 81.7846 20.524C121.075 -2.24192 167.399 33.5642 209.379 50.9985C243.328 65.0978 275.07 80.9695 297.457 110.093C323.915 144.514 354.05 184.084 344.12 226.288C334.063 269.027 291.379 296.197 250.103 311.346C214.966 324.242 178.704 310.191 142.591 300.254Z" fill="url(#paint0_linear_201_49)"/>
<path d="M272.764 302.965C272.447 306.412 271.922 309.827 271.186 313.193C270.162 317.923 268.729 322.553 266.916 327.03C259.054 346.452 244.002 362.996 223.403 372.312C202.759 381.647 180.339 382.006 160.531 375.04C156.182 373.509 151.957 371.625 147.909 369.405C144.732 367.668 141.665 365.723 138.724 363.583C159.457 358.368 183.42 349.959 208.219 338.745C233.017 327.528 255.157 315.089 272.764 302.965Z" fill="#FFB200"/>
<path d="M208.221 338.743C233.017 327.529 255.157 315.089 272.764 302.965C272.447 306.412 271.922 309.827 271.186 313.193C257.636 323.036 235.987 335.189 210.778 346.589C186.631 357.509 164.123 365.521 147.91 369.404C144.733 367.667 141.667 365.722 138.726 363.582C159.459 358.367 183.421 349.957 208.221 338.743Z" fill="#D66B09"/>
<path d="M269.336 270.326C255.586 281.446 228.424 297.007 195.984 311.681C163.539 326.351 133.912 336.47 116.481 339.452C114.668 336.484 113.024 333.375 111.555 330.131C111.484 329.976 111.418 329.83 111.348 329.67C110.709 328.238 110.113 326.801 109.563 325.346C108.267 321.955 107.206 318.523 106.37 315.076C106.337 314.935 106.304 314.799 106.271 314.658C105.06 309.531 104.346 304.361 104.111 299.214C103.656 289.419 104.933 279.708 107.765 270.491C108.742 267.316 109.902 264.208 111.245 261.175C112.794 257.639 114.598 254.211 116.626 250.91C118.368 248.083 120.28 245.35 122.355 242.735C122.36 242.735 122.36 242.735 122.36 242.735C123.172 241.702 124.018 240.687 124.886 239.692C132.611 230.831 142.323 223.445 153.739 218.284C155.321 217.57 156.918 216.908 158.519 216.293C180.013 208.095 203.023 209.269 222.784 218.007C222.906 218.064 223.033 218.115 223.155 218.176C225.01 219.003 226.837 219.904 228.626 220.872C235.121 224.351 241.183 228.704 246.626 233.832C250.021 237.034 253.177 240.546 256.041 244.355C256.351 244.763 256.657 245.181 256.967 245.599C257.22 245.942 257.464 246.289 257.708 246.637C259.747 249.543 261.625 252.605 263.311 255.817C263.945 257.009 264.546 258.221 265.124 259.451C265.278 259.789 265.438 260.127 265.588 260.47C267.058 263.715 268.303 267.007 269.336 270.326Z" fill="#FFB200"/>
<path d="M265.121 259.456C265.28 259.792 265.436 260.129 265.591 260.47C267.058 263.716 268.306 267.008 269.335 270.325C255.586 281.445 228.425 297.009 195.982 311.681C163.54 326.352 133.912 336.469 116.483 339.449C114.67 336.486 113.022 333.375 111.553 330.13C111.484 329.977 111.416 329.827 111.35 329.673C127.877 327.847 158.037 318.059 191.11 303.104C225.488 287.556 253.597 270.683 265.121 259.456Z" fill="#D66B09"/>
<path d="M105.248 301.183C104.817 301.183 104.405 301.174 104.009 301.153L104.21 297.279C115.87 297.876 146.168 288.277 177.91 273.922C211.355 258.797 239.562 241.506 244.978 232.807L248.271 234.857C242.401 244.284 214.125 261.803 179.508 277.457C147.791 291.8 118.343 301.183 105.248 301.183Z" fill="#D66B09"/>
<path d="M108.049 272.41L107.479 268.573C120.514 266.637 143.073 258.894 166.352 248.366C190.748 237.335 211.875 225.147 221.49 216.561L224.074 219.455C214.186 228.285 192.68 240.718 167.951 251.901C144.367 262.567 121.414 270.425 108.049 272.41Z" fill="#D66B09"/>
<path d="M106.399 316.598C106.353 316.598 106.308 316.598 106.263 316.598L106.282 312.719C106.324 312.719 106.368 312.719 106.41 312.719C119.822 312.719 151.017 302.682 184.143 287.701C219.015 271.93 248.316 254.146 255.398 244.455L258.53 246.743C250.977 257.082 221.725 274.962 185.742 291.235C152.16 306.422 120.318 316.598 106.399 316.598Z" fill="#D66B09"/>
<path d="M160.602 376.005L160.533 375.044L160.169 374.139L160.309 374.083L160.462 374.072C171.946 373.244 193.804 366.181 216.148 356.077C238.613 345.916 257.808 334.52 266.241 326.334L267.592 327.726C259.009 336.059 239.604 347.599 216.947 357.845C194.066 368.19 172.476 375.149 160.602 376.005Z" fill="#D66B09"/>
<path d="M188.619 381.674C170.582 381.674 152.657 376.055 137.62 365.098L134.378 362.738L138.268 361.76C159.635 356.387 183.556 347.836 207.447 337.031C231.334 326.229 253.552 313.914 271.699 301.418L275.001 299.144L274.634 303.137C271.793 334.071 252.458 361.231 224.176 374.021C212.833 379.151 200.7 381.674 188.619 381.674ZM143.17 364.372C166.74 379.829 196.812 382.274 222.629 370.599C248.447 358.925 266.469 334.729 270.423 306.824C252.754 318.646 231.608 330.228 208.994 340.454C186.377 350.683 163.715 358.912 143.17 364.372Z" fill="#1E1D2B"/>
<path d="M314.223 251.619C319.326 262.902 302.503 282.486 272.764 302.965C255.156 315.089 233.017 327.529 208.221 338.743C183.421 349.957 159.459 358.367 138.726 363.58C103.708 372.387 77.8936 372.084 72.7902 360.802C68.1564 350.556 81.5999 333.468 106.371 315.078C107.206 318.527 108.267 321.957 109.564 325.348C102.714 330.948 99.3427 335.391 100.514 337.981C101.707 340.619 107.462 340.988 116.482 339.448C133.911 336.468 163.54 326.351 195.981 311.68C228.425 297.007 255.586 281.444 269.334 270.324C276.445 264.57 279.967 260.004 278.774 257.367C277.603 254.779 272.04 254.374 263.313 255.817C261.622 252.604 259.747 249.542 257.707 246.638C287.878 240.184 309.589 241.373 314.223 251.619Z" fill="#FFC943"/>
<path d="M104.473 348.323C98.0533 348.323 93.1706 346.995 91.5669 343.45C89.2682 338.369 94.5794 330.657 107.353 320.528L109.161 322.807C98.2212 331.482 92.6353 338.752 94.2178 342.25C96.1115 346.438 110.012 347.792 142.958 337.832C159.865 332.716 178.984 325.406 198.25 316.694C217.509 307.985 235.624 298.455 250.635 289.136C279.874 270.976 288.038 259.643 286.144 255.456C284.56 251.956 275.412 251.35 261.673 253.835L261.155 250.973C277.196 248.072 286.496 249.176 288.794 254.258C293.281 264.178 267.773 281.918 252.169 291.608C237.053 300.993 218.822 310.584 199.448 319.345C180.07 328.108 160.827 335.464 143.801 340.616C132.502 344.032 116.01 348.323 104.473 348.323Z" fill="#FFEC90"/>
<path d="M100.053 359.719C89.6052 359.719 82.9333 357.318 80.7626 352.515C76.2603 342.561 92.1645 327.695 106.298 316.977L108.057 319.296C89.8141 333.129 80.6017 345.099 83.4135 351.317C86.9566 359.15 108.723 358.638 140.219 349.982C159.477 344.691 181.136 336.702 202.857 326.88C224.572 317.06 244.874 306.072 261.567 295.105C288.869 277.171 303.628 261.164 300.085 253.332C297.273 247.116 282.2 246.127 259.764 250.69L259.184 247.839C276.566 244.303 298.234 242.18 302.736 252.133C307.038 261.644 292.614 278.193 263.165 297.537C246.347 308.586 225.907 319.65 204.055 329.531C182.199 339.415 160.392 347.457 140.99 352.787C124.17 357.41 110.296 359.719 100.053 359.719Z" fill="#FFEC90"/>
<path d="M97.3655 371.664C83.2457 371.664 74.112 368.281 71.0796 361.577C66.137 350.65 78.2727 333.601 105.252 313.57L107.53 311.88L108.198 314.637C109.02 318.032 110.069 321.412 111.319 324.68L111.802 325.947L110.753 326.805C101.202 334.614 102.18 337.107 102.226 337.21C102.274 337.314 103.534 339.757 116.166 337.599C133.97 334.554 164.257 323.968 195.207 309.971C226.159 295.974 254.11 280.224 268.154 268.866C278.111 260.807 277.11 258.249 277.063 258.144C277.016 258.043 275.79 255.662 263.621 257.674L262.284 257.895L261.652 256.695C260.022 253.599 258.178 250.58 256.172 247.72L254.542 245.398L257.316 244.804C290.174 237.772 310.993 239.919 315.934 250.847C321.342 262.803 305.995 282.364 273.83 304.514C255.501 317.134 233.083 329.563 208.996 340.455C184.905 351.351 160.764 359.977 139.185 365.404C122.547 369.586 108.426 371.664 97.3655 371.664ZM105.258 318.264C82.0764 335.894 70.6076 351.418 74.5018 360.028C78.9524 369.868 103.386 370.532 138.267 361.76C159.633 356.387 183.555 347.836 207.446 337.031C231.333 326.229 253.551 313.914 271.698 301.418C301.323 281.019 316.962 262.234 312.511 252.393C308.616 243.782 289.384 242.142 260.836 247.907C262.079 249.808 263.251 251.765 264.339 253.756C273.826 252.333 278.971 253.244 280.485 256.593C282.095 260.15 278.926 264.977 270.516 271.783C256.025 283.503 228.451 299.057 196.755 313.391C165.061 327.724 135.171 338.157 116.799 341.298C106.128 343.119 100.412 342.311 98.8025 338.754C97.2868 335.404 100.002 330.94 107.337 324.754C106.561 322.624 105.865 320.452 105.258 318.264Z" fill="#1E1D2B"/>
<g opacity="0.35">
<path d="M272.764 302.965C272.447 306.412 271.922 309.827 271.186 313.193C270.162 317.923 268.729 322.553 266.916 327.03C259.054 346.452 244.002 362.996 223.403 372.312C202.759 381.647 180.339 382.006 160.531 375.04C156.182 373.509 151.957 371.625 147.909 369.405C144.732 367.668 141.665 365.723 138.724 363.583C159.457 358.368 183.42 349.959 208.219 338.745C233.017 327.528 255.157 315.089 272.764 302.965Z" fill="#1E1D2B"/>
</g>
<g opacity="0.41">
<path d="M269.333 270.324C267.733 271.619 265.954 272.97 264.002 274.378C263.213 272.154 262.324 269.943 261.338 267.758C261.182 267.418 261.025 267.082 260.869 266.747C260.295 265.511 259.692 264.297 259.062 263.108C257.371 259.895 255.493 256.832 253.457 253.927C253.213 253.578 252.962 253.233 252.712 252.889C249.606 248.605 246.137 244.669 242.369 241.119C235.328 234.477 227.246 229.147 218.529 225.298C197.294 215.908 172.303 215.253 149.484 225.575C134.25 232.465 122.049 243.312 113.547 256.352C121.982 240.082 135.741 226.425 153.741 218.284C176.56 207.968 201.552 208.617 222.782 218.007C231.499 221.86 239.585 227.186 246.626 233.834C250.389 237.383 253.859 241.314 256.964 245.598C257.22 245.943 257.464 246.292 257.708 246.64C259.749 249.546 261.622 252.604 263.313 255.817C263.943 257.012 264.546 258.225 265.12 259.456C265.282 259.792 265.438 260.127 265.589 260.473C267.057 263.716 268.304 267.007 269.333 270.324Z" fill="white"/>
</g>
<path d="M115.544 341.515L114.879 340.43C113.02 337.39 111.325 334.185 109.842 330.904C109.112 329.29 108.427 327.647 107.808 326.017C106.504 322.602 105.406 319.07 104.547 315.52C94.8157 275.276 115.179 233.664 152.966 216.575C190.754 199.485 235.451 211.676 259.248 245.56C261.347 248.55 263.275 251.707 264.978 254.945C265.792 256.485 266.575 258.085 267.304 259.697C268.789 262.979 270.076 266.368 271.13 269.77L271.507 270.986L270.517 271.787C256.026 283.506 228.452 299.059 196.757 313.394C165.062 327.728 135.172 338.16 116.8 341.302L115.544 341.515ZM188.54 212.651C177.084 212.651 165.495 215.031 154.514 219.998C118.369 236.344 98.8907 276.146 108.198 314.637C109.02 318.032 110.07 321.411 111.319 324.68C111.912 326.24 112.567 327.812 113.264 329.357C114.507 332.105 115.904 334.797 117.426 337.375C135.376 334.061 164.975 323.642 195.206 309.971C225.438 296.3 252.808 280.954 267.151 269.664C266.22 266.821 265.121 263.994 263.878 261.245C263.181 259.704 262.432 258.173 261.652 256.697C260.021 253.598 258.177 250.579 256.171 247.72C240.326 225.156 214.788 212.651 188.54 212.651Z" fill="#1E1D2B"/>
<g opacity="0.35">
<path d="M313.535 262.912C308.871 273.961 294.159 288.236 272.764 302.966C255.159 315.09 233.017 327.529 208.222 338.743C183.422 349.956 159.458 358.366 138.726 363.583C103.707 372.387 77.8935 372.082 72.7889 360.803C69.6895 353.957 74.6673 344.049 85.7123 332.742C83.8903 337.047 83.5944 340.87 85.0267 344.035C90.1313 355.318 115.945 355.624 150.963 346.815C171.696 341.602 195.66 333.192 220.46 321.979C245.255 310.761 267.396 298.322 285.002 286.198C296.695 278.15 306.387 270.237 313.535 262.912Z" fill="#1E1D2B"/>
</g>
<path d="M183.979 214.616C202.401 216.019 234.719 216.067 237.511 197.906C237.874 195.528 238.081 192.932 238.141 190.198C238.564 172.054 232.696 147.899 225.487 141.983C221.369 138.607 213.713 137.595 205.31 138.398C188.611 139.995 168.945 148.747 168.188 160.344C167.452 171.506 165.556 213.214 183.979 214.616Z" fill="white"/>
<g opacity="0.35">
<path d="M183.979 214.616C202.401 216.019 234.719 216.067 237.511 197.907C237.874 195.528 238.081 192.933 238.141 190.199C232.87 193.98 225.928 190.104 225.287 185.17C221.331 154.705 210.582 142.609 205.309 138.398C188.61 139.995 168.944 148.747 168.187 160.345C167.452 171.506 165.556 213.214 183.979 214.616Z" fill="#1E1D2B"/>
</g>
<path d="M197.718 217.05C193.047 217.05 188.351 216.832 183.837 216.488C165.466 215.09 164.972 180.635 166.312 160.22C166.774 153.193 173.11 146.686 184.154 141.899C198.058 135.871 218.27 133.633 226.678 140.531C236.17 148.318 242.061 180.643 239.367 198.193C237.078 213.099 217.651 217.05 197.718 217.05ZM210.502 139.991C202.915 139.991 193.785 141.818 185.647 145.345C176.101 149.483 170.42 154.995 170.061 160.467C169.277 172.419 167.971 211.513 184.122 212.744C202.287 214.127 233.138 214 235.652 197.624C238.341 180.119 231.972 149.733 224.294 143.437C221.472 141.119 216.463 139.991 210.502 139.991Z" fill="#1E1D2B"/>
<path d="M222.33 172.522L230.66 169.617C232.543 168.961 234.58 170.1 234.995 172.05C236.424 178.76 238.467 192.627 231.668 195.149C223.426 198.205 220.969 188.746 220.11 175.861C220.011 174.378 220.924 173.011 222.33 172.522Z" fill="white"/>
<g opacity="0.35">
<path d="M220.127 175.843C220.955 188.729 223.392 198.197 231.64 195.157C235.028 193.914 236.229 189.846 236.405 185.253C235.672 186.538 234.66 187.514 233.281 188.02C225.896 190.737 223.167 183.434 222.089 172.619C220.831 173.166 220.035 174.454 220.127 175.843Z" fill="#1E1D2B"/>
</g>
<path d="M228.752 197.609C227.319 197.609 226.009 197.227 224.832 196.46C220.982 193.956 219.014 187.826 218.251 175.965C218.102 173.646 219.536 171.496 221.738 170.734L230.076 167.848C231.486 167.361 233.04 167.502 234.339 168.237C235.634 168.969 236.552 170.224 236.858 171.679C238.958 181.653 239.869 194.129 232.29 196.92C231.041 197.379 229.86 197.609 228.752 197.609ZM231.778 171.316C231.633 171.316 231.473 171.339 231.304 171.397L222.966 174.282C222.356 174.494 221.959 175.085 222 175.722C222.239 179.443 222.967 190.765 226.88 193.311C227.935 193.996 229.279 194.024 230.99 193.394C235.506 191.732 235.083 181.486 233.181 172.451C233.066 171.904 232.697 171.622 232.487 171.504C232.343 171.424 232.093 171.316 231.778 171.316ZM222.352 172.509H222.358H222.352Z" fill="#1E1D2B"/>
<path d="M227.89 145.599C226.963 146.1 225.971 146.452 224.969 146.759C223.967 147.069 222.931 147.284 221.896 147.504C220.86 147.724 219.814 147.916 218.757 148.091C217.697 148.256 216.635 148.414 215.532 148.5C215.387 148.512 215.26 148.404 215.248 148.259C215.241 148.171 215.28 148.088 215.343 148.034C216.198 147.326 217.101 146.715 218.014 146.13C218.934 145.558 219.867 145.017 220.816 144.519C221.765 144.022 222.719 143.531 223.711 143.146C224.703 142.758 225.706 142.425 226.782 142.257C227.756 142.104 228.67 142.77 228.822 143.744C228.942 144.511 228.556 145.24 227.91 145.59L227.89 145.599Z" fill="#1E1D2B"/>
<path d="M194.244 206.825L187.453 204.761C179.785 202.432 171.462 202.819 164.19 206.145C161.67 207.297 159.237 208.813 157.223 210.809C149.865 218.107 149.658 232.759 154.655 238.698C156.625 241.04 158.744 243.64 158.744 243.64C157.344 245.646 147.702 261.915 155.461 268.383C162.256 274.047 174.797 273.117 181.404 264.21C185.772 258.322 186.658 251.53 186.409 246.338C186.119 240.267 183.035 232.073 188.058 229.937C195.547 226.752 202.35 228.518 213.18 220.239C225.853 210.551 227.838 189.683 222.208 172.042C218.158 159.354 193.508 135.328 193.508 135.328L201.285 206.675L194.244 206.825Z" fill="white"/>
<path d="M155.983 175.573L131.184 198.149L130.926 197.736L120.298 180.625C132.846 175.281 140.646 159.401 140.646 159.401L141.642 160.452L155.983 175.573Z" fill="white"/>
<g opacity="0.35">
<path d="M155.983 175.573L131.184 198.15L130.926 197.736C138.082 186.748 140.839 167.524 141.642 160.453L155.983 175.573Z" fill="#1E1D2B"/>
</g>
<path d="M130.777 201.06L117.549 179.755L119.564 178.897C131.331 173.885 138.887 158.727 138.962 158.574L140.152 156.15L158.663 175.674L130.777 201.06ZM123.005 181.419L131.587 195.242L153.3 175.476L141.064 162.57C138.491 167.021 132.147 176.633 123.005 181.419Z" fill="#1E1D2B"/>
<path d="M127.923 178.238C127.923 178.238 113.062 164.87 103.595 161.286L100.948 167.495L120.798 187.037L127.923 178.238Z" fill="white"/>
<path d="M120.798 188.915C120.306 188.915 119.832 188.722 119.48 188.375L99.6299 168.832C99.0793 168.291 98.9173 167.467 99.2202 166.756L101.866 160.548C102.262 159.621 103.319 159.172 104.26 159.527C113.946 163.195 128.563 176.285 129.181 176.842C129.924 177.51 130.013 178.644 129.384 179.419L122.258 188.219C121.924 188.631 121.432 188.882 120.903 188.913C120.869 188.914 120.834 188.915 120.798 188.915ZM103.178 167.053L120.641 184.247L125.327 178.46C121.778 175.395 111.916 167.161 104.588 163.745L103.178 167.053Z" fill="#1E1D2B"/>
<path d="M142.481 141.844C149.948 171.612 141.112 198.844 141.112 198.844C112.202 209.227 127.976 237.727 127.976 237.727C127.976 237.727 108.043 249.26 117.441 260.782C125.624 270.816 153.108 259.287 154.437 244.648C154.437 244.648 149.71 229.788 157.039 224.698" fill="white"/>
<g opacity="0.35">
<path d="M269.336 270.327C238.018 296.106 148.54 334.85 116.481 339.452C99.6937 312.781 99.9755 276.177 117.551 249.443C117.872 248.946 118.198 248.452 118.533 247.961C119.735 246.177 121.008 244.43 122.356 242.735C122.36 242.735 122.36 242.735 122.36 242.735C124.253 241.561 125.596 240.899 125.596 240.899C125.596 240.899 125.319 240.467 124.887 239.692C132.612 230.831 142.323 223.445 153.739 218.284C155.322 217.571 156.918 216.909 158.519 216.293C180.013 208.095 203.024 209.269 222.784 218.007C222.907 218.064 223.033 218.115 223.155 218.176C225.01 219.003 226.837 219.904 228.626 220.872C227.598 221.787 226.49 222.633 225.301 223.412C212.632 231.691 204.672 229.925 195.909 233.109C192.904 234.203 192.373 236.875 192.627 240.04C192.27 243.58 193.763 248.323 193.979 252.215C193.984 252.291 193.984 252.366 193.988 252.441C193.763 257.104 192.321 262.551 188.118 267.382C180.656 275.98 166.723 277.145 158.613 272.116C158.322 271.937 158.041 271.749 157.763 271.552C155.655 270.054 154.641 268.021 154.354 265.767C154.983 259.959 158.745 253.587 160.67 250.75C161.084 250.14 161.412 249.694 161.605 249.45C161.605 249.45 161.182 248.994 160.52 248.295C160.022 247.759 159.384 247.083 158.689 246.346C158.087 245.712 157.444 245.04 156.82 244.388C156.19 243.735 155.631 242.979 155.148 242.138C155.655 245.379 156.566 247.82 156.566 247.82C155.044 262.17 126.136 279.427 113.875 267.303C113.424 297.923 145.286 323.101 177.228 310.263C211.298 296.566 249.289 277.699 267.34 264.635C268.077 266.523 268.744 268.42 269.336 270.327Z" fill="#1E1D2B"/>
</g>
<path d="M225.184 191.674C225.024 203.254 221.286 214.035 213.176 220.238C202.347 228.516 195.548 226.751 188.057 229.934C185.489 231.029 185.038 233.7 185.254 236.865C184.949 240.406 186.226 245.148 186.409 249.041C186.414 249.116 186.414 249.191 186.418 249.267C186.226 253.929 184.991 259.376 181.403 264.208C175.026 272.806 163.117 273.971 156.19 268.941C155.941 268.763 155.697 268.575 155.462 268.378C153.659 266.88 152.795 264.847 152.551 262.593C153.086 256.784 156.303 250.412 157.947 247.576C158.299 246.966 158.581 246.52 158.745 246.275C158.745 246.275 158.383 245.82 157.82 245.12C157.392 244.585 156.848 243.909 156.251 243.172C155.739 242.538 155.19 241.866 154.655 241.214C154.119 240.561 153.64 239.805 153.227 238.964C153.659 242.204 154.439 244.646 154.439 244.646C153.11 259.287 125.624 270.815 117.439 260.78C115.95 258.958 115.199 257.137 114.987 255.362C113.846 245.9 127.977 237.725 127.977 237.725C127.977 237.725 120.115 223.525 125.661 211.518C127.972 206.517 132.612 201.897 141.111 198.844C141.111 198.844 143.201 192.407 144.488 182.367C144.817 179.794 145.094 176.986 145.272 173.99C145.601 168.369 145.577 162.087 144.873 155.452L193.505 135.326C193.505 135.326 193.528 135.349 193.575 135.396C193.599 135.42 193.627 135.448 193.664 135.486L193.777 135.598C193.819 135.645 193.866 135.692 193.923 135.744C194.172 135.997 194.524 136.354 194.97 136.814C197.046 138.951 201.094 143.205 205.475 148.258C212.378 156.217 220.094 166.153 222.207 172.934C222.813 174.873 223.329 176.855 223.752 178.855C224.658 183.095 225.146 187.424 225.184 191.674Z" fill="white"/>
<path d="M153.563 227.296C152.964 227.296 152.41 226.912 152.22 226.312C147.141 210.251 126.001 213.042 125.788 213.07C125.016 213.184 124.305 212.643 124.196 211.871C124.087 211.101 124.624 210.389 125.395 210.28C125.632 210.249 149.117 207.155 154.906 225.462C155.141 226.204 154.73 226.995 153.988 227.23C153.846 227.274 153.702 227.296 153.563 227.296Z" fill="#1E1D2B"/>
<path d="M144.871 155.454L142.481 141.841C143.641 146.471 144.407 151.04 144.871 155.454Z" fill="white"/>
<path d="M127.062 266.441C122.294 266.441 118.387 264.916 115.983 261.97C113.522 258.953 112.598 255.656 113.235 252.173C114.542 245.038 122.229 239.242 125.538 237.044C123.685 233.042 119.554 222.253 123.338 212.21C125.844 205.558 131.306 200.583 139.579 197.41C140.954 192.599 147.172 168.272 140.659 142.3C140.407 141.294 141.018 140.274 142.024 140.022C143.03 139.771 144.051 140.381 144.303 141.387C151.814 171.334 143.265 198.292 142.898 199.424L142.614 200.301L141.746 200.614C134.061 203.374 129.053 207.715 126.86 213.516C122.806 224.241 129.551 236.696 129.619 236.821L130.506 238.433L128.915 239.355C128.81 239.416 118.25 245.621 116.93 252.858C116.496 255.239 117.138 257.443 118.894 259.597C121.561 262.869 127.495 263.593 134.377 261.488C142.756 258.926 151.591 252.411 152.527 244.831C151.783 242.275 148.222 228.535 155.966 223.159C156.818 222.567 157.988 222.777 158.58 223.63C159.172 224.482 158.961 225.652 158.108 226.244C153.045 229.76 155.032 240.313 156.225 244.084L156.339 244.444L156.305 244.821C155.414 254.636 144.883 262.205 135.475 265.081C132.488 265.993 129.648 266.441 127.062 266.441ZM141.112 198.845H141.118H141.112Z" fill="#1E1D2B"/>
<path d="M195.669 200.737L190.053 205.507L130.263 178.24C130.263 178.24 134.325 175.854 145.347 172.61C152.706 170.44 163.168 167.886 177.599 165.397L180.75 171.558L195.669 200.737Z" fill="white"/>
<path d="M190.359 207.713L126.197 178.447L129.315 176.618C129.788 176.34 141.323 169.748 177.281 163.549L178.643 163.314L198.018 201.205L190.359 207.713ZM134.773 178.229L189.746 203.303L193.319 200.266L176.558 167.488C152.955 171.636 140.328 175.953 134.773 178.229Z" fill="#1E1D2B"/>
<path d="M149.948 215.676L191.241 205.207L174.139 171.612L132.846 180.625L149.948 215.676Z" fill="#73BEFD"/>
<path d="M149.948 215.676L191.241 205.207L174.139 171.612L132.846 180.625L149.948 215.676Z" fill="#73BEFD"/>
<g opacity="0.35">
<path d="M189.363 209.903L157.674 217.937C157.298 225.253 156.646 237.725 156.251 243.172C155.739 242.538 155.19 241.866 154.654 241.214C154.119 240.561 153.64 239.805 153.227 238.964C153.659 242.204 154.438 244.646 154.438 244.646C153.109 259.287 125.624 270.815 117.438 260.78C115.95 258.959 115.199 257.137 114.987 255.362C121.562 264.823 140.35 255.906 143.638 252.91C147.216 249.652 147.695 247.91 145.455 235.602C144.243 228.953 145.91 223.933 148.385 220.29L148.071 220.369H141.825L128.385 215.552L125.661 211.518C127.972 206.517 132.611 201.897 141.111 198.844C141.111 198.844 143.201 192.407 144.488 182.367L172.26 176.305L189.363 209.903Z" fill="#1E1D2B"/>
</g>
<path d="M191.241 205.207L149.949 215.674L148.813 213.349L132.846 180.625L174.138 171.609L178.069 179.329L191.241 205.207Z" fill="#1F9FFF"/>
<g opacity="0.7">
<path d="M138.848 186.346L150.991 215.411L149.949 215.674L148.813 213.349L132.846 180.625L174.138 171.609L174.838 172.981L140.936 182.09C139.095 182.586 138.113 184.588 138.848 186.346Z" fill="white"/>
</g>
<g opacity="0.35">
<path d="M191.241 205.207L149.949 215.674L148.812 213.349C149.522 203.911 169.038 199.07 169.038 199.07C165.681 187.157 174.772 181.095 178.069 179.329L191.241 205.207Z" fill="#1E1D2B"/>
</g>
<path d="M149.947 217.437C149.286 217.437 148.665 217.064 148.364 216.449L131.262 181.396C131.025 180.91 131.025 180.343 131.26 179.856C131.496 179.37 131.942 179.018 132.469 178.903L173.762 169.89C174.544 169.721 175.344 170.097 175.707 170.811L192.808 204.405C193.051 204.883 193.064 205.444 192.842 205.931C192.622 206.419 192.191 206.779 191.672 206.91L150.379 217.381C150.235 217.421 150.09 217.437 149.947 217.437ZM135.411 181.867L150.902 213.617L188.671 204.04L173.186 173.62L135.411 181.867Z" fill="#1E1D2B"/>
<path d="M132.846 180.625L124.972 180.686L143.702 215.676H149.948L132.846 180.625Z" fill="#1F9FFF"/>
<g opacity="0.7">
<path d="M134.499 184.011L126.784 184.072L124.971 180.686L132.846 180.625L134.499 184.011Z" fill="white"/>
</g>
<path d="M149.948 217.437H143.702C143.053 217.437 142.455 217.08 142.149 216.507L123.419 181.516C123.128 180.973 123.143 180.316 123.458 179.786C123.772 179.256 124.342 178.929 124.958 178.924L132.832 178.863C133.492 178.863 134.131 179.242 134.429 179.851L151.53 214.904C151.797 215.449 151.763 216.094 151.441 216.609C151.12 217.125 150.555 217.437 149.948 217.437ZM144.758 213.915H147.129L131.75 182.394L127.899 182.424L144.758 213.915Z" fill="#1E1D2B"/>
<path d="M143.703 215.674L130.263 210.856L124.825 202.808L121.491 197.877L112.921 185.208L100.946 167.491L124.971 180.686L143.581 215.444L143.703 215.674Z" fill="#1F9FFF"/>
<g opacity="0.7">
<path d="M143.703 215.674L141.224 214.786L122.947 183.02L103.994 171.999L100.946 167.491L124.971 180.686L143.581 215.444L143.703 215.674Z" fill="white"/>
</g>
<path d="M143.702 217.437C143.504 217.437 143.302 217.403 143.108 217.334L129.672 212.514C129.319 212.387 129.017 212.152 128.808 211.842L99.4892 168.48C99.0337 167.806 99.0983 166.908 99.6466 166.307C100.195 165.706 101.084 165.558 101.795 165.95L125.819 179.141C126.118 179.306 126.362 179.553 126.524 179.854L145.254 214.844C145.598 215.486 145.511 216.274 145.035 216.825C144.694 217.222 144.205 217.437 143.702 217.437ZM131.402 209.393L139.991 212.475L123.665 181.978L106.489 172.546L131.402 209.393Z" fill="#1E1D2B"/>
<path d="M124.972 180.686C124.972 180.686 125.111 176.323 128.662 175.816C131.602 175.395 133.666 180.447 133.666 180.447L124.972 180.686Z" fill="#1E1D2B"/>
<path d="M225.184 191.336C225.189 191.449 225.184 191.561 225.184 191.674C225.024 203.254 221.286 214.035 213.176 220.238C202.347 228.516 195.547 226.751 188.057 229.935C185.489 231.029 185.038 233.7 185.254 236.865C185.456 239.894 186.263 243.369 186.409 246.337C186.451 247.266 186.461 248.248 186.418 249.267C186.226 253.929 184.991 259.376 181.403 264.208C174.796 273.116 162.257 274.046 155.462 268.378C153.659 266.88 152.795 264.847 152.551 262.593C152.541 262.518 152.537 262.438 152.532 262.363C151.973 256.221 155.852 248.482 157.82 245.12C158.233 244.416 158.562 243.899 158.745 243.637C158.745 243.637 156.627 241.04 154.655 238.697C149.658 232.757 149.865 218.106 157.223 210.804C159.238 208.809 161.67 207.292 164.192 206.142C168.076 204.367 172.26 203.427 176.482 203.296C180.168 203.174 183.883 203.672 187.452 204.756L194.247 206.822L201.281 206.672L197.806 174.784C199.483 173.131 200.807 170.492 200.591 166.388L199.699 162.073L195.439 141.51L195.13 140.026C195.13 140.026 200.746 144.318 207.043 150.826C213.209 157.189 220.028 165.674 222.888 174.333C222.888 174.347 222.892 174.361 222.902 174.38C223.353 175.986 223.733 177.615 224.048 179.254C224.827 183.269 225.217 187.349 225.184 191.336Z" fill="white"/>
<g opacity="0.35">
<path d="M225.184 191.336C225.188 191.449 225.184 191.561 225.184 191.674C225.024 203.254 221.286 214.035 213.176 220.238C202.347 228.516 195.547 226.751 188.057 229.934C185.488 231.029 185.038 233.7 185.254 236.865C185.455 239.894 186.263 243.369 186.409 246.336C186.451 247.266 186.46 248.248 186.418 249.267C186.226 253.929 184.991 259.376 181.403 264.208C174.796 273.116 162.257 274.046 155.462 268.378C153.659 266.88 152.795 264.847 152.551 262.593C152.541 262.518 152.536 262.438 152.532 262.363C159.693 268.35 171.926 270.425 178.707 257.799C186.46 243.35 177.665 237.438 177.486 230.517C177.303 223.595 190.105 225.328 208.532 216.876C219.445 211.875 223.606 200.103 225.184 191.336Z" fill="#1E1D2B"/>
</g>
<path d="M194.062 207.424C192.472 207.22 190.905 206.942 189.347 206.633C188.568 206.483 187.789 206.324 187.018 206.149C186.27 206.005 185.529 205.856 184.785 205.737C181.807 205.26 178.809 205.074 175.84 205.289C172.876 205.518 169.949 206.11 167.169 207.114C164.388 208.11 161.714 209.476 159.521 211.315C158.966 211.771 158.463 212.273 158.012 212.8C157.785 213.065 157.526 213.301 157.322 213.589L156.705 214.452L156.395 214.883L156.131 215.35L155.598 216.282C155.281 216.928 154.982 217.587 154.709 218.259C153.688 220.982 153.173 223.937 153.137 226.879C153.089 229.817 153.626 232.772 154.735 235.31C155.069 235.895 155.349 236.533 155.761 237.024L156.043 237.421C156.135 237.552 156.286 237.72 156.405 237.869L157.164 238.786L160.2 242.456L161.093 243.533L160.285 244.717C160.027 245.095 159.731 245.581 159.461 246.041C159.186 246.51 158.918 246.988 158.659 247.471C158.14 248.437 157.65 249.422 157.198 250.418C156.299 252.414 155.522 254.46 155.001 256.526C154.491 258.581 154.191 260.688 154.446 262.591C154.571 263.538 154.83 264.422 155.245 265.187C155.67 265.963 156.196 266.584 156.965 267.157C160.077 269.59 164.421 270.449 168.478 269.858C172.574 269.304 176.391 267.183 179.07 264.086C179.391 263.682 179.739 263.313 180.041 262.884C180.34 262.453 180.651 262.028 180.917 261.575C181.485 260.691 181.955 259.746 182.395 258.791C183.241 256.86 183.841 254.813 184.184 252.707C184.533 250.605 184.634 248.443 184.527 246.303C184.409 244.215 183.987 241.991 183.671 239.68C183.512 238.521 183.375 237.329 183.339 236.074C183.32 234.818 183.356 233.486 183.831 232.05C184.069 231.34 184.435 230.607 184.965 229.963C185.491 229.316 186.172 228.786 186.881 228.424C187.05 228.342 187.255 228.236 187.398 228.181L187.827 228.014L188.685 227.681C189.26 227.478 189.842 227.296 190.42 227.116C192.744 226.446 195.034 226.045 197.208 225.57C199.389 225.104 201.465 224.532 203.462 223.732C205.463 222.947 207.364 221.914 209.19 220.738C210.117 220.172 210.986 219.504 211.875 218.868C212.31 218.544 212.699 218.205 213.114 217.876C213.498 217.515 213.899 217.173 214.271 216.798C217.267 213.817 219.489 210.044 220.914 205.96C222.353 201.873 223.079 197.506 223.262 193.115C223.441 188.718 223.081 184.286 222.264 179.941C221.854 177.768 221.328 175.617 220.688 173.502L220.448 172.708C220.366 172.451 220.274 172.221 220.188 171.976C220.032 171.492 219.8 171.009 219.598 170.524C219.384 170.04 219.131 169.56 218.9 169.077L218.117 167.645C215.928 163.846 213.241 160.223 210.428 156.718C204.749 149.703 198.126 143.539 193.072 135.78C192.879 135.483 192.963 135.085 193.26 134.893C193.474 134.753 193.743 134.76 193.947 134.883C195.958 136.11 197.755 137.553 199.495 139.059C201.239 140.562 202.859 142.188 204.447 143.845C207.625 147.161 210.486 150.768 213.371 154.363C216.235 157.978 219.019 161.682 221.381 165.785L222.237 167.351C222.499 167.895 222.777 168.424 223.024 168.981C223.262 169.547 223.521 170.093 223.72 170.693C223.823 170.985 223.938 171.287 224.028 171.572L224.284 172.414C224.963 174.659 225.521 176.94 225.955 179.245C226.821 183.854 227.207 188.56 227.014 193.27C226.817 197.975 226.043 202.697 224.453 207.213C222.88 211.72 220.387 216.015 216.912 219.47C216.481 219.903 216.016 220.304 215.569 220.719C215.094 221.101 214.62 221.507 214.142 221.864C213.181 222.557 212.24 223.274 211.221 223.899C209.221 225.188 207.097 226.341 204.852 227.223C202.617 228.12 200.283 228.756 198.009 229.241C195.733 229.736 193.528 230.127 191.471 230.723C190.963 230.882 190.456 231.042 189.958 231.217L189.224 231.502L188.857 231.644C188.733 231.692 188.69 231.726 188.601 231.764C188.001 232.081 187.651 232.502 187.391 233.246C187.137 233.98 187.071 234.964 187.093 235.976C187.123 236.999 187.241 238.075 187.393 239.171C187.687 241.372 188.132 243.635 188.278 246.101C188.397 248.51 188.286 250.924 187.89 253.318C187.114 258.1 185.164 262.773 181.911 266.544C178.639 270.333 173.971 272.904 169.018 273.576C166.547 273.931 164.009 273.86 161.546 273.309C159.089 272.758 156.695 271.714 154.648 270.117L154.259 269.827L153.871 269.469C153.612 269.23 153.356 268.99 153.135 268.709C152.907 268.438 152.67 268.173 152.486 267.87C152.293 267.574 152.083 267.285 151.934 266.967C151.265 265.726 150.89 264.383 150.72 263.076C150.382 260.441 150.784 257.956 151.358 255.604C151.954 253.25 152.805 251.022 153.776 248.865C154.265 247.788 154.789 246.731 155.348 245.691C155.628 245.171 155.916 244.654 156.217 244.14C156.526 243.62 156.818 243.129 157.202 242.566L157.286 244.827L154.277 241.191L153.525 240.283C153.397 240.123 153.281 239.999 153.142 239.81L152.73 239.246C152.138 238.505 151.763 237.693 151.33 236.898C151.01 236.079 150.622 235.268 150.414 234.43C150.296 234.013 150.16 233.597 150.062 233.179L149.808 231.919C149.713 231.498 149.658 231.077 149.613 230.654L149.464 229.388C149.431 228.543 149.36 227.696 149.381 226.853C149.422 223.479 150.001 220.115 151.2 216.917C151.523 216.127 151.863 215.337 152.237 214.564L152.866 213.429L153.183 212.863L153.555 212.325L154.308 211.252C154.56 210.895 154.879 210.581 155.163 210.246C155.46 209.922 155.739 209.572 156.054 209.272C156.362 208.966 156.685 208.676 157.009 208.391C159.63 206.116 162.638 204.482 165.786 203.321C167.364 202.738 168.988 202.277 170.635 201.953C172.285 201.644 173.955 201.442 175.628 201.374C178.971 201.277 182.333 201.616 185.512 202.576C186.312 202.789 187.088 203.087 187.862 203.37C188.603 203.654 189.337 203.955 190.069 204.263C191.536 204.873 192.993 205.514 194.427 206.23C194.741 206.386 194.869 206.767 194.711 207.082C194.587 207.325 194.322 207.456 194.062 207.424Z" fill="#1E1D2B"/>
<g opacity="0.35">
<path d="M224.221 183.551C224.118 185.185 223.812 186.795 223.268 188.373C218.896 201.023 203.568 208.503 191.711 208.503C184.577 208.503 179.989 207.301 176.481 203.296C175.861 202.587 175.274 201.789 174.711 200.892C170.588 194.327 172.668 185.607 181.398 181.517C182.107 181.184 183.647 181.006 183.647 181.006L181.215 176.253L180.403 174.662C180.403 174.662 181.558 174.925 183.197 175.277C186.878 176.075 192.993 177.329 193.875 177.075C195.035 176.742 196.524 176.052 197.806 174.784C199.482 173.131 200.807 170.492 200.591 166.388L202.948 161.912L196.927 141.842L195.129 140.025C195.129 140.025 200.746 144.317 207.043 150.825C213.209 157.188 220.028 165.673 222.887 174.332C222.887 174.346 222.892 174.36 222.901 174.379C223.432 175.999 223.827 177.628 224.047 179.253C224.249 180.691 224.31 182.128 224.221 183.551Z" fill="#1E1D2B"/>
</g>
<path d="M223.752 178.855C223.648 180.489 223.343 182.1 222.798 183.677C218.426 196.327 203.099 203.808 191.241 203.808C182.84 203.808 177.975 202.141 174.242 196.196C170.119 189.631 172.199 180.912 180.929 176.822C181.638 176.488 183.178 176.31 183.178 176.31L180.746 171.558L179.933 169.966C179.933 169.966 181.088 170.229 182.727 170.581C186.409 171.379 192.523 172.633 193.406 172.379C196.078 171.609 200.506 168.942 200.121 161.692L199.229 157.377L194.97 136.814L194.66 135.331C194.66 135.331 200.276 139.622 206.574 146.131C214.933 154.761 224.494 167.289 223.752 178.855Z" fill="white"/>
<g opacity="0.35">
<path d="M223.752 178.855C223.648 180.489 223.343 182.099 222.798 183.677C218.426 196.327 203.099 203.808 191.241 203.808C182.84 203.808 177.975 202.141 174.242 196.196C173.176 194.501 172.527 192.66 172.297 190.791C175.848 195.163 180.506 196.459 187.907 196.459C199.764 196.459 215.092 188.979 219.464 176.328C220.009 174.751 220.314 173.14 220.417 171.506C220.615 168.454 220.093 165.336 219.065 162.241C222.131 167.651 224.104 173.361 223.752 178.855Z" fill="#1E1D2B"/>
</g>
<path d="M195.042 134.832C196.502 135.443 197.819 136.223 199.099 137.064C200.384 137.898 201.592 138.828 202.763 139.802C205.086 141.769 207.293 143.879 209.351 146.134C211.403 148.395 213.358 150.749 215.225 153.182C217.083 155.622 218.856 158.146 220.409 160.832C221.962 163.514 223.321 166.35 224.287 169.377C225.248 172.394 225.807 175.63 225.608 178.916C225.598 179.738 225.446 180.552 225.313 181.368C225.22 182.191 224.928 182.975 224.72 183.776C224.66 183.973 224.614 184.179 224.542 184.369L224.313 184.933L223.852 186.06C223.577 186.828 223.152 187.517 222.776 188.234C221.207 191.061 219.135 193.557 216.79 195.693C214.445 197.842 211.808 199.619 209.02 201.065C206.232 202.516 203.292 203.655 200.25 204.453C197.216 205.25 194.049 205.7 190.871 205.68C189.327 205.679 187.759 205.599 186.176 205.421C184.595 205.237 182.984 204.936 181.396 204.395C179.811 203.858 178.259 203.056 176.904 202.008C175.543 200.963 174.393 199.7 173.434 198.365C172.496 197.068 171.643 195.51 171.1 193.9C170.529 192.282 170.294 190.542 170.35 188.82C170.415 187.102 170.744 185.371 171.432 183.79C172.107 182.208 173.035 180.745 174.162 179.475C174.446 179.16 174.754 178.874 175.053 178.573C175.204 178.426 175.351 178.273 175.507 178.133L175.995 177.737C176.324 177.479 176.642 177.201 176.983 176.962L178.025 176.279C178.367 176.039 178.736 175.855 179.101 175.663L179.648 175.375L179.921 175.232L180.059 175.16L180.127 175.125L180.241 175.075C180.852 174.822 181.255 174.747 181.693 174.651C182.126 174.564 182.509 174.502 182.958 174.444L181.506 177.164L178.262 170.822L176.438 167.254L180.352 168.135C182.56 168.631 184.791 169.114 187.008 169.557C188.117 169.782 189.226 169.991 190.324 170.18C190.875 170.273 191.416 170.349 191.95 170.419C192.198 170.438 192.477 170.471 192.699 170.48L193.003 170.488L193.041 170.489C193.048 170.489 193.028 170.486 193.022 170.485C193.004 170.482 192.986 170.482 192.968 170.485C192.935 170.487 192.888 170.506 192.873 170.52C193.722 170.23 194.54 169.786 195.234 169.236C195.944 168.698 196.542 168.056 197.068 167.326C197.576 166.583 198.003 165.746 198.394 164.812C198.805 163.879 199.072 162.844 199.497 161.726L199.519 161.666C199.648 161.327 200.028 161.156 200.368 161.285C200.547 161.353 200.681 161.494 200.747 161.66C200.975 162.244 201.191 162.846 201.279 163.474C201.321 163.788 201.38 164.104 201.407 164.426C201.417 164.748 201.42 165.073 201.416 165.399C201.359 166.704 201.026 168.052 200.37 169.279C199.738 170.519 198.783 171.609 197.673 172.452C196.555 173.297 195.287 173.873 193.946 174.238C193.789 174.271 193.598 174.298 193.425 174.314L193.157 174.333L193.031 174.336L192.962 174.332L192.41 174.293C192.062 174.26 191.775 174.211 191.455 174.171C190.857 174.082 190.269 173.985 189.694 173.883C188.54 173.685 187.402 173.469 186.271 173.241C184.007 172.788 181.769 172.304 179.517 171.797L181.607 169.111L184.851 175.455L186.071 177.839L183.399 178.175C183.105 178.211 182.747 178.269 182.445 178.331C182.151 178.389 181.817 178.481 181.737 178.52L180.883 178.97C180.583 179.127 180.278 179.274 180.008 179.47L179.169 180.018C178.895 180.208 178.651 180.43 178.39 180.633L178.003 180.943C177.881 181.052 177.769 181.173 177.652 181.287C177.423 181.521 177.179 181.741 176.96 181.982C176.098 182.959 175.408 184.059 174.902 185.232C174.386 186.403 174.158 187.677 174.105 188.942C174.065 190.21 174.23 191.497 174.662 192.708C175.088 193.934 175.673 195.042 176.487 196.178C178.062 198.394 180.094 200.01 182.613 200.843C193.33 203.848 205.851 200.42 214.267 192.912C216.349 191.014 218.149 188.833 219.49 186.416C219.808 185.804 220.183 185.216 220.408 184.565L220.798 183.61L220.995 183.134C221.057 182.974 221.089 182.811 221.137 182.65C221.297 181.999 221.55 181.372 221.617 180.697C221.722 180.032 221.857 179.371 221.858 178.688C222.023 175.981 221.563 173.206 220.707 170.52C219.849 167.829 218.608 165.222 217.158 162.719C214.25 157.705 210.52 153.103 206.411 148.889C204.371 146.766 202.305 144.661 200.226 142.557C199.185 141.505 198.165 140.429 197.171 139.314C196.173 138.207 195.189 137.06 194.282 135.831L194.272 135.818C194.06 135.53 194.121 135.125 194.408 134.913C194.597 134.768 194.839 134.747 195.042 134.832Z" fill="#1E1D2B"/>
<path d="M116.409 150.932C168.614 200.079 239.444 130.036 194.555 77.5689C142.309 25.9927 69.1611 98.4623 116.409 150.932Z" fill="white"/>
<path d="M116.409 150.932C168.614 200.079 239.444 130.036 194.555 77.5689C142.309 25.9927 69.1611 98.4623 116.409 150.932Z" fill="white"/>
<g opacity="0.35">
<path d="M206.573 146.131C206.226 146.849 205.86 147.558 205.475 148.258C203.714 151.503 201.614 154.559 199.229 157.377C194.65 162.796 189.024 167.322 182.727 170.581C182.074 170.919 181.417 171.248 180.75 171.558L177.599 165.397C163.168 167.886 152.706 170.44 145.347 172.61C145.591 167.35 145.521 161.551 144.873 155.452L193.504 135.326C193.504 135.326 193.528 135.349 193.575 135.396C193.598 135.42 193.627 135.448 193.664 135.486L193.777 135.598C193.819 135.645 193.866 135.692 193.922 135.744C194.171 135.997 194.523 136.354 194.97 136.814L194.66 135.331C194.66 135.331 200.276 139.622 206.573 146.131Z" fill="#1E1D2B"/>
</g>
<path d="M116.409 150.932C168.614 200.079 239.444 130.036 194.555 77.5689C142.309 25.9927 69.1611 98.4623 116.409 150.932Z" fill="white"/>
<path d="M155.177 168.953C141.047 168.953 127.361 163.083 115.49 151.908L115.412 151.829C104.145 139.317 98.82 124.797 100.014 109.839C101.079 96.4939 107.266 83.7944 117.438 74.0814C127.59 64.386 140.49 58.8721 153.763 58.5528C168.717 58.19 183.16 64.44 195.496 76.6171L195.572 76.6992C206.292 89.2285 211.262 103.627 209.945 118.337C208.767 131.492 202.614 143.985 192.619 153.515C182.648 163.021 169.948 168.494 156.859 168.926C156.299 168.943 155.737 168.953 155.177 168.953ZM117.367 149.995C143.476 174.542 173.043 168.479 190.771 151.575C208.093 135.059 216.351 105.148 193.574 78.4824C167.585 52.8628 136.854 59.2419 119.289 76.0172C101.55 92.958 93.3879 123.327 117.367 149.995Z" fill="#1E1D2B"/>
<g opacity="0.35">
<path d="M116.408 150.931C160.761 194.166 227.782 145.316 203.528 90.9517C205.362 110.278 199.23 112.826 192.224 124.938C171.285 164.092 118.216 154.885 101.719 119.488C102.998 131.488 108.301 142.498 116.408 150.931Z" fill="#1E1D2B"/>
</g>
<path d="M155.177 169.492C140.908 169.492 127.095 163.572 115.122 152.3L115.014 152.189C103.645 139.565 98.2741 124.905 99.4787 109.796C100.554 96.3178 106.801 83.495 117.068 73.6905C127.315 63.9035 140.343 58.3356 153.75 58.0139C168.872 57.6629 183.433 63.9516 195.875 76.2332L195.983 76.3494C206.8 88.9925 211.814 103.528 210.483 118.385C209.294 131.672 203.082 144.285 192.993 153.904C182.926 163.502 170.1 169.029 156.878 169.464C156.311 169.482 155.742 169.492 155.177 169.492ZM117.753 149.618C143.601 173.903 172.859 167.91 190.401 151.186C207.541 134.843 215.713 105.245 193.179 78.851C167.451 53.5061 137.041 59.81 119.661 76.4069C102.11 93.1705 94.0348 123.222 117.753 149.618Z" fill="#293856"/>
<path d="M155.177 169.492C140.908 169.492 127.095 163.572 115.122 152.3L115.014 152.189C103.645 139.565 98.2741 124.905 99.4787 109.796C100.554 96.3178 106.801 83.495 117.068 73.6905C127.315 63.9035 140.343 58.3356 153.75 58.0139C168.872 57.6629 183.433 63.9516 195.875 76.2332L195.983 76.3494C206.8 88.9925 211.814 103.528 210.483 118.385C209.294 131.672 203.082 144.285 192.993 153.904C182.926 163.502 170.1 169.029 156.878 169.464C156.311 169.482 155.742 169.492 155.177 169.492ZM117.753 149.618C143.601 173.903 172.859 167.91 190.401 151.186C207.541 134.843 215.713 105.245 193.179 78.851C167.451 53.5061 137.041 59.81 119.661 76.4069C102.11 93.1705 94.0348 123.222 117.753 149.618Z" fill="#1E1D2B"/>
<path d="M127.117 159.532C187.046 178.807 218.023 106.966 169.832 80.2198C114.033 53.5401 73.9956 123.77 127.117 159.532Z" fill="#371A46"/>
<path d="M116.639 134.875C116.855 135.595 117.119 136.298 117.43 136.978C121.382 145.716 132.785 150.996 150.434 151.116L161.025 150.308C178.188 147.908 191.518 141.968 193.533 129.891C193.907 127.654 194.018 125.023 193.818 122.168C193.077 111.387 187.948 97.4151 176.136 89.4426C163.632 81.0021 147.756 83.8913 144.3 84.4925C123.492 88.105 120.267 103.444 118.205 121.532C118.206 121.537 117.844 122.134 117.412 123.17C117.23 123.603 117.038 124.116 116.854 124.693C116.063 127.17 115.432 130.863 116.639 134.875Z" fill="#F9A429"/>
<path d="M116.639 134.875C119.641 144.862 131.41 150.987 150.434 151.116L161.024 150.308C178.188 147.908 191.517 141.968 193.533 129.891C193.907 127.654 194.018 125.023 193.818 122.168C191.182 121.041 186.142 119.761 180.672 119.962C168.562 120.406 169.137 125.428 162.017 125.771C155.638 126.078 153.152 121.158 145.708 121.445C139.784 121.674 138.511 125.38 135.125 126.476C128.148 128.733 126.607 121.516 117.411 123.17C116.457 125.467 115.149 129.927 116.639 134.875Z" fill="#FFF3E9"/>
<g opacity="0.3">
<path d="M193.819 122.168C194.019 125.021 193.905 127.653 193.533 129.89C191.516 141.967 178.188 147.908 161.024 150.307L150.433 151.115C134.685 151.008 123.91 146.794 118.964 139.68C124.971 144.791 134.918 147.733 148.316 147.825L159.356 146.982C177.251 144.479 191.147 138.287 193.25 125.696C193.437 124.58 193.561 123.369 193.614 122.08C193.684 122.11 193.752 122.139 193.819 122.168Z" fill="#4B2B5A"/>
</g>
<path d="M142.578 130.938C144.476 133.095 144.1 138.858 148.232 137.984C152.502 137.082 150.538 131.684 152.308 128.999" fill="#4B2B5A"/>
<path d="M140.041 129.475C140.041 129.475 139.549 131.564 141.454 132.355C143.824 133.339 145.85 131.136 146.285 130.237C146.387 130.028 146.769 130.004 146.864 130.217C147.379 131.372 149.286 133.627 152.126 132.501C153.241 132.059 154.244 130.666 153.665 129.304L147.636 122.866L140.041 129.475Z" fill="#FFF3E9"/>
<g opacity="0.3">
<path d="M153.751 130.722C153.518 131.534 152.844 132.216 152.124 132.5C149.287 133.625 147.379 131.373 146.863 130.215C146.769 130.003 146.388 130.027 146.284 130.238C145.85 131.136 143.824 133.339 141.455 132.355C140.591 131.998 140.22 131.374 140.073 130.798C142.912 131.326 145.272 129.464 145.347 127.658C145.36 127.342 147.98 126.16 147.975 126.477C147.924 129.571 149.865 132.265 153.74 130.727C153.743 130.727 153.748 130.723 153.751 130.722Z" fill="#4B2B5A"/>
</g>
<path d="M153.187 129.506C153.23 129.84 153.186 130.133 153.077 130.4C152.961 130.666 152.783 130.91 152.563 131.109C152.344 131.309 152.081 131.467 151.838 131.545C151.806 131.554 151.781 131.565 151.745 131.574L151.624 131.602L151.383 131.659C151.225 131.685 151.07 131.709 150.917 131.72C150.766 131.72 150.615 131.739 150.47 131.716C150.322 131.718 150.18 131.676 150.035 131.658C149.75 131.587 149.463 131.484 149.188 131.326C148.919 131.156 148.66 130.945 148.431 130.699C148.208 130.452 148.007 130.162 147.875 129.893L147.828 129.795L147.801 129.74C147.784 129.706 147.765 129.672 147.746 129.64C147.707 129.574 147.661 129.515 147.611 129.459C147.513 129.347 147.396 129.258 147.287 129.197C147.062 129.069 146.853 129.027 146.661 129.016C146.469 129.008 146.289 129.033 146.103 129.098C145.919 129.164 145.722 129.273 145.545 129.463C145.5 129.514 145.46 129.56 145.421 129.62C145.402 129.649 145.384 129.679 145.366 129.709L145.33 129.777L145.307 129.812C145.284 129.857 145.239 129.919 145.197 129.979C145.02 130.228 144.772 130.484 144.518 130.701C144.001 131.134 143.427 131.447 142.877 131.524C142.6 131.575 142.325 131.556 142.037 131.492C141.734 131.435 141.491 131.334 141.29 131.189C141.082 131.052 140.917 130.845 140.788 130.562C140.723 130.423 140.669 130.264 140.633 130.096C140.61 130.012 140.595 129.925 140.582 129.838C140.567 129.756 140.557 129.651 140.546 129.593L140.516 129.437C140.463 129.16 140.196 128.979 139.919 129.032C139.738 129.067 139.597 129.194 139.537 129.355C139.481 129.504 139.446 129.608 139.412 129.736C139.382 129.859 139.356 129.983 139.338 130.11C139.309 130.364 139.293 130.628 139.33 130.898C139.358 131.168 139.43 131.445 139.541 131.714C139.603 131.845 139.67 131.978 139.747 132.105C139.832 132.225 139.912 132.356 140.013 132.466C140.412 132.913 140.93 133.24 141.438 133.409L141.631 133.481L141.834 133.531C141.971 133.561 142.108 133.598 142.247 133.617C142.528 133.642 142.812 133.665 143.093 133.635C143.654 133.595 144.199 133.437 144.673 133.204C145.148 132.967 145.576 132.675 145.953 132.337C146.334 131.999 146.663 131.629 146.961 131.182C147.036 131.067 147.109 130.954 147.182 130.81L147.235 130.708C147.246 130.686 147.226 130.728 147.219 130.741C147.208 130.76 147.196 130.779 147.184 130.797C147.158 130.833 147.137 130.862 147.109 130.892C147.003 131.005 146.9 131.057 146.814 131.087C146.727 131.116 146.654 131.125 146.567 131.123C146.48 131.118 146.376 131.1 146.243 131.025C146.18 130.988 146.105 130.933 146.042 130.861C146.008 130.824 145.981 130.784 145.954 130.743C145.941 130.721 145.929 130.7 145.918 130.677L145.904 130.645L145.91 130.657L146.002 130.842C146.253 131.324 146.552 131.724 146.897 132.098C147.238 132.473 147.625 132.815 148.063 133.105C148.506 133.39 149.002 133.621 149.534 133.758C150.07 133.888 150.63 133.909 151.165 133.835C151.3 133.822 151.426 133.78 151.556 133.753C151.683 133.718 151.817 133.698 151.937 133.649L152.297 133.508L152.475 133.436C152.537 133.408 152.607 133.371 152.672 133.338C152.807 133.274 152.922 133.19 153.044 133.114C153.155 133.026 153.272 132.944 153.372 132.846C153.582 132.661 153.759 132.449 153.922 132.227C154.232 131.774 154.45 131.246 154.505 130.684C154.556 130.123 154.426 129.544 154.141 129.099C153.984 128.856 153.66 128.785 153.416 128.941C153.24 129.054 153.155 129.254 153.18 129.449L153.187 129.506Z" fill="#4B2B5A"/>
<path d="M141.168 123.751C141.228 125.305 143.014 126.612 144.378 127.387C145.323 127.923 146.492 127.878 147.392 127.27C148.692 126.392 150.372 124.952 150.311 123.397C150.213 120.872 141.07 121.226 141.168 123.751Z" fill="#4B2B5A"/>
<g opacity="0.35">
<path d="M143.315 123.12C143.326 123.408 143.977 123.637 144.476 123.771C144.821 123.864 145.253 123.847 145.591 123.728C146.078 123.556 146.709 123.277 146.697 122.99C146.679 122.522 143.296 122.653 143.315 123.12Z" fill="white"/>
</g>
<path d="M146.055 130.864L147.673 129.568C147.673 129.568 147.683 129.579 147.7 129.603C147.693 129.593 147.002 128.525 147.116 125.288C147.136 124.715 146.688 124.235 146.116 124.215C145.543 124.194 145.063 124.643 145.043 125.215C144.903 129.215 145.861 130.623 146.055 130.864Z" fill="#4B2B5A"/>
<path d="M181.707 94.8047C185.951 99.7945 188.965 105.682 190.801 111.894C191.73 114.996 192.391 118.184 192.692 121.402C193.184 124.6 192.9 127.906 192.245 130.942C191.518 133.975 189.881 136.737 187.635 138.947C185.396 141.171 182.642 142.896 179.726 144.27C176.802 145.649 173.693 146.654 170.548 147.537C167.398 148.418 164.192 149.141 160.966 149.884C160.735 149.937 160.591 150.167 160.644 150.398C160.691 150.605 160.881 150.742 161.085 150.732C164.417 150.555 167.734 150.074 171.004 149.32C172.638 148.94 174.258 148.486 175.855 147.946C177.452 147.407 179.03 146.796 180.572 146.089C183.647 144.673 186.619 142.867 189.096 140.421C190.333 139.204 191.435 137.826 192.321 136.31C193.215 134.798 193.873 133.144 194.288 131.44C194.715 129.722 194.843 128.016 194.882 126.309C194.895 125.457 194.898 124.607 194.874 123.759C194.836 123.548 194.962 123.331 194.931 123.119L194.898 122.483C194.878 122.059 194.844 121.636 194.807 121.213C194.517 117.834 193.862 114.493 192.843 111.265C192.319 109.656 191.731 108.066 191.029 106.527C190.329 104.987 189.549 103.484 188.685 102.031C186.945 99.136 184.855 96.4463 182.416 94.132C182.22 93.9462 181.911 93.9542 181.725 94.1499C181.552 94.3323 181.547 94.6134 181.705 94.801L181.707 94.8047Z" fill="#4B2B5A"/>
<path d="M150.437 150.628C148.207 150.438 145.989 150.243 143.788 149.966C141.588 149.686 139.404 149.34 137.25 148.878C135.097 148.42 132.974 147.838 130.932 147.065C128.891 146.296 126.924 145.344 125.128 144.156C123.333 142.972 121.714 141.543 120.411 139.877C119.108 138.213 118.137 136.306 117.582 134.279C117.012 132.265 116.907 130.13 117.192 128.041C117.334 126.995 117.576 125.96 117.902 124.951C118.066 124.447 118.252 123.95 118.459 123.465C118.561 123.222 118.671 122.983 118.785 122.748L118.959 122.401L119.049 122.233L119.094 122.152L119.116 122.111L119.128 122.091C119.101 122.138 119.199 121.98 119.239 121.829C119.282 121.68 119.291 121.519 119.273 121.382L119.278 121.642C119.832 116.271 120.553 110.925 122.05 105.822C122.803 103.277 123.763 100.803 125.021 98.5031C126.277 96.2047 127.839 94.0866 129.72 92.2979C131.597 90.5052 133.784 89.0495 136.158 87.9699C138.526 86.8855 141.085 86.1643 143.686 85.656C148.92 84.5602 154.271 84.0351 159.642 84.3035L159.644 84.3035C159.93 84.3179 160.174 84.0974 160.188 83.8111C160.201 83.5438 160.008 83.3132 159.749 83.2724C154.31 82.4268 148.715 82.6719 143.295 83.6256C141.931 83.8852 140.576 84.2083 139.239 84.6051C137.903 85.0068 136.57 85.4789 135.29 86.0675C132.719 87.2266 130.319 88.8119 128.264 90.7654C126.202 92.7134 124.5 95.0148 123.148 97.4736C121.792 99.9351 120.773 102.55 119.979 105.205C118.391 110.529 117.688 116.004 117.132 121.422L117.137 121.682C117.115 121.553 117.119 121.399 117.158 121.258C117.193 121.115 117.287 120.964 117.255 121.019L117.241 121.044L117.213 121.096L117.156 121.198L117.048 121.401C116.977 121.536 116.91 121.671 116.844 121.806C116.714 122.076 116.59 122.347 116.475 122.621C116.243 123.168 116.036 123.723 115.854 124.287C115.492 125.414 115.223 126.571 115.063 127.749C114.745 130.102 114.866 132.544 115.522 134.852C116.159 137.153 117.29 139.311 118.765 141.17C120.243 143.031 122.049 144.593 124.006 145.864C125.965 147.139 128.073 148.136 130.234 148.933C132.397 149.729 134.617 150.33 136.858 150.775C139.101 151.215 141.367 151.497 143.635 151.625C145.902 151.757 148.172 151.76 150.428 151.603C150.698 151.584 150.901 151.35 150.883 151.081C150.867 150.837 150.673 150.647 150.437 150.628Z" fill="#4B2B5A"/>
<path d="M161.587 107.16C161.819 105.722 157.068 101.156 154.32 102.412C151.571 103.668 152.092 106.738 153.803 107.583C156.288 108.811 161.356 108.598 161.587 107.16Z" fill="#FFF3E9"/>
<path d="M130.609 108.999C130.302 107.575 134.395 102.857 137.014 104.011C139.632 105.164 139.349 108.239 137.823 109.142C135.608 110.454 130.915 110.424 130.609 108.999Z" fill="#FFF3E9"/>
<path d="M151.021 135.13C148.816 137.82 152.218 143.273 147.581 143.566C145.773 143.68 144.487 142.242 143.891 140.473C143.24 138.545 143.404 136.219 144.589 135.069C144.927 134.742 145.652 134.36 146.915 134.687C148.805 133.801 149.962 134.239 150.547 134.664C150.873 134.899 151.021 135.13 151.021 135.13Z" fill="#FF1D74"/>
<g opacity="0.3">
<path d="M151.021 135.13C148.816 137.82 152.217 143.273 147.58 143.566C145.772 143.68 144.486 142.242 143.89 140.473C143.89 140.473 145.705 142.761 147.328 142.106C149.34 141.297 148.873 139.951 149.14 137.284C149.248 136.219 149.869 135.183 150.547 134.664C150.873 134.899 151.021 135.13 151.021 135.13Z" fill="#4B2B5A"/>
</g>
<path d="M148.801 144.096C151.047 143.376 150.983 141.048 150.936 139.287C150.898 137.914 150.86 136.494 151.593 135.6C151.797 135.352 151.817 135.001 151.643 134.731C151.133 133.937 149.482 132.783 146.84 133.911C145.264 133.592 144.387 134.235 144.075 134.539C142.417 136.147 142.508 139.243 143.435 141.338C144.319 143.335 145.847 144.416 147.628 144.304C148.075 144.276 148.464 144.204 148.801 144.096ZM150.067 135.223C149.378 136.461 149.419 137.972 149.457 139.326C149.524 141.825 149.384 142.71 147.534 142.827C145.934 142.928 145.08 141.401 144.787 140.739C143.962 138.876 144.105 136.57 145.104 135.601C145.255 135.454 145.716 135.142 146.731 135.404C146.898 135.447 147.074 135.431 147.23 135.358C148.75 134.644 149.632 134.929 150.067 135.223Z" fill="#4B2B5A"/>
<path d="M146.772 139.595C146.622 138.667 146.597 137.716 146.785 136.857C146.878 136.43 147.035 136.033 147.252 135.718C147.362 135.562 147.485 135.426 147.618 135.312C147.754 135.202 147.901 135.114 148.053 135.042C148.447 134.856 148.616 134.387 148.43 133.993C148.244 133.599 147.775 133.43 147.381 133.616C147.311 133.648 147.249 133.69 147.194 133.739L147.162 133.767C146.935 133.97 146.734 134.198 146.568 134.446C146.407 134.696 146.283 134.961 146.194 135.227C146.019 135.763 145.979 136.297 146.009 136.802C146.039 137.308 146.135 137.792 146.267 138.257C146.4 138.721 146.571 139.168 146.772 139.595Z" fill="#4B2B5A"/>
<path d="M168.204 120.939L168.163 120.711L168.128 120.543C168.105 120.434 168.076 120.332 168.049 120.229C167.995 120.023 167.928 119.824 167.861 119.625C167.723 119.23 167.564 118.843 167.381 118.463C167.198 118.085 166.998 117.71 166.766 117.35C166.538 116.987 166.286 116.632 165.998 116.294C165.431 115.614 164.731 114.981 163.826 114.511C163.607 114.393 163.342 114.292 163.138 114.223C162.923 114.144 162.697 114.082 162.473 114.02C162.018 113.909 161.545 113.832 161.062 113.809C160.097 113.759 159.081 113.938 158.178 114.368C157.273 114.792 156.501 115.446 155.922 116.194C155.348 116.948 154.959 117.794 154.74 118.649C154.521 119.506 154.452 120.371 154.537 121.213C154.571 121.559 154.879 121.812 155.225 121.777C155.465 121.753 155.659 121.599 155.745 121.391L155.754 121.368C156.047 120.658 156.314 119.98 156.655 119.371C156.982 118.756 157.364 118.212 157.789 117.757C158.647 116.844 159.74 116.415 160.938 116.483C161.238 116.498 161.544 116.536 161.852 116.606C162.156 116.675 162.494 116.776 162.723 116.867C163.24 117.067 163.766 117.458 164.272 117.916C164.521 118.15 164.769 118.401 165.011 118.664C165.249 118.931 165.49 119.206 165.72 119.494C165.95 119.782 166.177 120.077 166.4 120.378L166.727 120.832L166.883 121.057L166.957 121.162C166.98 121.192 167.002 121.231 167.008 121.213C167.084 121.543 167.413 121.75 167.743 121.674C168.074 121.598 168.28 121.269 168.204 120.939Z" fill="#4B2B5A"/>
<path d="M127.668 122.435C128.035 121.82 128.361 121.234 128.726 120.693C129.086 120.152 129.473 119.66 129.889 119.234C130.31 118.812 130.758 118.452 131.253 118.194C131.497 118.068 131.758 117.943 132.019 117.851C132.277 117.748 132.532 117.686 132.78 117.641C133.276 117.555 133.738 117.583 134.183 117.728C134.626 117.878 135.061 118.155 135.449 118.541C135.835 118.93 136.188 119.401 136.492 119.927C136.8 120.453 137.05 121.028 137.271 121.648L137.285 121.686C137.4 122.007 137.754 122.175 138.076 122.06C138.287 121.984 138.432 121.804 138.473 121.599C138.631 120.807 138.566 119.987 138.365 119.196C138.154 118.408 137.785 117.642 137.244 116.965C136.699 116.294 135.974 115.698 135.098 115.338C134.223 114.975 133.226 114.897 132.333 115.056C131.889 115.14 131.457 115.262 131.063 115.43C130.667 115.596 130.291 115.783 129.932 116.024C129.219 116.497 128.597 117.089 128.116 117.752C127.141 119.078 126.674 120.607 126.526 122.058C126.492 122.396 126.738 122.699 127.076 122.734C127.322 122.758 127.548 122.636 127.667 122.437L127.668 122.435Z" fill="#4B2B5A"/>
<path opacity="0.35" d="M127.117 159.532C187.046 178.807 218.023 106.966 169.832 80.2198C114.033 53.5401 73.9956 123.77 127.117 159.532Z" fill="url(#paint1_linear_201_49)"/>
<g opacity="0.35">
<path d="M180.928 88.4138C196.893 119.965 167.365 163.967 118.9 148.38C114.607 145.49 110.926 142.374 107.809 139.103C111.84 146.474 118.149 153.494 127.118 159.532C181.668 177.076 212.228 119.129 180.928 88.4138Z" fill="#111A28"/>
</g>
<path d="M152.009 168.55C151.508 168.55 151.009 168.542 150.508 168.524C138.016 168.095 125.868 162.372 115.376 151.974L115.367 151.966C98.1308 134.625 92.8853 101.201 112.549 79.0844L112.73 78.913C124.057 69.8609 139.392 65.9624 154.799 68.2151C170.152 70.4608 183.658 78.5292 191.853 90.3505C199.492 101.999 202.204 114.929 199.716 127.769C197.461 139.41 191.078 150.021 181.741 157.651C173.101 164.71 162.598 168.55 152.009 168.55ZM117.447 149.894C140.515 172.749 165.499 167.134 179.884 155.379C196.418 141.868 205.003 115.757 189.42 91.9905C181.709 80.8664 168.928 73.2477 154.375 71.1182C139.815 68.9887 125.345 72.6361 114.66 81.1271C96.1902 102.011 101.175 133.521 117.447 149.894Z" fill="#1E1D2B"/>
<path d="M146.709 164.647C140.218 164.647 133.444 163.539 126.542 161.32L126.288 161.239L126.067 161.09C113.21 152.434 104.76 141.141 101.629 128.431C98.8247 117.042 100.481 105.169 106.295 94.9993C111.977 85.0597 121.071 77.7579 131.902 74.4357C143.936 70.7461 157.331 72.1595 170.642 78.5245L170.743 78.5761C182.092 84.8742 189.931 94.0343 193.413 105.064C196.566 115.052 195.917 126.057 191.585 136.05C186.896 146.868 178.388 155.483 167.626 160.308C161.181 163.199 154.128 164.647 146.709 164.647ZM127.946 157.825C158.367 167.491 180.089 153.129 188.138 134.558C195.442 117.706 192.342 94.8925 168.97 81.8901C141.369 68.7199 119.245 79.9168 109.557 96.8635C99.6031 114.277 101.447 139.851 127.946 157.825Z" fill="#2A1A3C"/>
<path d="M216.723 111.124C218.895 136.312 193.832 140.609 189.334 116.771C186.089 90.4563 212.88 85.8604 216.723 111.124Z" fill="white"/>
<g opacity="0.35">
<path d="M205.282 132.462C197.779 133.805 190.261 126.036 189.164 115.509C196.347 125.116 203.432 104.795 203.028 99.5449C223.184 99.8572 219.116 130.29 205.282 132.462Z" fill="#1E1D2B"/>
</g>
<path d="M203.52 134.4C196.911 134.4 189.778 129.253 187.489 117.121L187.47 117.002C185.676 102.458 192.745 93.7468 200.654 92.6574C207.801 91.6737 216.466 96.9434 218.58 110.843L218.594 110.964C219.853 125.555 212.554 133.28 205.24 134.282C204.674 134.36 204.099 134.4 203.52 134.4ZM191.192 116.482C193.234 127.207 199.457 131.282 204.73 130.56C210.33 129.792 215.88 123.454 214.856 111.346C213.11 100.008 206.544 95.6368 201.166 96.3776C195.092 97.2146 189.721 104.388 191.192 116.482Z" fill="#1E1D2B"/>
<path d="M218 112.256C219.739 132.669 201.017 136.205 197.376 116.926C194.617 95.3737 214.968 91.5538 218 112.256Z" fill="white"/>
<path d="M208.184 131.511C203.039 131.511 197.418 127.262 195.531 117.273L195.513 117.163C193.947 104.931 199.49 97.6583 205.774 96.7955C211.375 96.023 218.169 100.452 219.859 111.982L219.872 112.095C220.907 124.255 215.191 130.638 209.441 131.425C209.027 131.482 208.607 131.511 208.184 131.511ZM199.233 116.631C200.826 124.977 205.248 128.206 208.932 127.704C213.098 127.134 216.904 121.721 216.134 112.472C214.803 103.514 210.098 99.9956 206.285 100.518C201.842 101.127 197.999 106.857 199.233 116.631Z" fill="#1E1D2B"/>
<g opacity="0.7">
<path d="M182.074 107.289C181.632 117.923 169.537 117.607 168.37 108.349C167.558 96.5913 181.819 96.7345 182.074 107.289Z" fill="white"/>
</g>
<g opacity="0.7">
<path d="M179.744 124.373C179.339 128.43 174.048 128.394 174.078 123.945C174.482 119.889 179.774 119.925 179.744 124.373Z" fill="white"/>
</g>
<g opacity="0.7">
<path opacity="0.15" d="M110.941 124.255C94.7828 86.9365 133.909 71.9584 148.178 77.2152C122.741 85.3517 115.212 104.144 110.941 124.255Z" fill="white"/>
</g>
<g opacity="0.35">
<path d="M197.478 121.626C196.442 118.937 196.14 115.954 196.47 113.078C203.239 125.517 215.18 116.368 215.943 106.066C223.721 125.012 205.979 139.106 197.478 121.626Z" fill="#1E1D2B"/>
</g>
<g opacity="0.35">
<path d="M143.703 215.674L130.264 210.856L124.826 202.808L121.491 197.877L112.921 185.208C112.855 184.537 112.799 183.846 112.761 183.128C112.761 183.128 120.547 184.87 125.558 192.266C127.887 195.708 128.324 199.558 127.338 201.53C131.085 205.799 133.666 211.448 143.581 215.444L143.703 215.674Z" fill="#1E1D2B"/>
</g>
<path d="M108.918 178.43C108.918 178.43 116.705 180.173 121.714 187.571C124.971 192.381 124.527 198.004 121.676 198.151C118.823 198.297 109.754 194.213 108.918 178.43Z" fill="white"/>
<g opacity="0.35">
<path d="M121.674 198.149C118.955 198.29 110.564 194.576 109.08 180.508C112.024 189.002 117.993 191.444 120.209 191.331C121.397 191.27 122.172 190.256 122.426 188.739C124.886 193.247 124.299 198.013 121.674 198.149Z" fill="#1E1D2B"/>
</g>
<path d="M121.508 200.034C117.14 200.034 107.905 194.8 107.042 178.531L106.91 176.057L109.327 176.599C109.675 176.676 117.904 178.597 123.269 186.519C125.801 190.259 126.586 194.846 125.178 197.674C124.47 199.094 123.228 199.953 121.771 200.028C121.686 200.031 121.597 200.034 121.508 200.034ZM111.049 181.169C112.66 193.588 119.955 196.277 121.517 196.277C121.538 196.277 121.558 196.277 121.578 196.276C121.667 196.271 121.765 196.1 121.816 195.999C122.387 194.854 122.254 191.72 120.159 188.625C117.351 184.477 113.537 182.256 111.049 181.169Z" fill="#1E1D2B"/>
<path d="M218.404 192.746C218.2 192.746 217.992 192.701 217.796 192.607C217.094 192.27 216.798 191.43 217.135 190.728C220.138 184.466 215.852 179.273 213.029 176.735C207.618 171.869 200.37 169.978 197.745 171.598C197.082 172.006 196.215 171.801 195.806 171.139C195.397 170.477 195.602 169.609 196.265 169.199C200.734 166.442 209.516 169.785 214.914 174.64C220.713 179.856 222.448 186.164 219.675 191.946C219.432 192.451 218.929 192.746 218.404 192.746Z" fill="#1E1D2B"/>
<path d="M185.27 235.709C185.194 235.709 185.116 235.703 185.038 235.69C184.27 235.563 183.751 234.837 183.878 234.07C186.121 220.527 179.799 214.367 175.831 211.901C170.35 208.493 163.019 208.218 158.782 211.259C158.151 211.713 157.27 211.569 156.816 210.936C156.363 210.304 156.507 209.424 157.139 208.971C162.332 205.242 170.819 205.468 177.319 209.508C185.087 214.337 188.492 223.457 186.658 234.53C186.544 235.22 185.948 235.709 185.27 235.709Z" fill="#1E1D2B"/>
<path d="M158.384 241.013C158.854 241.299 159.427 241.668 159.961 241.981C160.504 242.305 161.056 242.616 161.615 242.909C162.736 243.484 163.881 244.007 165.083 244.364C166.285 244.738 167.533 244.876 168.812 244.854L169.78 244.8L170.744 244.62C170.906 244.588 171.074 244.567 171.236 244.526L171.712 244.375L172.696 244.078L172.723 244.07C172.83 244.038 172.943 244.098 172.975 244.205C172.999 244.287 172.969 244.373 172.906 244.422C172.629 244.639 172.348 244.861 172.055 245.075L171.615 245.399C171.461 245.494 171.297 245.57 171.136 245.657C170.813 245.827 170.484 245.997 170.148 246.156L169.09 246.509C167.655 246.902 166.104 247.056 164.605 246.86C163.106 246.679 161.631 246.285 160.275 245.657C159.936 245.502 159.597 245.342 159.276 245.154C158.949 244.976 158.627 244.788 158.322 244.577C157.688 244.161 157.131 243.735 156.54 243.145C155.989 242.595 155.988 241.703 156.537 241.151C157.007 240.681 157.725 240.611 158.269 240.943L158.384 241.013Z" fill="#1E1D2B"/>
<path d="M128.52 235.651C128.519 235.632 128.574 235.703 128.606 235.737L128.731 235.877C128.808 235.975 128.916 236.071 129.005 236.17C129.197 236.365 129.395 236.564 129.614 236.746C130.036 237.125 130.518 237.45 131.008 237.77C132.008 238.386 133.142 238.877 134.363 239.219C135.578 239.594 136.887 239.743 138.217 239.888L140.247 239.984C140.929 239.972 141.62 239.973 142.323 239.989H142.337C142.45 239.991 142.538 240.085 142.535 240.197C142.533 240.283 142.479 240.354 142.404 240.382C141.745 240.63 141.074 240.863 140.393 241.081C139.706 241.266 139.004 241.411 138.296 241.563C136.87 241.758 135.395 241.903 133.896 241.715C132.406 241.555 130.869 241.192 129.477 240.415C128.786 240.022 128.113 239.576 127.533 239C127.229 238.731 126.966 238.409 126.706 238.084C126.581 237.914 126.458 237.749 126.345 237.559C126.286 237.464 126.233 237.38 126.178 237.271C126.12 237.159 126.079 237.086 125.999 236.912C125.651 236.216 125.931 235.371 126.628 235.021C127.325 234.676 128.171 234.957 128.52 235.651Z" fill="#1E1D2B"/>
<rect x="10" y="154.423" width="48" height="48" rx="12" transform="rotate(-15 10 154.423)" fill="white"/>
<g clip-path="url(#clip0_201_49)">
<path d="M37.7221 175.135L38.7839 180.631C39.3325 180.484 39.507 180.185 39.7161 179.825L41.6297 176.678L48.0056 179.153C49.129 179.436 49.7409 178.964 49.6945 177.736L48.8004 160.405L48.8011 160.404C48.724 158.876 47.74 158.534 46.8825 159.144L28.4276 172.527C27.1701 173.448 27.401 174.225 28.6396 174.273L34.3354 174.499L44.5 163.586C44.9728 163.051 45.5518 163.122 45.2239 163.617L37.7221 175.135Z" fill="#505E8C"/>
</g>
<rect x="293.785" y="33.7847" width="48" height="48" rx="12" transform="rotate(30 293.785 33.7847)" fill="white"/>
<g clip-path="url(#clip1_201_49)">
<path d="M305.336 63.7583L306.548 61.6577C306.883 61.078 307.625 60.8791 308.205 61.2138L309.255 61.8202L310.771 59.1945L308.671 57.9817C306.93 56.9769 304.705 57.5731 303.701 59.3134L302.185 61.9392L300.084 60.7264L298.568 63.3521L300.669 64.5649L295.818 72.9674L298.968 74.7865L303.82 66.3841L305.92 67.5969L308.486 65.5775L305.336 63.7583Z" fill="#505E8C"/>
</g>
<rect x="46.3792" y="9.33618" width="40.0858" height="40.0858" rx="12" transform="rotate(30 46.3792 9.33618)" fill="white"/>
<g clip-path="url(#clip2_201_49)">
<path d="M63.7172 37.4485C63.009 37.3701 62.312 37.1868 61.6381 36.9041C62.5066 36.8914 63.3494 36.57 64.0028 35.9734C63.1934 35.9848 62.3821 35.8545 61.5919 35.587C61.3716 34.648 60.7744 33.8005 59.8854 33.2872C58.1606 32.2914 55.9638 32.8897 54.9729 34.606C54.8303 34.8529 54.7141 35.1024 54.6349 35.3581C52.1178 33.7364 50.5427 31.1718 50.0949 28.392C49.5569 28.7031 49.091 29.1459 48.7593 29.7205C48.1363 30.7994 48.1398 32.0766 48.6483 33.1085C48.1532 32.81 47.7461 32.3812 47.4622 31.9122C47.4568 31.9216 47.4496 31.934 47.4425 31.9463C46.5684 33.4603 46.9223 35.3413 48.1712 36.4485C47.8775 36.3715 47.582 36.2451 47.2951 36.0795C47.0957 35.9644 46.9009 35.8367 46.736 35.6858C46.4274 37.1526 47.0491 38.721 48.3941 39.5368C46.8555 39.7539 45.2212 39.4765 43.7642 38.6353C43.5087 38.4878 43.2703 38.335 43.0433 38.1621C43.9095 39.8488 45.2517 41.3012 47.0154 42.3195C52.7483 45.6294 58.6243 42.6901 61.0009 38.5737C61.0804 38.436 61.1524 38.3003 61.222 38.1645C62.0936 38.0826 62.9295 37.8346 63.7172 37.4485Z" fill="#505E8C"/>
</g>
<defs>
<linearGradient id="paint0_linear_201_49" x1="155.997" y1="304.531" x2="226.396" y2="41.7992" gradientUnits="userSpaceOnUse">
<stop stop-color="white"/>
<stop offset="1" stop-color="white" stop-opacity="0"/>
</linearGradient>
<linearGradient id="paint1_linear_201_49" x1="147.843" y1="74.3088" x2="147.843" y2="162.774" gradientUnits="userSpaceOnUse">
<stop stop-color="#371A46" stop-opacity="0"/>
<stop offset="1" stop-color="#371A46"/>
</linearGradient>
<clipPath id="clip0_201_49">
<rect width="24" height="40.2998" fill="white" transform="translate(22.1086 153.249) rotate(-15)"/>
</clipPath>
<clipPath id="clip1_201_49">
<rect width="19.4046" height="32.5834" fill="white" transform="translate(303.261 45.5217) rotate(30)"/>
</clipPath>
<clipPath id="clip2_201_49">
<rect width="17.5473" height="29.4647" fill="white" transform="translate(53.8431 19.4563) rotate(30)"/>
</clipPath>
</defs>
</svg>
