<svg width="223" height="354" viewBox="0 0 223 354" fill="none" xmlns="http://www.w3.org/2000/svg">
<g clip-path="url(#clip0_31_15505)">
<g opacity="0.25">
<path d="M120.791 355C177.239 355 222.999 349.299 222.999 342.265C222.999 335.232 177.239 329.53 120.791 329.53C64.3427 329.53 18.5825 335.232 18.5825 342.265C18.5825 349.299 64.3427 355 120.791 355Z" fill="#132D55"/>
</g>
<path d="M83.7979 279.691C100.756 269.177 110.197 240.935 110.866 238.878C105.423 219.385 108.783 193.712 109.362 189.698C93.4441 187.793 82.4274 177.434 80.5393 175.544C77.0276 177.527 69.895 181.971 62.4621 189.034C52.8684 198.151 40.797 213.626 37.7741 235.574C37.7586 235.682 36.3706 245.419 36.1751 249.82C39.7866 247.905 54.9057 240.619 72.1258 242.722C74.7516 234.401 78.8806 217.849 76.936 200.667C76.9041 200.379 77.1109 200.12 77.399 200.087C77.6922 200.055 77.9464 200.261 77.9803 200.549C79.9693 218.126 75.6766 235.039 73.0271 243.35C73.0271 243.354 73.0281 243.357 73.0281 243.362C73.0189 243.429 72.9962 243.492 72.9643 243.547C72.277 245.69 71.707 247.237 71.3973 248.045C73.7329 248.491 76.6304 250.8 77.6676 251.681C77.7612 251.723 77.8383 251.79 77.8939 251.876C77.9135 251.893 77.9402 251.916 77.9567 251.93C78.7716 252.132 82.699 253.279 83.1003 256.677C83.6158 261.043 81.0928 268.696 72.1268 270.641C63.5126 272.51 55.9222 269.805 54.4416 269.224C43.6204 275.59 32.8434 279.094 31.5141 279.514C20.1609 291.779 26.7872 313.615 29.0251 319.874C29.6991 317.388 31.6314 312.809 37.1238 308.272C42.0575 304.197 51.8518 298.509 63.1926 291.923C70.0134 287.96 77.0687 283.863 83.7979 279.691Z" fill="white"/>
<path d="M70.2952 247.981C70.5319 247.378 71.0916 245.904 71.7985 243.738C69.6779 243.489 67.5902 243.379 65.554 243.389L66.6745 249.169C67.3968 248.685 68.6418 248.065 70.2952 247.981Z" fill="#001364"/>
<path d="M67.3494 290.718C66.1342 291.426 64.9221 292.13 63.7193 292.829C59.6417 295.197 55.7709 297.446 52.252 299.545C54.7255 300.686 61.5174 304.09 65.878 308.864L67.3494 290.718Z" fill="#132D55"/>
<path d="M54.3602 268.117C54.3613 268.117 54.3623 268.117 54.3633 268.117H54.3654C54.4425 268.111 54.5166 268.128 54.5856 268.155C54.5907 268.157 54.5969 268.156 54.6031 268.158C54.6843 268.192 62.8345 271.582 71.9024 269.615C81.2347 267.591 82.3953 259.677 82.0558 256.799C81.7636 254.324 78.8867 253.289 77.9185 253.007C77.8743 253.495 77.8208 253.979 77.7508 254.462C77.6386 255.213 77.4956 255.959 77.3166 256.694C77.1303 257.428 76.9071 258.153 76.6365 258.858C76.3525 259.558 76.016 260.236 75.6065 260.862C76.2794 259.521 76.6097 258.06 76.8011 256.599C76.8906 255.865 76.9441 255.129 76.9667 254.393C76.9853 253.741 76.9781 253.078 76.9431 252.439C75.516 251.231 72.5146 249.011 70.6615 249.011C69.149 249.011 67.9966 249.568 67.3329 249.996C67.4204 250.74 67.4409 251.455 67.4193 252.185C67.3895 253.029 67.2887 253.869 67.1158 254.691C66.9532 255.516 66.6713 256.315 66.3318 257.075C65.9953 257.841 65.5158 258.529 65.0045 259.172C65.4469 258.476 65.841 257.756 66.0879 256.977C66.339 256.205 66.5262 255.414 66.5972 254.609C66.6785 253.807 66.6888 253 66.6312 252.199C66.5921 251.673 66.5242 251.138 66.4285 250.623C66.4264 250.623 66.4254 250.624 66.4244 250.625C66.411 250.628 66.3976 250.627 66.3842 250.629C66.3729 250.63 66.3616 250.632 66.3503 250.632C66.3421 250.632 66.3328 250.634 66.3246 250.634C66.3143 250.634 66.306 250.63 66.2958 250.629C66.2772 250.628 66.2587 250.63 66.2402 250.627C66.2299 250.625 66.2217 250.617 66.2114 250.615C66.1497 250.6 66.092 250.577 66.0396 250.543C66.0293 250.536 66.018 250.532 66.0077 250.525C65.949 250.481 65.9027 250.425 65.8667 250.359C65.8636 250.354 65.8585 250.351 65.8554 250.346C65.808 250.257 64.5744 248.049 59.8146 249.266C54.9529 250.51 54.2501 256.596 54.244 256.658C54.2131 256.946 53.9476 257.157 53.6667 257.124C53.3786 257.095 53.1698 256.837 53.1996 256.549C53.2284 256.269 53.9785 249.677 59.5542 248.251C62.5875 247.474 64.4303 247.969 65.5004 248.611L64.4931 243.41C55.0208 243.645 46.7482 246.314 41.5707 248.46C39.9738 255.256 40.6004 260.418 43.4382 263.798C47.3378 268.443 54.2069 268.124 54.3602 268.117Z" fill="white"/>
<path d="M95.3218 328.241C93.3627 328.76 91.5178 329.28 89.7337 329.784C82.7586 331.75 76.7342 333.45 68.9751 333.613C68.5388 333.622 68.0995 333.626 67.6612 333.626C59.8547 333.626 51.8034 332.245 49.4543 331.808C49.6447 333.905 50.2374 335.555 51.2416 336.697C52.9537 337.288 72.8994 343.736 95.081 332.285C95.2302 332.208 95.4072 332.207 95.5574 332.282C95.7076 332.357 95.8126 332.5 95.8404 332.665L96.4484 336.306C102.984 336.613 112.864 336.695 114.417 335.692C115.682 334.874 115.823 331.505 115.442 327.108C113.372 326.883 103.736 326.011 95.3218 328.241Z" fill="#898786"/>
<path d="M102.237 314.727C96.9114 316.176 89.8016 315.488 79.8611 312.559C72.2296 310.312 66.765 313.808 66.3441 314.089C66.0375 314.373 63.9436 316.177 59.8074 316.636C56.1238 317.045 51.5081 318.445 50.4339 322.8C49.6817 325.849 49.3401 328.506 49.3936 330.731C51.4031 331.113 60.5379 332.747 68.9535 332.565C76.5788 332.405 82.5425 330.723 89.4486 328.776C91.2369 328.272 93.0859 327.751 95.0532 327.23C103.373 325.025 112.828 325.786 115.344 326.046C115.011 322.754 114.43 318.99 113.828 315.324C112.562 314.906 107.259 313.358 102.237 314.727Z" fill="#606060"/>
<path d="M122.098 290.321C116.487 291.679 115.197 304.814 114.905 311.315C116.607 309.643 120.384 306.531 125.298 306.062C128.525 305.753 131.671 306.652 134.669 308.733C130.828 297.366 123.353 291.28 122.098 290.321Z" fill="#132D55"/>
<path d="M126.358 178.254C125.035 178.254 123.699 178.241 122.355 178.22C114.481 180.877 111.52 186.705 110.715 188.699C115.54 188.53 142.167 187.11 156.81 176.333C147.624 177.555 137.369 178.253 126.358 178.254Z" fill="white"/>
<path d="M97.9785 176.762C92.4728 176.188 87.358 175.403 82.6383 174.415C82.4346 174.516 82.0456 174.715 81.4941 175.013C83.7907 177.26 94.2744 186.74 109.225 188.624C108.248 186.683 104.158 180.83 100.34 176.992C99.5538 176.917 98.7688 176.844 97.9785 176.762Z" fill="white"/>
<path d="M119.675 178.168C113.924 178.023 107.997 177.688 101.936 177.144C104.748 180.182 108.557 185.144 109.945 187.793C110.928 185.556 113.591 180.99 119.675 178.168Z" fill="#FC8026"/>
<path d="M165.189 316.44C163.922 311.184 161.917 304.682 158.818 298.495C155.584 292.04 148.245 285.192 140.475 277.943C131.716 269.77 121.788 260.507 115.334 249.702C113.707 246.975 112.41 243.897 111.381 240.614C109.156 246.929 99.8676 270.961 84.3504 280.581C79.1574 283.801 73.7751 286.973 68.4545 290.074L66.8216 310.207C66.8216 310.208 66.8216 310.209 66.8216 310.209L66.6189 312.706C68.5852 311.65 73.5672 309.615 80.1575 311.554C89.9024 314.426 96.8302 315.112 101.96 313.716C106.902 312.371 111.94 313.637 113.769 314.202C113.795 310.08 114.335 290.678 122.127 289.244C122.267 289.22 122.409 289.251 122.526 289.332C122.643 289.414 134.208 297.729 137.264 314.584C138.811 315.356 148.727 319.805 165.189 316.44ZM126.128 287.674C122.258 288.402 118.272 288.605 114.339 288.221C112.375 288.018 110.418 287.715 108.501 287.244C106.586 286.766 104.697 286.185 102.869 285.45C99.2153 283.995 95.7282 282.063 92.7464 279.528C94.3546 280.635 96.0492 281.599 97.7974 282.443C99.5373 283.304 101.333 284.041 103.155 284.687C106.806 285.962 110.595 286.832 114.438 287.178C115.397 287.287 116.361 287.326 117.324 287.377C118.288 287.385 119.254 287.42 120.219 287.371C122.151 287.349 124.073 287.124 125.99 286.868C129.814 286.277 133.589 285.292 137.264 283.96C133.75 285.667 129.999 286.937 126.128 287.674Z" fill="#898786"/>
<path d="M154.18 339.876C158.56 339.091 162.235 337.087 166.126 334.966C172.009 331.758 178.098 328.457 187.162 329.097C186.99 328.077 186.724 327.026 186.344 325.969C185.632 326.349 184.889 326.668 184.099 326.897C180.423 327.962 176.874 328.267 174.015 328.267C170.315 328.267 167.766 327.756 167.583 327.718C167.358 327.672 167.189 327.484 167.167 327.256C167.159 327.179 166.745 323.17 165.43 317.459C160.853 318.399 156.779 318.76 153.246 318.76C147.796 318.76 143.621 317.916 140.803 317.071C140.678 318.38 140.142 321.226 137.861 323.768C137.768 323.872 137.666 323.972 137.571 324.076C140.682 322.916 146.031 322.041 152.24 325.773C152.489 325.923 152.568 326.245 152.419 326.492C152.32 326.656 152.146 326.746 151.968 326.746C151.876 326.746 151.783 326.722 151.698 326.671C142.742 321.288 135.784 326.039 135.337 326.358C133.082 328.616 130.871 331.008 130.399 334.445C130.261 335.449 130.181 336.439 130.14 337.377C132.354 338.094 144.164 341.67 154.18 339.876Z" fill="#606060"/>
<path d="M195.472 316.352C195.458 316.372 195.444 316.393 195.429 316.413C197.208 316.441 201.125 316.358 204.286 315.28C208.546 313.828 211.736 310.024 212.236 305.898C209.437 305.944 205.967 306.443 202.914 308.183C200.125 309.773 197.866 312.968 195.472 316.352Z" fill="#132D55"/>
<path d="M140.272 234.787C140.604 235.227 140.961 235.662 141.323 236.059C142.376 236.368 149.101 238.056 153.887 232.581C153.999 225.388 152.724 214.478 145.294 206.593C144.533 206.301 139.138 204.44 130.176 206.66C120.75 208.996 115.075 216.835 113.793 223.129C113.199 226.044 113.583 228.396 114.903 229.929C116.06 231.272 117.949 231.962 120.376 231.943C120.267 230.98 120.22 230.032 120.219 229.073C120.22 227.913 120.304 226.753 120.499 225.61C120.704 224.47 121.017 223.337 121.554 222.306C122.073 221.27 122.866 220.364 123.849 219.779C122.913 220.441 122.217 221.38 121.792 222.418C121.35 223.452 121.132 224.567 121.018 225.681C120.915 226.799 120.919 227.926 121.005 229.045C121.088 230.13 121.238 231.23 121.464 232.273C121.83 232.895 125.107 238.117 132.143 238.937C138.412 239.67 140.078 237.299 140.437 236.569C140.138 236.122 139.865 235.674 139.609 235.211C139.303 234.652 139.022 234.081 138.78 233.495C138.299 232.325 137.947 231.075 137.976 229.821C138.124 231.065 138.633 232.207 139.25 233.262C139.561 233.789 139.907 234.297 140.272 234.787Z" fill="white"/>
<path d="M202.392 307.273C207.638 304.281 213.847 304.718 216.507 305.096C210.883 297.815 195.036 285.007 194.869 284.873C194.866 284.87 194.864 284.866 194.861 284.864C194.858 284.861 194.854 284.861 194.851 284.858C194.848 284.855 194.844 284.851 194.842 284.848C192.349 282.445 189.916 279.998 187.507 277.52C185.102 275.041 182.729 272.531 180.416 269.967C178.102 267.404 175.822 264.809 173.657 262.119C171.493 259.431 169.388 256.687 167.554 253.763C169.462 256.639 171.632 259.324 173.859 261.952C176.087 264.581 178.428 267.112 180.801 269.611C183.174 272.11 185.604 274.554 188.066 276.967C190.125 278.979 192.212 280.968 194.32 282.925C189.853 263.04 183.905 244.796 182.785 241.416C179.498 242.849 175.539 243.351 171.609 243.352C162.826 243.352 154.195 240.853 153.583 240.672C153.321 240.595 153.163 240.331 153.217 240.065C153.231 239.996 153.683 237.678 153.841 234.15C149.124 238.632 143.028 237.559 141.323 237.141C140.803 238.094 139.134 240.125 134.357 240.125C133.649 240.125 132.874 240.08 132.023 239.981C124.908 239.151 121.451 234.257 120.674 232.997C117.795 233.08 115.522 232.255 114.108 230.614C112.569 228.826 112.105 226.167 112.766 222.922C114.112 216.315 120.056 208.091 129.925 205.644C138.469 203.527 143.823 204.966 145.361 205.501C145.916 204.682 147.564 203.139 152.141 202.945L145.169 192.789C145.006 192.55 145.066 192.224 145.306 192.06C145.547 191.897 145.873 191.958 146.037 192.197L153.39 202.909C155.113 202.79 156.799 202.797 158.497 202.875C160.299 202.958 162.095 203.134 163.874 203.407C164.766 203.524 165.648 203.71 166.532 203.87C167.408 204.071 168.29 204.242 169.154 204.49C170.897 204.924 172.592 205.523 174.266 206.154C172.562 205.605 170.848 205.092 169.094 204.745C168.224 204.54 167.339 204.414 166.463 204.257C165.578 204.141 164.698 204 163.809 203.927C162.037 203.744 160.257 203.656 158.479 203.661C156.709 203.664 154.913 203.748 153.19 203.969L153.169 203.973C153.161 203.974 153.155 203.97 153.146 203.97C153.139 203.97 153.133 203.974 153.126 203.974C148.201 203.974 146.664 205.469 146.244 206.07C153.764 214.204 155.051 225.315 154.935 232.639C154.958 232.735 154.963 232.833 154.932 232.928C154.862 236.274 154.504 238.786 154.337 239.794C157.763 240.723 179.652 246.214 187.071 237.002C195.556 226.468 190.655 205.201 186.98 193.461C183.285 181.658 168.815 175.49 166.876 174.71C164.324 175.201 161.659 175.649 158.889 176.047C144.005 188.325 114.412 189.638 110.419 189.759C109.785 194.114 104.961 230.272 116.244 249.167C122.62 259.845 132.491 269.054 141.2 277.179C149.381 284.811 156.445 291.403 159.763 298.028C162.998 304.486 165.056 311.279 166.331 316.682C166.337 316.702 166.351 316.716 166.355 316.736C166.358 316.753 166.354 316.768 166.356 316.785C167.53 321.779 168.033 325.567 168.174 326.76C169.817 327.035 176.656 327.965 183.812 325.893C188.381 324.568 191.553 320.085 194.62 315.75C197.076 312.266 199.403 308.978 202.392 307.273Z" fill="white"/>
<path d="M166.63 335.886C162.662 338.049 158.914 340.093 154.366 340.908C152.339 341.272 150.241 341.421 148.163 341.421C140.137 341.421 132.405 339.19 130.111 338.467C130.078 340.821 130.269 342.713 130.357 343.44C132.47 344.082 144.725 347.604 154.05 346.029C160.867 344.881 166.018 343.046 169.78 341.707C171.746 341.007 173.301 340.454 174.498 340.215C177.493 339.617 185.119 338.266 186.788 337.971C187.04 337.016 187.738 333.894 187.312 330.155C178.419 329.467 172.427 332.725 166.63 335.886Z" fill="#898786"/>
<path d="M204.625 316.271C201.612 317.298 198.057 317.469 196.03 317.469C195.437 317.469 194.976 317.454 194.697 317.442C193.912 318.542 193.113 319.634 192.278 320.67C195.419 320.817 205.068 320.931 209.849 317.188C214.666 313.419 216.552 307.944 217.042 306.244C216.337 306.125 214.987 305.938 213.288 305.9C212.794 310.526 209.375 314.653 204.625 316.271Z" fill="white"/>
<g opacity="0.25">
<path d="M48.7383 260.863C44.1648 256.704 44.7934 247.216 44.7934 247.216C43.6174 247.636 42.538 248.056 41.5678 248.458C39.9709 255.255 40.5975 260.416 43.4353 263.797C47.338 268.443 54.2071 268.124 54.3604 268.117C54.3614 268.117 54.3624 268.117 54.3635 268.117H54.3655C54.4427 268.112 54.5168 268.128 54.5857 268.155C54.5909 268.157 54.597 268.156 54.6032 268.158C54.6763 268.189 61.2552 270.923 69.1615 270.057C72.167 268.913 76.3331 266.444 80.7328 263.283C81.2822 262.218 81.6351 261.142 81.844 260.15C80.3541 261.49 75.9297 265.087 70.6596 265.799C64.1537 266.678 53.3119 265.022 48.7383 260.863Z" fill="#001364"/>
</g>
<g opacity="0.25">
<path d="M111.382 240.614C111.375 240.634 111.367 240.659 111.36 240.68L111.409 240.696C111.4 240.668 111.391 240.642 111.382 240.614Z" fill="#001364"/>
</g>
<g opacity="0.25">
<path d="M114.093 221.909C113.975 222.321 113.875 222.728 113.793 223.129C113.199 226.044 113.583 228.396 114.903 229.929C116.06 231.272 117.949 231.963 120.376 231.943C120.267 230.98 120.22 230.032 120.219 229.073C120.22 228.204 120.267 227.333 120.373 226.471C118.296 227.223 115.784 224.877 114.093 221.909Z" fill="#001364"/>
</g>
<g opacity="0.25">
<path d="M140.272 234.787C140.604 235.227 140.961 235.663 141.323 236.059C142.376 236.368 149.101 238.056 153.887 232.581C153.924 230.186 153.806 227.379 153.36 224.409C152.647 226.049 150.949 228.916 147.431 230.227C142.349 232.121 137.267 229.077 137.267 229.077C137.267 229.077 135.099 231.782 129.204 231.512C124.808 231.309 122.06 228.606 120.946 227.245C120.942 227.846 120.962 228.446 121.008 229.045C121.091 230.13 121.241 231.23 121.467 232.273C121.833 232.895 125.11 238.117 132.146 238.937C138.415 239.67 140.081 237.299 140.44 236.569C140.141 236.122 139.868 235.674 139.612 235.211C139.306 234.652 139.025 234.081 138.783 233.495C138.302 232.325 137.95 231.075 137.979 229.821C138.127 231.065 138.636 232.207 139.253 233.262C139.561 233.789 139.907 234.297 140.272 234.787Z" fill="#132D55"/>
</g>
<g opacity="0.25">
<path d="M171.144 324.5C171.144 324.5 177.717 324.838 180.699 323.621C192.831 319.356 188.762 313.139 195.944 307.864C203.126 302.588 210.377 301.709 210.377 301.709C210.377 301.709 201.501 299.275 194.437 301.168C187.373 303.062 178.395 309.081 176.634 308.945C174.872 308.81 169.18 294.337 162.065 283.719C154.95 273.099 124.459 245.646 131.777 245.849C139.094 246.052 144.684 244.226 144.684 244.226C144.684 244.226 152.206 247.168 166.13 247.035C177.682 246.925 182.468 245.065 183.765 244.435C183.316 243.034 182.977 241.999 182.784 241.415C179.497 242.848 175.538 243.35 171.608 243.351C162.824 243.351 154.194 240.852 153.582 240.671C153.32 240.594 153.162 240.33 153.216 240.064C153.23 239.995 153.681 237.677 153.84 234.149C149.123 238.631 143.027 237.558 141.322 237.14C140.802 238.093 139.132 240.124 134.356 240.124C133.648 240.124 132.872 240.079 132.021 239.98C124.906 239.15 121.45 234.256 120.672 232.996C117.794 233.079 115.521 232.254 114.107 230.613C112.568 228.825 112.104 226.165 112.765 222.921C112.921 222.159 113.14 221.375 113.416 220.581C112.075 217.34 110.079 204.513 109.354 199.649C108.41 211.939 108.117 232.529 114.722 246.329C115.408 247.547 116.154 248.886 116.905 250.238C123.072 260.112 132.133 268.719 140.328 276.37C143.022 278.709 146.632 282.026 150.425 286.031C152.868 288.519 155.031 290.929 156.798 293.31C156.811 293.327 156.825 293.343 156.838 293.359C166.585 305.501 171.144 324.5 171.144 324.5Z" fill="#132D55"/>
</g>
<g opacity="0.25">
<path d="M66.6199 278.513C64.2071 281.624 37.7616 297.179 33.4926 296.266C29.2236 295.353 27.6998 286.324 27.6998 286.324C27.4518 286.414 27.1997 286.67 26.9528 287.059C22.444 299.253 27.1956 314.76 29.024 319.873C29.698 317.387 31.6303 312.808 37.1227 308.271C42.0564 304.196 51.8507 298.508 63.1915 291.922C70.0143 287.96 77.0697 283.863 83.7988 279.69C100.757 269.177 110.198 240.934 110.867 238.877C108.496 230.388 107.795 220.728 107.808 212.194C107.646 218.635 106.632 235.204 100.587 244.226C96.682 250.055 89.389 256.829 82.3789 262.074C81.0619 265.694 77.9576 269.374 72.1257 270.639C63.5115 272.508 55.9211 269.803 54.4405 269.222C54.1298 269.405 53.819 269.584 53.5083 269.762L53.4476 270.227C55.4808 275.199 69.0317 275.403 66.6199 278.513Z" fill="#132D55"/>
</g>
<g opacity="0.25">
<path d="M71.9015 269.615C76.7137 268.57 79.3498 265.961 80.7317 263.283C76.333 266.444 72.1659 268.912 69.1604 270.056C70.0597 269.958 70.9754 269.816 71.9015 269.615Z" fill="#001364"/>
</g>
<g opacity="0.25">
<path d="M71.9015 269.615C76.7137 268.57 79.3498 265.961 80.7317 263.283C76.333 266.444 72.1659 268.912 69.1604 270.056C70.0597 269.958 70.9754 269.816 71.9015 269.615Z" fill="#001364"/>
</g>
<g opacity="0.25">
<path d="M90.6702 329.52C90.3563 329.608 90.0425 329.697 89.7338 329.784C89.0403 329.979 88.3582 330.171 87.6811 330.36L87.678 330.361C87.678 330.361 86.1069 332.21 82.0416 334.711C77.9763 337.214 64.021 338.942 64.021 338.942C69.8118 339.269 77.1418 338.833 85.1428 336.356C87.6791 334.001 89.8151 330.854 90.6702 329.52Z" fill="#001364"/>
</g>
<g opacity="0.25">
<path d="M113.26 326.919C109.435 326.655 101.995 326.472 95.3218 328.241L91.3749 333.91L90.8542 334.267C92.2515 333.675 93.6612 333.017 95.0811 332.284C95.2303 332.207 95.4072 332.206 95.5575 332.281C95.7077 332.356 95.8126 332.499 95.8404 332.664L96.4485 336.305C101.625 336.547 108.894 336.649 112.468 336.184C113.654 334.322 113.26 326.922 113.26 326.919Z" fill="#001364"/>
</g>
<g opacity="0.25">
<path d="M185.01 330.073C179.13 330.061 174.548 331.799 170.347 333.914C170.31 333.998 167.142 341.148 164.531 343.491C166.517 342.868 168.264 342.248 169.781 341.708C171.747 341.008 173.302 340.456 174.499 340.216C176.707 339.776 181.43 338.925 184.43 338.391C185.188 336.264 185.074 331.642 185.01 330.073Z" fill="#001364"/>
</g>
<g opacity="0.25">
<path d="M163.848 337.378C163.058 337.79 162.265 338.181 161.465 338.554C158.507 343.194 152.783 345.804 151.538 346.33C152.392 346.265 153.233 346.167 154.05 346.03C155.607 345.767 157.074 345.468 158.46 345.149C161.267 343.189 163.192 338.98 163.848 337.378Z" fill="#001364"/>
</g>
<g opacity="0.25">
<path d="M114.339 288.221C112.375 288.018 110.418 287.715 108.501 287.244C106.586 286.766 104.697 286.185 102.869 285.45C99.2153 283.995 95.7282 282.063 92.7464 279.528C94.3546 280.635 96.0493 281.599 97.7974 282.443C99.5373 283.304 101.333 284.041 103.155 284.687C106.806 285.962 110.595 286.832 114.438 287.178C115.397 287.287 116.361 287.326 117.324 287.377C118.288 287.385 119.254 287.42 120.219 287.371C122.151 287.349 124.073 287.124 125.99 286.868C129.271 286.361 132.514 285.562 135.692 284.504C128.777 285.303 106.911 284.111 103.012 279.149C99.0486 274.103 110.228 257.921 112.996 258.123C115.762 258.327 122.73 265.63 130.14 271.717C133.312 274.323 138.697 279.105 143.82 283.721C143.819 283.721 143.819 283.72 143.819 283.719C143.819 283.719 148.69 286.712 152.749 290.053C149.265 286.147 144.944 282.112 140.475 277.943C131.716 269.77 121.788 260.507 115.334 249.702C113.805 247.141 112.573 244.27 111.577 241.212C111.576 241.212 111.574 241.21 111.573 241.21C111.196 241.28 111.273 240.923 111.273 240.923L111.272 240.924C108.872 247.662 99.6351 271.106 84.3524 280.581C79.1595 283.801 73.7772 286.973 68.4566 290.074L68.259 292.515C75.8185 289.475 84.0767 284.667 87.1254 283.97C90.1751 283.273 99.0506 287.846 99.8645 289.064C100.677 290.281 100.949 304.551 95.7313 307.12C90.5137 309.69 84.7208 307.272 79.8416 307.627C74.9625 307.983 71.565 311.022 71.565 311.022L71.5629 311.025C73.8934 310.61 76.8187 310.571 80.1596 311.553C89.9045 314.425 96.8323 315.111 101.963 313.715C106.904 312.37 111.942 313.636 113.771 314.201C113.794 310.56 114.221 295.015 119.685 290.439C120.43 289.431 121.096 288.693 121.492 288.284C119.112 288.467 116.716 288.454 114.339 288.221Z" fill="#132D55"/>
</g>
<g opacity="0.25">
<path d="M91.63 318.887C88.9867 321.626 77.3999 325.481 67.9637 325.583C58.5264 325.684 53.5155 323.553 53.5155 323.553C51.754 326.056 52.252 331.226 52.252 331.226C56.0858 331.837 62.7162 332.699 68.9535 332.565C76.5789 332.405 82.5425 330.722 89.4487 328.775C91.2369 328.271 93.0859 327.75 95.0532 327.229C103.148 325.084 112.313 325.745 115.121 326.022L115.296 325.612C114.958 322.425 114.404 318.831 113.828 315.323C112.562 314.907 107.259 313.358 102.237 314.726C99.9067 315.36 97.2356 315.584 94.1354 315.391C94.1354 315.392 94.2723 316.148 91.63 318.887Z" fill="#132D55"/>
</g>
<g opacity="0.25">
<path d="M116.237 249.165C116.452 249.526 116.681 249.88 116.904 250.238C116.153 248.886 115.407 247.547 114.721 246.329C115.191 247.31 115.696 248.258 116.237 249.165Z" fill="#001364"/>
</g>
<g opacity="0.25">
<path d="M116.237 249.165C116.452 249.526 116.681 249.88 116.904 250.238C116.153 248.886 115.407 247.547 114.721 246.329C115.191 247.31 115.696 248.258 116.237 249.165Z" fill="#001364"/>
</g>
<g opacity="0.25">
<path d="M176.03 327.154C175.181 327.181 174.543 327.201 174.454 327.203C174.961 327.197 175.487 327.181 176.03 327.154Z" fill="#001364"/>
</g>
<g opacity="0.25">
<path d="M144.871 316.927C149.644 317.815 156.504 318.214 165.189 316.44C163.922 311.184 161.917 304.682 158.818 298.495C158.32 297.501 157.714 296.496 157.035 295.483V295.758C157.035 295.758 150.663 289.886 143.821 283.721C150.917 290.753 157.932 308.067 153.596 311.042C149.259 314.017 137.786 314.828 137.785 314.828L141.11 316.034C141.11 316.034 142.855 316.444 144.871 316.927Z" fill="#132D55"/>
</g>
<g opacity="0.25">
<path d="M151.291 332.547C145.057 334.914 134.047 332.885 134.047 332.885C132.996 334.509 132.895 337.619 132.895 337.619C132.883 337.787 133.147 338.06 133.659 338.381C138.427 339.599 146.79 341.199 154.181 339.875C158.56 339.09 162.235 337.086 166.126 334.965C171.51 332.03 177.073 329.025 184.925 329.025L184.653 326.717C184.471 326.782 184.286 326.842 184.099 326.896C180.423 327.961 176.875 328.266 174.015 328.266C170.315 328.266 167.766 327.756 167.583 327.718C167.358 327.671 167.189 327.483 167.167 327.255C167.159 327.178 166.745 323.169 165.43 317.458C161.596 318.245 158.12 318.622 155.015 318.725C153.953 320.365 151.087 325.125 151.087 325.125C151.467 325.323 151.852 325.538 152.24 325.771C152.469 325.909 152.546 326.191 152.442 326.429C153.912 328.091 155.527 330.939 151.291 332.547Z" fill="#001364"/>
</g>
<g opacity="0.25">
<path d="M143.821 283.721C150.663 289.886 157.035 295.758 157.035 295.758V295.483C155.84 293.703 154.39 291.892 152.75 290.054C148.691 286.713 143.82 283.72 143.82 283.72C143.82 283.72 143.82 283.72 143.821 283.721Z" fill="#001364"/>
</g>
<g opacity="0.25">
<path d="M143.821 283.721C150.663 289.886 157.035 295.758 157.035 295.758V295.483C155.84 293.703 154.39 291.892 152.75 290.054C148.691 286.713 143.82 283.72 143.82 283.72C143.82 283.72 143.82 283.72 143.821 283.721Z" fill="#001364"/>
</g>
<g opacity="0.25">
<path d="M163.692 231.749C160.846 230.025 157.365 220.692 157.365 220.692C159.981 234.476 157.37 240.521 157.365 240.532C161.383 241.424 168.249 242.618 174.613 242.155C178.024 241.842 180.639 241.164 182.646 240.319C184.389 239.524 185.904 238.443 187.066 237.001C192.838 229.835 192.413 217.701 190.396 206.978C190.388 207.11 189.687 219.505 184.935 224.954C180.157 230.431 166.537 233.473 163.692 231.749Z" fill="#132D55"/>
</g>
<g opacity="0.25">
<path d="M98.7781 182.869C93.5645 180.616 88.1225 176.389 86.1274 175.094C84.9411 174.88 83.7774 174.653 82.6373 174.415C82.4336 174.516 82.0447 174.715 81.4932 175.013C83.7897 177.26 94.2734 186.74 109.224 188.624C108.891 187.963 108.193 186.843 107.272 185.509C107.253 185.511 105.051 185.58 98.7781 182.869Z" fill="#132D55"/>
</g>
<g opacity="0.25">
<path d="M154.581 179.073C154.577 179.075 154.573 179.078 154.568 179.08C154.571 179.079 154.579 179.075 154.579 179.075L154.581 179.073Z" fill="#001364"/>
</g>
<g opacity="0.25">
<path d="M128.83 182.869C120.496 185.015 112.998 185.289 112.998 185.289C112.998 185.289 112.468 185.812 111.899 186.381C111.388 187.219 111.036 187.944 110.81 188.474C110.844 188.548 110.878 188.621 110.911 188.692C116.128 188.495 141.474 187.024 156.068 176.864L156.391 176.385C151.927 176.969 147.22 177.432 142.293 177.75C140.027 178.907 134.951 181.294 128.83 182.869Z" fill="#132D55"/>
</g>
<g opacity="0.25">
<path d="M56.5643 238.038C47.1115 239.965 37.9644 237.531 37.9644 237.531C37.7679 237.566 37.595 237.732 37.4417 237.983C37.0147 241.181 36.3089 246.775 36.1741 249.818C39.7774 247.907 54.8347 240.652 72.0064 242.706C72.1083 242.468 72.2482 242.149 72.421 241.766C75.0469 233.177 78.8086 217.215 76.9349 200.664C76.9349 200.664 75.3669 205.677 73.3347 214.807C71.3026 223.938 66.017 236.11 56.5643 238.038Z" fill="#001364"/>
</g>
<g opacity="0.4">
<path d="M54.6331 337.485C54.6331 337.485 53.8531 333.214 54.0229 332.894C54.1927 332.576 53.244 332.074 52.6678 332.04C52.0916 332.006 49.9576 332.04 49.9576 332.04C49.9576 332.04 49.6099 332.974 49.6346 333.102C49.6593 333.229 50.5956 336.134 51.0432 336.457C51.4907 336.78 54.6331 337.485 54.6331 337.485Z" fill="white"/>
</g>
<g opacity="0.4">
<path d="M50.9741 324.702C50.9741 324.702 53.1081 321.287 56.4963 320.07C59.8846 318.853 64.31 318.853 67.3484 317.196C70.3868 315.538 71.3355 314.774 75.2649 314.413C79.1954 314.051 83.8698 314.172 83.8698 314.172C83.8698 314.172 79.7428 311.642 75.4028 311.291C73.4376 311.131 71.4908 311.426 69.93 311.808C68.045 312.27 66.7238 312.861 66.6168 312.935C66.4203 313.07 66.1394 314.684 61.4691 315.821C56.7988 316.958 54.1349 317.128 52.2489 318.446C50.3649 319.766 50.9741 324.702 50.9741 324.702Z" fill="white"/>
</g>
<g opacity="0.4">
<path d="M70.2284 311.315C70.3869 311.126 71.5557 296.518 70.5391 294.896C69.5226 293.273 68.2889 292.926 67.9648 293.273C67.6407 293.62 66.906 312.557 66.906 312.557L70.2284 311.315Z" fill="white"/>
</g>
<g opacity="0.4">
<path d="M133.454 344.451L132.894 339.267L130.286 339.038C130.286 339.038 130.338 343.181 130.651 343.528C130.964 343.875 133.454 344.451 133.454 344.451Z" fill="white"/>
</g>
<g opacity="0.4">
<path d="M131.234 335.895C131.234 335.895 133.334 330.226 138.112 327.735C142.889 325.244 150.647 326.221 150.647 326.221C150.647 326.221 148.984 323.148 142.752 323.08C142.752 323.08 144.075 318.403 144.041 318.223C144.007 318.041 140.653 316.693 140.585 316.928C140.517 317.162 140.339 320.447 138.92 322.389C137.502 324.331 134.657 326.768 134.453 326.919C134.25 327.07 129.575 332.524 131.234 335.895Z" fill="white"/>
</g>
<g opacity="0.4">
<path d="M140.327 315.431C140.327 315.431 139.705 309.554 137.57 303.535C135.436 297.517 125.407 287.911 125.407 287.911L122.358 288.413C122.358 288.413 128.879 293.344 132.255 300.819C135.631 308.294 137.262 314.584 137.262 314.584L138.314 315.432H140.327V315.431Z" fill="white"/>
</g>
<path d="M171.534 244.603C162.535 244.603 153.84 242.086 153.216 241.902C152.316 241.636 151.769 240.727 151.955 239.808C151.995 239.609 155.873 219.593 144.284 207.395C143.838 206.925 143.677 206.252 143.863 205.632C144.031 205.074 145.031 202.653 149.847 201.879L144.103 193.513C143.537 192.69 143.748 191.564 144.573 191C145.399 190.436 146.526 190.645 147.092 191.47L154.614 202.425C154.993 202.979 155.036 203.696 154.722 204.29C154.409 204.883 153.792 205.255 153.12 205.255C150.331 205.255 148.832 205.747 148.054 206.18C157.777 217.657 156.515 233.636 155.783 238.844C161.245 240.212 179.69 244.106 186.061 236.196C194.473 225.752 188.641 203.098 185.744 193.842C181.996 181.873 166.36 175.885 166.202 175.827C165.267 175.475 164.792 174.434 165.143 173.5C165.493 172.565 166.537 172.091 167.473 172.441C168.183 172.706 184.922 179.093 189.202 192.765C193.017 204.948 198.048 227.086 188.885 238.462C185.056 243.217 178.211 244.603 171.534 244.603Z" fill="#132D55"/>
<path d="M152.897 201.653C160.25 201.574 167.59 203.108 174.261 206.152C169.117 204.758 163.757 204.285 158.452 204.622C156.767 204.733 154.947 204.918 153.329 205.244C150.761 205.666 150.292 201.854 152.897 201.653Z" fill="#132D55"/>
<path d="M134.316 241.403C133.567 241.403 132.755 241.357 131.871 241.253C125.093 240.463 121.362 236.223 119.987 234.28C116.304 234.204 114.236 232.733 113.13 231.448C111.323 229.349 110.76 226.311 111.504 222.664C112.928 215.675 119.202 206.976 129.613 204.397C140.056 201.81 146.082 204.388 146.333 204.498C147.247 204.902 147.661 205.97 147.257 206.883C146.853 207.792 145.788 208.206 144.877 207.809C144.777 207.768 139.575 205.654 130.485 207.906C120.999 210.257 116.059 218.451 115.053 223.385C114.696 225.137 114.549 227.549 115.878 229.092C117.112 230.526 119.278 230.731 120.875 230.653C121.564 230.618 122.227 230.987 122.559 231.6C122.675 231.808 125.553 236.876 132.291 237.662C137.006 238.212 138.915 236.825 139.292 235.98C139.398 235.488 139.689 235.134 140.128 234.877C140.577 234.614 141.099 234.637 141.592 234.799C141.867 234.886 148.525 236.94 153.043 231.594C153.689 230.831 154.831 230.734 155.596 231.378C156.361 232.022 156.457 233.163 155.812 233.926C151.067 239.54 144.671 239.112 141.865 238.578C140.82 239.84 138.648 241.403 134.316 241.403Z" fill="#132D55"/>
<path d="M139.631 237.67C138.475 235.252 137.542 232.509 137.977 229.822C138.736 232.169 140.529 233.926 142.421 235.363C143.312 235.917 143.583 237.088 143.029 237.976C142.21 239.306 140.214 239.089 139.631 237.67Z" fill="#132D55"/>
<path d="M119.188 232.807C119.042 228.453 119.528 222.026 123.849 219.778C122.971 220.533 122.393 221.513 122.083 222.555C121.197 225.67 121.805 229.086 122.744 232.11C123.535 234.791 119.473 235.591 119.188 232.807Z" fill="#132D55"/>
<path d="M35.6278 252.526C35.3181 252.526 35.0084 252.447 34.7306 252.289C34.1657 251.967 33.8169 251.368 33.8169 250.718C33.8169 246.781 35.3942 235.716 35.4611 235.247C38.5767 212.624 51.003 196.695 60.8787 187.318C71.5579 177.178 81.3831 172.426 81.7967 172.229C82.6991 171.799 83.7805 172.179 84.2126 173.08C84.6448 173.98 84.263 175.059 83.3607 175.491C83.2135 175.562 73.5313 180.269 63.2863 190.023C53.8676 198.99 42.0164 214.203 39.05 235.748C39.0366 235.844 38.0314 242.892 37.6167 247.64C43.4075 244.855 57.1076 239.444 72.7453 241.498C73.7371 241.628 74.4358 242.536 74.3051 243.527C74.1744 244.517 73.2618 245.215 72.273 245.084C53.2553 242.582 36.7174 252.177 36.5528 252.274C36.2657 252.442 35.9468 252.526 35.6278 252.526Z" fill="#132D55"/>
<path d="M174.016 329.548C170.168 329.548 167.513 329.016 167.322 328.976C166.546 328.815 165.964 328.169 165.885 327.383C165.871 327.234 164.338 312.388 157.666 299.069C154.535 292.82 147.279 286.049 139.595 278.881C130.773 270.65 120.775 261.32 114.229 250.36C101.839 229.611 107.905 190.61 108.169 188.96C108.308 188.092 109.052 187.45 109.933 187.438C110.256 187.434 142.382 186.834 157.567 174.109C158.332 173.467 159.475 173.565 160.118 174.33C160.761 175.095 160.662 176.235 159.896 176.877C145.526 188.92 118.382 190.738 111.537 191.008C110.558 198.336 106.926 231.067 117.341 248.509C123.624 259.03 133.424 268.172 142.069 276.24C150.34 283.957 157.484 290.622 160.905 297.453C166.744 309.108 168.778 321.514 169.323 325.631C171.789 325.948 177.512 326.377 183.444 324.657C187.581 323.459 190.621 319.161 193.56 315.007C196.107 311.407 198.514 308.006 201.752 306.159C205.753 303.877 210.262 303.462 213.532 303.563C206.965 296.303 194.209 285.992 194.058 285.871C193.737 285.614 193.515 285.253 193.427 284.852C188.493 262.361 181.446 241.478 181.375 241.27C181.054 240.324 181.563 239.298 182.511 238.978C183.459 238.656 184.486 239.164 184.807 240.11C184.878 240.319 191.86 261.004 196.829 283.46C199.795 285.876 214.626 298.112 219.19 304.819C219.608 305.433 219.608 306.239 219.189 306.852C218.77 307.466 218.016 307.761 217.293 307.598C217.218 307.583 209.476 305.917 203.548 309.299C201.009 310.747 198.828 313.829 196.519 317.092C193.22 321.756 189.808 326.578 184.452 328.13C180.656 329.231 176.981 329.548 174.016 329.548Z" fill="#132D55"/>
<path d="M109.958 191.053C109.776 191.053 109.591 191.025 109.409 190.968C108.678 190.736 108.197 190.082 108.15 189.36C107.553 187.918 103.155 181.603 99.3079 177.775C98.599 177.069 98.5969 175.925 99.3038 175.218C100.011 174.511 101.157 174.509 101.866 175.214C103.852 177.188 106.319 180.149 108.467 183.132C109.022 183.902 109.489 184.576 109.88 185.167C111.674 182.209 115.182 178.167 121.647 175.997C122.595 175.68 123.622 176.188 123.941 177.134C124.26 178.081 123.75 179.106 122.802 179.424C114.606 182.175 112.153 188.401 111.76 189.563C111.734 189.666 111.7 189.76 111.667 189.853C111.401 190.591 110.704 191.053 109.958 191.053Z" fill="#132D55"/>
<path d="M109.96 191.053C109.896 191.053 109.831 191.05 109.766 191.043C91.5478 189.1 79.7923 176.645 79.3005 176.116C78.6204 175.384 78.6636 174.24 79.3972 173.561C80.1308 172.883 81.276 172.926 81.9561 173.657C82.0683 173.777 93.3206 185.652 110.151 187.447C111.146 187.553 111.866 188.444 111.759 189.438C111.66 190.365 110.875 191.053 109.96 191.053Z" fill="#132D55"/>
<path d="M29.1897 323.603C28.4705 323.603 27.8069 323.174 27.5208 322.495C27.0208 321.307 15.4423 293.239 29.9007 277.818C30.1168 277.587 30.3905 277.418 30.693 277.325C30.8062 277.29 42.1552 273.783 53.4724 267.085C53.9683 266.79 54.5754 266.751 55.1063 266.977C55.1814 267.009 62.9879 270.235 71.6288 268.362C80.0248 266.54 81.0795 259.507 80.778 256.95C80.5413 254.943 77.3548 254.184 77.3218 254.177C77.0142 254.109 76.722 253.96 76.4884 253.75C74.945 252.357 72.0239 250.295 70.6575 250.295C68.7818 250.295 67.6129 251.378 67.6016 251.389C67.1663 251.823 66.5778 252.093 65.9759 251.964C65.3884 251.837 64.9397 251.511 64.7175 250.961C64.5446 250.741 63.491 249.648 60.1306 250.51C56.1538 251.528 55.5251 256.744 55.5189 256.798C55.4078 257.788 54.5136 258.503 53.5238 258.398C52.5319 258.291 51.8127 257.407 51.9166 256.416C51.9496 256.099 52.7984 248.653 59.2313 247.007C62.9663 246.052 65.233 246.85 66.514 247.76C67.4771 247.219 68.8826 246.679 70.6585 246.679C73.5724 246.679 77.2622 249.629 78.572 250.762C80.741 251.359 83.9728 253.11 84.3761 256.527C84.9441 261.341 82.1959 269.77 72.3984 271.895C64.2833 273.656 57.0242 271.514 54.563 270.639C44.3242 276.58 34.5103 279.901 32.2312 280.633C23.1602 290.768 26.6071 307.682 29.127 316.068C30.3915 313.509 32.5656 310.369 36.3017 307.283C41.3177 303.14 51.1542 297.428 62.5434 290.814C69.359 286.856 76.4051 282.764 83.1188 278.601C100.237 267.987 109.583 238.673 109.675 238.378C109.974 237.425 110.991 236.894 111.945 237.192C112.9 237.489 113.432 238.504 113.134 239.457C112.739 240.714 103.282 270.357 85.0305 281.673C78.2736 285.863 71.2028 289.969 64.3656 293.939C53.5825 300.201 43.3971 306.116 38.6116 310.069C31.44 315.992 31.0017 321.848 30.9986 321.906C30.9471 322.744 30.3236 323.437 29.4943 323.578C29.3914 323.594 29.2895 323.603 29.1897 323.603Z" fill="#132D55"/>
<path d="M53.9314 270.457C51.9908 270.457 45.6629 270.072 41.6512 265.302C38.2825 261.297 37.5025 255.389 39.333 247.745C39.5655 246.773 40.544 246.175 41.5164 246.407C42.4897 246.639 43.0896 247.614 42.8571 248.586C41.3106 255.042 41.8333 259.877 44.4097 262.959C47.9019 267.134 54.2298 266.838 54.2915 266.834C55.2875 266.787 56.1446 267.541 56.2022 268.536C56.2598 269.531 55.5025 270.384 54.5055 270.444C54.4582 270.447 54.2565 270.457 53.9314 270.457Z" fill="#132D55"/>
<path d="M66.3194 251.918C65.4685 251.918 64.7102 251.317 64.5425 250.452L63.2223 243.634C63.032 242.653 63.6751 241.705 64.6567 241.515C65.6372 241.324 66.589 241.967 66.7793 242.948L68.0995 249.766C68.2898 250.747 67.6467 251.695 66.6651 251.885C66.5499 251.908 66.4336 251.918 66.3194 251.918Z" fill="#001364"/>
<path d="M68.5401 249.342C68.6543 252.88 67.6356 256.709 65.0016 259.171C66.4009 256.354 66.1818 252.97 65.0057 250.137C64.4573 249.247 64.7351 248.081 65.6262 247.534C66.9977 246.707 68.6049 247.793 68.5401 249.342Z" fill="#001364"/>
<path d="M79.2674 252.153C78.6532 255.278 77.6674 258.41 75.6045 260.863C76.4924 258.05 76.229 255.031 75.6446 252.229C75.3946 251.236 75.9985 250.229 76.9935 249.979C78.2889 249.623 79.5617 250.857 79.2674 252.153Z" fill="#001364"/>
<path d="M70.6574 250.294C70.427 250.294 70.1924 250.25 69.965 250.157C69.041 249.775 68.6016 248.718 68.9834 247.795C69.078 247.568 78.3702 224.784 75.6559 200.81C75.5438 199.818 76.2589 198.922 77.2528 198.81C78.2478 198.701 79.144 199.411 79.2562 200.404C82.0775 225.333 72.7297 248.218 72.3305 249.179C72.0434 249.874 71.3684 250.294 70.6574 250.294Z" fill="#001364"/>
<path d="M153.289 320.037C142.297 320.037 136.231 316.69 135.897 316.501C135.426 316.234 135.1 315.772 135.008 315.24C132.609 301.56 124.294 293.791 121.854 291.769C117.742 293.761 116.01 306.193 116.108 314.909C116.114 315.505 115.826 316.066 115.337 316.409C114.847 316.751 114.221 316.831 113.66 316.622C113.607 316.602 107.88 314.52 102.576 315.964C97.0104 317.479 89.6772 316.789 79.497 313.789C72.1577 311.627 67.1129 315.117 67.0635 315.153C66.4894 315.56 65.731 315.599 65.1199 315.251C64.5076 314.904 64.1527 314.234 64.2093 313.534L66.1488 289.614C66.2301 288.619 67.0995 287.879 68.1007 287.958C69.0977 288.039 69.8406 288.911 69.7603 289.906L68.078 310.655C70.818 309.634 75.1941 308.753 80.5229 310.323C89.8995 313.085 96.8015 313.789 101.623 312.477C105.771 311.348 109.973 311.942 112.517 312.537C112.586 310.205 112.793 306.474 113.395 302.632C114.796 293.69 117.656 288.762 121.895 287.983C122.374 287.894 122.869 288.003 123.268 288.283C123.757 288.627 135.093 296.78 138.407 313.702C140.996 314.846 150.478 318.27 165.459 315.077C166.439 314.87 167.399 315.491 167.608 316.468C167.817 317.444 167.193 318.404 166.215 318.613C161.355 319.648 157.036 320.037 153.289 320.037Z" fill="#132D55"/>
<path d="M67.3887 341.436C57.4534 341.436 50.7932 339.021 50.3054 338.839C50.039 338.739 49.8002 338.579 49.6078 338.37C46.7711 335.291 46.2854 329.865 48.1653 322.241C49.2549 317.824 53.2976 315.009 59.5493 314.316C63.0579 313.927 64.6919 312.437 64.7598 312.373C65.4841 311.698 66.6263 311.721 67.3125 312.436C67.9988 313.149 67.9906 314.273 67.2848 314.967C67.0347 315.212 64.7042 317.382 59.9496 317.91C56.6735 318.274 52.5804 319.47 51.6832 323.105C50.2314 328.993 50.3487 333.396 52.0032 335.596C55.0375 336.571 73.768 341.842 94.4906 331.143C95.005 330.878 95.6162 330.873 96.1338 331.133C96.6513 331.392 97.0145 331.882 97.1092 332.453L97.5455 335.068C104.588 335.358 112.411 335.267 113.749 334.595C113.745 334.591 114.5 333.936 114.305 329.452C114.169 326.334 113.614 321.946 112.507 315.223C112.344 314.238 113.013 313.308 114.001 313.145C114.987 312.987 115.92 313.651 116.083 314.636C118.679 330.401 118.586 335.777 115.685 337.651C113.164 339.28 101.016 338.868 95.9105 338.615C95.0596 338.573 94.3537 337.946 94.2138 337.107L93.937 335.45C84.0665 340.088 74.8134 341.436 67.3887 341.436Z" fill="#132D55"/>
<path d="M67.6294 334.91C58.3114 334.91 48.9286 333.02 48.515 332.935C47.5344 332.735 46.9027 331.78 47.1033 330.802C47.304 329.824 48.2609 329.195 49.2404 329.392C49.3423 329.414 59.5986 331.478 68.9258 331.281C76.3865 331.124 82.2782 329.462 89.0999 327.539C90.8923 327.034 92.7454 326.511 94.722 325.987C104.611 323.366 115.691 324.783 116.159 324.844C117.151 324.975 117.848 325.883 117.717 326.873C117.587 327.862 116.677 328.56 115.685 328.43C115.578 328.416 104.834 327.049 95.6532 329.483C93.7044 329.999 91.8647 330.518 90.0867 331.02C83.0262 333.01 76.9288 334.73 69.004 334.897C68.5461 334.906 68.0872 334.91 67.6294 334.91Z" fill="#132D55"/>
<path d="M148.762 348.766C139.376 348.766 129.804 345.718 129.322 345.561C128.667 345.35 128.189 344.787 128.088 344.107C128.058 343.912 127.38 339.261 128.085 334.128C128.696 329.679 131.59 326.794 134.145 324.25C134.847 323.55 135.51 322.891 136.12 322.21C138.491 319.568 138.505 316.405 138.505 316.373C138.501 315.379 139.3 314.562 140.296 314.551C140.303 314.551 140.309 314.551 140.317 314.551C141.303 314.551 142.11 315.335 142.128 316.322C142.131 316.507 142.168 320.892 138.819 324.622C138.14 325.377 137.411 326.104 136.705 326.808C134.347 329.156 132.12 331.375 131.675 334.616C131.234 337.826 131.4 340.869 131.545 342.449C134.967 343.425 145.625 346.144 153.837 344.761C160.543 343.631 165.633 341.819 169.35 340.497C171.366 339.78 172.957 339.213 174.246 338.955C176.934 338.419 183.138 337.312 185.73 336.853C186.142 334.881 186.744 330.361 184.944 325.877C184.572 324.951 185.023 323.898 185.952 323.527C186.88 323.156 187.934 323.606 188.307 324.532C191.189 331.71 189.024 338.683 188.93 338.977C188.727 339.618 188.182 340.092 187.519 340.209C187.427 340.226 178.285 341.836 174.956 342.501C173.926 342.707 172.443 343.234 170.566 343.903C166.723 345.271 161.46 347.144 154.44 348.327C152.608 348.637 150.688 348.766 148.762 348.766Z" fill="#132D55"/>
<path d="M148.075 342.714C138.451 342.714 129.462 339.617 129.002 339.455C128.058 339.125 127.561 338.094 127.891 337.152C128.223 336.21 129.256 335.713 130.199 336.043C130.329 336.088 143.254 340.533 153.952 338.612C158.125 337.864 161.711 335.908 165.508 333.839C171.417 330.617 178.114 326.965 187.953 327.861C188.949 327.952 189.684 328.832 189.592 329.827C189.501 330.821 188.62 331.551 187.624 331.463C178.887 330.669 172.968 333.893 167.246 337.012C163.363 339.13 159.347 341.319 154.593 342.172C152.449 342.556 150.246 342.714 148.075 342.714Z" fill="#132D55"/>
<path d="M151.967 328.03C151.649 328.03 151.326 327.946 151.034 327.771C142.639 322.723 136.343 327.215 136.079 327.408C135.276 327.997 134.143 327.831 133.549 327.033C132.954 326.235 133.112 325.11 133.909 324.512C134.248 324.256 142.356 318.332 152.904 324.673C153.761 325.188 154.037 326.3 153.521 327.155C153.181 327.718 152.582 328.03 151.967 328.03Z" fill="#132D55"/>
<path d="M92.7476 279.528C102.968 284.61 114.451 287.063 125.822 285.87C129.601 285.498 133.377 284.785 137.265 283.961C123.913 292.859 103.905 291.298 92.7476 279.528Z" fill="#001364"/>
<path d="M193.963 285.786C189.114 280.791 184.449 275.693 179.944 270.403C175.486 265.119 171.092 259.707 167.553 253.761C169.551 256.579 171.801 259.192 174.106 261.746C178.736 266.836 183.694 271.622 188.75 276.287C191.284 278.614 193.855 280.926 196.446 283.151C198.275 284.839 195.779 287.512 193.963 285.786Z" fill="#132D55"/>
<path d="M194.698 323.064C192.643 323.064 191.232 322.947 191.057 322.932C190.061 322.845 189.325 321.969 189.411 320.974C189.497 319.979 190.38 319.249 191.373 319.33C191.496 319.341 203.732 320.346 209.056 316.18C214.406 311.993 215.912 305.509 215.926 305.443C216.144 304.471 217.113 303.856 218.086 304.071C219.061 304.287 219.678 305.247 219.464 306.221C219.395 306.537 217.693 314.015 211.291 319.025C206.855 322.497 199.219 323.064 194.698 323.064Z" fill="#132D55"/>
<path d="M196.005 318.751C195.031 318.751 194.399 318.713 194.322 318.708C193.324 318.645 192.566 317.786 192.629 316.789C192.693 315.793 193.56 315.049 194.552 315.099C194.604 315.103 199.911 315.414 203.872 314.064C207.845 312.709 210.781 309.086 211.011 305.252C211.071 304.255 211.931 303.492 212.928 303.556C213.926 303.616 214.688 304.472 214.628 305.469C214.307 310.811 210.456 315.64 205.043 317.485C201.857 318.573 198.122 318.751 196.005 318.751Z" fill="#132D55"/>
<path d="M66.3011 311.961C65.7733 311.961 65.2496 311.731 64.8915 311.29C60.141 305.426 50.5092 301.32 50.4125 301.279C49.4916 300.891 49.0594 299.83 49.4484 298.91C49.8373 297.991 50.8991 297.561 51.82 297.947C52.2491 298.128 62.3799 302.44 67.7077 309.016C68.3374 309.792 68.216 310.931 67.4381 311.559C67.1037 311.829 66.7014 311.961 66.3011 311.961Z" fill="#132D55"/>
<path d="M114.324 314.505C113.918 314.505 113.508 314.37 113.171 314.09C112.401 313.455 112.292 312.319 112.927 311.55C113.131 311.301 118.025 305.467 125.176 304.784C129.24 304.398 133.162 305.733 136.83 308.759C137.601 309.395 137.709 310.535 137.073 311.305C136.435 312.075 135.293 312.183 134.522 311.547C124.634 303.391 116.08 313.423 115.72 313.853C115.362 314.282 114.845 314.505 114.324 314.505Z" fill="#132D55"/>
<path d="M27.4065 249.373C27.4662 250.479 27.9848 253.389 31.5407 256.314C35.6904 256.256 104.227 255.297 111.27 254.997L110.426 247.523C99.4261 247.761 33.8887 249.228 27.4065 249.373Z" fill="#528CFF"/>
<path d="M116.099 245.898C108.674 225.797 96.3847 194.147 94.3032 192.942C92.1651 192.185 40.6334 192.548 6.37537 192.98C4.70748 194.724 2.25246 197.742 2.33683 198.915C2.61362 200.569 17.2995 229.261 27.1998 248.33C33.68 248.185 111.46 246.443 111.989 246.443C112.163 246.431 113.682 246.229 116.099 245.898ZM51.4135 218.277C45.4457 218.277 40.5892 215.039 40.5892 211.057C40.5892 207.076 45.4447 203.838 51.4135 203.838C57.3823 203.838 62.2378 207.076 62.2378 211.057C62.2378 215.039 57.3823 218.277 51.4135 218.277ZM96.3631 212.409L93.8124 205.782L92.5088 202.485L91.8317 200.852C91.7144 200.585 91.6023 200.31 91.4778 200.051C91.3605 199.787 91.2277 199.521 91.1115 199.312C91.1074 199.309 91.1043 199.302 91.1012 199.296L91.0806 199.293C90.9726 199.272 90.8203 199.258 90.6834 199.245C90.3995 199.22 90.1073 199.203 89.815 199.187C89.2296 199.156 88.639 199.14 88.0484 199.122L84.4975 199.061L77.3856 199.026C67.8989 198.954 58.4091 199.02 48.9194 199.002L34.6842 198.983L20.4469 198.885C25.1903 198.709 29.9347 198.606 34.679 198.472L48.9132 198.2C53.6586 198.101 58.404 198.082 63.1494 198.04L77.3887 197.979C79.7624 197.994 82.1362 198.019 84.5119 198.06L88.0772 198.146C88.6729 198.167 89.2676 198.188 89.8665 198.224C90.1669 198.241 90.4663 198.261 90.773 198.291C90.9314 198.308 91.0755 198.32 91.2586 198.354L91.3955 198.381C91.4634 198.396 91.591 198.451 91.6722 198.504C91.7762 198.601 91.843 198.7 91.9192 198.807C92.0931 199.114 92.2176 199.382 92.34 199.66C92.4697 199.936 92.5787 200.211 92.6981 200.486L93.371 202.141L94.6582 205.46C95.506 207.675 96.3189 209.9 97.1183 212.131C98.7224 216.589 100.303 221.057 101.868 225.528C103.399 230.012 104.953 234.487 106.431 238.989L96.3631 212.409Z" fill="#528CFF"/>
<path d="M51.4134 204.886C46.0239 204.886 41.6396 207.655 41.6396 211.057C41.6396 214.46 46.0239 217.228 51.4134 217.228C56.8029 217.228 61.1882 214.46 61.1882 211.057C61.1872 207.655 56.8029 204.886 51.4134 204.886Z" fill="white"/>
<path d="M111.989 247.491C111.96 247.491 111.78 247.496 111.48 247.502L112.316 254.912C119.354 254.139 154.295 249.825 157.274 248.475C157.223 247.331 156.247 243.809 155.526 241.462C147.366 242.607 112.531 247.491 111.989 247.491Z" fill="#528CFF"/>
<g opacity="0.25">
<path d="M70.9856 234.148C51.2673 240.031 28.8398 241.462 28.8398 241.462C28.8398 241.462 30.0591 244.495 29.9243 245.035C29.7885 245.577 103.511 242.736 103.511 242.736L92.34 213.656C92.3389 213.658 90.7029 228.265 70.9856 234.148Z" fill="#132D55"/>
</g>
<g opacity="0.25">
<path d="M32.0232 252.407C32.0232 252.407 34.4823 256.273 34.6644 256.27H34.6675C48.9706 256.067 104.94 255.266 111.269 254.997L110.845 251.239H108.49L32.0232 252.407Z" fill="#132D55"/>
</g>
<g opacity="0.25">
<path d="M111.887 251.105L112.318 254.912C115.93 254.515 126.894 253.185 137.114 251.803C146.136 250.431 154.287 249.194 154.487 249.165C154.49 249.164 154.494 249.164 154.497 249.163L154.125 245.41L111.887 251.105Z" fill="#001364"/>
</g>
<g opacity="0.4">
<path d="M87.9247 203.838C92.1258 204.46 100.25 222.671 100.25 222.671L100.248 222.664L96.3629 212.409L93.8122 205.782L92.5086 202.485L91.8315 200.852C91.7142 200.585 91.6021 200.309 91.4776 200.051C91.3603 199.787 91.2276 199.521 91.1113 199.312C91.1072 199.309 91.1041 199.302 91.101 199.296L91.0804 199.293C90.9724 199.272 90.8201 199.258 90.6833 199.245C90.3993 199.22 90.1071 199.202 89.8148 199.187C89.2294 199.156 88.6388 199.14 88.0482 199.122L84.4973 199.061L77.3854 199.026C67.8987 198.954 58.409 199.02 48.9192 199.002L34.684 198.983L20.4468 198.885C25.1901 198.708 29.9345 198.606 34.6789 198.472L48.913 198.2C53.6584 198.101 58.4038 198.082 63.1492 198.04L77.3885 197.979C79.7622 197.994 82.136 198.018 84.5118 198.059L88.077 198.146C88.6727 198.167 89.2674 198.188 89.8663 198.224C90.1667 198.241 90.4661 198.261 90.7728 198.291C90.9312 198.308 91.0753 198.32 91.2584 198.354L91.3953 198.381C91.4632 198.396 91.5908 198.451 91.6721 198.504C91.776 198.601 91.8428 198.7 91.919 198.807C92.0929 199.114 92.2174 199.382 92.3398 199.659C92.4695 199.936 92.5785 200.211 92.6979 200.486L92.8872 200.951L94.3596 200.269L113.337 246.274C114.03 246.181 114.963 246.055 116.098 245.9C108.673 225.799 96.3835 194.149 94.302 192.944C92.1639 192.186 40.6322 192.55 6.37415 192.982C4.70626 194.726 2.25124 197.744 2.33561 198.917C2.40044 199.305 3.2565 201.177 4.6579 204.064C4.65893 204.061 83.7236 203.216 87.9247 203.838Z" fill="white"/>
</g>
<path d="M31.3566 258.649C30.943 258.649 30.5428 258.508 30.2197 258.249C24.6419 253.763 25.0617 248.886 25.0823 248.681C25.1728 247.772 25.9291 247.074 26.8438 247.053C35.353 246.862 108.867 245.217 111.896 245.161C113.598 244.979 143.981 240.727 155.645 239.09C156.521 238.971 157.361 239.497 157.626 240.342C158.427 242.898 159.747 247.41 159.598 248.905C159.435 250.526 158.417 250.915 151.216 252.099C147.527 252.706 142.4 253.448 135.98 254.304C125.013 255.768 113.473 257.136 112.044 257.286C109.462 257.557 39.3658 258.537 31.3824 258.648C31.3731 258.649 31.3649 258.649 31.3566 258.649ZM28.9418 250.624C29.2906 251.753 30.1065 253.36 32.0049 255.024C54.0733 254.717 109.462 253.906 111.665 253.69C116.544 253.178 149.298 249.163 155.844 247.564C155.612 246.447 155.132 244.646 154.614 242.887C112.645 248.775 112.153 248.775 111.989 248.775C111.046 248.786 41.7457 250.336 28.9418 250.624Z" fill="#132D55"/>
<path d="M26.8859 250.669C26.2304 250.669 25.5987 250.314 25.2766 249.692C25.2139 249.572 18.9683 237.543 12.7865 225.437C0.117354 200.63 0.0535604 199.734 0.00622988 199.081C-0.161485 196.731 2.96851 193.134 4.85041 191.201C5.18584 190.856 5.64577 190.658 6.12731 190.652C31.942 190.326 92.2926 189.684 95.152 190.77C96.2787 191.199 97.6811 191.732 108.417 219.14C113.585 232.336 118.468 245.57 118.518 245.703C118.864 246.64 118.382 247.679 117.444 248.024C116.504 248.368 115.463 247.888 115.118 246.952C106.471 223.503 96.1861 197.49 93.6611 194.139C88.25 193.497 39.6178 193.848 6.94119 194.258C5.32063 196.014 3.86984 197.999 3.6476 198.782C4.8679 202.16 19.0537 229.849 28.4941 248.03C28.955 248.916 28.6073 250.008 27.7193 250.467C27.4518 250.603 27.1668 250.669 26.8859 250.669Z" fill="#132D55"/>
<path d="M20.4468 198.884C41.7702 197.068 63.141 196.506 84.5313 196.773C86.5686 196.871 89.4928 196.826 91.493 197.13C91.9499 197.204 92.4489 197.442 92.7308 197.821C93.5612 198.957 93.9388 200.448 94.4851 201.692C99.0186 213.945 102.985 226.377 106.433 238.987C100.831 226.583 95.1066 211.762 90.2398 200.174C90.4158 200.316 90.6483 200.47 90.8582 200.51C90.674 200.497 89.9476 200.446 89.7469 200.439C66.663 200.115 43.5091 200.416 20.4468 198.884Z" fill="#132D55"/>
<path d="M111.851 257.297C110.942 257.297 110.158 256.614 110.054 255.692L109.094 247.193C108.982 246.201 109.697 245.306 110.691 245.194C111.685 245.085 112.582 245.795 112.694 246.787L113.654 255.286C113.766 256.278 113.051 257.174 112.057 257.286C111.988 257.293 111.919 257.297 111.851 257.297Z" fill="#132D55"/>
<path d="M51.4134 219.56C44.6225 219.56 39.303 215.825 39.303 211.057C39.303 206.289 44.6225 202.554 51.4134 202.554C58.2043 202.554 63.5239 206.289 63.5239 211.057C63.5239 215.825 58.2043 219.56 51.4134 219.56ZM51.4134 206.17C46.8913 206.17 42.9258 208.454 42.9258 211.057C42.9258 213.661 46.8923 215.945 51.4134 215.945C55.9356 215.945 59.901 213.661 59.901 211.057C59.901 208.454 55.9345 206.17 51.4134 206.17Z" fill="#132D55"/>
<path d="M158.198 40.5461C159.774 36.8902 169.233 15.9162 178.755 16.3198C180.376 16.3855 181.925 17.3796 183.359 19.2733C190.478 28.6748 193.65 59.3697 191.123 70.3907C191.493 71.052 191.857 71.7185 192.209 72.3942C194.391 76.5923 196.276 80.6517 197.912 84.5643C203.885 58.5533 197.804 26.5141 188.514 11.2796C185.486 6.31444 182.202 3.29322 179.019 2.54356C165.961 -0.542362 144.181 30.2768 140.781 35.2307C141.549 35.3714 142.316 35.5213 143.082 35.6846C148.396 36.8152 153.448 38.4501 158.198 40.5461Z" fill="#FAA327"/>
<path d="M198.462 160.748C203.222 155.306 206.211 145.424 206.742 133.742C199.68 121.31 190.217 115.261 177.821 115.261C177.766 115.261 177.71 115.263 177.654 115.263C167.16 115.309 156.95 119.705 149.495 122.916C146.164 124.351 143.533 125.484 141.647 125.897C135.117 127.332 128.418 124.66 120.662 121.568C117.022 120.117 113.279 118.631 109.263 117.44C109.317 117.733 109.324 118.075 109.247 118.486C108.552 122.189 101.729 128.707 98.1854 129.052C97.9272 129.077 97.6586 129.089 97.3818 129.089C97.1431 129.089 96.8962 129.078 96.6451 129.059L97.3119 137.289C97.8603 137.671 98.4632 138.039 99.0744 138.353C99.7535 138.721 100.457 139.043 101.173 139.333C102.613 139.892 104.112 140.3 105.645 140.473C106.029 140.5 106.412 140.586 106.798 140.576L107.956 140.59C108.342 140.57 108.725 140.519 109.113 140.491C109.305 140.471 109.502 140.466 109.692 140.431L110.262 140.311C111.81 140.068 113.253 139.421 114.702 138.76C113.392 139.646 111.973 140.467 110.395 140.864L109.81 141.037C109.614 141.09 109.412 141.111 109.212 141.149C108.812 141.215 108.411 141.297 108.005 141.338L106.783 141.397C106.375 141.428 105.968 141.37 105.56 141.357C103.933 141.228 102.322 140.872 100.801 140.284C99.3985 139.746 98.0805 139.065 96.8314 138.189C95.9794 138.862 95.0637 139.476 94.0152 139.817C92.8659 140.248 91.6157 140.417 90.4078 140.309C89.1988 140.212 88.0238 139.9 86.9383 139.42C85.8538 138.939 84.832 138.324 83.9482 137.556C84.9421 138.171 86.0091 138.644 87.0977 139.003C88.1904 139.351 89.3192 139.561 90.4397 139.57C90.7195 139.56 91.0004 139.578 91.2772 139.546L92.1035 139.434C92.3772 139.39 92.6385 139.292 92.907 139.229C93.0398 139.191 93.1756 139.165 93.3052 139.119L93.687 138.957C94.65 138.612 95.4701 137.985 96.2644 137.344L95.5823 128.931C91.6363 128.302 86.8261 125.772 84.7754 122.302C84.2517 121.416 84.1674 120.527 84.5254 119.656C84.6777 119.287 84.9072 118.94 85.1901 118.615C82.1928 120.069 79.7564 121.787 77.8055 123.164C71.455 127.647 64.2155 125.829 58.6171 123.744C52.6843 121.538 46.7433 127.629 45.88 128.56C44.7225 137.566 44.4899 143.562 44.4858 143.662C44.4858 143.667 44.4858 143.674 44.4858 143.68C43.8098 153.434 54.3378 171.159 98.0877 175.719C145.939 180.705 188.62 172.003 198.462 160.748Z" fill="white"/>
<path d="M58.9844 124.923C67.047 127.924 72.4942 127.791 77.1994 124.469C80.4776 122.154 85.0882 118.904 91.4017 117.447C91.5056 117.417 91.5776 115.238 91.6075 115.23C95.6954 114.007 104.411 116.34 108.162 118.188C112.762 119.45 116.968 121.125 121.051 122.753C128.647 125.781 135.207 128.396 141.422 127.032C143.209 126.64 145.93 125.468 149.078 124.112C163.488 117.907 190.082 106.459 206.806 133.942C206.827 132.964 206.833 129.815 206.819 128.815C206.659 116.625 203.83 97.0241 191.277 72.8769C184.003 58.884 172.581 48.1834 158.329 41.7518C158.309 41.7456 158.287 41.7477 158.266 41.7394C158.234 41.7261 158.212 41.7025 158.185 41.685C153.381 39.5295 148.258 37.8587 142.864 36.7095C137.258 35.5152 131.592 34.9309 125.98 34.9309C121.315 34.9309 116.689 35.3376 112.166 36.1314C112.139 36.1488 112.117 36.1714 112.085 36.1838C111.981 36.2248 111.874 36.2218 111.772 36.1981C99.8481 38.3516 88.6668 43.2172 79.4548 50.5258C62.672 63.8431 54.0579 88.4349 49.7878 106.719C48.0726 114.063 46.9027 123.159 46.1084 129C48.3371 126.904 53.5362 122.892 58.9844 124.923Z" fill="#FAA327"/>
<path d="M75.7609 22.0337C75.7403 22.0327 75.7187 22.0327 75.6981 22.0327C68.7426 22.0327 67.2949 51.2447 66.7485 62.2626C66.7393 62.4567 66.73 62.6467 66.7197 62.8336C70.1893 57.8623 74.1877 53.3653 78.8014 49.7054C83.1136 46.2836 87.8508 43.3897 92.8915 41.0504C92.8513 41.0104 92.8122 40.9683 92.7855 40.9149C92.6929 40.728 83.3832 22.2258 75.7609 22.0337Z" fill="#F85189"/>
<path d="M65.584 64.5085C65.621 63.8153 65.6591 63.0461 65.7003 62.2112C66.7621 40.7915 68.7109 20.9852 75.6942 20.9852C75.7261 20.9852 75.757 20.9862 75.7889 20.9862C84.0388 21.1947 93.3351 39.6629 93.7271 40.4485C93.7601 40.5143 93.7765 40.5841 93.7807 40.6539C99.2669 38.1955 105.096 36.3829 111.118 35.2574C108.352 29.5107 96.497 15.7499 86.2119 10.6173C81.4727 8.25227 77.8354 7.76962 74.7641 9.09949C69.9631 11.177 66.0192 17.8756 62.3542 30.1803C56.8371 48.6999 56.4955 73.8484 56.5387 81.8348C59.0184 75.8416 62.0033 69.9255 65.584 64.5085Z" fill="#FAA327"/>
<path d="M107.793 117.016C107.214 116.858 106.632 116.705 106.04 116.561C100.392 115.193 95.5822 115.387 91.5035 116.35C89.7842 116.864 86.2375 118.251 85.4967 120.056C85.2682 120.614 85.3279 121.174 85.6798 121.771C87.9846 125.671 94.3526 128.368 98.0845 128.008C101.168 127.707 107.606 121.533 108.215 118.291C108.369 117.471 108.082 117.174 107.793 117.016Z" fill="#132D55"/>
<path d="M178.712 17.3664C178.638 17.3633 178.562 17.3623 178.487 17.3623C169.811 17.3623 160.632 37.5918 159.156 40.9786C172.269 46.9892 182.997 56.5797 190.33 69.0076C192.379 57.3211 189.268 28.8167 182.52 19.905C181.285 18.2732 180.004 17.4198 178.712 17.3664Z" fill="#F85189"/>
<g opacity="0.25">
<path d="M92.7855 40.9149C92.6929 40.728 83.3831 22.2258 75.7609 22.0337C75.7403 22.0327 75.7187 22.0327 75.6981 22.0327C71.995 22.0327 69.8528 30.3149 68.5769 39.7236C68.5769 39.7226 68.5779 39.7216 68.5779 39.7216C68.5779 39.7216 71.5073 27.574 76.5881 27.1941C80.3272 26.9137 87.8847 40.7351 89.0772 42.9615C90.3284 42.2889 91.6001 41.6512 92.8925 41.0514C92.8513 41.0114 92.8122 40.9683 92.7855 40.9149Z" fill="#001364"/>
</g>
<path d="M83.2288 20.0416C76.1807 14.2589 70.2345 16.6938 67.3885 23.5413C64.5425 30.3889 59.1849 51.1842 59.9586 74.3127L59.9926 74.2593C61.6728 70.8992 63.5269 67.6202 65.5838 64.5076C65.6208 63.8144 65.6589 63.0452 65.7 62.2103C66.7619 40.7907 68.7107 20.9843 75.694 20.9843C75.7259 20.9843 75.7567 20.9853 75.7886 20.9853C84.0386 21.1938 93.3349 39.6621 93.7269 40.4477C93.7568 40.5072 93.7691 40.5699 93.7753 40.6315L93.9492 40.5801C95.1726 40.0348 96.4145 39.5234 97.6698 39.0439C96.4001 36.8349 89.5896 25.2594 83.2288 20.0416Z" fill="#EF7F25"/>
<g opacity="0.25">
<path d="M179.614 24.5046C184.275 27.0966 188.541 36.9006 188.687 37.2395C187.251 29.9134 185.167 23.4006 182.521 19.905C181.285 18.2732 180.004 17.4198 178.712 17.3664C178.638 17.3633 178.562 17.3623 178.487 17.3623C169.811 17.3623 160.632 37.5918 159.156 40.9786C161.978 42.2715 164.682 43.741 167.272 45.3584C168.502 41.6964 175.312 22.1129 179.614 24.5046Z" fill="#001364"/>
</g>
<path d="M197.638 66.1967C196.981 49.5892 194.928 33.7016 190.953 23.9633C186.979 14.2249 181.105 8.74726 171.889 14.9016C162.674 21.056 152.269 38.2263 152.269 38.2263L152.293 38.2396C154.308 38.9328 156.279 39.6999 158.197 40.5471C159.773 36.8913 169.232 15.9173 178.754 16.3209C180.375 16.3866 181.924 17.3806 183.358 19.2743C190.198 28.3072 193.393 56.9944 191.393 69.0044V69.0095C191.393 69.0095 191.292 69.867 191.216 70.5632C191.553 71.1681 191.887 71.7771 192.209 72.3953C194.231 76.2873 195.99 80.0541 197.539 83.6997C197.777 82.1069 198.095 77.7394 197.638 66.1967Z" fill="#EF7F25"/>
<g opacity="0.25">
<path d="M182.393 162.059C163.096 168.243 111.343 172.1 82.0755 165.305C45.3738 156.783 46.1084 131.784 46.1084 131.784C45.6609 133.472 45.2946 135.041 44.9993 136.518C44.5918 140.933 44.4879 143.597 44.4858 143.663C44.4858 143.668 44.4858 143.674 44.4858 143.681C43.8098 153.435 54.3378 171.16 98.0877 175.72C145.939 180.705 188.62 172.003 198.462 160.748C201.274 157.533 203.462 152.761 204.896 146.993C203.027 150.066 197.255 157.296 182.393 162.059Z" fill="#132D55"/>
</g>
<g opacity="0.25">
<path d="M92.341 136.039C91.1361 138.244 84.7238 137.922 84.5664 137.913C85.3793 138.357 86.2302 138.719 87.0965 139.005C88.1892 139.353 89.318 139.563 90.4385 139.572C90.7184 139.562 90.9992 139.58 91.276 139.548L92.1023 139.436C92.3759 139.392 92.6373 139.294 92.9058 139.231C93.0386 139.193 93.1744 139.167 93.304 139.121L93.6858 138.959C94.6488 138.614 95.4689 137.987 96.2632 137.346L95.581 128.933C94.7661 128.803 93.9142 128.588 93.0571 128.304C93.161 130.062 93.2958 134.292 92.341 136.039Z" fill="#001364"/>
</g>
<g opacity="0.25">
<path d="M101.844 136.039C100.185 134.1 99.9767 130.073 99.9602 128.512C99.3161 128.809 98.7142 129 98.1853 129.051C97.9271 129.076 97.6585 129.088 97.3817 129.088C97.143 129.088 96.8961 129.077 96.645 129.058L97.3118 137.288C97.8602 137.67 98.4631 138.038 99.0743 138.352C99.7534 138.719 100.457 139.042 101.173 139.331C102.613 139.891 104.112 140.299 105.645 140.471C106.029 140.499 106.412 140.584 106.797 140.575L107.956 140.588C108.342 140.569 108.725 140.518 109.112 140.49C109.305 140.469 109.501 140.465 109.692 140.43L110.262 140.31C110.842 140.219 111.408 140.071 111.965 139.886C111.965 139.888 103.928 138.474 101.844 136.039Z" fill="#001364"/>
</g>
<g opacity="0.4">
<path d="M176.193 6.0423C184.814 5.00613 192.461 19.3924 192.744 19.9295C191.443 16.671 190.022 13.7515 188.516 11.2796C185.488 6.31444 182.204 3.29322 179.021 2.54356C165.963 -0.542362 144.184 30.2768 140.783 35.2307C141.552 35.3714 142.318 35.5213 143.085 35.6846C143.736 35.8232 144.384 35.9701 145.027 36.1241H145.029C145.028 36.1231 167.408 7.09799 176.193 6.0423Z" fill="white"/>
</g>
<g opacity="0.4">
<path d="M141.178 32.8135L141.18 32.8113L141.178 32.8135Z" fill="white"/>
</g>
<g opacity="0.4">
<path d="M177.921 53.511C174.958 50.4199 171.432 47.8013 167.629 45.5811C171.367 47.9461 174.85 50.6418 178.049 53.6476C178.005 53.6024 177.964 53.5562 177.921 53.511Z" fill="white"/>
</g>
<g opacity="0.4">
<path d="M129.429 33.9646C129.423 33.9636 129.418 33.9636 129.414 33.9626C127.508 33.7367 125.117 33.748 122.422 33.9688C124.747 33.8671 127.086 33.8661 129.429 33.9646Z" fill="white"/>
</g>
<g opacity="0.4">
<path d="M81.771 12.1289C88.4919 13.6087 99.3512 25.3486 106.716 36.2114C108.17 35.853 109.637 35.5337 111.117 35.2574C108.351 29.5107 96.4959 15.7499 86.2108 10.6173C81.4716 8.25227 77.8343 7.76962 74.763 9.09949C72.3625 10.1387 70.176 12.3323 68.1326 15.8043C68.1326 15.8043 74.8597 10.607 81.771 12.1289Z" fill="white"/>
</g>
<g opacity="0.4">
<path d="M87.7696 51.446C89.8943 53.3202 94.614 53.7258 99.5971 52.2316C105.757 50.3842 109.983 46.335 109.035 43.1864C108.933 42.8434 108.762 42.5292 108.55 42.2365C137.438 35.6693 176.837 50.5588 194.132 78.6422C193.24 76.7495 192.294 74.8292 191.278 72.876C184.004 58.883 172.582 48.1824 158.33 41.7508C158.31 41.7446 158.288 41.7467 158.267 41.7385C158.236 41.7251 158.213 41.7015 158.186 41.684C153.382 39.5285 148.259 37.8577 142.865 36.7086C137.259 35.5143 131.593 34.9299 125.981 34.9299C121.316 34.9299 116.69 35.3366 112.167 36.1304C112.14 36.1479 112.118 36.1705 112.086 36.1828C111.982 36.2239 111.875 36.2208 111.773 36.1972C99.8492 38.3506 88.6678 43.2162 79.4559 50.5249C67.8228 59.7559 60.1172 74.401 55.0601 88.6095C55.2957 88.1423 66.8495 65.4071 87.7696 51.446Z" fill="white"/>
</g>
<g opacity="0.4">
<path d="M118.011 58.1375C120.353 57.8284 122.077 56.2716 121.863 54.6603C121.649 53.0501 119.578 51.9944 117.236 52.3046C114.894 52.6147 113.17 54.1705 113.384 55.7817C113.598 57.393 115.669 58.4476 118.011 58.1375Z" fill="white"/>
</g>
<g opacity="0.4">
<path d="M96.6154 119.512C102.374 118.937 106.96 117.653 106.858 116.644C106.757 115.636 102.007 115.285 96.2492 115.86C90.491 116.435 85.905 117.719 86.0061 118.728C86.1073 119.736 90.8572 120.087 96.6154 119.512Z" fill="white"/>
</g>
<path d="M126.154 179.526C117.143 179.527 107.654 179.061 97.8448 178.039C41.9803 172.218 41.9515 146.606 42.1522 143.548C42.1851 142.723 42.9146 125.881 47.5077 106.207C53.8407 79.0775 64.1002 59.7291 78.0009 48.6989C95.539 34.783 119.969 29.4471 143.351 34.4266C165.519 39.1474 183.276 52.4205 193.352 71.8017C216.708 116.73 209.963 151.142 200.223 162.279C192.031 171.651 163.217 179.524 126.154 179.526ZM125.975 36.2135C109.145 36.2135 92.8298 41.5535 80.2563 51.5312C48.5654 76.6776 45.7966 143.043 45.7719 143.71C45.7709 143.73 45.7699 143.75 45.7688 143.77C45.6783 145.083 45.6248 151.996 53.5434 159.14C62.3963 167.127 77.4278 172.276 98.2214 174.443C120.732 176.789 143.731 176.274 162.98 172.996C179.949 170.107 192.852 165.212 197.493 159.903C207.279 148.713 211.465 114.497 190.135 73.4684C180.567 55.0648 163.684 42.4562 142.595 37.9644C137.077 36.7896 131.497 36.2135 125.975 36.2135ZM43.961 143.645H43.9661H43.961Z" fill="#132D55"/>
<path d="M56.0457 86.2014C55.0693 86.2014 54.2636 85.4251 54.2358 84.4444C54.1988 83.1319 53.3993 52.053 60.1131 29.515C64.0436 16.32 68.2745 9.36354 73.8328 6.95847C77.5863 5.3349 81.8522 5.83399 87.2551 8.5307C98.3901 14.0874 111.336 29.4533 113.57 35.0244C113.941 35.9518 113.49 37.0044 112.561 37.3751C111.631 37.7458 110.578 37.295 110.206 36.3687C108.116 31.155 95.6954 16.7852 85.6345 11.7655C81.2019 9.55352 78.0071 9.09449 75.2733 10.2775C70.9085 12.166 67.0851 18.7959 63.5847 30.547C57.0386 52.5233 57.8474 84.0284 57.8556 84.3437C57.8844 85.3419 57.0963 86.1737 56.0961 86.2024C56.0807 86.2014 56.0632 86.2014 56.0457 86.2014Z" fill="#132D55"/>
<path d="M198.054 88.0786C197.908 88.0786 197.761 88.0611 197.613 88.0241C196.642 87.7818 196.053 86.8 196.296 85.8316C202.811 59.874 196.76 27.269 187.416 11.9472C184.571 7.28185 181.565 4.46191 178.724 3.79235C167.729 1.20449 148.054 26.6015 141.399 36.6068C140.847 37.4386 139.722 37.6656 138.889 37.1131C138.055 36.5606 137.828 35.4392 138.38 34.6074C138.443 34.5139 144.701 25.1371 152.681 16.3147C163.754 4.07578 172.796 -1.32278 179.557 0.273067C183.417 1.18293 187.103 4.47731 190.511 10.0669C200.233 26.01 206.553 59.8462 199.809 86.7097C199.604 87.5312 198.865 88.0786 198.054 88.0786Z" fill="#132D55"/>
<path d="M190.569 72.2762C190.43 72.2762 190.288 72.2598 190.145 72.2259C189.171 71.9928 188.572 71.0162 188.806 70.0457C191.264 59.8299 188.196 29.5303 181.494 20.6792C180.812 19.7786 179.767 18.6952 178.66 18.65C178.604 18.648 178.548 18.6469 178.491 18.6469C172.182 18.6469 163.907 32.8843 160.14 41.949C159.757 42.8712 158.696 43.3086 157.772 42.9266C156.849 42.5436 156.41 41.4869 156.793 40.5647C157.897 37.9049 167.883 14.5834 178.807 15.0383C180.831 15.1205 182.707 16.285 184.385 18.5001C191.964 28.5096 195.005 59.7724 192.329 70.8909C192.13 71.7186 191.387 72.2762 190.569 72.2762Z" fill="#132D55"/>
<path d="M66.1055 66.4206C66.0736 66.4206 66.0407 66.4195 66.0088 66.4185C65.0097 66.3661 64.2421 65.5148 64.2956 64.5177C64.3337 63.806 64.3728 63.0112 64.415 62.1465C65.6785 36.6745 68.0841 19.7004 75.6899 19.7004C75.7331 19.7004 75.7764 19.7015 75.8206 19.7025C84.6848 19.9264 93.8607 37.836 94.8783 39.8775C95.3239 40.771 94.9586 41.8564 94.0634 42.3011C93.1672 42.7447 92.0807 42.3812 91.6352 41.4878C88.1636 34.5293 80.7769 23.4446 75.729 23.3173C75.7228 23.3173 75.7177 23.3173 75.7115 23.3173C75.122 23.3173 72.3109 24.0464 70.2068 37.2774C68.8537 45.7834 68.3403 56.1379 68.0337 62.3252C67.9905 63.194 67.9514 63.9929 67.9133 64.7076C67.8619 65.6719 67.0624 66.4206 66.1055 66.4206Z" fill="#132D55"/>
<path d="M97.3849 130.373C92.798 130.373 86.2972 127.41 83.6663 122.956C82.9378 121.724 82.8226 120.414 83.3339 119.171C84.6736 115.911 90.1032 114.302 91.2577 113.994C95.6296 112.696 104.747 112.865 108.803 114.91C110.19 115.609 110.828 117.035 110.511 118.722C109.709 122.987 102.412 129.93 98.311 130.329C98.0126 130.358 97.7039 130.373 97.3849 130.373ZM92.2177 117.48C90.2041 118.018 87.1615 119.381 86.6862 120.543C86.645 120.643 86.5884 120.781 86.787 121.118C88.8027 124.529 94.6151 127.056 97.9591 126.729C99.3738 126.591 102.757 124.182 105.169 121.164C106.481 119.522 106.88 118.471 106.957 118.035C103.869 116.645 96.0772 116.323 92.2732 117.464C92.2537 117.471 92.2362 117.476 92.2177 117.48ZM91.7505 115.734H91.7557H91.7505Z" fill="#132D55"/>
<path d="M83.947 137.558C86.8671 138.622 90.0588 139.242 92.9584 138.057L93.2763 137.892C94.1457 137.519 94.8794 136.875 95.6161 136.249C96.2519 135.708 97.1502 135.674 97.8159 136.109C100.488 137.889 103.621 139.145 106.813 139.559C109.525 139.909 111.991 139.498 114.702 138.76C109.763 144.068 101.094 143.157 95.7169 138.952L97.998 138.866C93.7671 142.632 87.4423 141.879 83.947 137.558Z" fill="#132D55"/>
<path d="M96.8056 139.366C95.8713 139.366 95.079 138.65 95.0019 137.704L94.2662 128.633C94.1859 127.638 94.9288 126.766 95.9258 126.685C96.9229 126.602 97.7964 127.345 97.8777 128.341L98.6134 137.412C98.6937 138.407 97.9508 139.279 96.9537 139.36C96.9044 139.364 96.855 139.366 96.8056 139.366Z" fill="#132D55"/>
<path d="M92.7476 156.223C97.8479 155.951 102.063 156.985 107.112 157.576C103.6 162.006 95.7006 160.67 92.7476 156.223Z" fill="#132D55"/>
<path d="M74.5943 114.023C78.2431 114.023 81.201 109.754 81.201 104.488C81.201 99.2219 78.2431 94.9529 74.5943 94.9529C70.9455 94.9529 67.9875 99.2219 67.9875 104.488C67.9875 109.754 70.9455 114.023 74.5943 114.023Z" fill="#001364"/>
<path d="M77.0277 105.367C78.038 105.367 78.8571 103.974 78.8571 102.256C78.8571 100.538 78.038 99.1458 77.0277 99.1458C76.0173 99.1458 75.1982 100.538 75.1982 102.256C75.1982 103.974 76.0173 105.367 77.0277 105.367Z" fill="white"/>
<path d="M130.428 112.941C134.516 112.941 137.831 108.158 137.831 102.256C137.831 96.355 134.516 91.571 130.428 91.571C126.339 91.571 123.025 96.355 123.025 102.256C123.025 108.158 126.339 112.941 130.428 112.941Z" fill="#001364"/>
<path d="M128.374 103.242C129.506 103.242 130.424 101.681 130.424 99.7557C130.424 97.8302 129.506 96.2693 128.374 96.2693C127.242 96.2693 126.324 97.8302 126.324 99.7557C126.324 101.681 127.242 103.242 128.374 103.242Z" fill="white"/>
<path d="M87.0121 81.9738C87.3157 79.551 83.9117 77.1313 79.4091 76.5693C74.9065 76.0073 71.0103 77.5157 70.7067 79.9385C70.4031 82.3614 73.8071 84.781 78.3097 85.3431C82.8123 85.9051 86.7085 84.3966 87.0121 81.9738Z" fill="white"/>
<path d="M80.2327 86.9747C79.5505 86.9747 78.8446 86.9315 78.1203 86.8401C72.6186 86.1542 68.7869 83.1073 69.2067 79.7543C69.6275 76.4014 74.0941 74.3917 79.5947 75.0777C82.0168 75.3796 84.2506 76.1868 85.8866 77.3503C87.7963 78.7079 88.7275 80.4177 88.5083 82.1645C88.143 85.0748 84.727 86.9747 80.2327 86.9747ZM77.5307 77.9603C74.3966 77.9603 72.3285 79.1207 72.2019 80.1281C72.0537 81.3071 74.4316 83.3434 78.4948 83.8497C82.556 84.356 85.3639 82.9676 85.5121 81.7887C85.5851 81.2095 85.0696 80.468 84.1354 79.8036C82.9171 78.9379 81.1258 78.3053 79.2202 78.0671C78.6286 77.9932 78.0647 77.9603 77.5307 77.9603Z" fill="#132D55"/>
<path d="M124.29 84.212C128.841 83.4966 132.202 80.8412 131.797 78.2809C131.393 75.7206 127.377 74.225 122.827 74.9403C118.277 75.6557 114.916 78.3111 115.32 80.8714C115.724 83.4317 119.74 84.9273 124.29 84.212Z" fill="white"/>
<path d="M122.043 85.9004C120.479 85.9004 118.999 85.6591 117.725 85.1846C115.498 84.3549 114.115 82.9079 113.831 81.1088C113.547 79.3096 114.418 77.5084 116.281 76.0357C117.9 74.7572 120.142 73.8412 122.595 73.4551C125.048 73.0689 127.463 73.2538 129.398 73.9737C131.624 74.8034 133.007 76.2504 133.291 78.0495C133.575 79.8487 132.705 81.65 130.841 83.1226C129.223 84.4011 126.981 85.3171 124.528 85.7032C123.689 85.8347 122.855 85.9004 122.043 85.9004ZM125.07 76.273C124.416 76.273 123.74 76.3253 123.064 76.4311C121.144 76.733 119.355 77.4498 118.155 78.3977C117.197 79.1545 116.708 79.972 116.813 80.6395C116.918 81.307 117.635 81.9344 118.78 82.3616C120.215 82.8956 122.139 83.0281 124.058 82.7272C125.978 82.4253 127.767 81.7085 128.967 80.7606C129.925 80.0038 130.413 79.1874 130.308 78.5188C130.202 77.8513 129.486 77.2239 128.341 76.7967C127.412 76.4506 126.277 76.273 125.07 76.273Z" fill="#132D55"/>
<path d="M76.9184 115.004C83.4243 111.055 86.5234 102.213 86.1365 95.8988C85.8855 91.7973 84.268 88.8716 81.5835 87.6618C73.6907 84.1046 49.1981 85.1715 47.1948 85.267C44.6554 86.79 42.9186 89.4908 42.1685 93.0881C40.8041 99.6286 42.8579 107.444 45.6329 111.221C49.8824 117.003 66.945 121.056 76.9184 115.004Z" fill="#132D55"/>
<path d="M87.1974 97.8397C89.6278 96.4883 97.2675 92.9598 105.033 96.858C104.796 95.3412 104.729 93.7967 104.849 92.2389C94.8547 87.8683 88.1976 92.4494 86.8774 93.4917C87.0308 94.228 87.1347 95.0095 87.1851 95.8341C87.2242 96.4801 87.2283 97.1517 87.1974 97.8397Z" fill="#898786"/>
<path d="M106.265 97.7296C107.131 101.772 109.315 105.581 112.717 108.834C119.778 115.587 130.793 118.548 141.465 116.558C165.126 112.15 166.516 97.0087 166.378 92.4728C166.27 88.897 165.204 86.2424 163.122 84.359C159.428 81.0174 152.12 79.7666 140.784 80.5368C122.468 81.7804 107.893 90.156 106 91.2877C105.717 93.4597 105.815 95.6111 106.258 97.7019C106.262 97.7112 106.263 97.7204 106.265 97.7296Z" fill="#132D55"/>
<path d="M182.401 87.4708C187.192 87.2828 192.291 87.8209 193.901 93.2216C194.256 94.4118 194.508 95.5681 194.729 96.5888C195.455 99.9212 195.895 101.507 198.014 101.27C198.675 101.194 199.199 100.13 199.379 98.4907C199.91 93.6631 197.519 85.5894 191.804 83.6208C184.535 81.1161 168.727 83.82 164.763 84.5604C165.867 85.8605 166.618 87.4276 167.036 89.2792C169.169 88.9516 177.876 87.6484 182.401 87.4708Z" fill="#898786"/>
<g opacity="0.25">
<path d="M76.9185 115.004C81.0784 112.48 83.838 107.954 85.1921 103.368C79.7779 111.838 63.7524 114.548 54.8861 112.525C45.3994 110.361 42.5544 100.487 42.5544 100.487C42.3178 100.665 42.1388 100.893 41.9978 101.151C42.5565 105.198 43.96 108.943 45.633 111.218C49.8825 117.003 66.9451 121.055 76.9185 115.004Z" fill="#001364"/>
</g>
<g opacity="0.25">
<path d="M136.203 117.13C137.954 117.066 139.715 116.885 141.466 116.559C159.174 113.26 164.407 103.95 165.862 97.5725C163.242 100.956 153.14 112.386 136.114 112.526C116.13 112.689 107.078 100.489 107.077 100.488C108.207 103.501 110.1 106.332 112.717 108.835C116.651 112.599 121.815 115.179 127.462 116.387C130.149 116.895 133.071 117.16 136.203 117.13Z" fill="#001364"/>
</g>
<g opacity="0.25">
<path d="M196.197 92.9813C195.282 90.3945 193.046 86.7427 187.913 85.6264C183.205 84.6026 168.716 86.7786 166.347 87.1453C166.632 87.8107 166.863 88.5193 167.035 89.2792C169.168 88.9516 177.874 87.6474 182.4 87.4708C187.191 87.2829 192.29 87.821 193.9 93.2216C194.255 94.4118 194.507 95.5681 194.728 96.5889C195.454 99.9213 195.894 101.507 198.013 101.27C198.674 101.194 199.198 100.13 199.378 98.4908C199.52 97.2009 199.451 95.679 199.168 94.1047C198.386 94.4621 196.862 94.8636 196.197 92.9813Z" fill="#001364"/>
</g>
<g opacity="0.4">
<path d="M48.6178 89.5204C49.2259 89.2596 51.3136 89.0717 54.1534 88.969L48.4151 105.56C48.4151 105.56 52.6841 108.908 58.5788 109.11L64.6546 88.931C65.949 88.9608 67.2434 89.0029 68.5059 89.0573L71.6904 89.5194L66.7104 109.109H69.5554L76.0037 89.6088C77.7755 89.8182 79.1851 90.075 80.0237 90.382C83.1825 91.5384 84.943 92.7573 85.7949 93.4751C85.1529 90.6449 83.7021 88.6157 81.5815 87.6596C73.6886 84.1024 49.1961 85.1693 47.1928 85.2648C44.6534 86.7878 42.9165 89.4886 42.1665 93.0859C41.8043 94.8214 41.689 96.6463 41.758 98.4619C41.8351 98.3284 46.3007 90.5145 48.6178 89.5204Z" fill="white"/>
</g>
<g opacity="0.4">
<path d="M116.079 104.044C116.079 104.044 121.097 107.704 128.027 107.926L135.885 85.0676C137.167 84.8427 138.448 84.6517 139.721 84.5141C139.726 84.5131 139.732 84.5131 139.737 84.512C142.082 84.511 143.809 84.4884 143.918 84.4247C143.989 84.3837 144.3 84.2656 144.75 84.1033C144.933 84.0931 145.12 84.0818 145.301 84.0725L137.585 107.925H140.93L150.036 83.9678C157.83 84.014 162.699 85.1641 164.235 85.5883C163.901 85.1498 163.536 84.7349 163.122 84.359C159.428 81.0174 152.12 79.7666 140.784 80.5368C122.468 81.7804 107.893 90.156 106 91.2877C105.805 92.7809 105.794 94.2638 105.948 95.724C105.95 95.723 112.722 92.0918 121.704 88.9135L116.079 104.044Z" fill="white"/>
</g>
<path d="M64.5805 120.286C55.9396 120.286 47.1279 117.199 43.7479 112.599C40.6714 108.411 38.3831 99.7909 39.8791 92.6137C40.7784 88.3006 42.9381 85.0411 46.1257 83.1875C46.3758 83.0427 46.6567 82.9585 46.9448 82.9441C48.0385 82.8876 73.8419 81.6142 82.5435 85.5371C86.0573 87.1206 88.1614 90.7498 88.4681 95.7571C88.8971 102.753 85.4204 112.574 78.1315 116.997C74.3594 119.286 69.4978 120.286 64.5805 120.286ZM47.5899 86.5332C45.4837 87.9072 44.0843 90.1973 43.4269 93.35C42.1531 99.4592 44.1183 106.988 46.67 110.461C50.5676 115.766 66.9718 119.538 76.2506 113.908C82.1052 110.355 85.2218 102.001 84.8534 95.9779C84.7259 93.8912 84.0622 90.1881 81.0536 88.8325C73.7318 85.5309 51.1037 86.3792 47.5899 86.5332Z" fill="#132D55"/>
<path d="M134.886 119.499C125.842 119.499 117.141 116.297 111.1 110.519C105.391 105.059 102.701 97.8406 103.721 90.7158C103.796 90.19 104.099 89.7238 104.55 89.4404C105.191 89.0388 120.481 79.5798 140.626 78.2119C152.799 77.3873 160.444 78.7911 164.692 82.6339C167.269 84.966 168.585 88.1618 168.714 92.4051C168.866 97.4093 167.38 114.105 141.894 118.854C139.562 119.286 137.212 119.499 134.886 119.499ZM107.207 92.0714C106.657 97.8211 108.91 103.415 113.608 107.908C120.375 114.379 130.96 117.212 141.23 115.297C149.999 113.664 156.506 110.378 160.569 105.533C164.493 100.854 165.196 95.87 165.093 92.5129C164.994 89.2596 164.094 86.9716 162.259 85.3121C158.837 82.2169 151.843 81.075 140.872 81.8185C124.064 82.9594 110.442 90.2167 107.207 92.0714Z" fill="#132D55"/>
<path d="M86.2971 95.0967C85.796 95.0967 85.297 94.8913 84.9399 94.4877C84.2804 93.7422 84.3442 92.6084 85.0871 91.945C85.4287 91.6411 93.5963 84.5532 106.156 90.2619C107.067 90.6758 107.469 91.7479 107.055 92.6567C106.64 93.5655 105.565 93.965 104.655 93.5532C94.3165 88.855 87.7674 94.4107 87.4937 94.6489C87.149 94.9488 86.722 95.0967 86.2971 95.0967Z" fill="#132D55"/>
<path d="M86.6962 100.557C86.1159 100.557 85.5469 100.28 85.196 99.7651C84.6342 98.9395 84.8493 97.815 85.6765 97.2533C86.1046 96.9627 96.2899 90.2085 106.673 96.2849C107.536 96.7901 107.825 97.8982 107.319 98.7588C106.813 99.6203 105.703 99.9089 104.84 99.4037C96.4103 94.4682 87.7992 100.185 87.7128 100.244C87.401 100.456 87.046 100.557 86.6962 100.557Z" fill="#132D55"/>
<path d="M197.56 103.629C193.869 103.629 193.084 100.019 192.446 97.0828C192.223 96.0548 191.991 94.9919 191.662 93.887C190.719 90.7251 188.145 89.578 182.492 89.8008C177.475 89.997 167.026 91.64 166.921 91.6565C165.933 91.8126 165.005 91.1399 164.848 90.1531C164.692 89.1672 165.366 88.2409 166.355 88.0848C166.792 88.016 177.12 86.3924 182.35 86.1871C187.319 85.994 193.261 86.5742 195.135 92.8539C195.504 94.0903 195.76 95.2723 195.988 96.3157C196.738 99.7631 197.045 100.056 197.667 100.014C198.055 99.4221 198.536 97.0417 197.728 93.505C196.719 89.0963 194.349 85.8543 191.385 84.8336C183.416 82.0876 164.301 85.9539 164.109 85.994C163.13 86.1942 162.171 85.5647 161.969 84.5871C161.768 83.6095 162.398 82.6534 163.379 82.4521C164.203 82.2827 183.662 78.3475 192.567 81.4159C199.508 83.8077 202.332 93.0161 201.702 98.7443C201.255 102.813 199.16 103.486 198.28 103.586C198.027 103.615 197.787 103.629 197.56 103.629Z" fill="#132D55"/>
<path d="M55.2791 268.412C55.2225 268.392 55.17 268.373 55.1196 268.355C55.169 268.373 55.2215 268.393 55.2791 268.412Z" fill="white"/>
<path d="M55.063 268.336C55.0208 268.32 54.9797 268.305 54.9426 268.292C54.9807 268.305 55.0208 268.32 55.063 268.336Z" fill="white"/>
<path d="M54.8921 268.272C54.86 268.26 54.8278 268.248 54.8008 268.238C54.8288 268.247 54.86 268.26 54.8921 268.272Z" fill="white"/>
<path d="M54.7539 268.219C54.7341 268.211 54.7134 268.203 54.6968 268.197C54.7134 268.203 54.7331 268.21 54.7539 268.219Z" fill="white"/>
<path d="M54.6591 268.181C54.6487 268.177 54.6352 268.172 54.6279 268.169C54.6362 268.172 54.6477 268.176 54.6591 268.181Z" fill="white"/>
<path d="M70.6586 265.799C75.9288 265.086 80.3532 261.489 81.843 260.15C81.7947 260.383 81.736 260.62 81.6702 260.861C82.1147 259.224 82.1661 257.742 82.055 256.799C81.7628 254.324 78.8859 253.289 77.9177 253.008C77.8734 253.495 77.8199 253.979 77.75 254.463C77.6378 255.213 77.4948 255.959 77.3158 256.694C77.1295 257.428 76.9063 258.153 76.6356 258.858C76.3517 259.558 76.0152 260.236 75.6057 260.863C76.2786 259.521 76.6089 258.06 76.8003 256.599C76.8898 255.865 76.9433 255.129 76.9659 254.393C76.9845 253.741 76.9773 253.078 76.9423 252.44C75.5151 251.231 72.5138 249.011 70.6607 249.011C69.1482 249.011 67.9958 249.568 67.3321 249.997C67.4196 250.74 67.4401 251.455 67.4185 252.185C67.3887 253.029 67.2879 253.869 67.115 254.692C66.9524 255.516 66.6705 256.315 66.331 257.075C65.9945 257.841 65.515 258.529 65.0037 259.172C65.4461 258.476 65.8402 257.756 66.0871 256.978C66.3382 256.205 66.5254 255.415 66.5964 254.61C66.6777 253.808 66.688 253 66.6304 252.199C66.5913 251.674 66.5234 251.139 66.4277 250.623C66.4267 250.623 66.4246 250.624 66.4236 250.625C66.4102 250.628 66.3968 250.627 66.3834 250.629C66.3721 250.63 66.3608 250.632 66.3495 250.632C66.3413 250.632 66.332 250.634 66.3238 250.634C66.3135 250.634 66.3052 250.63 66.295 250.629C66.2764 250.628 66.2579 250.63 66.2394 250.627C66.2291 250.625 66.2209 250.617 66.2106 250.615C66.1488 250.6 66.0912 250.577 66.0388 250.543C66.0285 250.536 66.0171 250.533 66.0069 250.525C65.9482 250.481 65.9019 250.425 65.8659 250.359C65.8628 250.354 65.8577 250.351 65.8546 250.346C65.8072 250.257 64.5736 248.05 59.8138 249.266C54.9521 250.51 54.2493 256.597 54.2432 256.658C54.2123 256.946 53.9468 257.157 53.6659 257.125C53.3778 257.095 53.169 256.837 53.1988 256.549C53.2091 256.452 53.3079 255.584 53.668 254.438C52.6638 256.036 51.3241 258.576 50.2808 262.028C55.4254 265.325 64.7999 266.591 70.6586 265.799Z" fill="white"/>
<path d="M55.5241 268.499C55.4511 268.474 55.3832 268.45 55.3184 268.427C55.3832 268.449 55.4511 268.473 55.5241 268.499Z" fill="white"/>
<path d="M81.6474 260.944C81.4344 261.704 81.1381 262.496 80.7317 263.282C81.1381 262.496 81.4355 261.704 81.6474 260.944Z" fill="white"/>
<path d="M55.5425 268.505C57.9409 269.324 64.6238 271.196 71.9014 269.615C76.7136 268.571 79.3498 265.961 80.7316 263.283C76.3329 266.444 72.1658 268.913 69.1603 270.057C62.995 270.733 57.6374 269.219 55.5425 268.505Z" fill="white"/>
<g opacity="0.25">
<path d="M55.5431 268.505C55.5378 268.503 55.5304 268.501 55.5251 268.499C55.5304 268.501 55.5368 268.502 55.5431 268.505Z" fill="#001364"/>
</g>
<g opacity="0.25">
<path d="M55.1198 268.356C55.1013 268.349 55.0817 268.343 55.0642 268.335C55.0817 268.342 55.1002 268.349 55.1198 268.356Z" fill="#001364"/>
</g>
<g opacity="0.25">
<path d="M54.8018 268.237C54.7843 268.23 54.7689 268.224 54.7534 268.218C54.7689 268.224 54.7833 268.23 54.8018 268.237Z" fill="#001364"/>
</g>
<g opacity="0.25">
<path d="M55.3184 268.427C55.305 268.422 55.2916 268.418 55.2793 268.413C55.2916 268.418 55.305 268.422 55.3184 268.427Z" fill="#001364"/>
</g>
<g opacity="0.25">
<path d="M54.9438 268.291C54.9253 268.284 54.9088 268.278 54.8914 268.272C54.9088 268.278 54.9253 268.284 54.9438 268.291Z" fill="#001364"/>
</g>
<g opacity="0.25">
<path d="M54.6968 268.196C54.6813 268.189 54.67 268.185 54.6587 268.18C54.671 268.185 54.6813 268.189 54.6968 268.196Z" fill="#001364"/>
</g>
<g opacity="0.25">
<path d="M81.6703 260.86C81.663 260.888 81.6558 260.916 81.6475 260.943C81.6547 260.916 81.663 260.888 81.6703 260.86Z" fill="#001364"/>
</g>
<g opacity="0.25">
<path d="M80.7329 263.282L80.7307 263.284C80.7329 263.284 80.7329 263.282 80.7329 263.282Z" fill="#001364"/>
</g>
<g opacity="0.25">
<path d="M54.6281 268.169C54.6146 268.164 54.6042 268.159 54.6011 268.158C54.6042 268.159 54.6135 268.163 54.6281 268.169Z" fill="#001364"/>
</g>
<path d="M81.6474 260.944C81.6547 260.916 81.6629 260.888 81.6701 260.862C81.7359 260.621 81.7946 260.383 81.8429 260.15C80.3531 261.49 75.9287 265.087 70.6585 265.799C64.7998 266.591 55.4253 265.325 50.2786 262.026C49.7981 263.617 49.3803 265.403 49.0881 267.377C51.8559 268.232 54.2708 268.121 54.3604 268.117C54.3614 268.117 54.3624 268.117 54.3634 268.117H54.3645C54.4416 268.112 54.5157 268.128 54.5847 268.155C54.5898 268.157 54.596 268.156 54.6021 268.158C54.6042 268.159 54.6155 268.163 54.6289 268.169C54.6361 268.172 54.6495 268.177 54.6598 268.182C54.6711 268.187 54.6824 268.191 54.6978 268.197C54.7133 268.203 54.7339 268.211 54.7544 268.218C54.7699 268.225 54.7853 268.231 54.8028 268.237C54.8295 268.247 54.8614 268.26 54.8933 268.271C54.9098 268.277 54.9273 268.284 54.9458 268.29C54.9829 268.304 55.023 268.319 55.0662 268.335C55.0837 268.341 55.1032 268.348 55.1218 268.355C55.1722 268.374 55.2246 268.392 55.2812 268.413C55.2936 268.417 55.308 268.422 55.3203 268.427C55.3852 268.45 55.4531 268.473 55.5261 268.499C55.5313 268.501 55.5385 268.503 55.5436 268.505C57.6395 269.219 62.9971 270.732 69.1614 270.058C72.1669 268.914 76.333 266.445 80.7327 263.284L80.7338 263.283C81.1381 262.495 81.4345 261.704 81.6474 260.944Z" fill="white"/>
<g opacity="0.25">
<path d="M81.6474 260.944C81.6547 260.916 81.6629 260.888 81.6701 260.862C81.7359 260.621 81.7946 260.383 81.8429 260.15C80.3531 261.49 75.9287 265.087 70.6585 265.799C64.7998 266.591 55.4253 265.325 50.2786 262.026C49.7981 263.617 49.3803 265.403 49.0881 267.377C51.8559 268.232 54.2708 268.121 54.3604 268.117C54.3614 268.117 54.3624 268.117 54.3634 268.117H54.3645C54.4416 268.112 54.5157 268.128 54.5847 268.155C54.5898 268.157 54.596 268.156 54.6021 268.158C54.6042 268.159 54.6155 268.163 54.6289 268.169C54.6361 268.172 54.6495 268.177 54.6598 268.182C54.6711 268.187 54.6824 268.191 54.6978 268.197C54.7133 268.203 54.7339 268.211 54.7544 268.218C54.7699 268.225 54.7853 268.231 54.8028 268.237C54.8295 268.247 54.8614 268.26 54.8933 268.271C54.9098 268.277 54.9273 268.284 54.9458 268.29C54.9829 268.304 55.023 268.319 55.0662 268.335C55.0837 268.341 55.1032 268.348 55.1218 268.355C55.1722 268.374 55.2246 268.392 55.2812 268.413C55.2936 268.417 55.308 268.422 55.3203 268.427C55.3852 268.45 55.4531 268.473 55.5261 268.499C55.5313 268.501 55.5385 268.503 55.5436 268.505C57.6395 269.219 62.9971 270.732 69.1614 270.058C72.1669 268.914 76.333 266.445 80.7327 263.284L80.7338 263.283C81.1381 262.495 81.4345 261.704 81.6474 260.944Z" fill="#001364"/>
</g>
<g opacity="0.25">
<path d="M71.9015 269.615C76.7137 268.57 79.3498 265.961 80.7317 263.283C76.333 266.444 72.1659 268.912 69.1604 270.056C70.0597 269.958 70.9754 269.816 71.9015 269.615Z" fill="#001364"/>
</g>
<g opacity="0.25">
<path d="M71.9015 269.615C76.7137 268.57 79.3498 265.961 80.7317 263.283C76.333 266.444 72.1659 268.912 69.1604 270.056C70.0597 269.958 70.9754 269.816 71.9015 269.615Z" fill="#001364"/>
</g>
<path d="M65.9542 272.569C59.1139 272.569 53.9631 270.421 53.6852 270.303C52.7644 269.912 52.3363 268.849 52.7294 267.931C53.1214 267.014 54.1843 266.586 55.1031 266.976C55.1813 267.009 62.9888 270.235 71.6276 268.361C80.0226 266.539 81.0783 259.505 80.7768 256.949C80.5402 254.945 77.3608 254.184 77.3289 254.177C77.0161 254.111 76.726 253.963 76.4883 253.749C74.9449 252.356 72.0228 250.295 70.6574 250.295C68.7786 250.295 67.6334 251.359 67.585 251.404C67.1446 251.822 66.553 252.087 65.9614 251.95C65.3841 251.817 64.9365 251.502 64.7174 250.961C64.5445 250.741 63.4899 249.648 60.1304 250.509C56.1536 251.527 55.525 256.743 55.5188 256.797C55.5095 256.875 55.4951 256.959 55.4766 257.035L54.9004 259.368C54.6607 260.338 53.6791 260.928 52.7078 260.692C51.7365 260.454 51.1428 259.473 51.3825 258.505L51.932 256.276C52.077 255.189 53.2006 248.551 59.2301 247.008C62.9662 246.054 65.2318 246.852 66.5129 247.761C67.4759 247.22 68.8814 246.682 70.6574 246.682C73.5703 246.682 77.261 249.631 78.5708 250.764C80.7398 251.361 83.9717 253.112 84.375 256.529C84.943 261.343 82.1937 269.772 72.3973 271.897C70.1583 272.38 67.9811 272.569 65.9542 272.569Z" fill="#132D55"/>
<path d="M53.9467 270.457C52.535 270.457 48.7136 270.251 45.1967 268.239C44.3293 267.742 44.0289 266.637 44.5269 265.771C45.0238 264.905 46.131 264.605 46.9994 265.102C50.3578 267.026 54.2523 266.836 54.2914 266.835C55.2843 266.792 56.1445 267.541 56.2011 268.536C56.2587 269.531 55.5014 270.385 54.5044 270.444C54.4684 270.446 54.2708 270.457 53.9467 270.457Z" fill="#132D55"/>
<path d="M68.5398 249.342C68.654 252.88 67.6354 256.709 65.0013 259.171C66.4017 256.354 66.1815 252.97 65.0055 250.137C64.4571 249.247 64.7349 248.081 65.6259 247.534C66.9975 246.707 68.6046 247.794 68.5398 249.342Z" fill="#132D55"/>
<path d="M79.2674 252.153C78.6532 255.278 77.6674 258.41 75.6045 260.863C76.4924 258.05 76.229 255.031 75.6446 252.229C75.3946 251.236 75.9985 250.229 76.9935 249.979C78.2889 249.623 79.5617 250.857 79.2674 252.153Z" fill="#132D55"/>
</g>
<defs>
<clipPath id="clip0_31_15505">
<rect width="223" height="355" fill="white"/>
</clipPath>
</defs>
</svg>
