<svg width="391" height="515" viewBox="0 0 391 515" fill="none" xmlns="http://www.w3.org/2000/svg">
<g clip-path="url(#clip0_54_6305)">
<g opacity="0.2">
<path opacity="0.4" d="M195.88 515C275.107 515 339.332 508.753 339.332 501.046C339.332 493.339 275.107 487.092 195.88 487.092C116.654 487.092 52.4282 493.339 52.4282 501.046C52.4282 508.753 116.654 515 195.88 515Z" fill="#1E1D2B"/>
</g>
<path d="M96.7804 371.869C111.43 379.512 117.185 396.19 111.424 408.653L121.093 409.32C121.578 417.279 119.961 425.468 115.977 433.046C104.324 455.222 76.8351 463.786 54.5778 452.174C32.3206 440.563 23.7273 413.173 35.3808 390.996C47.0359 368.821 74.5247 360.257 96.7804 371.869Z" fill="#FA9B27"/>
<g opacity="0.6">
<path d="M115.92 415.556L120.756 415.89C121.159 412.942 121.272 409.985 121.093 407.057L118.046 406.847C117.868 409.859 117.19 412.812 115.92 415.556Z" fill="white"/>
<path d="M39.8783 397.902C51.5318 375.726 79.0206 367.162 101.278 378.774C105.96 381.216 109.723 384.587 112.502 388.444C110.304 380.892 104.921 373.854 96.7821 369.607C74.5264 357.996 47.036 366.56 35.3825 388.735C27.5531 403.636 28.8746 420.884 37.3305 434.123C33.2299 422.638 33.7563 409.552 39.8783 397.902Z" fill="white"/>
</g>
<path d="M61.1249 439.719C81.2405 450.213 105.627 444.224 118.738 426.602C117.991 428.785 117.085 430.94 115.979 433.046C104.326 455.222 76.8368 463.786 54.5795 452.174C32.3223 440.563 23.729 413.173 35.3825 390.996C36.4963 388.877 37.7554 386.885 39.1394 385.02C32.0442 405.807 40.9953 429.217 61.1249 439.719Z" fill="white"/>
<g opacity="0.3">
<path d="M121.095 409.32L112.313 408.713C111.83 409.845 111.305 410.969 110.723 412.077C99.0691 434.253 71.5802 442.817 49.323 431.205C40.8344 426.777 34.3421 420.049 30.1931 412.195C30.2697 428.444 39.1285 444.113 54.5811 452.176C76.8368 463.788 104.327 455.224 115.981 433.048C119.961 425.468 121.579 417.279 121.095 409.32Z" fill="#1E1D2B"/>
</g>
<path d="M75.5995 460.225C68.0435 460.225 60.3812 458.458 53.236 454.73C41.7872 448.758 33.3579 438.698 29.501 426.408C25.6441 414.118 26.822 401.066 32.8174 389.658C38.8129 378.249 48.9074 369.85 61.242 366.009C73.5766 362.166 86.675 363.339 98.1239 369.313C112.188 376.651 119.367 392.449 115.473 406.041L121.295 406.444C122.745 406.544 123.896 407.702 123.983 409.146C124.515 417.872 122.634 426.601 118.543 434.385C109.909 450.816 93.0376 460.225 75.5995 460.225ZM75.7307 369.561C71.4583 369.561 67.164 370.21 62.9697 371.516C52.1113 374.898 43.2243 382.293 37.9475 392.336C32.669 402.378 31.6333 413.868 35.0278 424.688C38.4223 435.507 45.844 444.362 55.9229 449.622C76.7289 460.477 102.52 452.441 113.414 431.711C116.621 425.608 118.286 418.848 118.282 412.019L111.222 411.532C110.274 411.467 109.418 410.941 108.932 410.125C108.448 409.311 108.395 408.309 108.793 407.448C114.144 395.874 108.153 381.06 95.4355 374.426C89.2525 371.197 82.5182 369.561 75.7307 369.561Z" fill="#1E1D2B"/>
<path d="M73.8656 390.342C71.9833 391.273 70.2852 392.434 68.9527 393.846C67.639 395.273 66.6829 396.923 66.2487 398.691C65.3114 402.206 66.3299 406.022 68.5481 408.685C69.0902 409.364 69.726 409.957 70.4071 410.477C71.085 411.001 71.8208 411.447 72.605 411.792C74.139 412.497 75.9558 412.882 77.7194 412.935C81.292 413.051 84.9255 411.833 88.0092 409.73C88.8043 409.239 89.5182 408.62 90.2586 408.039C90.9397 407.381 91.6661 406.774 92.28 406.041C93.5907 404.66 94.6826 403.063 95.6886 401.42L96.4072 400.159C96.6774 399.735 96.7883 399.332 96.9914 398.92C97.157 398.503 97.396 398.118 97.5116 397.679L97.9084 396.384C98.0693 395.962 98.1146 395.502 98.2052 395.056C98.2755 394.605 98.3989 394.166 98.4364 393.707C98.4817 392.785 98.6317 391.876 98.5707 390.938C98.6129 389.075 98.2724 387.193 97.8725 385.341C97.371 383.506 96.7868 381.672 95.9323 379.96C94.2796 376.551 91.8473 373.393 88.9714 371.654L88.8465 371.578C87.4812 370.751 87.0453 368.979 87.8733 367.618C88.6621 366.323 90.3211 365.872 91.6567 366.544C94.0202 367.741 95.9339 369.383 97.5678 371.19C99.2315 372.985 100.506 375.016 101.628 377.111L102.41 378.711C102.667 379.247 102.86 379.809 103.085 380.358C103.56 381.449 103.849 382.606 104.196 383.744C104.74 386.06 105.179 388.426 105.172 390.854C105.254 392.06 105.097 393.282 105.007 394.496C104.95 395.103 104.801 395.707 104.697 396.313C104.574 396.915 104.493 397.525 104.285 398.113L103.73 399.889C103.557 400.484 103.249 401.037 103.01 401.611C102.745 402.162 102.517 402.786 102.21 403.27L101.331 404.799C100.089 406.797 98.6848 408.721 97.0149 410.433C96.2244 411.325 95.2949 412.097 94.4092 412.902C93.4532 413.638 92.519 414.398 91.474 415.025C87.414 417.651 82.437 419.153 77.4039 418.817C76.1479 418.747 74.8998 418.515 73.6766 418.211C73.0705 418.024 72.466 417.852 71.8661 417.642C71.2694 417.394 70.6711 417.154 70.1025 416.841C67.7967 415.669 65.8066 413.893 64.3476 411.801C63.6259 410.748 63.0166 409.624 62.5605 408.441C62.1184 407.255 61.8107 406.024 61.6498 404.777C61.3733 402.282 61.6748 399.712 62.6636 397.427C63.6415 395.141 65.2442 393.179 67.1719 391.797C69.0902 390.396 71.2897 389.564 73.4751 389.131C73.8234 389.062 74.1624 389.288 74.2312 389.635C74.289 389.925 74.1406 390.208 73.8875 390.332L73.8656 390.342Z" fill="#1E1D2B"/>
<path d="M97.8772 366.423C98.0506 361.859 98.3911 357.46 98.8613 353.242C98.4193 357.411 98.0865 361.801 97.8772 366.423ZM162.542 407.616C162.498 407.624 162.404 407.797 162.332 407.92C162.26 408.049 162.187 408.193 162.115 408.338C161.978 408.626 161.848 408.93 161.725 409.247C161.486 409.875 161.304 410.531 161.183 411.201C161.045 411.878 160.98 412.57 160.98 413.277C160.965 413.991 161.073 414.69 161.211 415.419L161.225 415.49C161.312 415.945 161.015 416.37 160.559 416.457C160.241 416.515 159.922 416.378 159.741 416.133C159.241 415.455 158.757 414.728 158.388 413.934C158.004 413.148 157.701 412.312 157.476 411.447C157.244 410.581 157.077 409.688 156.998 408.787C156.962 408.332 156.932 407.871 156.926 407.403C156.926 407.179 156.934 406.962 156.94 406.74V406.69C156.962 406.43 156.962 406.235 157.027 405.868L157.137 405.249C157.252 404.629 158.019 404.383 158.468 404.838C158.946 405.32 159.474 405.761 160.038 406.15C160.876 406.741 161.803 407.224 162.795 407.585C162.709 407.588 162.629 407.61 162.542 407.616Z" fill="#F4A526"/>
<path d="M383.602 324.279C383.602 324.279 387.459 310.492 376.988 304.262C370.424 300.353 361.951 300.462 358.592 305.804C358.592 305.804 354.952 291.989 342.101 296.899C329.241 301.81 328.142 317.861 328.142 317.861L319.111 318.993L313.083 319.749C300.839 268.137 271.111 268.944 271.111 268.944C252 275.521 226.969 279.457 194.383 279.407C158.149 279.465 131.258 274.591 111.46 266.638C111.46 266.638 88.8668 266.55 76.804 315.82L70.8632 315.1L61.97 314.018C61.97 314.018 60.8843 298.696 48.2201 294.009C35.5559 289.322 31.9677 302.511 31.9677 302.511C28.6607 297.413 20.3173 297.304 13.847 301.04C3.53535 306.989 7.33446 320.148 7.33446 320.148C7.33446 320.148 -9.9599 341.599 23.74 358.601C35.5715 364.572 47.475 367.542 58.185 368.826C80.6687 371.523 97.8631 366.778 97.8631 366.778C97.5304 374.392 97.5585 382.634 98.0506 391.503C47.1485 475.866 147.497 469.375 181.754 459.851C185.589 458.783 189.432 457.197 193.086 455.085C197.63 458.193 202.587 460.429 207.537 461.805C241.795 471.329 342.143 477.82 291.241 393.456C291.827 382.872 291.747 373.187 291.205 364.384C291.43 367.232 291.596 370.144 291.705 373.13C291.705 373.13 309.159 378.098 331.983 375.278C342.852 373.93 354.937 370.815 366.95 364.563C401.157 346.753 383.602 324.279 383.602 324.279Z" fill="#FA9B27"/>
<g opacity="0.6">
<path d="M306.498 322.784L312.847 318.796C300.464 268.157 271.11 268.944 271.11 268.944C270.693 269.088 270.268 269.229 269.844 269.371C277.669 271.047 297.502 282.334 306.498 322.784Z" fill="white"/>
</g>
<g opacity="0.6">
<path d="M83.7696 317.894C92.291 280.771 106.864 269.597 113.311 267.364C112.688 267.125 112.071 266.884 111.46 266.638C111.46 266.638 89.1573 266.561 77.0383 314.89L83.7696 317.894Z" fill="white"/>
</g>
<path d="M162.794 407.58C162.707 407.588 162.627 407.61 162.541 407.616C162.498 407.624 162.404 407.797 162.332 407.919C162.26 408.049 162.187 408.193 162.115 408.338C161.977 408.626 161.848 408.93 161.724 409.247C161.485 409.874 161.304 410.531 161.182 411.201C161.045 411.878 160.979 412.57 160.979 413.277C160.965 413.991 161.073 414.69 161.21 415.419L161.225 415.49C161.312 415.945 161.015 416.37 160.559 416.457C160.24 416.515 159.922 416.378 159.741 416.133C159.241 415.455 158.756 414.728 158.388 413.934C158.003 413.148 157.7 412.312 157.475 411.447C157.244 410.581 157.077 409.688 156.997 408.786C156.961 408.332 156.932 407.871 156.926 407.403C156.926 407.179 156.933 406.962 156.94 406.74V406.69C156.961 406.43 156.961 406.235 157.027 405.868L157.136 405.249C157.252 404.629 158.019 404.383 158.467 404.838C158.945 405.32 159.473 405.761 160.037 406.15C160.878 406.737 161.804 407.221 162.794 407.58Z" fill="#1E1D2B"/>
<path d="M318.255 331.077C318.255 348.594 323.55 364.351 331.983 375.273C342.854 373.928 354.937 370.817 366.947 364.563C401.154 346.752 383.599 324.28 383.599 324.28C383.599 324.28 387.456 310.494 376.988 304.263C370.421 300.35 361.952 300.464 358.595 305.804C358.595 305.804 354.952 291.989 342.098 296.898C329.243 301.807 328.142 317.859 328.142 317.859L319.114 318.993C318.549 322.89 318.255 326.939 318.255 331.077Z" fill="white"/>
<g opacity="0.3">
<path d="M328.674 370.751C339.544 369.403 351.628 366.289 363.641 360.036C374.048 354.618 379.661 348.767 382.438 343.249C378.214 345.273 372.416 344.935 367.878 340.941C357.022 331.387 365.164 319.281 365.164 319.281C357.291 309.611 365.888 301.824 365.888 301.824C365.888 301.824 366.929 301.651 368.573 301.572C364.419 301.29 360.598 302.618 358.594 305.804C354.765 311.962 358.602 321.061 358.602 321.061C348.832 334.581 361.15 342.498 361.15 342.498C345.953 371.699 289.652 349.709 289.652 349.709V349.715L291.374 369.312C297.285 370.572 311.447 372.881 328.674 370.751Z" fill="#1E1D2B"/>
</g>
<path d="M314.078 322.456C313.047 322.602 311.905 322.833 310.824 323.077C309.73 323.327 308.646 323.614 307.575 323.942C306.508 324.277 305.464 324.663 304.464 325.138C303.471 325.619 302.513 326.185 301.871 327.085L301.86 327.101C301.801 327.185 301.684 327.205 301.599 327.144C301.535 327.099 301.509 327.021 301.524 326.95C301.802 325.731 302.596 324.68 303.407 323.777C304.235 322.867 305.141 322.036 306.08 321.257C307.022 320.487 307.993 319.752 308.988 319.053C309.996 318.351 310.972 317.696 312.091 317.038L312.155 317C313.561 316.171 315.376 316.634 316.208 318.035C317.041 319.436 316.576 321.245 315.17 322.075C314.826 322.275 314.446 322.403 314.078 322.456Z" fill="#1E1D2B"/>
<path d="M355.055 333.963H355.048C353.45 333.963 352.153 332.671 352.153 331.079C352.153 329.487 353.45 328.195 355.048 328.195C356.646 328.195 357.945 329.487 357.945 331.079C357.945 332.671 356.654 333.963 355.055 333.963Z" fill="#1E1D2B"/>
<path d="M365.234 351.435C364.833 351.435 364.424 351.351 364.035 351.175C357.305 348.117 352.198 339.484 352.153 331.095C352.145 329.502 353.434 328.204 355.032 328.195C355.037 328.195 355.043 328.195 355.048 328.195C356.64 328.195 357.933 329.476 357.942 331.063C357.975 337.247 361.706 343.775 366.437 345.925C367.892 346.587 368.534 348.297 367.87 349.746C367.384 350.808 366.333 351.435 365.234 351.435Z" fill="#1E1D2B"/>
<path d="M383.599 327.164C382.893 327.164 382.185 326.909 381.627 326.391C381.281 326.073 372.856 318.515 363.001 322.428C362.329 322.696 361.737 323.016 361.193 323.41C359.901 324.347 358.091 324.061 357.15 322.773C356.21 321.485 356.496 319.681 357.789 318.745C358.712 318.076 359.743 317.512 360.856 317.07C374.162 311.794 385.111 321.741 385.57 322.169C386.74 323.254 386.807 325.08 385.717 326.246C385.148 326.855 384.375 327.164 383.599 327.164Z" fill="#1E1D2B"/>
<path d="M355.048 331.077C355.026 327.082 356.369 323.365 359.492 321.077C357.633 316.787 356.964 313.266 357.171 310.449C357.171 310.449 349.935 317.103 345.278 319.748C340.629 322.392 345.117 334.469 355.048 331.077Z" fill="#FF6C6C"/>
<path d="M359.492 323.969C357.894 323.969 356.597 322.677 356.597 321.085C356.597 319.492 357.894 318.197 359.492 318.197C361.09 318.197 362.387 319.484 362.387 321.078V321.086C362.387 322.678 361.09 323.969 359.492 323.969Z" fill="#1E1D2B"/>
<path d="M317.775 379.08C302.41 379.08 291.744 376.139 290.913 375.902C289.376 375.465 288.485 373.868 288.924 372.336C289.363 370.804 290.964 369.919 292.5 370.354C292.87 370.459 329.913 380.606 365.605 362.007C376.654 356.254 383.104 349.519 384.777 341.989C386.725 333.221 381.362 326.114 381.307 326.042C380.754 325.323 380.565 324.378 380.81 323.505C380.938 323.035 383.913 311.745 375.504 306.738C369.95 303.429 363.332 303.703 361.048 307.334C360.484 308.234 360.15 309.352 360.057 310.653C359.943 312.242 358.561 313.45 356.964 313.325C355.37 313.213 354.168 311.833 354.282 310.245C354.443 307.994 355.068 305.986 356.14 304.277C360.662 297.083 371.046 297.363 378.473 301.788C388.721 307.89 387.476 319.657 386.698 323.685C388.494 326.492 392.447 333.983 390.449 343.145C388.42 352.453 380.962 360.52 368.287 367.12C350.144 376.574 331.958 379.08 317.775 379.08Z" fill="#1E1D2B"/>
<path d="M313.081 322.632C311.756 322.632 310.578 321.726 310.266 320.411C304.222 294.93 293.853 283.074 286.217 277.614C278.081 271.797 271.239 271.824 271.175 271.83C271.161 271.83 271.147 271.83 271.133 271.83C269.562 271.83 268.263 270.579 268.231 269.007C268.198 267.422 269.444 266.107 271.035 266.063C272.32 266.021 302.279 265.8 315.279 316.564L325.566 315.274C326.447 310.204 329.679 298.551 341.06 294.203C345.564 292.484 349.65 292.535 353.209 294.353C359.331 297.482 361.313 304.761 361.395 305.068C361.801 306.609 360.878 308.186 359.331 308.59C357.788 308.997 356.202 308.075 355.796 306.534C355.785 306.494 354.359 301.402 350.542 299.471C348.487 298.431 346.062 298.47 343.133 299.587C332.131 303.79 331.039 317.911 331.028 318.052C330.933 319.428 329.875 320.546 328.502 320.717L313.445 322.605C313.323 322.624 313.201 322.632 313.081 322.632Z" fill="#1E1D2B"/>
<path d="M365.234 351.435C364.831 351.435 364.422 351.351 364.033 351.174C357.049 347.992 351.945 339.092 352.162 330.473C352.323 324.082 355.494 319.197 360.862 317.069C374.162 311.795 385.112 321.743 385.572 322.168C386.742 323.253 386.809 325.079 385.72 326.244C384.633 327.409 382.807 327.477 381.635 326.399C381.271 326.067 372.851 318.526 363 322.429C358.956 324.033 358.02 327.768 357.949 330.62C357.791 336.857 361.601 343.724 366.439 345.93C367.893 346.591 368.532 348.303 367.868 349.753C367.382 350.809 366.331 351.435 365.234 351.435Z" fill="#1E1D2B"/>
<path d="M317.777 379.08C302.409 379.08 291.744 376.139 290.913 375.902C289.376 375.465 288.485 373.868 288.924 372.336C289.363 370.804 290.964 369.917 292.5 370.354C292.87 370.459 329.91 380.606 365.608 362.008C376.655 356.254 383.104 349.517 384.777 341.985C386.723 333.218 381.362 326.112 381.309 326.04C380.756 325.321 380.567 324.377 380.812 323.503C380.94 323.033 383.914 311.744 375.505 306.737C370.719 303.887 364.941 303.63 362.066 306.14C359.311 308.548 359.34 313.448 362.152 319.937C362.787 321.399 362.11 323.097 360.642 323.729C359.175 324.361 357.471 323.687 356.836 322.224C351.589 310.114 355.47 304.232 358.249 301.804C363.082 297.581 371.399 297.573 378.473 301.785C388.721 307.887 387.476 319.656 386.7 323.682C388.496 326.487 392.447 333.979 390.45 343.139C388.421 352.448 380.967 360.517 368.291 367.12C350.147 376.574 331.959 379.08 317.777 379.08Z" fill="#1E1D2B"/>
<path d="M71.7099 326.635C71.7099 343.357 66.4924 358.397 58.185 368.823C47.475 367.539 35.5716 364.569 23.74 358.598C-9.9599 341.596 7.33446 320.144 7.33446 320.144C7.33446 320.144 3.53535 306.986 13.847 301.037C20.3158 297.301 28.6607 297.41 31.9677 302.508C31.9677 302.508 35.5575 289.319 48.2201 294.006C60.8828 298.693 61.97 314.015 61.97 314.015L70.8632 315.097C71.4209 318.82 71.7099 322.685 71.7099 326.635Z" fill="white"/>
<g opacity="0.3">
<path d="M162.542 407.616C162.498 407.624 162.404 407.797 162.332 407.92C162.26 408.049 162.187 408.193 162.115 408.338C161.978 408.626 161.848 408.93 161.725 409.247C161.486 409.875 161.304 410.531 161.183 411.201C161.045 411.878 160.98 412.57 160.98 413.277C160.965 413.991 161.073 414.69 161.211 415.419L161.225 415.49C161.312 415.945 161.015 416.37 160.559 416.457C160.241 416.515 159.922 416.378 159.741 416.133C159.241 415.455 158.757 414.728 158.388 413.934C158.004 413.148 157.701 412.312 157.476 411.447C157.244 410.581 157.077 409.688 156.998 408.787C156.962 408.332 156.932 407.871 156.926 407.403C156.926 407.179 156.934 406.962 156.94 406.74V406.69C156.962 406.43 156.962 406.235 157.027 405.868L157.137 405.249C157.252 404.629 158.019 404.383 158.468 404.838C158.946 405.32 159.474 405.761 160.038 406.15C160.876 406.741 161.803 407.224 162.795 407.585C162.709 407.588 162.629 407.61 162.542 407.616Z" fill="#1E1D2B"/>
</g>
<g opacity="0.3">
<path d="M181.553 388.645C181.553 388.645 181.111 388.862 180.387 389.36C169.909 391.567 164.526 397.731 161.862 402.49C161.812 402.476 161.768 402.461 161.717 402.441C168.367 389.036 181.553 388.645 181.553 388.645Z" fill="#1E1D2B"/>
</g>
<path d="M77.771 313.101C78.8661 313.739 79.8252 314.371 80.8141 315.05C81.7904 315.725 82.7464 316.434 83.6728 317.178C84.596 317.93 85.4911 318.731 86.3112 319.611C87.111 320.485 87.9077 321.497 88.192 322.691C88.2154 322.791 88.1545 322.892 88.053 322.917C87.978 322.934 87.903 322.904 87.8593 322.847L87.8468 322.829C87.2047 321.967 86.2534 321.439 85.2771 320.99C84.2898 320.549 83.2635 320.193 82.2153 319.884C81.1624 319.583 80.0986 319.323 79.0254 319.095C77.9647 318.874 76.8447 318.667 75.8355 318.54C74.2125 318.334 73.0643 316.857 73.2705 315.24C73.4767 313.623 74.9592 312.479 76.5807 312.682C76.9837 312.734 77.3586 312.863 77.6898 313.055L77.771 313.101Z" fill="#1E1D2B"/>
<path d="M35.4623 329.521H35.4544C33.8564 329.521 32.5598 328.229 32.5598 326.637C32.5598 325.044 33.8564 323.752 35.4544 323.752C37.0525 323.752 38.3522 325.044 38.3522 326.637C38.3522 328.229 37.0603 329.521 35.4623 329.521Z" fill="#1E1D2B"/>
<path d="M25.4271 346.199C24.3164 346.199 23.2557 345.558 22.7777 344.481C22.131 343.024 22.7933 341.321 24.2555 340.676C28.8856 338.637 32.5363 332.464 32.5676 326.621C32.577 325.033 33.8704 323.752 35.4622 323.752C35.4669 323.752 35.4731 323.752 35.4778 323.752C37.0759 323.76 38.3647 325.06 38.3568 326.652C38.3131 334.721 33.2565 343.019 26.5956 345.953C26.2144 346.12 25.8176 346.199 25.4271 346.199Z" fill="#1E1D2B"/>
<path d="M7.33754 323.026C6.54242 323.026 5.75198 322.702 5.1818 322.067C4.11799 320.882 4.21172 319.067 5.39581 318.004C5.84883 317.598 16.6369 308.102 29.7229 313.129C30.8195 313.551 31.838 314.091 32.7503 314.731C34.0578 315.648 34.3702 317.449 33.4501 318.75C32.53 320.051 30.7242 320.364 29.4167 319.447C28.8825 319.072 28.2998 318.765 27.6359 318.509C17.9132 314.771 9.61201 321.984 9.26365 322.294C8.71222 322.784 8.02332 323.026 7.33754 323.026Z" fill="#1E1D2B"/>
<path d="M35.4622 326.635C35.484 322.82 34.1593 319.273 31.0835 317.089C32.9143 312.994 33.5735 309.633 33.3705 306.944C33.3705 306.944 40.4985 313.296 45.0864 315.82C49.6666 318.344 45.2458 329.873 35.4622 326.635Z" fill="#FF6C6C"/>
<path d="M31.0835 319.976C29.4854 319.976 28.1888 318.689 28.1888 317.095V317.089C28.1888 315.497 29.4854 314.205 31.0835 314.205C32.6815 314.205 33.9781 315.497 33.9781 317.089C33.9781 318.681 32.6831 319.976 31.0835 319.976Z" fill="#1E1D2B"/>
<path d="M72.1816 372.588C58.213 372.588 40.3031 370.196 22.4308 361.173C9.83532 354.817 2.46049 347.03 0.507829 338.026C-1.36673 329.375 2.41519 322.3 4.21164 319.556C3.0338 313.837 3.46963 303.692 12.3957 298.543C19.7064 294.323 29.9337 294.067 34.3967 300.943C35.4699 302.602 36.0947 304.55 36.2556 306.732C36.3728 308.321 35.1762 309.703 33.5813 309.82C31.9895 309.946 30.5992 308.743 30.482 307.155C30.393 305.946 30.0727 304.909 29.5322 304.072C27.2937 300.621 20.7734 300.372 15.2965 303.535C7.03598 308.301 10.0821 319.239 10.1149 319.349C10.3758 320.25 10.179 321.222 9.59006 321.953C9.54476 322.011 4.36629 328.665 6.18149 336.875C7.77174 344.071 14.1187 350.514 25.0458 356.027C60.2188 373.787 96.7258 364.097 97.0913 363.996C98.6347 363.574 100.227 364.474 100.65 366.009C101.075 367.543 100.173 369.131 98.6331 369.554C97.8161 369.782 87.3124 372.588 72.1816 372.588Z" fill="#1E1D2B"/>
<path d="M76.807 318.705C76.6898 318.705 76.5727 318.698 76.4539 318.683L61.6184 316.88C60.2421 316.714 59.1783 315.598 59.0815 314.22C59.0721 314.093 57.9302 300.679 47.2108 296.711C44.3162 295.64 41.823 295.617 39.8016 296.641C36.14 298.496 34.7684 303.228 34.7544 303.276C34.3232 304.805 32.733 305.706 31.1959 305.283C29.6603 304.861 28.7542 303.287 29.1713 301.754C29.251 301.462 31.1849 294.572 37.1257 291.528C40.6592 289.716 44.7317 289.643 49.2275 291.305C60.403 295.441 63.632 306.505 64.5286 311.423L74.62 312.65C87.192 264.398 110.299 263.756 111.457 263.756C111.461 263.756 111.464 263.756 111.469 263.756C113.067 263.763 114.359 265.059 114.351 266.653C114.345 268.235 113.062 269.512 111.48 269.525C111.102 269.539 90.8193 270.734 79.6157 316.504C79.297 317.808 78.1238 318.705 76.807 318.705Z" fill="#1E1D2B"/>
<path d="M25.427 346.199C24.3163 346.199 23.2572 345.559 22.7792 344.482C22.1309 343.025 22.7917 341.322 24.2523 340.676C28.9793 338.589 32.7065 332.103 32.5612 326.218C32.4956 323.538 31.588 320.026 27.6405 318.51C17.9131 314.774 9.61353 321.984 9.26518 322.294C8.07327 323.351 6.24558 323.25 5.18177 322.067C4.11795 320.882 4.21168 319.067 5.39734 318.004C5.85036 317.598 16.6369 308.103 29.7244 313.129C35.0544 315.176 38.1974 319.895 38.3505 326.076C38.5551 334.359 33.5032 342.904 26.6002 345.951C26.2159 346.12 25.8191 346.199 25.427 346.199Z" fill="#1E1D2B"/>
<path d="M72.1816 372.588C58.213 372.588 40.3032 370.197 22.4277 361.174C9.83379 354.817 2.45897 347.029 0.509427 338.023C-1.36513 329.371 2.41679 322.299 4.21168 319.555C3.03383 313.836 3.46967 303.69 12.3957 298.542C19.4081 294.496 27.878 294.593 32.5378 298.769C35.1794 301.136 38.8457 306.818 33.725 318.266C33.0736 319.723 31.3647 320.376 29.9025 319.726C28.4419 319.077 27.7858 317.372 28.4372 315.918C31.1272 309.903 31.2084 305.336 28.6653 303.057C25.8644 300.548 20.1173 300.752 15.295 303.533C7.03445 308.299 10.0822 319.237 10.1134 319.347C10.3743 320.249 10.1775 321.22 9.58854 321.952C9.54323 322.009 4.36633 328.662 6.17997 336.872C7.77022 344.068 14.1156 350.512 25.0411 356.028C60.2985 373.824 96.7227 364.097 97.0867 363.996C98.6285 363.57 100.222 364.471 100.648 366.007C101.075 367.542 100.172 369.131 98.63 369.556C97.8162 369.782 87.3108 372.588 72.1816 372.588Z" fill="#1E1D2B"/>
<path d="M76.807 318.705C76.6898 318.705 76.5727 318.698 76.4539 318.683L61.6184 316.88C60.2421 316.714 59.1783 315.598 59.0815 314.22C59.0721 314.093 57.9302 300.679 47.2108 296.711C44.3162 295.64 41.823 295.617 39.8016 296.641C36.14 298.496 34.7684 303.228 34.7544 303.276C34.3232 304.805 32.733 305.706 31.1959 305.283C29.6603 304.861 28.7542 303.287 29.1713 301.754C29.251 301.462 31.1849 294.572 37.1257 291.528C40.6592 289.716 44.7317 289.643 49.2275 291.305C60.403 295.441 63.632 306.505 64.5286 311.423L74.62 312.65C87.192 264.398 110.299 263.756 111.457 263.756C111.461 263.756 111.464 263.756 111.469 263.756C113.067 263.763 114.359 265.059 114.351 266.653C114.345 268.235 113.062 269.512 111.48 269.525C111.102 269.539 90.8193 270.734 79.6157 316.504C79.297 317.808 78.1238 318.705 76.807 318.705Z" fill="#1E1D2B"/>
<path d="M263.505 341.473C263.505 393.34 232.186 416.471 193.553 416.471C154.92 416.471 123.601 393.34 123.601 341.473C123.601 289.607 154.92 247.561 193.553 247.561C232.186 247.561 263.505 289.607 263.505 341.473Z" fill="white"/>
<g opacity="0.3">
<path d="M284.107 272.873C276.74 268.793 271.11 268.944 271.11 268.944C251.999 275.521 226.967 279.457 194.381 279.407C158.147 279.465 131.257 274.591 111.458 266.638C111.458 266.638 107.481 266.624 101.975 270.244C120.008 288.969 154.628 301.642 194.383 301.642C232.249 301.642 265.455 290.146 284.107 272.873Z" fill="#1E1D2B"/>
</g>
<path d="M215.86 420.322C213.4 442.292 197.522 455.459 181.754 459.85C173.831 462.057 162.368 464.097 150.059 464.882C149.776 464.904 149.487 464.925 149.198 464.939C113.566 467.052 71.3989 458.544 87.4123 413.276H107.515C117.068 407.709 127.923 406.721 141.05 406.635C143.213 406.621 145.428 406.628 147.714 406.649C151.549 406.679 155.565 406.737 159.784 406.737C165.285 393.34 176.53 386.475 189.946 386.7C207.198 386.98 218.321 398.352 215.86 420.322Z" fill="#FA9B27"/>
<path d="M215.86 420.322C213.4 442.292 197.522 455.459 181.754 459.85C173.831 462.057 162.368 464.097 150.059 464.882C142.685 454.095 138.314 440.676 138.314 426.14C138.314 419.341 139.27 412.787 141.05 406.635C143.213 406.621 145.428 406.628 147.714 406.649C151.549 406.679 155.565 406.737 159.784 406.737C165.285 393.34 176.53 386.475 189.946 386.7C207.198 386.98 218.321 398.352 215.86 420.322Z" fill="white"/>
<path d="M116.934 295.671C115.473 299.463 114.081 303.326 112.799 307.169C111.463 310.998 110.263 314.871 109.042 318.734C107.864 322.613 106.628 326.486 105.672 330.445C105.425 331.432 105.147 332.413 104.943 333.411L104.348 336.408L103.762 339.408L103.474 340.908L103.249 342.421L102.348 348.475C102.062 350.495 101.909 352.534 101.683 354.564C101.181 358.618 101.048 362.71 100.794 366.79C100.634 368.829 100.669 370.878 100.631 372.923L100.558 379.062C100.641 383.155 100.816 387.249 100.939 391.343L100.944 391.487C100.992 393.078 99.7346 394.407 98.1381 394.456C96.54 394.504 95.2075 393.254 95.1591 391.662C95.031 387.478 94.8529 383.294 94.7686 379.108L94.8435 372.823C94.8826 370.728 94.8482 368.633 95.0107 366.539C95.27 362.354 95.409 358.161 95.923 353.989C96.1557 351.904 96.3151 349.81 96.6088 347.729L97.5367 341.494L97.7694 339.936L98.0647 338.385L98.6692 335.288L99.2644 332.189C99.4721 331.157 99.7346 330.136 99.9564 329.107C100.841 324.988 101.865 320.885 103.167 316.86C103.884 314.866 104.519 312.851 105.391 310.911C105.799 309.932 106.238 308.966 106.664 307.996C107.094 307.029 107.608 306.089 108.09 305.144C110.09 301.387 112.319 297.757 115.348 294.574C115.718 294.185 116.335 294.169 116.726 294.538C117.021 294.817 117.102 295.234 116.966 295.59L116.934 295.671Z" fill="#1E1D2B"/>
<path d="M139.449 468.157C118.643 468.158 97.4164 463.932 87.1703 450.526C76.7478 436.888 79.5721 416.53 95.5668 390.018C96.39 388.653 98.1693 388.211 99.5393 389.033C100.909 389.853 101.353 391.626 100.53 392.989C85.8769 417.277 82.9323 435.459 91.7771 447.032C108.211 468.533 159.914 462.93 180.976 457.074C194.875 453.21 210.58 441.442 212.981 420.007C214.101 410.002 212.252 401.947 207.629 396.713C203.626 392.177 197.494 389.713 189.899 389.587C189.707 389.584 189.515 389.582 189.324 389.582C177.005 389.582 167.234 396.208 162.462 407.834C161.856 409.308 160.167 410.016 158.686 409.411C157.207 408.808 156.498 407.124 157.104 405.65C162.902 391.526 174.922 383.566 189.995 383.82C199.264 383.974 206.864 387.115 211.975 392.902C217.704 399.39 220.041 408.984 218.735 420.647C216.013 444.935 198.249 458.259 182.532 462.63C172.269 465.484 155.992 468.157 139.449 468.157Z" fill="#1E1D2B"/>
<path d="M158.464 404.831C158.018 404.38 157.249 404.62 157.136 405.244L157.026 405.863C156.96 406.231 156.958 406.427 156.943 406.685C156.93 406.93 156.929 407.165 156.929 407.4C156.932 407.868 156.958 408.327 156.997 408.782C157.08 409.689 157.243 410.581 157.474 411.445C157.699 412.309 158.007 413.146 158.391 413.934C158.755 414.728 159.244 415.458 159.742 416.135C159.925 416.382 160.24 416.518 160.562 416.459C161.012 416.375 161.307 415.943 161.225 415.495L161.211 415.419C161.073 414.692 160.967 413.988 160.982 413.277C160.978 412.574 161.045 411.879 161.179 411.204C161.309 410.53 161.49 409.873 161.728 409.246C161.848 408.933 161.974 408.628 162.117 408.337C162.188 408.192 162.259 408.05 162.335 407.918C162.404 407.8 162.499 407.622 162.543 407.621C162.629 407.614 162.712 407.593 162.798 407.583C161.146 406.978 159.664 406.045 158.464 404.831Z" fill="#1E1D2B"/>
<path d="M139.449 468.157C118.643 468.158 97.4164 463.932 87.1703 450.526C76.7478 436.888 79.5721 416.53 95.5668 390.018C96.39 388.653 98.1693 388.211 99.5393 389.033C100.909 389.853 101.353 391.626 100.53 392.989C85.8769 417.277 82.9323 435.459 91.7771 447.032C108.211 468.533 159.914 462.93 180.976 457.074C194.875 453.21 210.58 441.442 212.981 420.007C214.101 410.002 212.252 401.947 207.629 396.713C203.626 392.177 197.494 389.713 189.899 389.587C189.707 389.584 189.515 389.582 189.324 389.582C177.005 389.582 167.234 396.208 162.462 407.834C161.856 409.308 160.167 410.016 158.686 409.411C157.207 408.808 156.498 407.124 157.104 405.65C162.902 391.526 174.922 383.566 189.995 383.82C199.264 383.974 206.864 387.115 211.975 392.902C217.704 399.39 220.041 408.984 218.735 420.647C216.013 444.935 198.249 458.259 182.532 462.63C172.269 465.484 155.992 468.157 139.449 468.157Z" fill="#1E1D2B"/>
<path d="M273.947 296.526C276.976 299.709 279.205 303.339 281.204 307.096C281.687 308.041 282.201 308.98 282.631 309.948C283.057 310.917 283.496 311.884 283.904 312.863C284.775 314.804 285.411 316.82 286.128 318.812C287.431 322.837 288.454 326.94 289.338 331.059C289.56 332.088 289.823 333.11 290.03 334.141L290.624 337.24L291.229 340.337L291.524 341.887L291.757 343.445L292.684 349.681C292.978 351.76 293.137 353.854 293.37 355.941C293.884 360.113 294.023 364.306 294.282 368.491C294.445 370.585 294.411 372.68 294.45 374.775L294.525 381.06C294.44 385.246 294.262 389.43 294.134 393.614C294.086 395.204 292.752 396.456 291.154 396.408C289.555 396.359 288.301 395.03 288.35 393.438L288.354 393.294C288.478 389.201 288.653 385.107 288.735 381.014L288.662 374.876C288.624 372.831 288.659 370.781 288.499 368.744C288.245 364.664 288.112 360.572 287.611 356.517C287.384 354.489 287.231 352.448 286.945 350.428L286.044 344.375L285.819 342.862L285.531 341.36L284.946 338.36L284.35 335.362C284.146 334.365 283.869 333.384 283.621 332.397C282.665 328.438 281.429 324.565 280.251 320.686C279.03 316.823 277.83 312.95 276.495 309.121C275.21 305.278 273.819 301.416 272.36 297.623L272.33 297.544C272.138 297.043 272.388 296.482 272.891 296.289C273.27 296.143 273.684 296.25 273.947 296.526Z" fill="#1E1D2B"/>
<path d="M240.095 466.894C227.461 466.144 215.651 464.06 207.539 461.803C191.771 457.412 175.893 444.245 173.433 422.275C170.972 400.305 182.095 388.933 199.347 388.653C212.763 388.429 224.008 395.293 229.509 408.692C233.728 408.692 237.744 408.634 241.579 408.604C257.768 408.475 270.663 408.749 281.778 415.23H301.881C317.894 460.499 275.727 469.007 240.095 466.894Z" fill="#FA9B27"/>
<path d="M240.095 466.894C227.461 466.144 215.651 464.06 207.539 461.803C191.771 457.412 175.893 444.245 173.433 422.275C170.972 400.305 182.095 388.933 199.347 388.653C212.763 388.429 224.008 395.293 229.509 408.692C233.728 408.692 237.744 408.634 241.579 408.604C237.077 424.143 233.778 445.667 240.095 466.894Z" fill="white"/>
<path d="M217.394 423.948C217.602 422.199 217.982 420.551 218.491 418.88C219.006 417.223 219.672 415.588 220.517 414.001C221.367 412.416 222.452 410.91 223.746 409.518C225.052 408.127 226.664 406.97 228.432 406.011C229.846 405.245 231.616 405.765 232.384 407.174C233.153 408.583 232.631 410.346 231.218 411.112C231.044 411.207 230.865 411.282 230.682 411.338L230.585 411.366C229.323 411.745 228.034 412.256 226.853 413.07C225.681 413.886 224.554 414.874 223.562 416.041C222.573 417.21 221.678 418.507 220.897 419.892C220.123 421.27 219.427 422.764 218.917 424.244L218.902 424.289C218.763 424.694 218.319 424.91 217.913 424.772C217.561 424.652 217.352 424.303 217.394 423.948Z" fill="#1E1D2B"/>
<path d="M249.844 470.105C233.3 470.105 217.026 467.433 206.761 464.578C191.043 460.208 173.278 446.884 170.558 422.596C169.252 410.933 171.589 401.339 177.316 394.851C182.426 389.062 190.027 385.921 199.297 385.769C214.406 385.524 226.389 393.475 232.188 407.599C232.792 409.073 232.085 410.757 230.605 411.361C229.124 411.968 227.436 411.258 226.83 409.784C221.982 397.98 212.002 391.329 199.392 391.537C191.797 391.663 185.666 394.127 181.662 398.663C177.041 403.897 175.19 411.954 176.31 421.958C178.711 443.393 194.418 455.16 208.315 459.025C229.379 464.88 281.082 470.484 297.514 448.982C306.359 437.409 303.415 419.228 288.762 394.941C287.939 393.576 288.381 391.803 289.752 390.985C291.121 390.164 292.901 390.605 293.725 391.97C309.719 418.482 312.545 438.84 302.121 452.478C291.878 465.88 270.647 470.105 249.844 470.105Z" fill="#1E1D2B"/>
<path d="M249.844 470.105C233.3 470.105 217.026 467.433 206.761 464.578C191.043 460.208 173.278 446.884 170.558 422.596C169.252 410.933 171.589 401.339 177.316 394.851C182.426 389.062 190.027 385.921 199.297 385.769C214.406 385.524 226.389 393.475 232.188 407.599C232.792 409.073 232.085 410.757 230.605 411.361C229.124 411.968 227.436 411.258 226.83 409.784C221.982 397.98 212.002 391.329 199.392 391.537C191.797 391.663 185.666 394.127 181.662 398.663C177.041 403.897 175.19 411.954 176.31 421.958C178.711 443.393 194.418 455.16 208.315 459.025C229.379 464.88 281.082 470.484 297.514 448.982C306.359 437.409 303.415 419.228 288.762 394.941C287.939 393.576 288.381 391.803 289.752 390.985C291.121 390.164 292.901 390.605 293.725 391.97C309.719 418.482 312.545 438.84 302.121 452.478C291.878 465.88 270.647 470.105 249.844 470.105Z" fill="#1E1D2B"/>
<path d="M240.601 48.3437C240.601 48.3437 280.873 12.6201 308.733 17.3068C336.594 21.9935 326.964 111.98 314.773 130.981" fill="#F9A528"/>
<g opacity="0.3">
<path d="M263.383 73.7259L314.773 130.981C323.747 116.992 331.334 64.5253 323.593 35.9508C321.96 34.7834 320.151 33.988 318.142 33.6502C295.566 29.8523 271.647 61.557 263.383 73.7259Z" fill="#1E1D2B"/>
</g>
<g opacity="0.6">
<path d="M308.733 26.6801C321.196 28.7768 326.153 47.9468 326.739 70.1926C327.384 44.2034 322.922 19.6929 308.733 17.3068C280.873 12.6201 240.601 48.3437 240.601 48.3437L245.42 53.7137C256.928 44.524 286.707 22.9741 308.733 26.6801Z" fill="white"/>
</g>
<path d="M314.77 133.863C314.235 133.863 313.696 133.717 313.214 133.409C311.867 132.551 311.473 130.768 312.334 129.426C316.891 122.325 321.304 103.519 323.068 83.6969C325.111 60.7383 323.444 41.1915 318.495 30.0718C315.879 24.1913 312.433 20.8525 308.251 20.149C282.088 15.7456 242.918 50.1493 242.526 50.4964C241.332 51.5548 239.501 51.449 238.439 50.2598C237.377 49.0691 237.483 47.2464 238.677 46.188C240.364 44.6922 280.323 9.60204 309.216 14.4615C315.432 15.5075 320.335 19.9731 323.789 27.7323C329.122 39.7191 330.963 60.3025 328.837 84.2043C326.97 105.185 322.299 124.607 317.214 132.531C316.658 133.395 315.724 133.863 314.77 133.863Z" fill="#1E1D2B"/>
<path d="M310.586 43.0858C309.657 39.5697 305.712 37.7828 302.424 39.3626C278.778 50.7345 270.5 68.2609 270.5 68.2609L303.788 102.148C315.588 73.0892 313.134 52.7207 310.586 43.0858Z" fill="#FF6C6C"/>
<g opacity="0.3">
<path d="M296.568 81.0866C288.188 72.5569 288.694 58.7724 297.683 50.8824C301.101 47.883 305.233 44.8151 310.16 41.9745C308.776 39.2148 305.344 37.9587 302.424 39.3626C278.778 50.7346 270.5 68.2609 270.5 68.2609L303.788 102.148C305.194 98.6831 306.393 95.3474 307.418 92.1332L296.568 81.0866Z" fill="#1E1D2B"/>
</g>
<path d="M303.786 105.032C303.425 105.032 303.057 104.965 302.702 104.82C301.221 104.223 300.506 102.542 301.104 101.065C312.603 72.7468 310.227 53.0444 307.787 43.8189C307.485 42.6811 306.66 42.1519 306.195 41.9387C305.394 41.5713 304.477 41.5776 303.681 41.9589C281.22 52.7596 273.196 69.3194 273.118 69.4859C272.437 70.9272 270.714 71.5436 269.266 70.8681C267.82 70.1895 267.199 68.4711 267.881 67.0297C268.237 66.2764 276.874 48.4449 301.165 36.7633C303.522 35.6301 306.239 35.6068 308.616 36.6994C310.984 37.7859 312.722 39.8452 313.384 42.348C316.007 52.2662 318.598 73.3616 306.47 103.227C306.015 104.352 304.931 105.032 303.786 105.032Z" fill="#1E1D2B"/>
<path d="M240.601 48.3437C240.601 48.3437 280.873 12.6201 308.733 17.3068C336.594 21.9935 326.964 111.98 314.773 130.981" fill="#FA9B27"/>
<g opacity="0.3">
<path d="M263.383 73.7259L314.773 130.981C323.747 116.992 331.334 64.5253 323.593 35.9508C321.96 34.7834 320.151 33.988 318.142 33.6502C295.566 29.8523 271.647 61.557 263.383 73.7259Z" fill="#1E1D2B"/>
</g>
<g opacity="0.6">
<path d="M308.733 25.9252C321.196 28.0219 326.153 47.1919 326.739 69.4376C327.384 43.4485 322.922 18.938 308.733 16.5519C280.873 11.8652 240.601 47.5888 240.601 47.5888L245.42 52.9588C256.928 43.7691 286.707 22.2207 308.733 25.9252Z" fill="white"/>
</g>
<path d="M314.77 133.863C314.235 133.863 313.696 133.717 313.214 133.409C311.867 132.551 311.473 130.768 312.334 129.426C316.891 122.325 321.304 103.519 323.068 83.6969C325.111 60.7383 323.444 41.1915 318.495 30.0718C315.879 24.1913 312.433 20.8525 308.251 20.149C282.088 15.7456 242.918 50.1493 242.526 50.4964C241.332 51.5548 239.501 51.449 238.439 50.2598C237.377 49.0691 237.483 47.2464 238.677 46.188C240.364 44.6922 280.323 9.60204 309.216 14.4615C315.432 15.5075 320.335 19.9731 323.789 27.7323C329.122 39.7191 330.963 60.3025 328.837 84.2043C326.97 105.185 322.299 124.607 317.214 132.531C316.658 133.395 315.724 133.863 314.77 133.863Z" fill="#1E1D2B"/>
<path d="M310.586 43.0858C309.657 39.5697 305.712 37.7828 302.424 39.3626C278.778 50.7345 270.5 68.2609 270.5 68.2609L303.788 102.148C315.588 73.0892 313.134 52.7207 310.586 43.0858Z" fill="#FF6C6C"/>
<g opacity="0.3">
<path d="M296.568 81.0866C288.188 72.5569 288.694 58.7724 297.683 50.8824C301.101 47.883 305.233 44.8151 310.16 41.9745C308.776 39.2148 305.344 37.9587 302.424 39.3626C278.778 50.7346 270.5 68.2609 270.5 68.2609L303.788 102.148C305.194 98.6831 306.393 95.3474 307.418 92.1332L296.568 81.0866Z" fill="#1E1D2B"/>
</g>
<path d="M303.786 105.032C303.425 105.032 303.057 104.965 302.702 104.82C301.221 104.223 300.506 102.542 301.104 101.065C312.603 72.7468 310.227 53.0444 307.787 43.8189C307.485 42.6811 306.66 42.1519 306.195 41.9387C305.394 41.5713 304.477 41.5776 303.681 41.9589C281.22 52.7596 273.196 69.3194 273.118 69.4859C272.437 70.9272 270.714 71.5436 269.266 70.8681C267.82 70.1895 267.199 68.4711 267.881 67.0297C268.237 66.2764 276.874 48.4449 301.165 36.7633C303.522 35.6301 306.239 35.6068 308.616 36.6994C310.984 37.7859 312.722 39.8452 313.384 42.348C316.007 52.2662 318.598 73.3616 306.47 103.227C306.015 104.352 304.931 105.032 303.786 105.032Z" fill="#1E1D2B"/>
<path d="M147.023 48.3437C147.023 48.3437 106.751 12.6201 78.8907 17.3068C51.0301 21.9935 60.6607 111.98 72.8515 130.981" fill="#FA9B27"/>
<g opacity="0.3">
<path d="M124.241 73.7259L72.8515 130.979C63.8771 116.991 56.2898 64.5237 64.0317 35.9492C65.6641 34.7818 67.4731 33.9864 69.482 33.6487C92.0595 29.8523 115.977 61.557 124.241 73.7259Z" fill="#1E1D2B"/>
</g>
<g opacity="0.6">
<path d="M78.8908 25.9252C66.4281 28.0219 61.4715 47.1919 60.8857 69.4376C60.2421 43.4485 64.7035 18.9396 78.8908 16.5519C106.751 11.8652 147.023 47.5888 147.023 47.5888L142.204 52.9588C130.696 43.7691 100.917 22.2207 78.8908 25.9252Z" fill="white"/>
</g>
<path d="M72.8547 133.863C71.9003 133.863 70.9661 133.393 70.4131 132.533C65.3284 124.607 60.6576 105.186 58.7908 84.2059C56.6648 60.3025 58.5034 39.7191 63.8381 27.7339C67.292 19.9731 72.1939 15.509 78.4097 14.463C107.309 9.6067 147.262 44.6921 148.949 46.1895C150.143 47.2479 150.249 49.0706 149.187 50.2614C148.124 51.4505 146.295 51.5564 145.1 50.498C144.708 50.1493 105.536 15.7518 79.3735 20.1505C75.1932 20.8541 71.7472 24.1913 69.1306 30.0718C64.1818 41.1931 62.515 60.7383 64.5582 83.6969C66.3219 103.521 70.7365 122.325 75.2916 129.426C76.1524 130.768 75.7587 132.551 74.4122 133.409C73.9279 133.717 73.389 133.863 72.8547 133.863Z" fill="#1E1D2B"/>
<path d="M77.0382 43.0858C77.9676 39.5697 81.912 37.7828 85.2003 39.3626C108.846 50.7345 117.124 68.2609 117.124 68.2609L83.8365 102.148C72.0362 73.0892 74.4903 52.7207 77.0382 43.0858Z" fill="#FF6C6C"/>
<g opacity="0.3">
<path d="M91.0582 81.0866C99.4374 72.5569 98.9313 58.7724 89.9428 50.8824C86.5249 47.883 82.393 44.8151 77.4661 41.9745C78.8501 39.2148 82.2821 37.9587 85.2017 39.3626C108.846 50.7346 117.124 68.2609 117.124 68.2609L83.8364 102.148C82.4305 98.6831 81.2308 95.3474 80.206 92.1332L91.0582 81.0866Z" fill="#1E1D2B"/>
</g>
<path d="M83.838 105.032C82.693 105.032 81.6089 104.35 81.1527 103.228C69.0259 73.3632 71.6159 52.2677 74.2403 42.3496C74.9026 39.8467 76.6397 37.7874 79.0064 36.701C81.3855 35.6083 84.102 35.6317 86.4593 36.7648C110.75 48.4449 119.387 66.2779 119.744 67.0313C120.425 68.4726 119.803 70.191 118.358 70.8697C116.915 71.5452 115.192 70.9319 114.509 69.4937C114.415 69.2976 106.266 52.6958 83.9443 41.962C83.1507 41.5807 82.2353 41.5729 81.4308 41.9418C80.9653 42.155 80.1405 42.6842 79.839 43.8221C77.3989 53.0475 75.0229 72.7499 86.5202 101.068C87.1201 102.545 86.4046 104.226 84.9222 104.824C84.566 104.965 84.1989 105.032 83.838 105.032Z" fill="#1E1D2B"/>
<path d="M194.382 279.407C35.3167 279.647 56.1587 184.937 67.7294 151.738C70.3788 144.135 72.6282 136.383 74.6184 128.557C104.541 10.9889 284.224 10.9889 314.146 128.557C316.137 136.385 318.388 144.135 321.035 151.738C332.606 184.937 353.454 279.647 194.382 279.407Z" fill="#FA9B27"/>
<g opacity="0.6">
<path d="M67.7295 161.652C70.3789 154.048 72.6283 146.297 74.6185 138.471C104.541 20.9023 284.224 20.9023 314.146 138.471C316.137 146.298 318.388 154.048 321.035 161.652C324.172 170.65 327.988 184.17 328.72 199.091C329.682 180.357 324.855 162.696 321.035 151.738C318.388 144.135 316.137 136.383 314.146 128.557C284.224 10.9889 104.541 10.9889 74.6185 128.557C72.6283 136.385 70.3773 144.135 67.7295 151.738C63.9101 162.696 59.0831 180.355 60.0469 199.088C60.778 184.167 64.5927 170.65 67.7295 161.652Z" fill="white"/>
</g>
<path d="M328.844 194.446C297.72 174.739 278.484 217.006 241.043 184.408C213.82 160.707 174.945 160.707 147.721 184.408C110.28 217.006 91.0458 174.739 59.9281 194.445L59.9219 194.476C60.0359 233.591 83.4866 279.572 194.382 279.406C305.312 279.574 328.744 233.568 328.844 194.446Z" fill="white"/>
<path d="M197.277 183.688V199.491V199.506C197.277 200.663 196.585 201.659 195.594 202.109L195.593 202.11C194.014 202.985 192.489 203.645 190.878 204.283C189.28 204.914 187.635 205.443 185.948 205.897C184.258 206.327 182.524 206.713 180.701 206.878C179.804 206.99 178.853 207.007 177.914 207.034C177.425 207.018 176.938 206.982 176.452 206.951C175.969 206.926 175.441 206.808 174.943 206.733C172.886 206.333 171.083 205.487 169.526 204.536C167.956 203.581 166.583 202.475 165.284 201.32C162.712 198.983 160.503 196.443 158.589 193.604C158.247 193.097 158.383 192.407 158.892 192.066C159.306 191.789 159.839 191.827 160.207 192.121L160.25 192.155C162.754 194.161 165.347 196.13 167.99 197.779C169.318 198.59 170.657 199.346 171.988 199.934C173.336 200.496 174.618 200.903 175.813 200.996C177.013 201.092 178.441 200.962 179.875 200.706C180.587 200.598 181.326 200.411 182.057 200.272C182.794 200.089 183.53 199.914 184.271 199.696C187.221 198.906 190.268 197.838 193.168 196.871H193.17L191.488 199.491V183.688C191.488 182.095 192.784 180.803 194.382 180.803C195.982 180.803 197.277 182.095 197.277 183.688Z" fill="#1E1D2B"/>
<path d="M197.277 183.688V199.491L195.595 196.871H195.596C198.544 197.727 201.606 198.733 204.558 199.458C206.039 199.846 207.511 200.169 208.932 200.392C209.652 200.529 210.332 200.565 211.019 200.65L211.994 200.68C212.325 200.696 212.592 200.65 212.898 200.647C214.039 200.56 215.284 200.182 216.622 199.648C217.947 199.097 219.3 198.384 220.656 197.625C223.372 196.087 226.083 194.275 228.899 192.49L228.913 192.48C229.199 192.3 229.577 192.384 229.758 192.667C229.877 192.854 229.882 193.081 229.79 193.266C229.012 194.824 228.051 196.217 227.026 197.595C225.976 198.943 224.87 200.272 223.597 201.471C222.329 202.677 220.968 203.829 219.392 204.819C218.584 205.301 217.778 205.787 216.84 206.161L216.152 206.456C215.913 206.548 215.655 206.618 215.404 206.694C214.898 206.839 214.393 207.013 213.873 207.079C211.764 207.484 209.849 207.398 208.02 207.191C206.183 206.987 204.436 206.61 202.749 206.132C199.358 205.15 196.23 203.894 193.169 202.107L193.167 202.106C192.111 201.628 191.486 200.591 191.485 199.505V199.486V183.683C191.485 182.091 192.781 180.799 194.379 180.799C195.982 180.803 197.277 182.095 197.277 183.688Z" fill="#1E1D2B"/>
<path d="M194.981 282.291C194.585 282.291 194.196 282.291 193.784 282.291C132.195 282.291 90.7879 268.048 70.6973 239.949C49.1852 209.862 57.891 171.175 64.9956 150.792C67.4481 143.752 69.6773 136.246 71.8127 127.847C79.0079 99.5796 95.2634 76.1338 118.824 60.0441C140.115 45.5046 166.953 37.4948 194.382 37.4948C194.384 37.4948 194.381 37.4948 194.382 37.4948C221.813 37.4948 248.648 45.5031 269.941 60.0441C293.501 76.1322 309.758 99.578 316.952 127.846C319.087 136.245 321.318 143.75 323.771 150.792C330.875 171.176 339.582 209.865 318.07 239.951C297.981 268.046 256.564 282.29 194.981 282.291ZM194.382 276.523C194.384 276.523 194.385 276.523 194.387 276.523C194.584 276.523 194.788 276.523 194.987 276.523C254.596 276.523 294.415 263.095 313.356 236.604C333.357 208.629 325.041 172.018 318.301 152.685C315.794 145.486 313.517 137.826 311.341 129.265C295.185 65.7892 238.239 43.2664 194.382 43.2664C150.527 43.2664 93.5794 65.7892 77.4239 129.267C75.2478 137.826 72.9702 145.486 70.463 152.685C63.7255 172.018 55.4072 208.628 75.4103 236.604C94.3527 263.092 134.178 276.523 193.779 276.523C193.979 276.523 194.178 276.523 194.379 276.523C194.379 276.523 194.381 276.523 194.382 276.523Z" fill="#1E1D2B"/>
<path d="M196.658 170.98H189.602C184.942 170.98 181.037 174.202 180.008 178.532C179.706 179.804 180.211 181.133 181.282 181.885L188.001 186.6C191.758 189.237 196.829 189.008 200.331 186.043L205.25 181.877C206.111 181.149 206.551 180.016 206.336 178.912C205.45 174.392 201.454 170.98 196.658 170.98Z" fill="#1E1D2B"/>
<path d="M193.803 191.318C191.196 191.318 188.582 190.538 186.334 188.959L179.615 184.243C177.564 182.803 176.613 180.302 177.191 177.869C178.558 172.115 183.661 168.097 189.602 168.097H196.658C202.747 168.097 208.012 172.414 209.176 178.361C209.588 180.466 208.802 182.656 207.125 184.077L202.205 188.242C199.794 190.283 196.804 191.318 193.803 191.318ZM189.602 173.864C186.358 173.864 183.571 176.057 182.824 179.197C182.794 179.322 182.844 179.454 182.949 179.527L189.668 184.243C192.345 186.122 195.96 185.957 198.456 183.845L203.375 179.68C203.472 179.599 203.5 179.497 203.494 179.465C202.858 176.219 199.984 173.864 196.658 173.864H189.602Z" fill="#1E1D2B"/>
<path d="M157.938 151.301C158.23 157.522 155.367 164.007 150.419 168.426C147.946 170.628 144.977 172.373 141.732 173.343C138.492 174.336 135.042 174.576 131.691 174.141C128.334 173.702 125.083 172.52 122.243 170.747C119.403 168.971 116.969 166.617 115.124 163.904C111.397 158.495 110.151 151.647 111.607 145.652C111.755 145.039 112.375 144.663 112.991 144.81C113.489 144.93 113.833 145.36 113.865 145.844L113.867 145.872C114.051 148.678 114.603 151.37 115.579 153.846C116.555 156.321 117.925 158.575 119.608 160.511C122.979 164.384 127.634 166.908 132.534 167.445C134.985 167.721 137.482 167.54 139.869 166.924C142.252 166.289 144.536 165.21 146.594 163.739C150.743 160.81 153.92 156.368 155.684 151.012L155.688 150.996C155.887 150.394 156.538 150.065 157.143 150.263C157.613 150.415 157.916 150.839 157.938 151.301Z" fill="#1E1D2B"/>
<path d="M275.112 144.745C276.274 147.618 276.597 150.847 276.227 154.045C275.832 157.242 274.657 160.394 272.825 163.145C270.989 165.89 268.527 168.264 265.636 169.968C262.757 171.693 259.465 172.75 256.118 173.06C252.775 173.366 249.369 172.944 246.222 171.814C243.077 170.684 240.212 168.863 237.899 166.541C233.231 161.937 230.889 155.233 231.795 149.139C231.888 148.515 232.472 148.082 233.1 148.176C233.606 148.25 233.986 148.644 234.065 149.12L234.068 149.139C234.515 151.865 235.39 154.409 236.701 156.652C238.008 158.894 239.711 160.832 241.676 162.379C245.612 165.478 250.605 166.901 255.441 166.346C260.254 165.808 264.76 163.341 267.942 159.568C269.537 157.684 270.808 155.483 271.647 153.054C272.506 150.626 272.886 147.969 272.889 145.201V145.176C272.889 144.541 273.406 144.026 274.043 144.027C274.526 144.026 274.94 144.323 275.112 144.745Z" fill="#1E1D2B"/>
<path d="M142.298 112.424C142.829 117.391 150.129 120.689 158.603 119.789C167.078 118.89 173.518 114.135 172.987 109.168C172.456 104.201 166.073 101.416 157.597 102.316C149.124 103.214 141.768 107.456 142.298 112.424Z" fill="white"/>
<path d="M242.088 112.424C241.557 117.391 234.257 120.689 225.783 119.789C217.308 118.89 210.867 114.135 211.399 109.168C211.93 104.201 218.313 101.416 226.789 102.316C235.262 103.214 242.618 107.456 242.088 112.424Z" fill="white"/>
<g opacity="0.3">
<path d="M194.382 255.045C110.193 255.171 74.2388 229.842 60.8232 200.305C65.9955 236.04 95.2511 272.767 194.382 272.618C293.515 272.767 322.771 236.041 327.943 200.307C314.527 229.843 278.573 255.171 194.382 255.045Z" fill="#1E1D2B"/>
</g>
<g opacity="0.3">
<path d="M23.7383 354.073C35.5699 360.044 47.4734 363.014 58.1833 364.298C80.6671 366.996 97.8615 362.25 97.8615 362.25L98.2317 349.76C98.2645 349.748 98.2864 349.738 98.3083 349.731C96.3509 350.484 41.795 371.175 26.8704 342.498C26.8704 342.498 41.3436 329.879 31.574 316.359C31.574 316.359 35.7933 308.665 31.9645 302.508C30.6117 300.417 28.4044 299.169 25.8285 298.672C27.8546 301.239 31.4225 307.512 25.4239 314.888C25.4239 314.888 33.5657 326.995 22.7105 336.549C16.401 342.104 7.64526 340.589 4.08984 335.476C6.26277 341.469 11.799 348.051 23.7383 354.073Z" fill="#1E1D2B"/>
</g>
<g opacity="0.3">
<path d="M304.507 424.735C302.835 416.046 298.631 405.714 291.242 393.455C291.742 384.457 291.647 373.9 291.677 372.783L289.651 349.717C289.651 349.717 274.237 395.221 222.721 401.986C217.85 396.426 208.682 389.743 192.35 388.647C187.762 388.337 183.804 388.639 180.389 389.361C176.381 392.116 163.593 403.364 167.986 432.97C169.962 446.295 158.702 457.356 136.34 457.356C113.986 457.356 95.8589 446.439 95.8589 432.97C95.8589 419.502 112.503 406.746 144.343 406.674C150.957 406.66 155.712 407.778 159.149 409.71C159.792 406.94 160.675 404.533 161.718 402.441C110.657 392.512 98.3708 349.71 98.3708 349.71L97.8647 366.778C97.5319 374.392 97.56 382.634 98.0521 391.503C47.1501 475.866 147.498 469.375 181.756 459.851C185.591 458.783 189.434 457.197 193.088 455.085C197.632 458.193 202.588 460.429 207.539 461.805C222.952 466.088 251.753 469.765 274.129 464.818C294.261 460.368 309.19 448.946 304.507 424.735ZM257.108 450.808C249.062 452.301 239.581 452.92 229.443 452.92C219.942 452.92 190.597 451.016 185.011 424.042C181.856 408.821 190.707 395.843 203.74 395.243C210.224 394.948 216.643 397.752 221.781 402.54C224.002 404.61 225.992 407.046 227.642 409.766C228.235 409.758 228.829 409.744 229.443 409.744C254.973 409.744 276.285 411.395 281.285 424.735C282.017 426.674 282.399 428.866 282.399 431.333C282.399 442.076 272.283 447.995 257.108 450.808Z" fill="#1E1D2B"/>
</g>
<path d="M159.784 409.381C155.317 409.451 150.861 409.373 146.434 409.28L139.814 409.166C137.615 409.146 135.423 409.149 133.241 409.182C128.881 409.283 124.549 409.543 120.322 410.318C116.088 411.106 111.992 412.201 107.628 413.475C107.508 413.51 107.381 413.442 107.345 413.324C107.32 413.241 107.347 413.153 107.404 413.095C110.73 409.907 115.073 407.915 119.498 406.741C123.941 405.543 128.487 404.883 132.998 404.526C135.254 404.335 137.508 404.22 139.753 404.15C141.998 404.069 144.236 404.027 146.466 404.02C150.927 403.985 155.362 404.025 159.783 404.103H159.787C161.251 404.129 162.416 405.331 162.39 406.789C162.367 408.215 161.204 409.356 159.784 409.381Z" fill="#1E1D2B"/>
<path d="M229.51 406.05C233.933 405.972 238.366 405.932 242.827 405.968C245.057 405.974 247.297 406.018 249.54 406.097C251.785 406.167 254.037 406.282 256.295 406.474C260.806 406.83 265.352 407.49 269.794 408.688C274.222 409.862 278.563 411.854 281.889 415.042C281.979 415.129 281.982 415.271 281.895 415.361C281.834 415.424 281.745 415.444 281.665 415.42C277.301 414.147 273.206 413.051 268.971 412.264C264.744 411.487 260.412 411.229 256.052 411.128C253.87 411.095 251.678 411.093 249.479 411.112L242.859 411.226C238.432 411.319 233.976 411.398 229.509 411.328C228.045 411.305 226.878 410.105 226.901 408.646C226.925 407.219 228.079 406.075 229.499 406.049L229.51 406.05Z" fill="#1E1D2B"/>
</g>
<defs>
<clipPath id="clip0_54_6305">
<rect width="391" height="515" fill="white"/>
</clipPath>
</defs>
</svg>
