<svg width="405" height="398" viewBox="0 0 405 398" fill="none" xmlns="http://www.w3.org/2000/svg">
<path fill-rule="evenodd" clip-rule="evenodd" opacity="0.35" d="M191.714 86.8004C227.565 77.4522 265.439 60.2596 298.215 77.4556C331.673 95.0093 339.484 136.332 353.164 171.506C369.604 213.778 406.879 259.295 384.239 298.651C361.596 338.012 303.575 330.165 258.502 336.056C222.051 340.821 186.626 342.946 152.677 328.918C112.553 312.338 66.6703 293.136 54.1683 251.621C41.5079 209.58 64.8887 164.708 93.0599 130.951C117.041 102.214 155.471 96.2509 191.714 86.8004Z" fill="url(#paint0_linear_102_49)"/>
<g clip-path="url(#clip0_102_49)">
<g opacity="0.2">
<path d="M210.175 398.002C252.773 398.002 287.305 391.981 287.305 384.554C287.305 377.126 252.773 371.105 210.175 371.105C167.577 371.105 133.044 377.126 133.044 384.554C133.044 391.981 167.577 398.002 210.175 398.002Z" fill="#1E1D2B"/>
</g>
<path d="M252.708 65.3341C252.708 65.3341 245.292 29.1092 230.931 21.5993C216.57 14.0894 198.385 43.4107 189.28 58.9296C180.176 74.4486 178.612 80.8186 178.612 80.8186L180.176 82.2411C180.176 82.2424 207.38 53.9515 252.708 65.3341Z" fill="#F89B29"/>
<path d="M290.621 84.4315C290.621 84.4315 323.034 72.8031 342.151 77.31C361.269 81.8157 349.364 113.998 341.81 131.133C334.255 148.269 321.623 160.406 318.769 162.295C318.77 162.295 327.416 119.284 290.621 84.4315Z" fill="#F89B29"/>
<path d="M196.489 69.1927C196.489 69.1927 202.248 53.9005 209.514 44.0079C216.78 34.1153 219.893 28.3145 223.581 32.8201C227.269 37.3258 227.84 60.5622 227.84 60.5622C227.84 60.5622 224.282 60.4208 213.335 63.1831C202.39 65.9466 196.489 69.1927 196.489 69.1927Z" fill="#FFF3E9"/>
<path d="M302.79 95.5594C302.79 95.5594 335.535 88.8429 339.871 93.1219C344.207 97.4009 336.266 127.271 320.261 141.193L318.655 139.993C318.655 139.993 315.091 112.372 300.859 95.9606L302.79 95.5594Z" fill="#FFF3E9"/>
<path d="M312.873 123.263C312.846 123.161 312.844 123.06 312.86 122.963C311.527 118.644 309.815 114.286 307.596 109.963C307.497 109.863 307.417 109.74 307.389 109.591C307.387 109.578 307.392 109.568 307.389 109.555C305.102 105.164 302.284 100.813 298.799 96.5808C298.785 96.5643 298.765 96.5553 298.752 96.5375C298.746 96.5286 298.745 96.5171 298.739 96.5082C290.179 86.1406 277.601 76.4976 258.961 68.7623C202.821 45.4648 167.478 94.7457 157.982 110.405C153.301 118.126 149.79 122.855 146.967 126.656C141.758 133.672 138.888 137.537 134.885 151.413C128.847 172.337 157.384 198.145 157.84 198.553L157.837 198.552C186.712 223.788 218.386 235.165 251.979 232.377C271.595 230.749 289.44 220.316 302.228 203.001C313.063 188.331 319.12 170.172 318.034 155.61C317.332 146.208 316.497 135.042 313.039 123.56C312.966 123.475 312.903 123.379 312.873 123.263Z" fill="#F89B29"/>
<path d="M145.326 128.877C145.326 128.877 163.349 120.422 171.311 132.891C178.539 144.211 183.04 146.209 201.416 142.054C219.792 137.897 229.612 155.162 237.327 169.662C248.51 190.685 272.396 173.037 296.376 180.794C305.277 183.673 310.603 188.758 310.603 188.758C310.603 188.758 286.123 246.409 215.804 230.504C169.748 218.566 145.988 189.873 137.584 173.615C129.179 157.356 133.163 147.313 145.326 128.877Z" fill="#FFF3E9"/>
<path d="M218.399 160.361C220.031 159.425 221.072 158.336 221.334 157.294C221.541 156.465 220.178 154.594 216.66 152.284C211.302 148.764 204.69 146.608 203.057 147.846C200.881 149.496 203.24 157.342 205.324 162.15C210.037 163.369 215.369 162.099 218.399 160.361Z" fill="#1E1D2B"/>
<path d="M202.611 172.717C202.164 171.884 201.782 171.048 201.472 170.14C200.504 170.493 199.541 170.71 198.538 170.858C197.276 171.035 195.986 171.057 194.715 170.899C193.44 170.749 192.2 170.351 191.036 169.832C190.917 169.781 190.805 169.717 190.688 169.662C191.22 171.078 192.322 174.26 192.853 177.568C196.282 175.787 200.246 175.161 204.668 175.706C204.664 175.702 204.662 175.699 204.658 175.695C203.861 174.786 203.183 173.777 202.611 172.717Z" fill="#1E1D2B"/>
<path d="M206.008 186.253C206.008 186.253 208.468 184.919 210.37 183.142C212.273 181.366 212.613 180.338 212.613 180.338C212.613 180.338 210.447 178.764 209.311 178.425C208.175 178.086 207.821 177.11 203.648 177.008C199.474 176.907 194.641 177.899 193.791 179.171C192.942 180.444 195.271 186.506 198.798 187.169C202.321 187.834 206.008 186.253 206.008 186.253Z" fill="#FF67A0"/>
<g opacity="0.25">
<path d="M185.327 160.001C185.443 161.312 185.746 162.587 186.187 163.788C186.675 164.971 187.355 166.044 188.24 166.917C189.173 167.7 190.256 168.427 191.449 168.896C192.626 169.378 193.859 169.74 195.131 169.851C197.534 170.118 200.1 169.749 202.303 168.861L204.669 162.359C204.309 161.53 203.497 159.572 202.766 157.263C202.002 159.269 198.872 166.582 194.11 165.904C188.624 165.123 185.382 155.435 185.347 155.333C185.193 156.894 185.166 158.46 185.327 160.001Z" fill="#1E1D2B"/>
</g>
<g opacity="0.25">
<path d="M203.598 169.367C204.196 171.403 205.288 173.424 206.668 175.103C208.1 176.859 209.935 178.272 212.017 179.203C213.061 179.664 214.162 179.994 215.289 180.244C216.422 180.451 217.577 180.613 218.745 180.618C220.621 180.695 222.506 180.491 224.381 180.166C224.443 180.144 224.484 180.128 224.484 180.128C214.677 180.236 210.064 175.059 208.974 171.982C207.99 169.205 208.957 164.876 209.155 164.057C207.991 164.037 206.823 163.905 205.683 163.637L203.598 169.367Z" fill="#1E1D2B"/>
</g>
<g opacity="0.25">
<path d="M250.277 219.221C197.767 221.866 159.759 192.3 146.537 175.3C133.315 158.3 139.094 139.331 139.094 139.331C137.728 142.413 136.386 146.209 134.885 151.413C128.847 172.337 157.384 198.145 157.84 198.553L157.837 198.552C186.712 223.787 218.386 235.165 251.979 232.377C271.595 230.748 289.44 220.316 302.228 203.001C313.063 188.33 319.12 170.172 318.034 155.61C317.967 154.726 317.9 153.824 317.829 152.91C317.823 152.94 302.774 216.576 250.277 219.221Z" fill="#1E1D2B"/>
</g>
<path d="M223.13 104.915C224.621 102.836 222.159 98.5355 217.63 95.3103C213.102 92.0852 208.222 91.1564 206.731 93.2359C205.24 95.3154 207.702 99.6157 212.231 102.841C216.759 106.066 221.639 106.995 223.13 104.915Z" fill="#FFF3E9"/>
<path d="M275.277 128.31C276.164 125.912 272.649 122.413 267.426 120.495C262.203 118.578 257.251 118.967 256.364 121.365C255.478 123.764 258.993 127.262 264.215 129.18C269.438 131.098 274.391 130.708 275.277 128.31Z" fill="#FFF3E9"/>
<g opacity="0.25">
<path d="M207.627 51.0695C207.627 51.0695 218.275 39.4984 220.414 40.2536C222.555 41.0088 223.692 61.8726 223.692 61.8726C223.692 61.8726 235.801 61.6956 235.871 61.4842C235.943 61.2715 234.449 36.9717 228.336 30.3839C222.222 23.796 216.393 27.3377 204.024 43.7735C191.655 60.2094 187.105 75.4406 187.105 75.4406C187.105 75.4406 195.849 70.6942 195.849 70.4815C195.85 70.2676 203.71 55.1243 207.627 51.0695Z" fill="#1E1D2B"/>
</g>
<g opacity="0.25">
<path d="M295.467 90.2578C295.467 90.2578 323.651 82.9173 338.094 85.4057C352.536 87.8942 343.78 116.105 338.851 128.196C333.923 140.286 322.825 157.573 322.825 157.573L319.915 161.233C319.915 161.233 319.227 159.076 319.281 158.515C319.335 157.955 318.346 143.94 318.346 143.94C318.346 143.94 331.538 128.863 334.103 120.181C336.669 111.5 335.176 99.5276 333.044 97.8275C330.911 96.1274 313.85 99.315 305.462 102.433L295.467 90.2578Z" fill="#1E1D2B"/>
</g>
<g opacity="0.4">
<path d="M220.414 24.3603C220.414 24.3603 226.061 22.259 231.749 26.3202C237.435 30.3814 245.187 63.5957 245.187 63.5957L252.363 64.5827C252.363 64.5827 245.587 38.9304 237.15 27.2167C228.715 15.5056 223.297 21.314 220.414 24.3603Z" fill="white"/>
</g>
<g opacity="0.4">
<path d="M293.188 88.0496C293.188 88.0496 316.536 80.1908 332.53 80.3984C348.523 80.6059 352.466 87.5593 352.466 87.5593C352.466 87.5593 350.844 77.2999 333.829 76.0863C316.815 74.8726 294.876 82.9594 294.876 82.9594L290.62 84.4316C290.62 84.4316 290.774 85.1689 290.62 85.5459C290.466 85.9254 293.188 88.0496 293.188 88.0496Z" fill="white"/>
</g>
<g opacity="0.4">
<path d="M297.989 94.9213C280.472 76.4924 254.28 63.4988 233.232 61.9757C230.496 60.878 226.87 60.5061 223.02 61.1314C220.27 61.5784 217.792 62.4737 215.779 63.6427C195.649 68.7419 174.925 83.2866 165.103 101.617C165.103 101.617 187.247 80.3346 208.43 71.4735C209.133 71.1794 209.846 70.9068 210.568 70.6496C210.57 70.9068 210.585 71.1641 210.627 71.4213C211.355 75.8735 218.085 78.4855 225.656 77.2553C232.277 76.1804 237.35 72.5229 238.033 68.6451C253.915 71.0902 271.323 79.0407 287.673 92.1133C315.202 114.122 317.828 148.553 317.828 148.553C317.828 148.553 318.593 116.598 297.989 94.9213Z" fill="white"/>
</g>
<g opacity="0.4">
<path d="M242.544 85.193C245.041 84.5009 246.706 82.6566 246.264 81.0738C245.823 79.4909 243.441 78.7688 240.944 79.461C238.447 80.1531 236.782 81.9974 237.223 83.5803C237.665 85.1631 240.047 85.8852 242.544 85.193Z" fill="white"/>
</g>
<path d="M242.08 235.85C211.395 235.85 182.423 224.107 155.813 200.852C155.808 200.847 155.802 200.841 155.797 200.838C154.551 199.727 125.349 173.388 131.934 150.567C136.091 136.16 139.256 131.896 144.499 124.835C147.282 121.086 150.747 116.419 155.355 108.822C165.171 92.6341 201.737 41.7028 260.143 65.9364C284.256 75.9423 301.4 90.4157 311.1 108.955C320.179 126.309 321.158 143.869 321.105 155.566C321.033 171.322 314.435 190.195 303.888 204.821C294.68 217.591 278.245 233.266 252.236 235.426C248.833 235.709 245.444 235.85 242.08 235.85ZM158.903 197.36C187.437 222.292 218.707 233.536 251.847 230.787C293.227 227.349 316.301 184.115 316.431 155.544C316.551 129.319 310.661 91.9426 258.346 70.2344C203.386 47.4298 168.68 95.8472 159.352 111.23C154.631 119.015 151.095 123.776 148.254 127.603C143.155 134.47 140.347 138.252 136.423 151.853C130.679 171.761 158.328 196.841 158.903 197.36Z" fill="#1E1D2B"/>
<path d="M209.08 164.473C207.462 164.473 205.822 164.282 204.247 163.84C203.806 163.716 203.44 163.404 203.251 162.989C201.817 159.851 197.464 149.377 201.627 146.305C205.114 143.73 214.422 148.318 218.132 150.807C221.94 153.361 223.609 155.673 223.091 157.679C222.682 159.265 221.36 160.739 219.268 161.941C216.826 163.342 213.017 164.473 209.08 164.473ZM205.784 161.025C209.98 161.95 214.882 160.876 217.713 159.251C219.024 158.499 219.885 157.644 220.074 156.907C220.038 156.159 217.366 153.481 212.144 150.976C207.172 148.59 204.047 148.382 203.48 148.8C202.095 149.822 203.555 155.906 205.784 161.025Z" fill="#1E1D2B"/>
<path d="M185.791 152.765C185.425 157.928 185.584 164.934 191.049 166.945C194.039 168.214 197.472 168.198 200.531 167.152C200.739 167.08 200.981 166.988 201.182 166.908C202.432 166.382 203.881 166.989 204.371 168.252C204.675 169.295 205.085 170.307 205.599 171.269C209.711 179.174 217.898 180.334 226.037 179.703C215.544 185.007 203.457 181.26 199.91 169.562L203.168 171.114L202.847 171.254C198.491 172.984 193.34 172.873 189.22 170.544C182.519 167.142 182.734 158.595 185.791 152.765Z" fill="#1E1D2B"/>
<path d="M202.175 171.339C201.904 171.339 201.628 171.292 201.36 171.193C200.151 170.743 199.537 169.404 199.988 168.199L202.479 161.535C202.931 160.33 204.276 159.717 205.484 160.167C206.693 160.616 207.307 161.956 206.856 163.161L204.364 169.825C204.014 170.76 203.123 171.339 202.175 171.339Z" fill="#1E1D2B"/>
<path d="M201.879 190.107C200.343 190.107 199.037 189.819 198.041 189.489C193.15 187.863 189.947 183.38 189.678 179.985C189.311 175.355 187.061 169.968 187.038 169.914C186.538 168.729 187.098 167.365 188.286 166.867C189.475 166.369 190.843 166.924 191.344 168.11C191.449 168.357 193.908 174.23 194.336 179.62C194.46 181.186 196.378 184.03 199.52 185.074C203.148 186.28 207.068 184.653 210.861 180.369C211.713 179.405 213.191 179.312 214.158 180.162C215.125 181.013 215.218 182.484 214.365 183.448C209.684 188.736 205.235 190.107 201.879 190.107Z" fill="#1E1D2B"/>
<path d="M191.9 181.158C191.57 181.158 191.213 181.086 190.836 180.889C190.143 180.53 189.668 179.838 189.585 179.063C189.462 177.936 190.167 176.911 191.214 176.588C191.216 176.586 191.218 176.585 191.22 176.584C195.698 174.128 200.977 173.405 206.911 174.433C208.183 174.653 209.034 175.858 208.813 177.125C208.592 178.391 207.38 179.239 206.111 179.02C201.248 178.178 196.996 178.73 193.472 180.663C193.123 180.855 192.571 181.158 191.9 181.158Z" fill="#1E1D2B"/>
<path d="M174.903 89.7395C174.632 89.7395 174.358 89.6924 174.089 89.593C172.88 89.1448 172.265 87.8038 172.714 86.599C173.247 85.1727 185.961 51.4579 203.761 32.894C214.407 21.7916 221.223 17.412 227.264 17.7571C232.471 18.0589 236.126 21.9991 239.015 25.8146C246.775 36.0625 254.589 63.8466 254.919 65.0246C255.265 66.2624 254.538 67.5461 253.295 67.8912C252.052 68.2363 250.765 67.5117 250.418 66.2726C250.34 65.9924 242.515 38.1638 235.286 28.6188C232.103 24.415 229.623 22.5569 226.993 22.4041C222.659 22.1571 216.346 26.5074 207.139 36.1096C189.996 53.9871 177.219 87.8814 177.092 88.2215C176.742 89.1613 175.85 89.7395 174.903 89.7395Z" fill="#1E1D2B"/>
<path d="M318.219 165.655C317.468 165.655 316.732 165.294 316.279 164.628C315.559 163.562 315.841 162.115 316.911 161.396C330.168 152.49 350.604 114.462 350.704 93.3894C350.73 87.7631 349.331 83.9425 346.547 82.0335C330.818 71.252 289.833 87.204 289.42 87.3657C288.221 87.8407 286.864 87.2524 286.389 86.0578C285.915 84.862 286.501 83.5095 287.701 83.0371C289.478 82.3354 331.422 66.0154 349.193 78.1977C353.328 81.0326 355.409 86.1508 355.374 93.4123C355.324 103.892 350.796 118.711 342.947 134.069C335.418 148.802 326.661 160.461 319.52 165.257C319.123 165.526 318.668 165.655 318.219 165.655Z" fill="#1E1D2B"/>
<path d="M194.217 73.9863C193.934 73.9863 193.648 73.9251 193.376 73.7952C192.406 73.3317 191.997 72.1728 192.462 71.2075C192.512 71.1043 197.463 60.8399 203.24 50.7129C214.003 31.8459 218.427 29.3906 221.071 29.3906C221.08 29.3906 221.088 29.3906 221.097 29.3906C221.974 29.3957 223.282 29.6695 224.529 30.9405C230.035 36.5528 229.822 59.3257 229.78 61.9045C229.762 62.9755 228.849 63.8237 227.802 63.8122C226.727 63.7944 225.869 62.9119 225.887 61.8408C226.035 52.7264 225.044 37.0138 221.746 33.6531C221.373 33.2723 221.146 33.271 221.074 33.2697C220.934 33.271 217.533 33.5079 206.617 52.6448C200.913 62.6444 196.022 72.7828 195.974 72.8847C195.639 73.58 194.943 73.9863 194.217 73.9863Z" fill="#1E1D2B"/>
<path d="M318.29 145.216C317.799 145.216 317.305 145.031 316.926 144.659C316.159 143.908 316.149 142.68 316.901 141.916C334.576 123.998 340.626 97.9651 337.898 94.2732C337.826 94.1981 335.72 92.191 318.565 94.8068C309.547 96.1822 300.927 98.1434 300.84 98.1625C299.791 98.4019 298.748 97.7486 298.508 96.7043C298.268 95.6601 298.922 94.6196 299.971 94.3802C300.061 94.3598 309.002 92.3247 318.275 90.9252C335.705 88.2954 339.56 89.9777 341.034 91.9707C345.845 98.4834 337.108 126.964 319.678 144.634C319.297 145.021 318.794 145.216 318.29 145.216Z" fill="#1E1D2B"/>
<path d="M327.554 96.0434L317.454 90.4756C308.701 104.828 299.961 119.957 292.735 132.737L301.467 137.388C308.667 125.785 317.776 111.258 327.554 96.0434Z" fill="#FFB774"/>
<path d="M330.641 91.2512L320.584 85.3765C319.796 86.6512 319.007 87.9337 318.218 89.2237L328.347 94.8068C329.109 93.6262 329.874 92.4393 330.641 91.2512Z" fill="#EFB68F"/>
<path d="M283.142 181.196C283.427 179.914 284.232 178.982 285.473 178.5C288.491 177.329 293.863 178.907 299.339 182.522C299.34 182.517 299.341 182.513 299.344 182.508C299.394 181.967 299.705 177.721 297.752 173.372C290.847 168.814 284.87 168.148 280.453 171.464C275.487 175.194 273.787 183.222 275.365 188.094C277.917 195.968 286.036 198.376 287.372 198.722C288.421 198.386 289.449 197.92 290.426 197.278C290.616 197.108 291.645 196.156 292.979 194.511C290.501 192.483 282.223 185.342 283.142 181.196Z" fill="#7BA2FF"/>
<path d="M331.437 90.021C339.06 78.236 346.977 66.2217 354.638 54.9766L345.537 48.1914C342.987 51.6885 340.353 55.3638 337.632 59.2353C332.568 66.4446 327.007 75.0267 321.355 84.131L331.431 90.0172C331.435 90.0172 331.435 90.0197 331.437 90.021Z" fill="#FFB774"/>
<path d="M263.855 187.895L216.766 273.424C221.229 279.501 228.046 279.961 229.763 279.975L272.427 198.603C267.528 195.001 264.927 190.262 263.855 187.895Z" fill="#FFB774"/>
<path d="M286.074 162.459C287.153 160.678 291.206 153.998 297.196 144.293L289.09 139.213C282.82 150.398 278.134 159 276.287 162.408C276.515 162.347 276.735 162.272 276.966 162.22C279.879 161.565 283.02 161.672 286.074 162.459Z" fill="#FFB774"/>
<path d="M273.967 188.543C272.199 183.09 274.028 174.456 279.569 170.295C282.741 167.911 288.128 166.225 296.259 170.745C295.338 169.433 294.156 168.18 292.627 167.095C288.012 163.815 282.279 162.525 277.29 163.647C273.278 164.55 270.094 166.933 268.081 170.538C263.114 179.435 264.605 185.764 264.661 185.987C264.778 186.316 267.271 193.209 273.739 197.737C274.367 197.994 279.327 199.928 284.549 199.322C281.299 198.004 276.042 194.949 273.967 188.543Z" fill="#727C93"/>
<path d="M357.852 50.285L348.847 43.6908C348.043 44.7745 347.227 45.8825 346.402 47.007L355.465 53.7642C356.265 52.5952 357.06 51.4363 357.852 50.285Z" fill="#EFB68F"/>
<path d="M300.695 138.636L292.014 134.014C291.261 135.349 290.524 136.657 289.807 137.933L297.965 143.045C298.838 141.632 299.749 140.161 300.695 138.636Z" fill="#EFB68F"/>
<path d="M380.306 19.3554L373.213 13.5138C367.073 20.2201 359.082 29.9649 349.723 42.5154L358.684 49.0765C366.48 37.783 373.89 27.5109 380.306 19.3554Z" fill="#FFB774"/>
<path d="M52.6427 164.59C52.5763 165.122 53.1679 167.375 56.6897 172.776C59.4614 177.028 62.5921 181.045 65.3216 184.002L72.6847 174.444C63.7243 169.005 54.4138 164.168 52.6427 164.59Z" fill="#43B7FF"/>
<path d="M383.661 15.1757L376.751 9.77222C375.946 10.5898 375.098 11.4774 374.207 12.4338L381.212 18.2028C382.049 17.1522 382.862 16.1487 383.661 15.1757Z" fill="#EFB68F"/>
<path d="M66.3439 185.078C68.5852 187.369 70.4624 188.806 71.4924 188.863C75.5048 189.09 77.6184 184.667 78.0618 183.616C77.0868 181.395 76.0288 178.788 74.9848 175.857C74.6385 175.641 74.2922 175.426 73.9433 175.212L66.3439 185.078Z" fill="#FEDA24"/>
<path d="M385.948 12.4338L391.196 5.18882C390.71 4.35212 389.158 2.32597 385.741 2.72458C384.362 2.88632 381.642 4.92393 377.793 8.72662L384.594 14.0448C385.051 13.4946 385.505 12.9547 385.948 12.4338Z" fill="#FFB774"/>
<path d="M300.111 184.842C297.269 192.685 292.597 197.276 291.564 198.223C291.208 200.494 291.654 202.398 292.873 203.735C293.804 204.756 294.882 205.148 295.351 205.235C296.368 203.815 299.929 195.006 302.973 186.895L300.111 184.842Z" fill="#727C93"/>
<path d="M286.005 179.864C285.222 180.169 284.754 180.707 284.576 181.512C283.986 184.17 289.739 189.972 293.876 193.352C295.541 191.109 297.464 187.952 298.862 183.967C293.808 180.557 288.571 178.87 286.005 179.864Z" fill="#727C93"/>
<path d="M311.184 203.419C311.049 202.203 305.457 199.708 300.209 198.084C298.351 202.645 297.298 204.786 296.66 205.793C303.616 210.355 308.309 210.951 309.763 211.013C310.341 209.119 311.384 205.201 311.184 203.419Z" fill="#727C93"/>
<g opacity="0.25">
<path d="M78.0619 183.617C77.5495 182.45 77.0128 181.17 76.4684 179.798C75.6263 180.211 72.4432 181.67 70.5225 181.14C70.3334 181.088 70.0472 180.942 69.6945 180.728L66.3427 185.079C68.584 187.37 70.4612 188.807 71.4912 188.864C75.5049 189.091 77.6185 184.667 78.0619 183.617Z" fill="#1E1D2B"/>
</g>
<g opacity="0.25">
<path d="M56.6897 172.776C59.4614 177.028 62.5921 181.045 65.3216 184.002L68.4741 179.91C64.5306 177.102 56.7089 170.372 53.9525 168.159C54.5659 169.346 55.4412 170.859 56.6897 172.776Z" fill="#1E1D2B"/>
</g>
<g opacity="0.25">
<path d="M278.571 177.315C278.571 177.315 277.481 179.015 276.96 183.219C276.45 187.332 280.416 195.019 280.586 195.346C283.523 197.613 286.593 198.522 287.37 198.724C288.419 198.387 289.448 197.921 290.424 197.279C290.615 197.109 291.643 196.158 292.977 194.512C290.501 192.485 282.223 185.343 283.142 181.198C283.21 180.892 283.309 180.607 283.436 180.342L283.434 180.339L278.571 177.315Z" fill="#1E1D2B"/>
</g>
<g opacity="0.25">
<path d="M270.704 171.693C267.074 176.637 266.089 184.863 265.824 188.551C267.137 191.047 269.636 194.866 273.739 197.737C274.367 197.994 279.327 199.928 284.549 199.322C281.3 198.003 276.042 194.948 273.967 188.542C272.778 184.877 273.223 179.779 275.32 175.564C272.699 174.798 270.704 171.693 270.704 171.693Z" fill="#1E1D2B"/>
</g>
<g opacity="0.25">
<path d="M284.573 181.548C284.04 184.221 289.757 189.985 293.876 193.352C294.893 191.982 296.006 190.265 297.039 188.23C294.742 186.639 288.014 182.039 286.722 181.824C285.853 181.68 285.089 181.596 284.573 181.548Z" fill="#1E1D2B"/>
</g>
<g opacity="0.25">
<path d="M293.618 203.787C293.737 203.763 299.518 190.35 299.518 190.35L298.227 189.153C295.543 194.372 292.391 197.467 291.564 198.224C291.208 200.495 291.654 202.399 292.873 203.736C292.888 203.753 292.903 203.767 292.919 203.783C293.218 203.791 293.554 203.8 293.618 203.787Z" fill="#1E1D2B"/>
</g>
<g opacity="0.25">
<path d="M266.581 197.292L226.061 273.379C226.061 273.379 225.492 273.238 223.029 272.676C220.564 272.115 217.177 272.676 217.177 272.676L216.766 273.424C221.229 279.501 228.046 279.961 229.763 279.975L272.427 198.603C268.803 195.937 266.439 192.653 265.019 190.164L264.407 189.924L266.581 197.292Z" fill="#1E1D2B"/>
</g>
<g opacity="0.25">
<path d="M307.657 205.986C307.16 205.198 298.862 201.78 298.862 201.78L298.592 201.911C297.69 203.953 297.082 205.126 296.66 205.794C301.305 208.84 304.933 210.114 307.269 210.645C307.471 210.661 308.153 206.771 307.657 205.986Z" fill="#1E1D2B"/>
</g>
<g opacity="0.25">
<path d="M297.966 143.046C298.839 141.634 299.749 140.163 300.695 138.637L296.521 136.415C295.661 137.828 294.818 139.214 293.999 140.56L297.966 143.046Z" fill="#1E1D2B"/>
</g>
<g opacity="0.25">
<path d="M286.074 162.459C287.153 160.678 291.206 153.998 297.196 144.293L293.237 141.812C286.933 152.178 282.144 160.088 281.107 161.8C282.756 161.816 284.427 162.035 286.074 162.459Z" fill="#1E1D2B"/>
</g>
<g opacity="0.25">
<path d="M387.381 5.77594C386.987 6.22039 385.11 8.18923 381.847 11.8977L384.592 14.0448C385.05 13.4947 385.503 12.9547 385.947 12.4338L391.195 5.18885C390.97 4.8017 390.513 4.16113 389.751 3.62244C389.737 3.63517 388.088 4.97617 387.381 5.77594Z" fill="#1E1D2B"/>
</g>
<g opacity="0.25">
<path d="M354.779 46.2187L358.684 49.0777C366.481 37.783 373.89 27.5109 380.306 19.3554L377.445 16.9994C375.622 19.1491 373.567 21.6108 371.268 24.4316C367.065 29.5867 361.086 37.527 354.779 46.2187Z" fill="#1E1D2B"/>
</g>
<g opacity="0.25">
<path d="M326.724 87.2663L331.432 90.0158C331.435 90.0171 331.435 90.0196 331.437 90.0196C339.06 78.2346 346.977 66.2203 354.638 54.9753L350.625 51.9825C343.431 62.0432 336.219 72.4987 331.06 80.4441C329.915 82.2105 328.441 84.5321 326.724 87.2663Z" fill="#1E1D2B"/>
</g>
<g opacity="0.25">
<path d="M355.466 53.7643C356.265 52.5939 357.06 51.435 357.853 50.285L353.92 47.4056C353.11 48.5263 352.296 49.6547 351.479 50.7932L355.466 53.7643Z" fill="#1E1D2B"/>
</g>
<g opacity="0.25">
<path d="M381.214 18.2041C382.049 17.1522 382.862 16.1487 383.662 15.1757L380.883 13.0018C380.118 13.878 379.289 14.8382 378.397 15.8838L381.214 18.2041Z" fill="#1E1D2B"/>
</g>
<g opacity="0.25">
<path d="M301.467 137.388C308.667 125.784 317.775 111.258 327.554 96.0434L322.861 93.4569C315.488 105.327 305.608 121.489 297.284 135.16L301.467 137.388Z" fill="#1E1D2B"/>
</g>
<g opacity="0.25">
<path d="M328.349 94.8081C329.109 93.6263 329.874 92.4394 330.642 91.2512L325.948 88.5081C325.215 89.6784 324.442 90.9163 323.637 92.2101L328.349 94.8081Z" fill="#1E1D2B"/>
</g>
<g opacity="0.4">
<path d="M75.5904 177.508C75.3885 176.967 75.1866 176.423 74.9847 175.858C74.6384 175.643 74.2921 175.427 73.9433 175.213L72.13 177.567C73.8372 178.522 74.986 179.136 75.0729 179.109C75.2671 179.049 75.4537 178.263 75.5904 177.508Z" fill="white"/>
</g>
<g opacity="0.4">
<path d="M54.2924 167.254C54.2924 167.254 64.7606 173.397 70.8394 176.84L72.6846 174.444C63.7243 169.005 54.4138 164.17 52.6439 164.591C52.6184 164.801 52.6989 165.286 53.0183 166.123C53.6023 166.677 54.2924 167.254 54.2924 167.254Z" fill="white"/>
</g>
<g opacity="0.4">
<path d="M280.452 171.464C279.642 172.073 278.929 172.804 278.292 173.609C280.107 173.149 285.568 171.906 289.66 172.45C293.145 172.913 296.876 175.155 298.804 176.46C298.562 175.471 298.223 174.425 297.75 173.372C290.846 168.813 284.868 168.148 280.452 171.464Z" fill="white"/>
</g>
<g opacity="0.4">
<path d="M290.368 164.049C290.362 164.049 290.349 164.046 290.343 164.046C290.785 164.264 291.219 164.499 291.65 164.746C291.134 164.336 290.691 164.077 290.368 164.049Z" fill="white"/>
</g>
<g opacity="0.4">
<path d="M281.225 166.781C283.18 167.255 284.598 167.647 285.64 167.971C288.474 167.718 291.983 168.368 296.258 170.745C295.336 169.433 294.154 168.18 292.626 167.095C288.01 163.815 282.278 162.525 277.289 163.647C274.185 164.345 271.585 165.938 269.631 168.289C269.948 168.097 274.81 165.229 281.225 166.781Z" fill="white"/>
</g>
<path d="M71.2254 221.649C70.4625 221.649 69.7367 221.199 69.4261 220.452C69.0147 219.463 69.4862 218.328 70.4791 217.917C77.7437 214.915 82.169 210.911 83.6321 206.017C85.6511 199.262 81.3281 192.834 81.2847 192.77C81.2642 192.739 81.2412 192.705 81.2221 192.673C80.4694 191.428 62.8439 161.769 68.584 127.452C71.5653 109.624 81.9517 94.286 99.4558 81.8655C117.461 69.0884 143.118 59.3588 175.715 52.9454C198.399 48.4818 224.296 46.383 249.341 44.353C298.642 40.3581 345.21 36.5834 367.17 16.3028C367.958 15.5744 369.19 15.6215 369.921 16.4072C370.652 17.193 370.605 18.4206 369.816 19.1491C346.869 40.3428 299.649 44.1697 249.657 48.2207C224.721 50.2417 198.935 52.3316 176.467 56.7519C144.417 63.0583 119.267 72.5714 101.714 85.0263C85.0837 96.8279 75.2289 111.317 72.4227 128.09C67.0174 160.415 83.8085 189.404 84.5343 190.634C85.0774 191.443 89.8157 198.843 87.375 207.084C85.5719 213.172 80.3889 218.022 71.9704 221.502C71.7263 221.601 71.4745 221.649 71.2254 221.649Z" fill="#ABABAB"/>
<path d="M71.8029 191.155C71.6585 191.155 71.5129 191.151 71.3646 191.142C65.5938 190.823 51.3124 170.42 50.4218 165.39C50.0729 163.421 51.1604 162.728 51.6447 162.52C52.5405 162.136 54.2119 161.424 65.7714 167.807C71.1921 170.799 76.3125 173.991 76.3636 174.023C77.0933 174.477 77.3131 175.435 76.8569 176.161C76.4007 176.888 75.4384 177.107 74.7113 176.652C66.657 171.626 57.0219 166.37 53.656 165.521C54.3384 167.501 56.8558 171.991 61.074 177.575C66.7541 185.093 70.5072 187.987 71.5384 188.043C75.441 188.266 77.3629 183.159 77.3821 183.108C77.676 182.302 78.5705 181.887 79.3781 182.18C80.187 182.472 80.6035 183.363 80.3096 184.169C80.201 184.462 77.6913 191.155 71.8029 191.155ZM52.7526 165.413C52.7513 165.413 52.7526 165.413 52.7526 165.413V165.413Z" fill="#1E1D2B"/>
<path d="M65.3766 186.684C65.0456 186.684 64.7121 186.579 64.4297 186.363C63.7473 185.841 63.6195 184.867 64.1434 184.187L72.5275 173.303C73.0501 172.624 74.0277 172.494 74.7113 173.018C75.3937 173.54 75.5215 174.514 74.9976 175.194L66.6135 186.078C66.3056 186.475 65.8443 186.684 65.3766 186.684Z" fill="#1E1D2B"/>
<path d="M229.787 282.65C227.601 282.65 219.525 282.115 214.298 274.578C213.879 273.974 213.838 273.186 214.193 272.541L262.247 185.26C262.619 184.585 263.359 184.194 264.126 184.26C264.895 184.328 265.552 184.844 265.799 185.573C265.82 185.637 268.2 192.416 274.487 196.787C275.29 197.344 275.552 198.412 275.099 199.276L231.938 281.597C231.622 282.198 231.015 282.592 230.337 282.635C230.286 282.639 230.094 282.65 229.787 282.65ZM218.208 273.313C221.866 277.801 226.888 278.612 229.04 278.746L270.882 198.941C267.438 196.186 265.176 192.93 263.811 190.484L218.208 273.313Z" fill="#1E1D2B"/>
<path d="M282.458 202.132C277.232 202.132 272.881 200.281 272.596 200.158C271.61 199.73 271.159 198.586 271.59 197.604C272.019 196.622 273.164 196.174 274.15 196.601C274.242 196.639 283.286 200.454 289.682 196.32C290.389 195.672 295.581 190.694 298.15 182.274C298.258 181.03 298.679 172.877 291.925 168.08C287.584 164.997 282.212 163.782 277.559 164.828C273.893 165.653 270.982 167.831 269.14 171.128C264.383 179.649 265.824 185.646 265.84 185.706C266.102 186.739 265.481 187.797 264.445 188.066C263.412 188.336 262.354 187.728 262.076 186.699C261.996 186.399 260.158 179.236 265.739 169.242C268.133 164.954 271.924 162.118 276.701 161.044C282.42 159.758 288.955 161.207 294.184 164.922C303.266 171.371 302.057 182.418 302.001 182.884C301.988 182.993 301.965 183.101 301.933 183.208C298.867 193.458 292.419 199.095 292.146 199.331C292.084 199.383 292.02 199.433 291.953 199.476C288.919 201.488 285.537 202.132 282.458 202.132Z" fill="#1E1D2B"/>
<path d="M287.407 201.038C287.299 201.038 287.189 201.026 287.079 201.003C286.643 200.91 276.36 198.604 273.182 188.797C271.328 183.075 273.252 174.013 279.072 169.641C282.103 167.365 288.75 164.592 299.224 171.602C299.938 172.079 300.128 173.043 299.648 173.755C299.169 174.466 298.2 174.656 297.487 174.178C290.817 169.713 285.097 169.001 280.946 172.12C276.257 175.643 274.652 183.234 276.145 187.843C278.763 195.919 287.646 197.949 287.736 197.97C288.574 198.153 289.107 198.978 288.925 199.815C288.768 200.541 288.124 201.038 287.407 201.038Z" fill="#1E1D2B"/>
<path d="M295.543 207.538C294.4 207.538 292.571 206.788 291.199 205.296C289.96 203.95 288.633 201.52 289.339 197.586C289.49 196.743 290.298 196.18 291.146 196.332C291.993 196.484 292.556 197.29 292.405 198.133C292.047 200.122 292.335 201.733 293.26 202.921C293.805 203.623 294.485 204.043 294.976 204.257C296.199 201.993 299.266 194.4 301.982 187.195L298.833 184.937C293.289 181.073 288.329 179.841 286.304 180.627C285.775 180.832 285.499 181.149 285.379 181.688C284.938 183.676 289.988 189.239 294.981 193.188C295.654 193.72 295.767 194.697 295.233 195.368C294.699 196.039 293.72 196.151 293.045 195.62C290.262 193.42 281.263 185.865 282.338 181.019C282.679 179.48 283.686 178.313 285.172 177.736C288.592 176.409 294.659 178.242 300.633 182.406L304.766 185.368C305.336 185.777 305.56 186.515 305.315 187.17C297.769 207.347 296.879 207.427 295.75 207.529C295.686 207.535 295.616 207.538 295.543 207.538Z" fill="#1E1D2B"/>
<path d="M310.05 213.304C308.573 213.304 303.023 212.883 294.737 207.266C294.027 206.785 293.841 205.82 294.326 205.11C294.809 204.401 295.777 204.216 296.489 204.7C302.807 208.982 307.268 209.938 309.165 210.146C309.793 207.986 310.487 205.014 310.377 203.608C309.716 202.563 304.777 200.33 299.679 198.778C298.856 198.528 298.393 197.662 298.644 196.841C298.894 196.021 299.767 195.562 300.587 195.81C306.28 197.541 313.134 200.221 313.463 203.168C313.775 205.969 311.991 211.591 311.785 212.223C311.592 212.818 311.061 213.239 310.436 213.293C310.404 213.294 310.272 213.304 310.05 213.304ZM310.404 203.655H310.41H310.404Z" fill="#1E1D2B"/>
<path d="M274.774 165.602C274.464 165.602 274.149 165.528 273.857 165.372C272.909 164.866 272.552 163.691 273.059 162.746C273.431 162.056 310.448 93.2799 335.437 57.7019C355.161 29.6211 378.268 0.909895 385.428 0.0706543C390.418 -0.516432 393.122 2.72846 393.856 4.52411C394.109 5.1443 394.024 5.84983 393.631 6.39234L388.086 14.0436C388.057 14.0843 388.025 14.1251 387.991 14.1633C356.471 51.1625 288.764 163.184 288.085 164.311C287.53 165.229 286.334 165.525 285.413 164.973C284.491 164.42 284.193 163.228 284.748 162.31C285.429 161.181 353.227 49.009 384.974 11.7092L389.705 5.18123C389.096 4.50118 387.921 3.68487 385.882 3.92301C385.754 3.93829 382.628 4.44897 370.454 18.4282C361.383 28.8455 350.376 43.1954 338.625 59.9254C313.767 95.3162 276.86 163.887 276.491 164.576C276.14 165.23 275.468 165.602 274.774 165.602Z" fill="#1E1D2B"/>
<path d="M298.195 145.607C297.911 145.607 297.625 145.531 297.368 145.369L287.991 139.493C287.263 139.037 287.044 138.078 287.502 137.353C287.961 136.627 288.921 136.41 289.649 136.866L299.026 142.742C299.754 143.197 299.972 144.156 299.515 144.881C299.218 145.35 298.712 145.607 298.195 145.607Z" fill="#1E1D2B"/>
<path d="M301.392 139.731C301.144 139.731 300.894 139.672 300.66 139.548L290.985 134.395C290.226 133.991 289.94 133.051 290.345 132.295C290.75 131.539 291.694 131.253 292.452 131.658L302.127 136.811C302.886 137.215 303.172 138.154 302.766 138.911C302.486 139.433 301.948 139.731 301.392 139.731Z" fill="#1E1D2B"/>
<path d="M328.579 97.3245C328.323 97.3245 328.065 97.2621 327.826 97.131L316.431 90.8513C315.679 90.4361 315.406 89.4925 315.822 88.7424C316.238 87.9923 317.184 87.721 317.938 88.1349L329.333 94.4146C330.085 94.8297 330.357 95.7734 329.942 96.5235C329.658 97.0355 329.127 97.3245 328.579 97.3245Z" fill="#1E1D2B"/>
<path d="M331.059 92.2C330.792 92.2 330.521 92.1312 330.273 91.9873L319.544 85.7191C318.802 85.2861 318.554 84.3348 318.988 83.5961C319.423 82.8562 320.376 82.6079 321.119 83.0422L331.847 89.3104C332.59 89.7434 332.838 90.6947 332.403 91.4333C332.115 91.9249 331.593 92.2 331.059 92.2Z" fill="#1E1D2B"/>
<path d="M355.627 56.352C355.303 56.352 354.975 56.2514 354.696 56.0426L344.447 48.4015C343.758 47.8883 343.618 46.9153 344.133 46.2289C344.648 45.5425 345.624 45.4024 346.313 45.9156L356.561 53.5567C357.25 54.0699 357.391 55.0429 356.876 55.7293C356.569 56.1368 356.101 56.352 355.627 56.352Z" fill="#1E1D2B"/>
<path d="M358.846 51.6578C358.526 51.6578 358.203 51.5598 357.926 51.356L347.768 43.9187C347.076 43.4106 346.926 42.4402 347.435 41.7487C347.944 41.0572 348.918 40.9082 349.612 41.4163L359.77 48.8536C360.462 49.3617 360.612 50.3321 360.103 51.0236C359.797 51.4388 359.325 51.6578 358.846 51.6578Z" fill="#1E1D2B"/>
<path d="M381.322 20.7957C380.974 20.7957 380.622 20.6785 380.331 20.4404L372.156 13.7074C371.493 13.161 371.4 12.183 371.948 11.522C372.495 10.8611 373.478 10.7681 374.141 11.3144L382.315 18.0475C382.978 18.5938 383.072 19.5718 382.524 20.2328C382.216 20.6034 381.771 20.7957 381.322 20.7957Z" fill="#1E1D2B"/>
<path d="M384.702 16.6123C384.366 16.6123 384.028 16.504 383.743 16.2812L375.742 10.0244C375.065 9.49465 374.947 8.52042 375.477 7.84546C376.009 7.1705 376.987 7.05334 377.664 7.58184L385.664 13.8386C386.342 14.3684 386.459 15.3426 385.929 16.0175C385.621 16.4085 385.164 16.6123 384.702 16.6123Z" fill="#1E1D2B"/>
<path d="M24.0262 266.799L53.1716 229.251C53.1716 229.251 44.4988 210.123 56.4417 207.148C68.3846 204.173 71.6546 221.458 71.6546 221.458C71.6546 221.458 90.7535 219.242 92.6486 231.473C94.5436 243.704 84.8766 245.291 72.5542 243.835L44.6879 281.486C44.6879 281.486 56.4404 300.78 40.3279 303.602C24.2153 306.424 25.5584 287.532 25.5584 287.532C25.5584 287.532 5.61352 293.104 2.80351 280.541C-0.00650859 267.979 10.1883 265.146 24.0262 266.799Z" fill="white"/>
<path d="M37.1946 306.22C33.7009 306.22 30.7682 305.172 28.4489 303.087C24.5106 299.548 23.4921 293.902 23.2583 290.422C19.0899 291.178 11.3831 291.943 6.01481 288.743C3.12813 287.022 1.28162 284.433 0.523849 281.048C-0.637726 275.855 0.132824 271.725 2.81377 268.772C6.379 264.844 13.1619 263.357 22.981 264.341L50.492 228.901C49.1094 225.433 46.0668 216.391 49.0621 210.222C50.3757 207.516 52.7321 205.672 55.8769 204.889C59.3361 204.028 62.5116 204.5 65.3203 206.293C70.18 209.396 72.5287 215.734 73.4539 218.998C78.8886 218.779 93.1329 219.343 94.9577 231.118C95.7244 236.067 94.812 239.919 92.2461 242.568C88.8866 246.037 82.9535 247.231 73.6366 246.295L47.466 281.657C49.2435 284.99 52.9774 293.262 50.138 299.505C48.5829 302.924 45.4189 305.074 40.7343 305.894C39.4973 306.112 38.3166 306.22 37.1946 306.22ZM25.5571 285.206C26.09 285.206 26.6139 285.388 27.0356 285.731C27.6234 286.21 27.9416 286.943 27.8892 287.697C27.8841 287.775 27.3896 295.879 31.5873 299.638C33.5565 301.4 36.2835 301.946 39.9254 301.31C43.0395 300.765 44.987 299.547 45.8802 297.588C47.9376 293.076 44.2765 285.305 42.6907 282.692C42.2012 281.886 42.2473 280.862 42.8082 280.104L70.6745 242.453C71.1729 241.78 71.992 241.424 72.829 241.524C81.2424 242.517 86.4944 241.801 88.884 239.334C90.4034 237.765 90.8801 235.31 90.3395 231.828C88.8099 221.965 72.0891 223.751 71.9217 223.771C70.7077 223.908 69.5858 223.088 69.3583 221.89C69.343 221.807 67.6613 213.309 62.7901 210.209C61.0867 209.124 59.1955 208.862 57.0078 209.407C55.1766 209.863 53.9882 210.766 53.2675 212.247C51.0492 216.806 53.9831 225.377 55.3006 228.294C55.6546 229.079 55.5472 229.996 55.0195 230.676L25.874 268.224C25.3718 268.872 24.5655 269.211 23.749 269.112C14.9292 268.058 8.89 269.021 6.27805 271.898C4.65006 273.691 4.26031 276.354 5.08453 280.038C5.55734 282.154 6.64352 283.693 8.40697 284.745C14.2072 288.209 24.8249 285.322 24.931 285.293C25.1367 285.234 25.3476 285.206 25.5571 285.206Z" fill="#1E1D2B"/>
<g opacity="0.25">
<path d="M29.8724 290.741C29.8724 290.741 29.7779 297.211 35.3225 299.243C40.8671 301.274 44.9908 297.495 44.4694 293.339C43.948 289.182 42.1003 285.688 42.1003 285.688C42.1003 285.688 43.3321 290.835 38.5465 293.858C33.7584 296.882 29.8724 290.741 29.8724 290.741Z" fill="#1E1D2B"/>
</g>
<g opacity="0.25">
<path d="M40.4404 277.659C40.4404 277.659 69.444 239.119 71.0554 239.119C72.6668 239.119 82.6187 240.158 86.6951 237.608C90.7702 235.057 87.927 228.068 83.1887 226.839C78.4491 225.611 71.1512 225.421 69.1603 227.594C67.1694 229.768 37.6917 269.536 40.4404 277.659Z" fill="#1E1D2B"/>
</g>
<g opacity="0.25">
<path d="M7.97756 280.115C8.13218 279.855 15.9872 281.673 20.3472 281.626C24.7073 281.579 27.4087 280.352 27.4087 280.352C27.4087 280.352 26.5551 283.705 19.1154 284.697C11.6744 285.688 6.79299 282.099 7.97756 280.115Z" fill="#1E1D2B"/>
</g>
<path d="M234.445 345.772C234.445 345.772 263.051 353.641 280.787 344.659C298.522 335.677 295.932 313.486 292.962 301.06C289.992 288.634 277.83 280.348 270.617 279.497C270.617 279.497 263.778 283.72 257.514 285.682C257.514 285.682 254.183 300.386 244.435 313.851C244.435 313.851 245.341 330.363 234.445 345.772Z" fill="#F89B29"/>
<path d="M238.79 337.439C238.79 337.439 251.98 345.764 269.802 340.399C293.023 333.408 292.032 298.42 292.032 298.42C292.032 298.42 307.407 332.912 273.501 348.645C253.219 357.773 235.397 345.923 235.397 345.923V344.79L238.79 337.439Z" fill="#FFF3E9"/>
<path d="M262.865 200.136C252.543 195.328 243.136 198.107 238.392 202.995C233.906 207.618 233.214 214.003 236.472 220.541C242.986 223.873 247.192 229.471 248.53 236.25C249.41 237.264 254.799 243.349 259.6 246.083L261.796 247.602C262.805 248.008 263.896 248.365 264.977 248.665C266.098 248.975 267.237 249.226 268.389 249.418C269.54 249.619 270.706 249.724 271.877 249.773C273.05 249.824 274.225 249.748 275.4 249.612C274.249 249.87 273.073 250.074 271.885 250.147C270.698 250.222 269.499 250.241 268.307 250.159C267.113 250.087 265.921 249.953 264.737 249.757C263.895 249.614 263.065 249.436 262.231 249.23C262.812 262.94 261.154 274.628 258.657 284.141C263.164 282.69 279.584 275.934 286.375 253.053C296.525 218.841 270.947 203.9 262.865 200.136Z" fill="#F89B29"/>
<path d="M258.383 245.803C258.383 245.803 281.219 241.768 282.209 214.036C282.209 214.036 267.676 194.746 249.645 197.197C231.615 199.647 235.438 218.376 235.438 218.376C235.438 218.376 246.746 225.647 248.599 234.715C248.599 234.714 251.386 240.101 258.383 245.803Z" fill="#FFF3E9"/>
<path d="M168.598 254.986C183.508 266.877 212.217 256.512 212.505 256.406C212.59 256.375 212.677 256.36 212.764 256.36C212.953 256.36 213.138 256.431 213.28 256.565C213.363 256.644 221.663 264.319 234.865 261.278C241.168 259.829 246.292 252.775 247.323 244.125C247.629 241.571 247.543 239.114 247.113 236.8C247.11 236.793 247.11 236.784 247.107 236.776C245.886 230.254 241.854 224.878 235.566 221.744C216.742 212.363 192.991 222.682 191.573 223.316C191.56 223.323 191.551 223.334 191.538 223.341C191.512 223.352 191.483 223.362 191.457 223.371L191.422 223.381C190.534 223.641 189.587 224.041 188.713 224.488C187.831 224.943 186.988 225.477 186.198 226.087C185.398 226.689 184.694 227.406 184.055 228.182C183.404 228.957 182.923 229.853 182.495 230.782C182.805 229.812 183.181 228.839 183.75 227.968C184.304 227.095 184.948 226.257 185.704 225.53C186.45 224.792 187.266 224.124 188.139 223.529C188.583 223.232 189.026 222.952 189.489 222.692C175.744 216.036 165.023 207.68 162.498 205.645C158.632 210.106 156.198 215.584 155.343 221.563C155.34 221.573 155.342 221.583 155.339 221.593C154.984 224.096 154.898 226.683 155.112 229.325C155.927 239.449 160.843 248.803 168.598 254.986Z" fill="#F89B29"/>
<path d="M205.158 218.57C205.158 218.57 192.718 241.665 209.632 258.042L212.509 257.195C212.509 257.195 228.969 267.425 239.491 259.079C250.013 250.734 249.231 236.453 244.752 228.822C240.275 221.191 223.227 213.822 205.158 218.57Z" fill="#FFF3E9"/>
<path d="M260.718 248.668L258.802 247.34C255.063 245.213 251.083 241.237 248.905 238.898C249.052 240.642 249.028 242.447 248.807 244.301C247.702 253.563 242.106 261.141 235.2 262.73C232.852 263.27 230.654 263.495 228.623 263.495C219.748 263.497 214.043 259.182 212.598 257.954C208.786 259.289 182.402 267.899 167.663 256.149C159.587 249.71 154.469 239.976 153.621 229.443C153.44 227.203 153.468 224.999 153.682 222.848C149.782 225.365 138.029 233.737 131.024 247.113C131.609 247.191 132.182 247.289 132.754 247.426C133.226 247.524 133.682 247.684 134.146 247.81C134.601 247.965 135.051 248.137 135.499 248.301C137.277 249.025 138.926 250.065 140.313 251.369C141.688 252.676 142.876 254.195 143.64 255.913C144.108 256.731 144.333 257.65 144.66 258.52C144.929 259.41 145.073 260.335 145.284 261.234C145.012 260.346 144.807 259.441 144.484 258.578C144.102 257.738 143.823 256.854 143.311 256.086C142.456 254.461 141.207 253.081 139.823 251.931C138.427 250.783 136.814 249.913 135.107 249.347C133.442 248.795 131.63 248.483 129.949 248.483C128.712 248.82 114.988 252.738 105.541 262.629C108.789 265.031 122.024 275.929 124.959 295.904C127.838 315.494 120.558 323.176 114.798 326.175C117.513 325.789 120.104 325.05 122.473 324.007C126.131 322.398 129.741 319.834 133.232 317.356C139.762 312.72 145.964 308.319 152.019 310.239C150.914 309.025 149.866 307.76 148.883 306.45C146.868 303.779 145.113 300.924 143.643 297.935C142.903 296.444 142.255 294.909 141.658 293.359C141.066 291.809 140.543 290.229 140.175 288.614C141.256 291.742 142.649 294.743 144.288 297.596C145.893 300.467 147.751 303.187 149.802 305.74C151.761 308.165 153.917 310.431 156.244 312.496C157.515 313.368 158.782 314.385 160.009 315.537C161.465 316.606 162.974 317.603 164.544 318.503C167.359 320.152 170.321 321.574 173.415 322.642L174.565 323.073L175.74 323.429C176.525 323.662 177.306 323.916 178.095 324.132L180.49 324.698C181.284 324.912 182.092 325.053 182.903 325.192C189.37 326.366 196.014 326.649 202.643 326.274C196.075 327.226 189.334 327.341 182.708 326.338C181.042 326.152 179.415 325.729 177.772 325.395C176.959 325.19 176.156 324.95 175.345 324.727L174.133 324.386L172.943 323.97C169.769 322.918 166.73 321.477 163.833 319.811C168.413 325.897 171.553 334.328 170.513 344.792C170.293 346.999 170.041 349.154 169.797 351.239C168.281 364.183 167.084 374.408 175.641 379.382C185.878 385.333 230.769 382.661 237.31 380.054C240.71 378.699 244.08 373.819 243.679 368.715C243.37 364.8 240.493 357.702 224.707 354.105C222.317 353.903 219.812 353.953 217.363 354.155C214.887 354.355 212.423 354.732 209.996 355.291C208.773 355.536 207.582 355.906 206.38 356.235C205.2 356.633 203.998 356.984 202.846 357.47C200.499 358.336 198.277 359.497 196.086 360.716C198.21 359.393 200.385 358.116 202.702 357.127C203.838 356.58 205.029 356.169 206.202 355.706C207.399 355.315 208.588 354.881 209.812 354.572C212.242 353.883 214.728 353.376 217.241 353.047C219.682 352.727 222.113 352.55 224.629 352.624C226.231 351.766 242.261 342.446 243.711 313.366C243.719 313.205 243.78 313.051 243.883 312.927C244.073 312.7 262.671 289.898 260.718 248.668Z" fill="#F89B29"/>
<path d="M161.76 249.245C161.76 249.245 148.549 263.981 158.595 284.029C167.038 300.877 194.545 322.168 226.269 306.96C252.681 294.298 251.899 240.889 251.899 240.889C251.899 240.889 248.979 240.174 248.988 240.464C249.102 244.277 244.438 255.279 241.784 258.049C237.424 262.598 228.696 262.888 223.806 261.991C217.194 260.885 213.162 257.451 213.162 257.451L212.764 257.105C212.765 257.104 180.215 272.01 161.76 249.245Z" fill="#FFF3E9"/>
<path d="M226.981 352.111C226.981 352.111 193.816 343.264 169.24 356.189C169.24 356.189 166.154 374.743 174.128 379.295C182.101 383.849 211.205 383.888 223.334 382.971C235.464 382.054 239.485 381.539 242.261 375.184C245.037 368.83 245.159 360.417 233.084 355.98L226.696 354.448L226.981 352.111Z" fill="#FFF3E9"/>
<path d="M123.482 296.12C120.279 274.324 104.479 263.68 104.023 263.378C103.61 263.15 90.0814 255.788 79.456 265.155C68.2211 275.06 72.8227 296.682 83.7624 311.863C91.0322 321.951 100.617 326.18 109.55 326.465C109.574 326.458 109.592 326.442 109.617 326.437C113.796 325.639 127.151 321.086 123.482 296.12Z" fill="#FFF3E9"/>
<path d="M102.918 304.066C108.838 301.895 112.37 296.703 110.807 292.47C109.243 288.238 103.177 286.567 97.257 288.738C91.337 290.91 87.8051 296.102 89.3684 300.334C90.9316 304.567 96.998 306.238 102.918 304.066Z" fill="#FC807E"/>
<path d="M91.0798 281.282C93.4902 280.638 94.5979 276.969 93.5539 273.087C92.5098 269.205 89.7094 266.58 87.299 267.224C84.8886 267.868 83.7809 271.537 84.825 275.419C85.869 279.301 88.6694 281.925 91.0798 281.282Z" fill="#FC807E"/>
<path d="M105.808 283.133C107.875 282.581 108.76 279.196 107.786 275.572C106.811 271.949 104.346 269.459 102.279 270.011C100.212 270.563 99.3265 273.948 100.301 277.572C101.276 281.195 103.741 283.685 105.808 283.133Z" fill="#FC807E"/>
<path d="M83.5263 291.332C85.4982 290.504 85.9117 287.031 84.4499 283.573C82.9882 280.116 80.2048 277.985 78.2329 278.813C76.2611 279.641 75.8476 283.115 77.3093 286.572C78.771 290.029 81.5545 292.161 83.5263 291.332Z" fill="#FC807E"/>
<g opacity="0.25">
<path d="M173.53 265.174C198.335 270.31 214.397 262.412 217.195 260.883C214.836 259.733 213.263 258.519 212.599 257.954C208.787 259.289 182.403 267.899 167.664 256.149C161.483 251.221 157.044 244.361 154.916 236.692C156.344 245.755 160.688 262.338 173.53 265.174Z" fill="#1E1D2B"/>
</g>
<g opacity="0.25">
<path d="M236.141 253.717C224.356 256.887 213.8 247.664 210.475 248.266C192.688 257.513 170.999 253.43 163.119 240.244C155.238 227.058 157.789 213.04 157.789 213.04C156.591 215.712 155.77 218.575 155.343 221.561C155.34 221.572 155.342 221.582 155.339 221.592C154.984 224.094 154.898 226.682 155.112 229.323C155.927 239.449 160.843 248.802 168.6 254.985C183.51 266.875 212.218 256.51 212.507 256.405C212.591 256.374 212.678 256.359 212.765 256.359C212.954 256.359 213.139 256.43 213.281 256.564C213.364 256.643 221.664 264.318 234.867 261.277C241.169 259.828 246.293 252.774 247.325 244.124C247.63 241.569 247.544 239.113 247.114 236.799C247.111 236.791 247.111 236.782 247.109 236.775C247.107 236.776 247.926 250.548 236.141 253.717Z" fill="#1E1D2B"/>
</g>
<g opacity="0.25">
<path d="M270.954 252.925C277.713 251.665 279.955 247.377 279.955 247.377C256.385 243.63 243.804 223.599 241.78 213.799C240.074 205.542 243.458 200.421 244.568 199.009C242.083 199.967 239.976 201.361 238.391 202.994C233.905 207.617 233.213 214.002 236.47 220.54C242.985 223.872 247.19 229.47 248.528 236.249C249.409 237.262 254.798 243.347 259.598 246.082L261.795 247.601C262.803 248.007 263.895 248.364 264.976 248.664C266.096 248.974 267.236 249.225 268.388 249.417C269.539 249.618 270.704 249.722 271.876 249.772C273.049 249.823 274.224 249.747 275.399 249.61C274.248 249.869 273.072 250.073 271.884 250.145C270.697 250.22 269.498 250.24 268.306 250.158C267.112 250.085 265.92 249.952 264.735 249.756C263.893 249.613 263.064 249.435 262.23 249.228C262.286 250.555 262.315 251.858 262.33 253.147C263.753 253.453 266.551 253.747 270.954 252.925Z" fill="#1E1D2B"/>
</g>
<g opacity="0.25">
<path d="M202.16 339.822C209.246 328.077 225.151 320.799 231.731 322.385C236.78 323.601 239.862 327.693 241.026 329.536C242.405 324.988 243.399 319.638 243.712 313.365C243.72 313.204 243.781 313.05 243.885 312.925C244.073 312.699 262.671 289.896 260.718 248.667L258.802 247.338C255.063 245.212 251.083 241.236 248.905 238.896C249.052 240.641 249.028 242.446 248.807 244.3C248.707 245.138 248.558 245.957 248.387 246.764C249.879 248.101 253.558 251.592 254.361 254.22C255.373 257.535 255.661 273.051 248.249 287.654C240.836 302.257 222.886 320.895 188.182 314.939C153.477 308.983 140.175 275.261 140.175 275.261C136.174 285.493 137.741 290.825 137.572 296.734C137.427 301.792 128.218 305.158 125.569 306.023C125.063 318.299 119.439 323.76 114.798 326.177C117.513 325.792 120.104 325.053 122.473 324.01C126.131 322.4 129.741 319.837 133.232 317.358C139.762 312.723 145.964 308.322 152.019 310.242C150.914 309.027 149.866 307.762 148.883 306.452C146.868 303.782 145.113 300.926 143.643 297.937C142.903 296.446 142.255 294.912 141.658 293.362C141.066 291.812 140.543 290.231 140.175 288.617C141.256 291.744 142.649 294.746 144.288 297.599C145.893 300.469 147.751 303.189 149.802 305.743C151.761 308.167 153.917 310.433 156.244 312.499C157.515 313.371 158.782 314.387 160.009 315.54C161.465 316.608 162.974 317.605 164.544 318.506C167.359 320.155 170.321 321.576 173.415 322.645L174.565 323.075L175.74 323.432C176.525 323.665 177.306 323.918 178.095 324.135L180.49 324.7C181.284 324.914 182.093 325.055 182.903 325.194C189.37 326.368 196.014 326.651 202.643 326.277C196.075 327.228 189.334 327.344 182.708 326.34C181.042 326.154 179.415 325.732 177.772 325.398C176.959 325.193 176.156 324.952 175.345 324.729L174.133 324.388L172.943 323.973C169.769 322.921 166.73 321.479 163.833 319.814C168.413 325.9 171.553 334.33 170.513 344.795C170.293 347.002 170.041 349.157 169.797 351.241C168.281 364.185 167.084 374.41 175.641 379.384C185.878 385.336 230.769 382.664 237.31 380.057C240.285 378.871 243.238 374.986 243.66 370.614C243.66 370.614 237.949 374.768 227.899 375.633C203.316 377.506 185.676 369.075 190.374 364.824C192.586 362.597 195.753 360.621 199.041 358.959C200.229 358.29 201.443 357.665 202.702 357.129C203.838 356.581 205.029 356.17 206.202 355.707C207.103 355.413 207.999 355.095 208.91 354.822C211.725 353.835 213.654 353.299 213.654 353.299C213.654 353.299 195.074 351.567 202.16 339.822Z" fill="#1E1D2B"/>
</g>
<g opacity="0.25">
<path d="M260.789 274.069C260.2 277.656 259.473 281.018 258.654 284.14C263.161 282.688 279.582 275.933 286.372 253.051C287.412 249.549 288.072 246.251 288.419 243.144C288.289 243.507 284.311 254.513 276.774 263.229C270.332 270.677 262.974 273.392 260.789 274.069Z" fill="#1E1D2B"/>
</g>
<g opacity="0.25">
<path d="M100.844 311.481C83.903 309.287 73.206 284.387 73.054 284.029C73.6648 293.246 77.7526 303.524 83.7611 311.863C91.0309 321.951 100.616 326.18 109.548 326.465C109.573 326.458 109.591 326.442 109.616 326.437C113.796 325.637 127.151 321.086 123.481 296.12C123.168 293.99 122.731 291.97 122.204 290.053C122.112 300.958 116.771 313.543 100.844 311.481Z" fill="#1E1D2B"/>
</g>
<g opacity="0.25">
<path d="M245.16 314.99C245.16 314.99 247.672 316.993 252.221 315.472C256.771 313.95 258.761 309.37 258.761 309.37C258.761 309.37 261.961 315.722 255.385 320.929C248.81 326.137 244.355 325.262 244.355 325.262C244.355 325.262 244.166 322.643 244.166 322.171C244.164 321.696 245.16 314.99 245.16 314.99Z" fill="#1E1D2B"/>
</g>
<g opacity="0.25">
<path d="M239.503 336.242C239.503 336.242 255.995 343.042 275.188 329.299C294.382 315.555 286.989 293.876 286.989 293.876C286.989 293.876 312.269 327.781 274.252 348.093C262.109 354.821 241.992 350.482 234.315 346.585L239.503 336.242Z" fill="#1E1D2B"/>
</g>
<g opacity="0.4">
<path d="M108.531 265.681C108.531 265.539 116.303 257.463 125.545 253.684C134.786 249.906 137.572 250.614 137.572 250.614L134.395 248.514C134.395 248.514 140.52 237.862 146.491 233.374C152.463 228.888 153.932 227.802 153.932 227.802V223.315C153.932 223.315 151.73 221.687 141.339 231.971C130.947 242.255 130.237 247.545 130.237 247.545C130.237 247.545 121.018 250.096 114.799 253.921C108.58 257.747 104.883 262.743 104.883 262.743L108.531 265.681Z" fill="white"/>
</g>
<g opacity="0.4">
<path d="M265.355 282.755C265.355 282.755 278.585 283.679 292.037 299.404C292.037 299.404 286.465 287.226 279.484 283.208C272.504 279.189 269.815 279.975 269.815 279.975L265.355 282.755Z" fill="white"/>
</g>
<path d="M228.646 265.076C220.34 265.076 214.606 261.495 212.288 259.732C206.271 261.723 181.222 268.986 166.672 257.385C158.256 250.675 152.923 240.537 152.038 229.571C151.227 219.498 154.296 210.081 160.683 203.052C161.528 202.123 162.959 202.028 163.92 202.835C164.039 202.934 175.716 212.675 191.225 220.116C196.271 218.002 218.4 209.756 236.946 218.995C246.688 223.85 251.711 233.38 250.385 244.49C249.202 254.403 243.105 262.538 235.558 264.272C233.093 264.839 230.784 265.076 228.646 265.076ZM212.763 254.777C213.354 254.777 213.935 255 214.377 255.42C214.684 255.707 222.202 262.567 234.508 259.736C240.08 258.455 244.806 251.811 245.746 243.939C246.83 234.866 242.759 227.097 234.856 223.16C216.219 213.873 192.405 224.675 192.167 224.786C191.539 225.076 190.816 225.075 190.19 224.781C177.132 218.659 166.777 211.024 162.731 207.86C158.186 213.715 156.051 221.206 156.695 229.197C157.476 238.889 162.176 247.838 169.591 253.749C183.794 265.075 211.676 255.024 211.956 254.921C212.218 254.824 212.493 254.777 212.763 254.777Z" fill="#1E1D2B"/>
<path d="M257.642 287.534C256.569 287.534 255.601 286.792 255.362 285.704C255.086 284.448 255.884 283.207 257.145 282.932C257.956 282.75 277.27 278.138 284.849 252.602C294.642 219.605 269.984 205.201 262.192 201.571C252.579 197.094 243.886 199.613 239.535 204.097C235.503 208.251 234.937 214.055 237.983 220.023C238.569 221.169 238.11 222.57 236.96 223.153C235.811 223.737 234.404 223.279 233.819 222.133C229.873 214.399 230.753 206.446 236.176 200.859C242.792 194.043 254.041 192.635 264.171 197.353C271.26 200.656 280.955 206.943 286.89 218.142C292.443 228.626 293.265 240.664 289.329 253.922C280.936 282.201 259.072 287.278 258.144 287.481C257.977 287.516 257.808 287.534 257.642 287.534Z" fill="#1E1D2B"/>
<path d="M191.932 224.879C188.176 225.421 184.465 227.432 182.495 230.78C183.254 226.17 186.842 222.328 190.934 220.22C192.153 219.612 193.638 220.103 194.249 221.318C195.118 222.939 193.753 225.002 191.932 224.879Z" fill="#1E1D2B"/>
<path d="M203.974 386.087C191.445 386.087 179.207 385.015 174.088 382.038C163.788 376.05 165.154 364.388 166.735 350.883C166.978 348.813 167.228 346.671 167.446 344.492C169.007 328.78 160.339 318.116 152.443 313.757C147.48 311.016 141.707 315.116 135.022 319.86C131.405 322.427 127.665 325.083 123.718 326.819C111.661 332.126 93.23 330.268 81.2577 313.655C69.5193 297.366 64.8717 273.91 77.4139 262.854C87.4119 254.04 99.5081 258.003 103.889 259.909C112.829 250.895 124.673 246.843 128.241 245.775C137.089 228.787 152.791 219.749 153.467 219.366C154.588 218.729 156.015 219.121 156.651 220.238C157.289 221.355 156.897 222.776 155.776 223.412C155.622 223.5 140.05 232.496 131.954 248.769C131.653 249.375 131.101 249.821 130.443 249.989C130.297 250.026 115.649 253.896 106.139 264.305C105.402 265.113 104.202 265.3 103.251 264.757C102.735 264.466 90.3663 257.647 80.5102 266.337C70.0867 275.526 74.7522 296.641 85.053 310.935C95.5621 325.518 111.097 327.28 121.832 322.557C125.343 321.012 128.886 318.497 132.312 316.065C139.615 310.88 147.166 305.517 154.707 309.68C163.843 314.723 173.881 326.986 172.094 344.946C171.873 347.166 171.62 349.328 171.375 351.418C169.719 365.559 169.137 373.766 176.442 378.013C180.526 380.388 192.166 381.654 207.581 381.407C221.779 381.178 233.76 379.761 236.72 378.582C239.154 377.612 242.469 373.582 242.096 368.836C241.622 362.817 235.3 358.128 224.296 355.632C223.328 355.412 222.604 354.606 222.493 353.621C222.382 352.638 222.909 351.691 223.804 351.263C224.483 350.931 240.659 342.674 242.126 313.281C242.152 312.776 242.34 312.295 242.664 311.906C242.846 311.689 260.819 289.558 259.165 249.515L257.978 248.692C252.313 245.427 246.295 238.372 246.039 238.071C245.206 237.089 245.33 235.621 246.315 234.792C247.3 233.962 248.774 234.084 249.607 235.066C249.664 235.133 255.419 241.874 260.389 244.704C260.449 244.738 260.508 244.775 260.564 244.813L262.782 246.35C263.376 246.762 263.745 247.425 263.781 248.145C265.756 287.511 249.868 310.213 246.753 314.261C245.447 336.546 236.037 347.668 230.28 352.443C243.73 356.817 246.416 364.192 246.753 368.472C247.279 375.134 242.855 381.151 238.456 382.904C234.326 384.555 218.945 386.087 203.974 386.087Z" fill="#1E1D2B"/>
<path d="M262.25 246.08C266.243 248.244 270.804 249.663 275.401 249.612C274.275 250 273.099 250.336 271.893 250.541C268.135 251.178 264.301 251.128 260.533 250.429C256.957 249.451 258.963 244.365 262.25 246.08Z" fill="#1E1D2B"/>
<path d="M140.175 288.615C146.959 303.128 158.708 315.653 173.918 321.226C183.11 324.749 192.69 325.812 202.642 326.275C193.702 328.496 183.922 328.56 174.92 326.126C157.443 321.63 143.017 306.434 140.175 288.615Z" fill="#1E1D2B"/>
<path d="M129.834 245.409C138.387 246.405 144.663 252.678 145.285 261.235C143.78 256.105 140.03 251.663 134.689 250.46C133.185 250.121 131.396 249.882 129.888 250.065C126.284 250.455 126.21 245.117 129.834 245.409Z" fill="#1E1D2B"/>
<path d="M109.755 329.499C108.658 329.499 107.679 328.724 107.464 327.61C107.221 326.348 108.051 325.128 109.317 324.885C113.147 324.151 125.376 319.926 121.91 296.352C118.787 275.111 103.293 264.796 103.137 264.694C102.059 263.991 101.753 262.55 102.456 261.474C103.159 260.397 104.6 260.091 105.683 260.789C106.392 261.248 123.094 272.277 126.534 295.677C130.6 323.339 115.06 328.526 110.2 329.457C110.049 329.485 109.901 329.499 109.755 329.499Z" fill="#1E1D2B"/>
<path d="M224.611 355.687C217.406 354.759 209.91 355.588 203.001 357.837C200.621 358.573 198.348 359.611 196.087 360.717C198.141 359.282 200.265 357.881 202.55 356.763C209.488 353.255 217.209 351.221 225.018 351.049C228.366 351.217 227.947 356.1 224.611 355.687Z" fill="#1E1D2B"/>
<path d="M256.787 353.99C254.891 353.99 252.964 353.89 251.005 353.692C240.106 352.581 232.205 348.801 231.874 348.641C230.714 348.079 230.231 346.686 230.794 345.53C231.358 344.373 232.756 343.892 233.916 344.454C234.321 344.647 263.759 358.425 285.273 338.505C292.968 331.38 295.587 317.748 291.789 304.585C288.212 292.189 279.746 283.584 269.144 281.567C267.878 281.326 267.046 280.107 267.287 278.844C267.529 277.582 268.749 276.753 270.019 276.993C282.388 279.346 292.204 289.18 296.278 303.299C300.551 318.107 297.406 333.627 288.453 341.917C279.863 349.87 269.003 353.99 256.787 353.99Z" fill="#1E1D2B"/>
<path d="M243.868 327.893C243.434 327.893 243.03 327.875 242.659 327.842C241.374 327.727 240.425 326.596 240.54 325.317C240.655 324.038 241.786 323.093 243.067 323.205C243.476 323.237 252.665 323.866 256.516 315.142C260.096 307.034 252.11 302.713 251.189 302.247C250.041 301.668 249.576 300.269 250.154 299.123C250.731 297.977 252.126 297.511 253.278 298.083C257.781 300.318 265.148 307.151 260.792 317.017C256.96 325.697 248.648 327.893 243.868 327.893Z" fill="#1E1D2B"/>
<path d="M231.594 263.095C227.913 262.059 224.894 261.813 223.721 260.757L216.943 273.067C221.407 279.144 228.223 279.604 229.94 279.618L239.683 260.757C237.113 260.641 233.414 263.607 231.594 263.095Z" fill="#FFB774"/>
<g opacity="0.25">
<path d="M226.24 273.022C226.24 273.022 225.671 272.881 223.207 272.319C220.742 271.758 217.356 272.319 217.356 272.319L216.945 273.067C221.408 279.144 228.224 279.604 229.942 279.618L239.059 261.358C236.489 261.242 233.415 263.606 231.595 263.094L226.24 273.022Z" fill="#1E1D2B"/>
</g>
<path d="M229.978 282.681C227.741 282.681 219.49 282.134 214.156 274.441C213.654 273.717 213.606 272.77 214.03 271.999L220.229 260.741C220.817 259.674 222.13 259.238 223.243 259.741C223.533 259.868 230.798 262.924 239.657 256.9C240.534 256.304 241.702 256.371 242.503 257.063C243.304 257.754 243.538 258.898 243.072 259.847L232.489 281.369C232.119 282.119 231.377 282.615 230.54 282.668C230.487 282.671 230.292 282.681 229.978 282.681ZM218.855 272.912C222.257 276.942 226.756 277.811 228.949 277.985L235.816 264.021C230.407 265.87 225.892 265.294 223.397 264.664L218.855 272.912Z" fill="#1E1D2B"/>
<path d="M215.512 154.463C215.866 153.6 213.988 152.018 211.316 150.93C208.645 149.842 206.193 149.66 205.839 150.523C205.484 151.387 207.363 152.968 210.034 154.056C212.706 155.144 215.158 155.326 215.512 154.463Z" fill="white"/>
<path d="M198.96 127.24C202.387 119.767 200.978 111.801 195.812 109.448C190.646 107.095 183.68 111.246 180.253 118.719C176.826 126.191 178.235 134.157 183.401 136.51C188.567 138.863 195.533 134.713 198.96 127.24Z" fill="#1E1D2B"/>
<path d="M194.383 112.594C195.574 114.133 194.863 116.935 192.795 118.849C190.726 120.765 188.083 121.068 186.892 119.528C185.701 117.988 186.412 115.188 188.48 113.273C190.549 111.357 193.192 111.054 194.383 112.594Z" fill="white"/>
<path d="M190.901 130.858C191.329 131.825 190.655 133.209 189.397 133.95C188.138 134.69 186.772 134.507 186.344 133.54C185.916 132.574 186.589 131.19 187.848 130.448C189.106 129.707 190.474 129.892 190.901 130.858Z" fill="#B199C5"/>
<path d="M268.822 151.46C262.141 148.546 254.764 148.661 247.942 150.711C246.419 151.102 244.821 151.755 243.344 152.266L242.645 147.115C243.265 147.209 243.798 147.32 244.38 147.481C252.023 149.482 258.981 155.424 260.798 163.242C255.784 157.757 249.344 153.671 241.964 152.453C240.439 152.299 239.333 150.9 239.573 149.385C239.725 148.406 240.399 147.633 241.265 147.302C242.423 146.863 243.573 146.403 244.755 146.025C252.837 143.474 263.349 144.361 268.822 151.46Z" fill="#1E1D2B"/>
</g>
<defs>
<linearGradient id="paint0_linear_102_49" x1="177.966" y1="89.7997" x2="248.364" y2="352.532" gradientUnits="userSpaceOnUse">
<stop stop-color="white"/>
<stop offset="1" stop-color="white" stop-opacity="0"/>
</linearGradient>
<clipPath id="clip0_102_49">
<rect width="394" height="398" fill="white" transform="translate(0 0.000610352)"/>
</clipPath>
</defs>
</svg>
