<svg width="105" height="105" viewBox="0 0 105 105" fill="none" xmlns="http://www.w3.org/2000/svg">
<circle cx="52.5543" cy="52.4938" r="46.8424" fill="white" stroke="url(#paint0_linear_54_5230)" stroke-width="10"/>
<path d="M59.0283 42.2474L48.0862 45.4834L33.2778 49.8607C30.6726 45.5577 30.0443 33.5655 33.3867 29.7007C34.3961 28.5348 35.7661 28.1102 37.5538 28.8603C42.0537 30.7497 48.6259 39.2323 59.0283 42.2474Z" fill="#F9A429"/>
<g opacity="0.5">
<path d="M59.1657 42.7599L57.2 43.3419C47.7326 39.9675 41.6154 32.2694 37.3558 30.4812C35.568 29.7307 34.1978 30.1557 33.1887 31.3216C32.6621 31.9308 32.2335 32.7444 31.8943 33.6963C32.2656 32.2626 32.8017 31.0488 33.5242 30.2135C34.5336 29.0476 35.9036 28.623 37.6913 29.3731C42.1911 31.2622 48.7632 39.7448 59.1657 42.7599Z" fill="#132D55"/>
</g>
<path d="M33.4725 50.5921C33.5399 50.574 33.606 50.5461 33.6688 50.5083C34.0267 50.292 34.1408 49.8266 33.9246 49.4693C31.3856 45.2741 30.9892 33.6358 33.9575 30.1987C34.834 29.1838 35.8836 28.9798 37.2602 29.5577C38.7946 30.2021 40.6901 31.7481 42.8847 33.5385C46.9667 36.8679 52.0465 41.0115 58.8175 42.9747C59.219 43.0908 59.6386 42.8601 59.7552 42.4586C59.8718 42.0571 59.6408 41.6377 59.2392 41.5212C52.7646 39.6441 47.8171 35.6087 43.8419 32.366C41.5563 30.5015 39.5825 28.8915 37.8467 28.1626C35.3409 27.1105 33.7258 28.1516 32.8118 29.2099C30.4774 31.9132 30.3096 37.3987 30.3456 39.6316C30.4159 43.9712 31.2913 48.0411 32.6299 50.2528C32.8081 50.5474 33.1557 50.677 33.4725 50.5921Z" fill="#132D55"/>
<path d="M43.0674 38.0654L33.4902 47.1282C33.475 46.9594 32.9995 44.4659 32.8516 41.662C32.7853 40.4301 32.7834 39.1392 32.9113 37.9593C33.2383 34.9454 33.9186 32.9161 34.5455 32.0537C34.7235 31.8101 34.8961 31.6598 35.0557 31.6072C36.3153 31.1891 38.3997 34.0557 43.0674 38.0654Z" fill="#FFF3E9"/>
<g opacity="0.3">
<path d="M43.0673 38.0656L33.4901 47.1283C33.4749 46.9595 32.9995 44.466 32.8516 41.6621C33.3194 41.4855 33.8854 41.1668 34.4439 40.596C35.2571 39.7672 36.7548 37.8313 36.7098 35.8774C36.6864 34.8427 35.6717 33.2775 34.5454 32.0535C34.7234 31.8099 34.896 31.6596 35.0555 31.607C36.3153 31.1892 38.3997 34.0559 43.0673 38.0656Z" fill="#132D55"/>
</g>
<path d="M33.6445 47.7304C33.7443 47.7037 33.8381 47.6518 33.9162 47.5782L43.4926 38.5153C43.62 38.3947 43.6902 38.2258 43.6861 38.0507C43.6821 37.8756 43.6037 37.7102 43.4709 37.596C41.8585 36.2107 40.5423 34.9493 39.485 33.9361C37.1887 31.735 36.0394 30.6303 34.8608 31.0197C33.4669 31.4822 32.6074 35.0113 32.2954 37.8926C32.0436 40.2162 32.2258 43.2673 32.8374 46.9608C32.857 47.0804 32.8707 47.1602 32.875 47.1942C32.8966 47.4305 33.0505 47.6288 33.2726 47.7125C33.3937 47.7585 33.5238 47.7628 33.6445 47.7304ZM42.1454 38.0856L33.9191 45.8707C33.3271 41.9273 33.3732 39.4428 33.527 38.026C33.9608 34.0216 34.9502 32.3476 35.2611 32.191C35.2648 32.1897 35.2685 32.1887 35.2726 32.1876C35.7402 32.0623 37.1432 33.407 38.628 34.8301C39.5809 35.7435 40.7423 36.8566 42.1454 38.0856Z" fill="#132D55"/>
<path d="M43.0674 38.0654L39.4622 41.4773C38.3426 40.9686 37.0868 40.2459 36.7815 39.463C36.0354 37.5467 38.7012 37.6268 38.7698 37.6205C38.8385 37.6142 37.0487 36.342 38.1471 35.3811C38.5874 34.9954 39.317 35.0808 40.0604 35.3394C40.9227 36.1566 41.9164 37.0759 43.0674 38.0654Z" fill="#FFF3E9"/>
<path d="M39.5765 41.9044C39.6462 41.8857 39.7114 41.85 39.766 41.7983L43.3709 38.3866C43.4618 38.3007 43.5119 38.18 43.5092 38.0551C43.5064 37.9298 43.4503 37.8119 43.3555 37.7304C42.0989 36.6501 41.0467 35.6655 40.3648 35.0187C40.3196 34.9755 40.2653 34.9424 40.2059 34.9217C39.1586 34.5574 38.3678 34.6001 37.8556 35.0486C37.4413 35.4109 37.3505 35.8077 37.3472 36.077C37.342 36.5293 37.5707 36.9441 37.8252 37.2689C37.2974 37.3748 36.7511 37.5974 36.4431 38.0516C36.2444 38.3451 36.0702 38.8558 36.3689 39.6233C36.6628 40.377 37.6421 41.1361 39.279 41.8797C39.3746 41.9234 39.4798 41.9303 39.5765 41.9044ZM42.4084 38.0801L39.3767 40.9497C38.1683 40.3707 37.3787 39.7769 37.1936 39.3023C37.0656 38.9733 37.0598 38.7196 37.1758 38.5479C37.3738 38.256 37.9744 38.0706 38.7436 38.0633C38.7794 38.0629 38.8022 38.0616 38.81 38.0609C38.9832 38.0453 39.135 37.927 39.1909 37.7611C39.2854 37.482 39.095 37.3074 38.9813 37.203C38.481 36.7441 38.2288 36.3689 38.2322 36.0875C38.2328 36.0038 38.2556 35.8743 38.4384 35.7143C38.6767 35.5054 39.1674 35.5117 39.8268 35.7276C40.4458 36.3136 41.3424 37.1505 42.4084 38.0801Z" fill="#132D55"/>
<path d="M76.4628 51.6185L70.4506 47.1999L57.1612 37.4341C61.8621 29.3378 69.8912 25.0801 72.7705 25.9911C73.1723 26.1179 73.5672 26.4281 73.9424 26.9179C76.0792 29.6955 77.6282 38.2301 76.4628 51.6185Z" fill="#F9A429"/>
<g opacity="0.5">
<path d="M75.2273 29.6494C74.9882 29.1443 74.7388 28.7233 74.4794 28.387C74.1042 27.8971 73.7092 27.5865 73.3075 27.4601C70.4829 26.5663 62.7041 30.6463 57.9736 38.4422L57.299 37.9469C61.9995 29.8503 70.0286 25.5926 72.9079 26.5036C73.3097 26.6304 73.7046 26.9406 74.0799 27.4305C74.4885 27.9615 74.876 28.7034 75.2273 29.6494Z" fill="#132D55"/>
</g>
<path d="M76.4629 51.6184L70.4507 47.1999C69.4978 44.7907 68.4497 41.1253 68.9868 37.5335C69.7963 32.1309 70.9144 26.4251 73.942 26.9177C76.0792 29.6955 77.6282 38.23 76.4629 51.6184Z" fill="#FF9343"/>
<path d="M76.659 52.3487C76.9578 52.2687 77.1886 52.009 77.2171 51.6831C78.0189 42.4714 77.4767 36.4854 76.8804 33.0856C76.3223 29.9034 75.1959 25.9636 72.9988 25.269C71.2589 24.7189 68.3547 25.6293 65.231 27.7042C61.7722 30.0015 58.6744 33.3216 56.5072 37.0535C56.2974 37.4148 56.4204 37.8778 56.7817 38.0875C57.1432 38.2976 57.6063 38.1746 57.816 37.8129C62.3583 29.9902 70.0853 25.9351 72.5421 26.7117C73.3646 26.9718 74.6037 28.8655 75.3897 33.3469C75.9702 36.6576 76.4972 42.5034 75.7092 51.5521C75.6727 51.9684 75.9809 52.3352 76.3973 52.3712C76.4881 52.3795 76.576 52.371 76.659 52.3487Z" fill="#132D55"/>
<path d="M27.0915 70.4437C27.2213 70.9678 27.3857 71.4801 27.5848 71.9783C30.113 78.3771 38.1027 82.5559 50.7509 83.2534L58.3708 83.0418C70.7583 81.9172 80.521 78.1227 82.3875 69.5387C82.7333 67.9485 82.9051 66.0672 82.8611 64.0144C82.706 56.263 79.517 46.0733 71.3278 39.9508C62.6591 33.469 51.1777 34.9888 48.6789 35.2998C33.6365 37.167 30.7892 48.0468 28.6799 60.9366C28.6799 60.9406 28.3999 61.3559 28.054 62.0833C27.9086 62.387 27.753 62.7481 27.6009 63.1555C26.9473 64.9029 26.3662 67.5275 27.0915 70.4437Z" fill="#F9A429"/>
<path d="M27.0915 70.4437C28.8955 77.7043 37.1183 82.5014 50.7509 83.2535L58.3708 83.0418C70.7583 81.9172 80.521 78.1227 82.3875 69.5387C82.7333 67.9485 82.9051 66.0672 82.861 64.0145C81.0109 63.1159 77.4427 62.0239 73.5143 61.9778C64.8183 61.876 65.0545 65.495 59.9391 65.4937C55.3556 65.4927 53.7448 61.8806 48.3985 61.8283C44.1442 61.7868 43.1023 64.3986 40.6365 65.0662C35.5563 66.4421 34.7035 61.2168 28.0539 62.083C27.2894 63.6964 26.1962 66.8468 27.0915 70.4437Z" fill="#FFF3E9"/>
<g opacity="0.3">
<path d="M82.8615 64.015C82.9053 66.0667 82.7322 67.9487 82.387 69.5384C80.5198 78.1226 70.7585 81.9178 58.3707 83.0414L50.7504 83.2531C39.4649 82.6303 31.8879 79.2368 28.5912 73.968C32.7182 77.8387 39.7465 80.2918 49.3473 80.8222L57.2907 80.6008C70.2065 79.4283 80.3839 75.4729 82.3306 66.5236C82.5034 65.7301 82.6347 64.8665 82.7175 63.9452C82.767 63.9685 82.8148 63.9923 82.8615 64.015Z" fill="#132D55"/>
</g>
<path d="M45.8235 68.5225C47.1093 70.1338 46.6387 74.2501 49.6308 73.7674C52.7236 73.2687 51.5042 69.333 52.8665 67.47" fill="#132D55"/>
<path d="M44.0563 67.3857C44.0563 67.3857 43.6304 68.8659 44.9682 69.4985C46.6333 70.2859 48.1619 68.7772 48.5057 68.1485C48.5855 68.0022 48.8607 67.9984 48.9211 68.154C49.25 68.9998 50.5384 70.6814 52.6132 69.9735C53.4285 69.6953 54.1962 68.7319 53.8281 67.7354L49.7312 62.9135L44.0563 67.3857Z" fill="#FFF3E9"/>
<g opacity="0.3">
<path d="M53.8405 68.755C53.6455 69.3288 53.1382 69.794 52.6125 69.9722C50.5392 70.6801 49.2501 69.0002 48.9207 68.1523C48.8605 67.9974 48.5864 68.0013 48.505 68.1487C48.1624 68.7774 46.6333 70.2855 44.9691 69.4987C44.3624 69.2129 44.1181 68.7525 44.0329 68.3347C46.0496 68.8114 47.806 67.5592 47.9231 66.2679C47.9434 66.0416 49.8631 65.2855 49.848 65.5122C49.7035 67.7279 51.0012 69.7257 53.8326 68.7583C53.8347 68.7581 53.8384 68.7552 53.8405 68.755Z" fill="#132D55"/>
</g>
<path d="M53.4789 67.8638C53.4981 68.1048 53.4558 68.3135 53.3686 68.5009C53.2764 68.6872 53.1403 68.8559 52.975 68.991C52.8112 69.1264 52.6172 69.2308 52.4405 69.2781C52.4174 69.2836 52.399 69.2903 52.373 69.2958L52.2849 69.3114L52.1105 69.3442C51.996 69.3573 51.8838 69.3691 51.7742 69.3717C51.6658 69.3663 51.5571 69.3749 51.4538 69.3532C51.3474 69.3498 51.2476 69.315 51.1438 69.297C50.942 69.2357 50.7402 69.1525 50.5485 69.0291C50.3614 68.898 50.1834 68.7384 50.0278 68.5541C49.8767 68.369 49.7427 68.1547 49.6575 67.9571L49.6269 67.8851L49.6095 67.8447C49.5984 67.8198 49.5863 67.7952 49.5733 67.7713C49.5478 67.7228 49.5167 67.6791 49.4831 67.6369C49.4168 67.5535 49.3362 67.4854 49.2601 67.4377C49.1031 67.3387 48.9545 67.3009 48.8174 67.2867C48.6799 67.2741 48.5501 67.2862 48.4143 67.3262C48.2802 67.3669 48.1358 67.4379 48.0018 67.5683C47.9682 67.6029 47.9373 67.635 47.9076 67.6763C47.8929 67.6963 47.8787 67.7173 47.8653 67.7382L47.8365 67.7854L47.819 67.8103C47.8009 67.8411 47.7666 67.884 47.7346 67.9259C47.599 68.0981 47.4121 68.2731 47.2227 68.4194C46.8369 68.7118 46.4141 68.9166 46.0174 68.9526C45.8169 68.9796 45.6205 68.956 45.4165 68.9004C45.2009 68.8491 45.0305 68.7684 44.8917 68.6576C44.7474 68.5524 44.6363 68.3979 44.5534 68.1908C44.5121 68.0887 44.4786 67.9732 44.4584 67.8515C44.4454 67.7905 44.4374 67.7278 44.4308 67.6648C44.4233 67.6056 44.4198 67.5297 44.4138 67.488L44.3978 67.3751C44.3695 67.1751 44.1842 67.0357 43.984 67.0641C43.8528 67.0828 43.7477 67.1692 43.6986 67.2827C43.6537 67.3874 43.6247 67.4607 43.5958 67.5512C43.5701 67.6383 43.5471 67.7262 43.53 67.8168C43.4999 67.9974 43.4794 68.186 43.4965 68.381C43.5071 68.5752 43.5494 68.7767 43.6192 68.9729C43.6593 69.0692 43.7026 69.1667 43.753 69.2605C43.8102 69.3495 43.8632 69.446 43.9314 69.5284C44.2019 69.8624 44.5615 70.1148 44.9199 70.2531L45.0558 70.3119L45.1999 70.3546C45.297 70.3806 45.3936 70.4119 45.4927 70.4304C45.6936 70.4582 45.8964 70.4848 46.0988 70.4731C46.5021 70.4635 46.8982 70.3691 47.2461 70.2184C47.5953 70.0655 47.9124 69.8706 48.1944 69.642C48.4788 69.4127 48.7274 69.1593 48.9573 68.8494C49.0145 68.7692 49.0713 68.691 49.1282 68.5904L49.1702 68.5187C49.1786 68.5037 49.163 68.5331 49.157 68.542C49.1488 68.5552 49.1399 68.5683 49.1304 68.5807C49.1103 68.6055 49.0946 68.6262 49.0732 68.6462C48.9935 68.7236 48.9173 68.7576 48.8552 68.776C48.7914 68.7938 48.739 68.7976 48.6765 68.7928C48.6147 68.7863 48.5403 68.7699 48.4474 68.7117C48.4038 68.6831 48.3522 68.6409 48.3092 68.5868C48.2865 68.5596 48.2686 68.5299 48.2505 68.4993C48.2419 68.4836 48.234 68.4678 48.2271 68.4514L48.2178 68.4278L48.2216 68.4363L48.2815 68.5723C48.4448 68.9263 48.645 69.2235 48.8794 69.5035C49.1106 69.784 49.3758 70.0422 49.6799 70.2651C49.9872 70.4849 50.335 70.6674 50.7115 70.7845C51.0909 70.896 51.4917 70.9303 51.8778 70.8957C51.975 70.8909 52.0668 70.8656 52.161 70.8506C52.2533 70.8303 52.3502 70.82 52.4377 70.7896L52.7008 70.7008L52.8311 70.6553C52.8765 70.6376 52.9279 70.6133 52.9753 70.5921C53.0745 70.5505 53.1598 70.4943 53.2504 70.4441C53.3331 70.3849 53.4195 70.3303 53.4944 70.2637C53.6514 70.1385 53.7863 69.9925 53.9105 69.8394C54.1484 69.5255 54.3235 69.1549 54.3824 68.7541C54.4381 68.3535 54.3653 67.9339 54.1765 67.6055C54.073 67.4255 53.8427 67.3634 53.6627 67.467C53.5326 67.5418 53.4644 67.6824 53.4752 67.8227L53.4789 67.8638Z" fill="#132D55"/>
<path d="M45.0632 63.323C45.0523 64.439 46.287 65.4373 47.2379 66.0395C47.8962 66.4564 48.7359 66.4647 49.4025 66.0605C50.3649 65.4767 51.6191 64.5026 51.6301 63.3866C51.648 61.5737 45.0812 61.5101 45.0632 63.323Z" fill="#132D55"/>
<g opacity="0.35">
<path d="M46.6247 62.9456C46.6225 63.152 47.0814 63.3389 47.4341 63.4521C47.6786 63.5305 47.989 63.5334 48.2349 63.4598C48.59 63.3537 49.0523 63.1756 49.0541 62.9693C49.0573 62.6337 46.6278 62.61 46.6247 62.9456Z" fill="#132D55"/>
</g>
<path d="M48.3183 68.5899L49.5238 67.7171C49.5238 67.7171 49.5307 67.7252 49.5414 67.7432C49.5368 67.7356 49.0792 66.9467 49.2735 64.6308C49.3078 64.2213 49.0036 63.8615 48.594 63.8273C48.1842 63.7924 47.8245 64.0973 47.7902 64.5067C47.5501 67.3681 48.188 68.4102 48.3183 68.5899Z" fill="#132D55"/>
<path d="M75.1338 43.9866C78.0019 47.7094 79.9572 52.0328 81.0567 56.5477C81.6141 58.8028 81.9771 61.1107 82.0801 63.4271C82.3213 65.7354 82.0028 68.0948 81.427 70.2473C80.8002 72.3955 79.5298 74.3185 77.8428 75.8239C76.1601 77.3402 74.1258 78.4808 71.9874 79.3643C69.8429 80.251 67.5792 80.8634 65.2938 81.3868C63.0048 81.9093 60.6819 82.316 58.3432 82.7364C58.1758 82.7663 58.064 82.9262 58.094 83.094C58.1208 83.2436 58.252 83.3487 58.3987 83.3482C60.7936 83.3372 63.1884 83.1072 65.5583 82.6802C66.7429 82.4649 67.9205 82.1959 69.0837 81.8637C70.2473 81.5332 71.3999 81.1504 72.5302 80.6967C74.7843 79.7887 76.9773 78.5975 78.8387 76.9308C79.768 76.1016 80.6059 75.1527 81.2941 74.0966C81.9874 73.0443 82.5171 71.882 82.8741 70.6752C83.2403 69.4592 83.3913 68.241 83.4793 67.019C83.5181 66.4091 83.5501 65.7998 83.5621 65.1912C83.5426 65.039 83.6402 64.8879 83.6257 64.735L83.6238 64.2781C83.6241 63.9733 83.6148 63.6692 83.6033 63.365C83.513 60.9332 83.1606 58.5162 82.5423 56.1676C82.223 54.9966 81.857 53.837 81.4073 52.7097C80.9596 51.5818 80.4525 50.4779 79.8841 49.407C78.7376 47.272 77.3331 45.2721 75.6655 43.5292C75.5317 43.3892 75.3098 43.3842 75.1698 43.5181C75.0395 43.6427 75.0263 43.844 75.1331 43.9839L75.1338 43.9866Z" fill="#132D55"/>
<path d="M50.7693 82.9039C49.1776 82.6909 47.5947 82.4741 46.0264 82.1996C44.4588 81.9223 42.9051 81.5984 41.3773 81.1933C39.8499 80.7898 38.3483 80.2993 36.9116 79.6748C35.475 79.0526 34.0987 78.3025 32.8527 77.3889C31.607 76.4782 30.4966 75.3979 29.6202 74.1589C28.7446 72.9216 28.1151 71.5213 27.7875 70.0496C27.4497 68.5868 27.4484 67.0533 27.7257 65.5657C27.8644 64.8213 28.0742 64.0879 28.343 63.3764C28.4778 63.0209 28.6285 62.6714 28.7937 62.3308C28.8755 62.1602 28.9628 61.9925 29.0525 61.8282L29.1897 61.5856L29.2598 61.4683L29.2948 61.4117L29.3125 61.3835L29.3216 61.3694C29.3004 61.4025 29.3764 61.2924 29.41 61.1853C29.4459 61.08 29.458 60.9651 29.4501 60.8661L29.4445 61.053C30.0296 57.2234 30.7331 53.4171 31.9841 49.8125C32.6125 48.015 33.3872 46.2754 34.3696 44.671C35.3497 43.0675 36.5435 41.6038 37.9548 40.3873C39.3624 39.1678 40.9811 38.2005 42.7204 37.5092C44.4557 36.8142 46.3157 36.3861 48.1983 36.1121C51.988 35.5083 55.8423 35.3175 59.6835 35.6961L59.6846 35.6962C59.8893 35.7164 60.0716 35.5669 60.0919 35.3622C60.1107 35.1711 59.98 34.9992 59.7961 34.9609C55.9269 34.1664 51.9071 34.1481 47.9887 34.6435C47.0019 34.7823 46.0193 34.9669 45.0466 35.2048C44.0753 35.4464 43.1028 35.7384 42.1646 36.1158C40.2816 36.8573 38.5055 37.9101 36.9642 39.2387C35.418 40.5631 34.1174 42.1532 33.0624 43.8683C32.0047 45.5852 31.1831 47.4234 30.5209 49.2988C29.1965 53.0587 28.5015 56.9579 27.9139 60.8207L27.9083 61.0075C27.8971 60.9138 27.9058 60.8042 27.9384 60.7042C27.9684 60.6028 28.0414 60.4979 28.0165 60.5364L28.0055 60.554L27.9832 60.5897L27.939 60.6612L27.8542 60.803C27.7989 60.8973 27.746 60.9913 27.6945 61.086C27.5916 61.2751 27.4935 61.4651 27.4013 61.6572C27.2159 62.0413 27.0479 62.4316 26.898 62.8293C26.5989 63.6243 26.3655 64.4446 26.2103 65.2832C25.8995 66.9578 25.9013 68.712 26.2909 70.3887C26.6676 72.0597 27.4025 73.6456 28.3955 75.0288C29.3901 76.4137 30.63 77.5955 31.9887 78.5738C33.3486 79.5553 34.8246 80.3428 36.3459 80.9889C37.8686 81.6346 39.4393 82.1422 41.0304 82.5388C42.6227 82.9318 44.237 83.2123 45.8583 83.3826C47.4791 83.5562 49.106 83.6367 50.7293 83.6024C50.9232 83.5985 51.0772 83.4378 51.0733 83.244C51.0707 83.0689 50.9384 82.9264 50.7693 82.9039Z" fill="#132D55"/>
<path d="M60.2799 52.1424C60.4961 51.1198 57.2499 47.6829 55.2359 48.4877C53.2219 49.2926 53.4879 51.5103 54.6848 52.1752C56.4234 53.1413 60.0637 53.1651 60.2799 52.1424Z" fill="#FFF3E9"/>
<path d="M38.0084 52.3858C37.8387 51.3546 40.937 48.1156 42.774 49.033C44.6108 49.9502 44.3004 52.1444 43.1752 52.7385C41.5413 53.6016 38.1785 53.417 38.0084 52.3858Z" fill="#FFF3E9"/>
<path d="M74.2374 40.6963C74.1468 41.3344 74.0133 41.9246 73.8293 42.4438C68.285 37.7644 64.764 39.0169 64.6641 36.1243C64.5577 32.9925 69.2084 28.5728 72.3033 28.2947C72.4953 28.2773 72.7254 28.6149 72.9649 29.2041C73.8325 31.3592 74.7897 36.8784 74.2374 40.6963Z" fill="#FFF3E9"/>
<g opacity="0.3">
<path d="M74.2375 40.6961C74.1469 41.3342 74.0135 41.9244 73.8295 42.4436C68.2852 37.7642 64.7641 39.0167 64.6643 36.1241C64.5578 32.9923 69.2086 28.5726 72.3034 28.2946C72.4955 28.2771 72.7255 28.6147 72.9651 29.2039C71.4856 29.8117 69.12 31.1941 69.0536 33.8324C68.9671 37.3038 72.2901 38.0865 74.2375 40.6961Z" fill="#132D55"/>
</g>
<path d="M68.9978 37.3367C69.0168 38.1912 67.6288 38.0068 67.7931 38.8484C65.8441 38.0638 64.7203 37.7416 64.6639 36.1243C64.6406 35.4372 64.8473 34.6882 65.2144 33.9335C65.9571 33.5386 66.8378 33.2817 67.6127 33.622C68.4905 34.009 68.3563 34.639 68.0782 35.0355C67.6681 35.6226 66.7776 35.9568 66.7776 35.9568C66.7776 35.9568 68.974 36.2963 68.9978 37.3367Z" fill="#FFF3E9"/>
<path d="M73.9899 43.0425C73.9906 43.0423 73.9913 43.0422 73.992 43.042C74.1883 42.9886 74.3459 42.8424 74.4136 42.6507C75.9451 38.317 74.2222 29.5775 73.0758 28.1021C72.7765 27.7168 72.4602 27.6587 72.2474 27.678C68.906 27.9782 63.9236 32.5724 64.0458 36.1458C64.1107 38.0479 65.4514 38.5819 67.1486 39.2581C68.7038 39.8775 70.8337 40.7261 73.43 42.9175C73.5852 43.0484 73.7944 43.0949 73.9899 43.0425ZM72.1569 28.9358C72.9186 30.0586 74.4352 37.172 73.4916 41.3727C71.0769 39.49 69.0927 38.6995 67.6075 38.1078C65.8329 37.4008 65.3199 37.1503 65.2841 36.1033C65.1895 33.3507 69.4396 29.3544 72.1569 28.9358ZM72.303 28.2945L72.3013 28.295L72.303 28.2945Z" fill="#132D55"/>
<path d="M68.5557 37.3467C68.549 37.4229 68.5511 37.4293 68.4981 37.4885C68.4428 37.5459 68.3174 37.6179 68.1643 37.6963C68.0121 37.7803 67.8214 37.8603 67.6152 38.0628C67.5653 38.1132 67.5168 38.1837 67.4732 38.2466C67.4364 38.3213 67.3988 38.401 67.3786 38.48C67.3647 38.5581 67.3484 38.6448 67.3508 38.7182C67.3553 38.7895 67.3623 38.8609 67.3723 38.9311L67.954 38.4507C67.4289 38.2387 66.9031 38.0401 66.4176 37.8156C66.1789 37.7012 65.9508 37.5789 65.7561 37.4399C65.5608 37.3003 65.4112 37.1415 65.3061 36.9583C65.0988 36.5975 65.0533 36.0833 65.1236 35.5924C65.1935 35.0957 65.3705 34.5982 65.6013 34.1221L65.4169 34.3133C65.8275 34.1241 66.2486 33.9772 66.6479 33.9442C66.8464 33.9288 67.0385 33.9348 67.2162 33.9813C67.3879 34.0235 67.5757 34.1091 67.6928 34.2001C67.8077 34.2982 67.846 34.3561 67.8483 34.4631C67.8492 34.5731 67.7892 34.7375 67.6801 34.8854C67.4592 35.1933 67.0762 35.4867 66.7038 35.7565L66.7032 35.757L66.6675 35.7852C66.5723 35.8606 66.556 35.9993 66.6316 36.0944C66.662 36.1324 66.7022 36.1579 66.746 36.17C66.9552 36.2275 67.1737 36.303 67.3787 36.3846C67.5853 36.4663 67.7852 36.5588 67.9669 36.6655C68.1467 36.7718 68.3133 36.8946 68.4194 37.024C68.4728 37.0877 68.5087 37.1521 68.5279 37.2059C68.5455 37.2594 68.5532 37.3005 68.5557 37.3467ZM69.4402 37.3266C69.4364 37.1401 69.3804 36.9515 69.2893 36.8015C69.1992 36.6499 69.0844 36.5334 68.9694 36.4378C68.7365 36.2479 68.4932 36.1373 68.2544 36.0456C68.0143 35.9565 67.7747 35.8936 67.5358 35.8441C67.2945 35.7956 67.0598 35.7644 66.8108 35.7443L66.8533 36.1574L66.8547 36.157C67.1261 36.1088 67.3698 36.0245 67.6153 35.9056C67.8576 35.7861 68.0921 35.6287 68.3035 35.4102C68.5071 35.1854 68.6913 34.8954 68.724 34.5127C68.74 34.3238 68.706 34.1146 68.6216 33.9336C68.5369 33.7516 68.4119 33.6093 68.282 33.4961C68.017 33.2796 67.7496 33.1557 67.4492 33.071C67.1516 32.994 66.8464 32.9787 66.558 33.0084C66.2683 33.0376 65.9942 33.1085 65.7386 33.206C65.4824 33.3024 65.2396 33.4177 65.0135 33.5544C64.9308 33.5971 64.8685 33.664 64.8311 33.7418L64.8293 33.7459C64.571 34.2806 64.3617 34.8542 64.2736 35.473C64.2282 35.7807 64.2221 36.1039 64.2584 36.4227C64.2979 36.7436 64.3864 37.081 64.5628 37.3864C64.737 37.692 64.9889 37.9457 65.2507 38.1327C65.5137 38.3212 65.7844 38.4629 66.0522 38.5915C66.5878 38.8391 67.1159 39.0364 67.6334 39.2464L67.6337 39.2463C67.8434 39.333 68.0835 39.2335 68.1703 39.0242C68.1852 38.9883 68.1945 38.9518 68.1989 38.915L68.2155 38.7663C68.2173 38.75 68.2165 38.7345 68.2131 38.719C68.2124 38.7056 68.2203 38.7064 68.216 38.6984C68.2181 38.6942 68.2231 38.6961 68.2194 38.6909C68.2303 38.6862 68.2279 38.6813 68.2396 38.6705C68.2819 38.6258 68.411 38.5513 68.566 38.4746C68.721 38.3928 68.9126 38.3067 69.11 38.1219C69.1579 38.0695 69.2072 38.0226 69.2493 37.9608C69.289 37.8956 69.3337 37.8327 69.3598 37.7609C69.3839 37.6892 69.4132 37.6129 69.4231 37.5417C69.4314 37.4699 69.437 37.3981 69.4402 37.3266Z" fill="#132D55"/>
<path d="M51.7297 71.8192C50.0553 73.6699 52.3033 77.6954 48.9691 77.7446C47.6689 77.7637 46.7972 76.6887 46.4319 75.4004C46.0329 73.9961 46.2312 72.3355 47.1208 71.5522C47.3744 71.3297 47.9075 71.081 48.8015 71.3589C50.1873 70.7895 51.0017 71.1437 51.4064 71.4685C51.6316 71.6485 51.7297 71.8192 51.7297 71.8192Z" fill="#FF1D74"/>
<g opacity="0.3">
<path d="M51.7298 71.8192C50.0554 73.6698 52.3035 77.6954 48.9692 77.7446C47.669 77.7637 46.7974 76.6887 46.432 75.4003C46.432 75.4003 47.6527 77.1026 48.8394 76.6898C50.3099 76.1797 50.0222 75.199 50.3063 73.2975C50.421 72.5376 50.9021 71.8172 51.4066 71.4688C51.6317 71.6484 51.7298 71.8192 51.7298 71.8192Z" fill="#132D55"/>
</g>
<path d="M49.8254 78.1666C51.4603 77.7285 51.496 76.0584 51.5234 74.7945C51.5445 73.8095 51.5665 72.7909 52.1234 72.1758C52.278 72.0051 52.3049 71.754 52.1899 71.5544C51.8517 70.9678 50.7085 70.0839 48.7753 70.8007C47.6564 70.5175 47.0056 70.9475 46.7708 71.1543C45.526 72.2497 45.4833 74.4707 46.0748 76.0043C46.6391 77.466 47.6965 78.2939 48.977 78.2749C49.2989 78.2703 49.58 78.2324 49.8254 78.1666ZM51.0428 71.8526C50.5058 72.7155 50.4823 73.7996 50.4618 74.7717C50.4231 76.5649 50.292 77.1937 48.9612 77.2137C47.8106 77.2305 47.2522 76.1063 47.0652 75.6221C46.539 74.2582 46.7216 72.6113 47.4719 71.951C47.5852 71.8514 47.9262 71.6435 48.6451 71.8666C48.763 71.9032 48.8897 71.8974 49.0042 71.8506C50.1189 71.3919 50.7408 71.6266 51.0428 71.8526Z" fill="#132D55"/>
<path d="M48.5272 74.8714C48.452 74.2011 48.4676 73.5183 48.6323 72.9094C48.7139 72.6066 48.8403 72.3277 49.0068 72.1099C49.091 72.0016 49.184 71.9082 49.2832 71.8314C49.3849 71.757 49.4932 71.699 49.6047 71.653C49.8936 71.5335 50.0311 71.2029 49.9115 70.9141C49.792 70.6253 49.4614 70.4879 49.1725 70.6075C49.1217 70.6284 49.0753 70.6562 49.0346 70.6891L49.0106 70.7087C48.8408 70.8461 48.6885 71.0027 48.5612 71.1741C48.4366 71.3478 48.3391 71.5332 48.2656 71.721C48.1214 72.0992 48.0741 72.4803 48.0783 72.8432C48.0816 73.2071 48.1336 73.5569 48.2123 73.8947C48.2916 74.2316 48.3981 74.558 48.5272 74.8714Z" fill="#132D55"/>
<path d="M64.5422 62.2458L64.5204 62.0809L64.5014 61.9593C64.4887 61.8807 64.4717 61.8061 64.4557 61.7313C64.4241 61.5819 64.3831 61.4373 64.3421 61.2926C64.2569 61.0045 64.1561 60.7213 64.0387 60.4432C63.9201 60.1659 63.7901 59.8902 63.6361 59.6242C63.4857 59.3557 63.317 59.0925 63.1224 58.8407C62.7397 58.3338 62.26 57.8562 61.6282 57.4875C61.4749 57.3956 61.2886 57.314 61.1449 57.2577C60.9933 57.1935 60.8339 57.1414 60.675 57.0887C60.3527 56.9934 60.0167 56.922 59.6712 56.8889C58.9813 56.8192 58.2461 56.9126 57.5843 57.1895C56.9205 57.4615 56.344 57.9039 55.9035 58.42C55.465 58.94 55.1572 59.533 54.9702 60.138C54.7835 60.7444 54.7039 61.3619 54.7348 61.9682C54.7473 62.2172 54.9595 62.409 55.2089 62.3964C55.3813 62.3876 55.526 62.2836 55.595 62.1377L55.6025 62.1218C55.8369 61.6227 56.0522 61.1464 56.3179 60.7214C56.5734 60.2926 56.8662 59.9156 57.1869 59.6045C57.834 58.9799 58.6323 58.7107 59.4891 58.8004C59.7033 58.8218 59.9214 58.8593 60.1397 58.9206C60.3554 58.9804 60.5941 59.0647 60.7548 59.1378C61.1188 59.2988 61.4821 59.5977 61.8286 59.9433C61.999 60.1196 62.168 60.3076 62.3326 60.5048C62.4938 60.7045 62.6566 60.9099 62.8114 61.1241C62.9666 61.3381 63.1188 61.5577 63.2681 61.7811L63.4869 62.1176L63.5912 62.2842L63.6403 62.3622C63.6559 62.3848 63.6697 62.4133 63.6748 62.4006C63.7177 62.64 63.9465 62.7995 64.186 62.7566C64.4254 62.7136 64.5851 62.4852 64.5422 62.2458Z" fill="#132D55"/>
<path d="M35.432 61.9117C35.7164 61.4839 35.971 61.075 36.2516 60.7003C36.5284 60.325 36.823 59.9861 37.1363 59.6952C37.4527 59.4075 37.786 59.1651 38.1501 58.9968C38.3297 58.915 38.5207 58.8349 38.7109 58.7777C38.8994 58.7129 39.0845 58.6776 39.2639 58.6541C39.6227 58.6092 39.9526 58.6454 40.2668 58.7652C40.5795 58.8876 40.8814 59.1011 41.1461 59.3917C41.4089 59.6835 41.646 60.0335 41.8453 60.4207C42.0474 60.8082 42.2066 61.2289 42.3439 61.681L42.3523 61.7084C42.4235 61.9428 42.6715 62.0752 42.9059 62.004C43.0601 61.9572 43.1705 61.8331 43.2072 61.6874C43.348 61.1256 43.3298 60.5356 43.2135 59.9621C43.0894 59.3896 42.8519 58.8284 42.4877 58.3239C42.1205 57.8242 41.6216 57.3722 41.0058 57.0838C40.3912 56.7933 39.6793 56.7027 39.0342 56.7862C38.7124 56.8307 38.3991 56.903 38.1105 57.0099C37.8211 57.1153 37.5446 57.2359 37.2792 57.3968C36.7511 57.7108 36.285 58.1136 35.9164 58.5717C35.1713 59.4877 34.7835 60.5673 34.6267 61.6022C34.5902 61.8435 34.756 62.0686 34.9974 62.1054C35.1726 62.1317 35.3392 62.0519 35.4315 61.9136L35.432 61.9117Z" fill="#132D55"/>
<defs>
<linearGradient id="paint0_linear_54_5230" x1="52.5543" y1="0.651367" x2="52.5543" y2="104.336" gradientUnits="userSpaceOnUse">
<stop stop-color="#EFF4FF"/>
<stop offset="1" stop-color="#BDC7E3"/>
</linearGradient>
</defs>
</svg>
