<svg width="78" height="78" viewBox="0 0 78 78" fill="none" xmlns="http://www.w3.org/2000/svg">
<path d="M77.7922 39.2374C77.7922 60.5309 60.5304 77.7927 39.2369 77.7927C17.9434 77.7927 0.681641 60.5309 0.681641 39.2374C0.681641 17.9439 17.9434 0.682129 39.2369 0.682129C60.5304 0.682129 77.7922 17.9439 77.7922 39.2374Z" fill="white"/>
<path fill-rule="evenodd" clip-rule="evenodd" d="M39.2369 73.9372C58.4011 73.9372 73.9367 58.4016 73.9367 39.2374C73.9367 20.0733 58.4011 4.53766 39.2369 4.53766C20.0728 4.53766 4.53717 20.0733 4.53717 39.2374C4.53717 58.4016 20.0728 73.9372 39.2369 73.9372ZM39.2369 77.7927C60.5304 77.7927 77.7922 60.5309 77.7922 39.2374C77.7922 17.9439 60.5304 0.682129 39.2369 0.682129C17.9434 0.682129 0.681641 17.9439 0.681641 39.2374C0.681641 60.5309 17.9434 77.7927 39.2369 77.7927Z" fill="url(#paint0_linear_54_4873)"/>
<path d="M44.0514 31.6172L35.9137 34.0237L24.9007 37.2792C22.9632 34.079 22.4959 25.1604 24.9817 22.2862C25.7324 21.4191 26.7512 21.1033 28.0808 21.6611C31.4274 23.0663 36.3151 29.3748 44.0514 31.6172Z" fill="#F9A429"/>
<g opacity="0.5">
<path d="M44.1536 31.9983L42.6918 32.4311C35.6508 29.9215 31.1015 24.1965 27.9336 22.8666C26.604 22.3084 25.585 22.6245 24.8345 23.4916C24.4429 23.9446 24.1241 24.5497 23.8719 25.2577C24.148 24.1914 24.5467 23.2887 25.084 22.6675C25.8347 21.8004 26.8535 21.4846 28.1831 22.0425C31.5296 23.4474 36.4173 29.7559 44.1536 31.9983Z" fill="#132D55"/>
</g>
<path d="M25.0457 37.8232C25.0958 37.8098 25.145 37.7889 25.1917 37.7609C25.4578 37.6 25.5427 37.2539 25.3819 36.9881C23.4936 33.8682 23.1988 25.2128 25.4063 22.6566C26.0583 21.9018 26.8388 21.7501 27.8626 22.1799C29.0038 22.6591 30.4134 23.8089 32.0456 25.1404C35.0814 27.6165 38.8592 30.6981 43.8948 32.1581C44.1934 32.2445 44.5054 32.0729 44.5922 31.7743C44.6789 31.4757 44.5071 31.1638 44.2084 31.0772C39.3932 29.6812 35.7138 26.68 32.7574 24.2684C31.0576 22.8818 29.5897 21.6844 28.2987 21.1424C26.4352 20.3599 25.2341 21.1341 24.5543 21.9212C22.8182 23.9316 22.6934 28.0113 22.7202 29.6719C22.7724 32.8992 23.4235 35.926 24.419 37.5708C24.5516 37.79 24.8101 37.8863 25.0457 37.8232Z" fill="#132D55"/>
<path d="M32.1814 28.5071L25.0589 35.2471C25.0476 35.1215 24.694 33.2671 24.584 31.1818C24.5347 30.2657 24.5333 29.3057 24.6284 28.4282C24.8716 26.1867 25.3775 24.6775 25.8437 24.0362C25.9761 23.855 26.1045 23.7432 26.2231 23.7041C27.1599 23.3931 28.7101 25.5251 32.1814 28.5071Z" fill="#FFF3E9"/>
<g opacity="0.3">
<path d="M32.1813 28.5072L25.0587 35.2472C25.0474 35.1216 24.6938 33.2672 24.5838 31.182C24.9317 31.0506 25.3526 30.8136 25.768 30.3891C26.3728 29.7727 27.4867 28.333 27.4531 26.8798C27.4358 26.1104 26.6811 24.9463 25.8435 24.036C25.9759 23.8548 26.1042 23.7431 26.2229 23.704C27.1597 23.3933 28.7099 25.5252 32.1813 28.5072Z" fill="#132D55"/>
</g>
<path d="M25.1736 35.695C25.2478 35.6751 25.3176 35.6365 25.3757 35.5817L32.4977 28.8416C32.5924 28.752 32.6446 28.6263 32.6416 28.4961C32.6386 28.3659 32.5803 28.2429 32.4815 28.1579C31.2824 27.1277 30.3035 26.1896 29.5172 25.4361C27.8094 23.7991 26.9547 22.9775 26.0782 23.2672C25.0415 23.6111 24.4024 26.2357 24.1703 28.3786C23.983 30.1066 24.1185 32.3757 24.5734 35.1225C24.588 35.2115 24.5981 35.2709 24.6014 35.2962C24.6174 35.4719 24.7319 35.6194 24.897 35.6816C24.9871 35.7158 25.0839 35.719 25.1736 35.695ZM31.4958 28.522L25.3779 34.3118C24.9376 31.3792 24.9718 29.5314 25.0862 28.4777C25.4089 25.4997 26.1447 24.2547 26.3759 24.1383C26.3786 24.1373 26.3814 24.1365 26.3845 24.1357C26.7322 24.0425 27.7756 25.0426 28.8799 26.101C29.5885 26.7802 30.4523 27.6081 31.4958 28.522Z" fill="#132D55"/>
<path d="M32.1813 28.5071L29.5001 31.0444C28.6675 30.6661 27.7336 30.1286 27.5065 29.5464C26.9516 28.1213 28.9342 28.1808 28.9852 28.1762C29.0363 28.1715 27.7052 27.2253 28.5221 26.5107C28.8495 26.2239 29.3921 26.2874 29.945 26.4797C30.5863 27.0874 31.3253 27.7711 32.1813 28.5071Z" fill="#FFF3E9"/>
<path d="M29.5851 31.3622C29.637 31.3483 29.6855 31.3217 29.7261 31.2833L32.4071 28.746C32.4747 28.6821 32.5119 28.5923 32.5099 28.4994C32.5078 28.4063 32.4661 28.3186 32.3956 28.2579C31.4611 27.4545 30.6785 26.7223 30.1714 26.2412C30.1378 26.2091 30.0974 26.1845 30.0532 26.1691C29.2744 25.8982 28.6862 25.9299 28.3053 26.2635C27.9972 26.5329 27.9296 26.828 27.9272 27.0283C27.9233 27.3647 28.0934 27.6732 28.2827 27.9147C27.8902 27.9935 27.4839 28.159 27.2548 28.4968C27.107 28.7151 26.9775 29.0949 27.1996 29.6657C27.4182 30.2263 28.1466 30.7908 29.3639 31.3438C29.435 31.3763 29.5132 31.3814 29.5851 31.3622ZM31.6913 28.518L29.4366 30.6521C28.5379 30.2215 27.9506 29.7799 27.813 29.427C27.7178 29.1823 27.7135 28.9936 27.7997 28.8659C27.947 28.6489 28.3937 28.5109 28.9657 28.5055C28.9924 28.5052 29.0093 28.5042 29.0151 28.5037C29.1439 28.4921 29.2568 28.4041 29.2984 28.2808C29.3687 28.0732 29.2271 27.9433 29.1425 27.8657C28.7704 27.5245 28.5829 27.2454 28.5854 27.0361C28.5859 26.9739 28.6028 26.8775 28.7388 26.7586C28.9159 26.6032 29.2809 26.6079 29.7713 26.7684C30.2317 27.2043 30.8984 27.8267 31.6913 28.518Z" fill="#132D55"/>
<path d="M57.0175 38.5865L52.5463 35.3004L42.6629 28.0376C46.1589 22.0163 52.1302 18.8499 54.2715 19.5274C54.5704 19.6217 54.864 19.8524 55.1431 20.2167C56.7322 22.2823 57.8842 28.6295 57.0175 38.5865Z" fill="#F9A429"/>
<g opacity="0.5">
<path d="M56.0987 22.2481C55.9209 21.8724 55.7354 21.5593 55.5425 21.3092C55.2634 20.9449 54.9697 20.7139 54.6709 20.6199C52.5703 19.9552 46.7852 22.9895 43.2671 28.7873L42.7654 28.4189C46.2612 22.3975 52.2324 19.231 54.3738 19.9085C54.6726 20.0028 54.9663 20.2335 55.2453 20.5978C55.5493 20.9928 55.8374 21.5445 56.0987 22.2481Z" fill="#132D55"/>
</g>
<path d="M57.0176 38.5864L52.5464 35.3003C51.8377 33.5087 51.0582 30.7827 51.4576 28.1114C52.0597 24.0935 52.8912 19.8501 55.1429 20.2165C56.7323 22.2823 57.8843 28.6295 57.0176 38.5864Z" fill="#FF9343"/>
<path d="M57.1636 39.1295C57.3858 39.07 57.5575 38.8769 57.5786 38.6345C58.175 31.7837 57.7717 27.3319 57.3282 24.8035C56.9132 22.4368 56.0755 19.5069 54.4415 18.9903C53.1475 18.5812 50.9877 19.2582 48.6646 20.8013C46.0923 22.5098 43.7885 24.979 42.1767 27.7544C42.0207 28.0232 42.1121 28.3675 42.3808 28.5234C42.6497 28.6796 42.9941 28.5882 43.1501 28.3192C46.5282 22.5014 52.2747 19.4856 54.1018 20.0632C54.7136 20.2567 55.635 21.665 56.2196 24.9978C56.6513 27.4599 57.0433 31.8075 56.4572 38.537C56.4301 38.8466 56.6593 39.1194 56.9689 39.1462C57.0365 39.1524 57.1019 39.146 57.1636 39.1295Z" fill="#132D55"/>
<path d="M20.3002 52.5867C20.3967 52.9765 20.519 53.3575 20.667 53.728C22.5473 58.4868 28.4892 61.5946 37.8957 62.1133L43.5627 61.9559C52.7753 61.1195 60.0358 58.2976 61.4239 51.9137C61.6811 50.731 61.8089 49.3319 61.7761 47.8052C61.6608 42.0405 59.2891 34.4624 53.1988 29.9091C46.7519 25.0885 38.2131 26.2189 36.3548 26.4501C25.1677 27.8388 23.0502 35.9301 21.4815 45.5162C21.4815 45.5192 21.2732 45.8281 21.016 46.369C20.9079 46.5949 20.7921 46.8635 20.679 47.1664C20.193 48.466 19.7608 50.4179 20.3002 52.5867Z" fill="#F9A429"/>
<path d="M20.3002 52.5867C21.6418 57.9864 27.7571 61.5541 37.8957 62.1134L43.5627 61.956C52.7752 61.1196 60.0357 58.2976 61.4239 51.9137C61.681 50.7311 61.8088 49.3319 61.7761 47.8053C60.4001 47.137 57.7464 46.325 54.8249 46.2906C48.3576 46.2149 48.5333 48.9064 44.7289 48.9054C41.3202 48.9047 40.1223 46.2183 36.1462 46.1795C32.9823 46.1486 32.2074 48.091 30.3736 48.5875C26.5954 49.6107 25.9612 45.7247 21.0159 46.3688C20.4473 47.5688 19.6343 49.9117 20.3002 52.5867Z" fill="#FFF3E9"/>
<g opacity="0.3">
<path d="M61.7763 47.8057C61.8088 49.3316 61.6801 50.7313 61.4234 51.9135C60.0347 58.2976 52.7752 61.1201 43.5624 61.9557L37.8952 62.1132C29.5021 61.65 23.8671 59.1263 21.4153 55.2078C24.4846 58.0865 29.7116 59.9109 36.8516 60.3053L42.7592 60.1406C52.3647 59.2687 59.9336 56.327 61.3814 49.6714C61.5099 49.0813 61.6075 48.439 61.6692 47.7538C61.706 47.7712 61.7415 47.7889 61.7763 47.8057Z" fill="#132D55"/>
</g>
<path d="M34.231 51.1579C35.1872 52.3562 34.8373 55.4175 37.0625 55.0586C39.3627 54.6876 38.4558 51.7607 39.4689 50.3752" fill="#132D55"/>
<path d="M32.9169 50.3125C32.9169 50.3125 32.6002 51.4133 33.5951 51.8838C34.8334 52.4694 35.9703 51.3473 36.2259 50.8798C36.2853 50.771 36.49 50.7682 36.5349 50.8839C36.7795 51.5129 37.7377 52.7635 39.2807 52.237C39.8871 52.0302 40.458 51.3136 40.1842 50.5726L37.1373 46.9865L32.9169 50.3125Z" fill="#FFF3E9"/>
<g opacity="0.3">
<path d="M40.1933 51.331C40.0482 51.7578 39.6709 52.1037 39.28 52.2362C37.7381 52.7627 36.7794 51.5133 36.5344 50.8828C36.4897 50.7676 36.2858 50.7704 36.2253 50.8801C35.9705 51.3477 34.8332 52.4693 33.5956 51.8841C33.1444 51.6716 32.9627 51.3291 32.8994 51.0184C34.3992 51.3729 35.7054 50.4417 35.7925 49.4814C35.8076 49.3131 37.2353 48.7508 37.2241 48.9194C37.1166 50.5672 38.0817 52.0529 40.1874 51.3334C40.189 51.3333 40.1917 51.3312 40.1933 51.331Z" fill="#132D55"/>
</g>
<path d="M39.9245 50.6682C39.9387 50.8474 39.9073 51.0027 39.8425 51.1421C39.7739 51.2806 39.6726 51.406 39.5497 51.5065C39.4279 51.6072 39.2836 51.6848 39.1522 51.7201C39.135 51.7241 39.1214 51.7291 39.1021 51.7332L39.0365 51.7448L38.9068 51.7692C38.8217 51.7789 38.7382 51.7877 38.6567 51.7896C38.5761 51.7856 38.4952 51.792 38.4184 51.7759C38.3393 51.7734 38.2651 51.7475 38.1879 51.7341C38.0378 51.6885 37.8877 51.6266 37.7452 51.5349C37.606 51.4374 37.4736 51.3186 37.3579 51.1816C37.2455 51.0439 37.1459 50.8846 37.0825 50.7376L37.0597 50.684L37.0468 50.654C37.0386 50.6355 37.0296 50.6172 37.0199 50.5994C37.001 50.5633 36.9778 50.5309 36.9528 50.4994C36.9035 50.4375 36.8436 50.3868 36.7869 50.3513C36.6702 50.2777 36.5597 50.2496 36.4577 50.239C36.3555 50.2297 36.259 50.2386 36.158 50.2684C36.0582 50.2987 35.9508 50.3514 35.8512 50.4484C35.8262 50.4742 35.8032 50.498 35.7812 50.5287C35.7702 50.5437 35.7596 50.5593 35.7496 50.5748L35.7282 50.6099L35.7152 50.6284C35.7017 50.6513 35.6762 50.6832 35.6524 50.7144C35.5516 50.8425 35.4126 50.9726 35.2718 51.0814C34.9848 51.2988 34.6704 51.4512 34.3754 51.4779C34.2263 51.498 34.0802 51.4805 33.9285 51.4392C33.7681 51.401 33.6414 51.3409 33.5382 51.2586C33.4308 51.1803 33.3483 51.0654 33.2866 50.9114C33.2559 50.8355 33.231 50.7496 33.216 50.6591C33.2063 50.6137 33.2003 50.5671 33.1954 50.5202C33.1899 50.4762 33.1873 50.4197 33.1828 50.3888L33.1709 50.3048C33.1498 50.156 33.012 50.0524 32.8632 50.0735C32.7655 50.0874 32.6874 50.1516 32.6509 50.236C32.6175 50.3139 32.5959 50.3684 32.5744 50.4357C32.5553 50.5005 32.5382 50.5658 32.5255 50.6333C32.5031 50.7675 32.4879 50.9078 32.5006 51.0529C32.5085 51.1973 32.5399 51.3471 32.5918 51.4931C32.6216 51.5646 32.6539 51.6372 32.6914 51.7069C32.7339 51.7732 32.7733 51.8449 32.824 51.9062C33.0252 52.1546 33.2926 52.3423 33.5591 52.4452L33.6602 52.4889L33.7674 52.5207C33.8396 52.54 33.9115 52.5632 33.9852 52.577C34.1346 52.5977 34.2854 52.6175 34.4359 52.6087C34.7359 52.6016 35.0304 52.5314 35.2892 52.4193C35.5489 52.3056 35.7847 52.1607 35.9944 51.9906C36.2059 51.8201 36.3908 51.6317 36.5618 51.4012C36.6044 51.3416 36.6465 51.2834 36.6889 51.2086L36.7201 51.1553C36.7264 51.1441 36.7148 51.166 36.7103 51.1726C36.7042 51.1824 36.6975 51.1921 36.6905 51.2014C36.6755 51.2198 36.6639 51.2352 36.648 51.2501C36.5887 51.3076 36.532 51.3329 36.4858 51.3466C36.4384 51.3599 36.3994 51.3627 36.3529 51.3591C36.307 51.3542 36.2517 51.3421 36.1826 51.2988C36.1502 51.2775 36.1118 51.2461 36.0798 51.2059C36.0629 51.1857 36.0496 51.1636 36.0362 51.1408C36.0298 51.1292 36.0239 51.1174 36.0187 51.1052L36.0118 51.0877L36.0146 51.094L36.0592 51.1951C36.1806 51.4584 36.3295 51.6794 36.5038 51.8877C36.6758 52.0963 36.873 52.2883 37.0992 52.454C37.3277 52.6175 37.5864 52.7533 37.8664 52.8403C38.1485 52.9233 38.4466 52.9488 38.7337 52.9231C38.8061 52.9195 38.8743 52.9007 38.9443 52.8895C39.013 52.8744 39.0851 52.8668 39.1502 52.8442L39.3458 52.7781L39.4427 52.7443C39.4765 52.7311 39.5147 52.713 39.55 52.6973C39.6237 52.6663 39.6872 52.6246 39.7545 52.5872C39.8161 52.5432 39.8804 52.5025 39.936 52.453C40.0528 52.3599 40.1531 52.2513 40.2455 52.1375C40.4224 51.904 40.5526 51.6284 40.5965 51.3303C40.6379 51.0324 40.5837 50.7204 40.4433 50.4761C40.3663 50.3423 40.1951 50.2961 40.0612 50.3731C39.9644 50.4287 39.9137 50.5333 39.9218 50.6376L39.9245 50.6682Z" fill="#132D55"/>
<path d="M33.6658 47.2911C33.6577 48.121 34.5759 48.8635 35.2831 49.3113C35.7727 49.6214 36.3972 49.6276 36.8929 49.327C37.6086 48.8928 38.5414 48.1683 38.5496 47.3384C38.5629 45.9901 33.6792 45.9428 33.6658 47.2911Z" fill="#132D55"/>
<g opacity="0.35">
<path d="M34.8269 47.0106C34.8252 47.1641 35.1665 47.303 35.4289 47.3872C35.6107 47.4455 35.8415 47.4477 36.0244 47.393C36.2885 47.314 36.6323 47.1816 36.6337 47.0281C36.636 46.7786 34.8292 46.761 34.8269 47.0106Z" fill="#132D55"/>
</g>
<path d="M36.0864 51.2081L36.983 50.559C36.983 50.559 36.9881 50.565 36.9961 50.5783C36.9927 50.5727 36.6523 49.986 36.7968 48.2637C36.8223 47.9591 36.5961 47.6915 36.2915 47.6661C35.9867 47.6402 35.7192 47.8669 35.6937 48.1714C35.5152 50.2994 35.9896 51.0744 36.0864 51.2081Z" fill="#132D55"/>
<path d="M56.0295 32.9106C58.1626 35.6792 59.6167 38.8945 60.4344 42.2523C60.8489 43.9294 61.1189 45.6458 61.1955 47.3685C61.3749 49.0851 61.138 50.8398 60.7098 52.4407C60.2436 54.0383 59.2989 55.4684 58.0442 56.588C56.7928 57.7156 55.2799 58.5639 53.6896 59.221C52.0947 59.8804 50.4111 60.3359 48.7115 60.7251C47.0092 61.1137 45.2816 61.4162 43.5424 61.7288C43.4178 61.7511 43.3347 61.87 43.357 61.9948C43.377 62.106 43.4745 62.1842 43.5836 62.1838C45.3647 62.1756 47.1457 62.0046 48.9082 61.687C49.7892 61.5269 50.665 61.3269 51.53 61.0798C52.3955 60.834 53.2526 60.5493 54.0932 60.2119C55.7696 59.5366 57.4005 58.6507 58.7849 57.4112C59.476 56.7946 60.0991 56.0888 60.611 55.3034C61.1266 54.5208 61.5205 53.6564 61.786 52.7589C62.0584 51.8546 62.1706 50.9485 62.2361 50.0398C62.2649 49.5862 62.2887 49.1331 62.2977 48.6804C62.2832 48.5672 62.3558 48.4549 62.3449 48.3412L62.3435 48.0014C62.3438 47.7747 62.3369 47.5486 62.3283 47.3223C62.2611 45.5138 61.9991 43.7163 61.5392 41.9696C61.3018 41.0987 61.0296 40.2363 60.6951 39.3979C60.3622 38.5591 59.985 37.7382 59.5624 36.9417C58.7097 35.3539 57.6652 33.8666 56.425 32.5704C56.3254 32.4663 56.1604 32.4626 56.0563 32.5621C55.9594 32.6548 55.9496 32.8045 56.029 32.9085L56.0295 32.9106Z" fill="#132D55"/>
<path d="M37.9095 61.8533C36.7257 61.6949 35.5485 61.5337 34.3822 61.3295C33.2164 61.1233 32.0609 60.8824 30.9247 60.5811C29.7887 60.281 28.672 59.9162 27.6035 59.4518C26.5351 58.9891 25.5116 58.4312 24.5849 57.7518C23.6585 57.0745 22.8326 56.2711 22.1809 55.3496C21.5297 54.4294 21.0616 53.388 20.8179 52.2935C20.5667 51.2056 20.5657 50.0652 20.772 48.9588C20.8751 48.4052 21.0311 47.8598 21.231 47.3306C21.3313 47.0663 21.4434 46.8063 21.5662 46.5531C21.627 46.4262 21.692 46.3015 21.7587 46.1793L21.8608 45.9988L21.9129 45.9116L21.9389 45.8695L21.9521 45.8485L21.9588 45.838C21.9431 45.8627 21.9996 45.7808 22.0246 45.7011C22.0513 45.6228 22.0602 45.5374 22.0544 45.4638L22.0502 45.6027C22.4854 42.7547 23.0086 39.9239 23.9389 37.2431C24.4063 35.9064 24.9824 34.6126 25.713 33.4194C26.442 32.2269 27.3298 31.1384 28.3794 30.2337C29.4262 29.3267 30.63 28.6073 31.9235 28.0932C33.2141 27.5763 34.5974 27.2579 35.9974 27.0541C38.8159 26.6051 41.6823 26.4632 44.539 26.7448L44.5399 26.7448C44.6921 26.7599 44.8277 26.6487 44.8427 26.4964C44.8567 26.3543 44.7595 26.2265 44.6227 26.198C41.7453 25.6072 38.7557 25.5935 35.8415 25.962C35.1077 26.0652 34.3769 26.2024 33.6535 26.3794C32.9312 26.559 32.2079 26.7763 31.5102 27.0569C30.1098 27.6084 28.7889 28.3913 27.6426 29.3794C26.4927 30.3644 25.5255 31.5469 24.7409 32.8224C23.9542 34.0993 23.3432 35.4664 22.8508 36.8611C21.8658 39.6573 21.3489 42.5572 20.9119 45.43L20.9077 45.5689C20.8994 45.4992 20.9059 45.4177 20.9301 45.3434C20.9524 45.2679 21.0067 45.1899 20.9882 45.2186L20.98 45.2317L20.9634 45.2582L20.9305 45.3114L20.8675 45.4168C20.8264 45.4869 20.7871 45.5568 20.7487 45.6273C20.6722 45.7679 20.5992 45.9092 20.5307 46.0521C20.3928 46.3377 20.2679 46.628 20.1564 46.9237C19.9339 47.515 19.7604 48.1251 19.6449 48.7487C19.4138 49.9941 19.4152 51.2987 19.7049 52.5457C19.985 53.7884 20.5316 54.9679 21.2701 55.9965C22.0098 57.0265 22.9319 57.9054 23.9423 58.633C24.9537 59.363 26.0514 59.9486 27.1828 60.4291C28.3152 60.9093 29.4833 61.2868 30.6667 61.5817C31.8509 61.874 33.0514 62.0827 34.2572 62.2093C35.4626 62.3384 36.6725 62.3983 37.8798 62.3728C38.0239 62.3698 38.1385 62.2503 38.1356 62.1062C38.1337 61.976 38.0352 61.87 37.9095 61.8533Z" fill="#132D55"/>
<path d="M44.9823 38.9761C45.1431 38.2156 42.7289 35.6596 41.2311 36.2581C39.7333 36.8566 39.9311 38.506 40.8213 39.0004C42.1143 39.719 44.8216 39.7366 44.9823 38.9761Z" fill="#FFF3E9"/>
<path d="M28.419 39.1571C28.2928 38.3901 30.597 35.9813 31.9631 36.6636C33.3292 37.3457 33.0984 38.9775 32.2615 39.4194C31.0464 40.0612 28.5455 39.924 28.419 39.1571Z" fill="#FFF3E9"/>
<path d="M55.3626 30.4635C55.2952 30.9381 55.196 31.377 55.0591 31.7632C50.9358 28.283 48.3172 29.2146 48.2429 27.0634C48.1638 24.7342 51.6225 21.4473 53.9242 21.2405C54.067 21.2275 54.2381 21.4786 54.4163 21.9168C55.0615 23.5195 55.7734 27.6242 55.3626 30.4635Z" fill="#FFF3E9"/>
<g opacity="0.3">
<path d="M55.3627 30.4634C55.2953 30.938 55.196 31.377 55.0592 31.7631C50.9359 28.283 48.3173 29.2145 48.243 27.0633C48.1638 24.7342 51.6226 21.4472 53.9243 21.2404C54.0671 21.2275 54.2382 21.4785 54.4163 21.9167C53.316 22.3687 51.5568 23.3968 51.5073 25.359C51.443 27.9406 53.9144 28.5227 55.3627 30.4634Z" fill="#132D55"/>
</g>
<path d="M51.4658 27.9651C51.48 28.6006 50.4477 28.4635 50.5699 29.0893C49.1204 28.5059 48.2846 28.2662 48.2427 27.0635C48.2254 26.5525 48.3791 25.9954 48.6521 25.4342C49.2044 25.1404 49.8595 24.9494 50.4357 25.2025C51.0885 25.4903 50.9887 25.9589 50.7819 26.2537C50.4769 26.6903 49.8147 26.9389 49.8147 26.9389C49.8147 26.9389 51.4482 27.1914 51.4658 27.9651Z" fill="#FFF3E9"/>
<path d="M55.1785 32.2084C55.179 32.2083 55.1795 32.2081 55.18 32.208C55.3261 32.1683 55.4432 32.0596 55.4936 31.917C56.6326 28.6941 55.3512 22.1944 54.4986 21.0972C54.2761 20.8106 54.0408 20.7674 53.8826 20.7818C51.3976 21.005 47.6922 24.4218 47.783 27.0793C47.8313 28.4939 48.8284 28.8911 50.0906 29.394C51.2472 29.8546 52.8312 30.4857 54.7621 32.1154C54.8775 32.2128 55.0331 32.2474 55.1785 32.2084ZM53.8152 21.7172C54.3817 22.5522 55.5096 27.8425 54.8079 30.9665C53.0121 29.5664 51.5364 28.9785 50.4319 28.5385C49.1121 28.0126 48.7306 27.8264 48.7039 27.0477C48.6336 25.0006 51.7944 22.0285 53.8152 21.7172ZM53.924 21.2403L53.9227 21.2406L53.924 21.2403Z" fill="#132D55"/>
<path d="M51.1371 27.9725C51.1321 28.0292 51.1336 28.0339 51.0942 28.078C51.0531 28.1206 50.9598 28.1742 50.846 28.2325C50.7328 28.295 50.591 28.3545 50.4376 28.5051C50.4005 28.5425 50.3644 28.5949 50.332 28.6418C50.3047 28.6973 50.2767 28.7566 50.2616 28.8153C50.2513 28.8734 50.2392 28.9379 50.241 28.9925C50.2443 29.0455 50.2495 29.0986 50.257 29.1508L50.6896 28.7935C50.2991 28.6359 49.908 28.4882 49.547 28.3212C49.3694 28.2362 49.1998 28.1452 49.055 28.0418C48.9097 27.938 48.7985 27.8199 48.7203 27.6837C48.5661 27.4153 48.5323 27.0329 48.5846 26.6678C48.6366 26.2984 48.7682 25.9284 48.9398 25.5744L48.8027 25.7165C49.1081 25.5759 49.4213 25.4666 49.7182 25.4421C49.8658 25.4306 50.0087 25.4351 50.1409 25.4696C50.2686 25.5011 50.4083 25.5647 50.4953 25.6323C50.5808 25.7053 50.6092 25.7484 50.611 25.828C50.6116 25.9098 50.567 26.032 50.4859 26.142C50.3216 26.371 50.0368 26.5892 49.7598 26.7898L49.7593 26.7902L49.7328 26.8112C49.662 26.8672 49.6499 26.9705 49.7061 27.0412C49.7287 27.0695 49.7586 27.0884 49.7912 27.0974C49.9468 27.1401 50.1093 27.1963 50.2618 27.257C50.4154 27.3177 50.564 27.3866 50.6992 27.4658C50.8329 27.545 50.9568 27.6362 51.0357 27.7325C51.0754 27.7799 51.1021 27.8277 51.1164 27.8678C51.1295 27.9076 51.1352 27.9382 51.1371 27.9725ZM51.7949 27.9575C51.792 27.8188 51.7504 27.6785 51.6826 27.567C51.6156 27.4543 51.5303 27.3676 51.4448 27.2966C51.2715 27.1553 51.0906 27.0731 50.913 27.0049C50.7344 26.9386 50.5563 26.8918 50.3786 26.855C50.1991 26.8189 50.0245 26.7957 49.8394 26.7808L49.871 27.088L49.872 27.0877C50.0738 27.0519 50.2551 26.9891 50.4377 26.9007C50.6179 26.8118 50.7923 26.6949 50.9495 26.5323C51.1009 26.3651 51.2379 26.1494 51.2622 25.8648C51.2742 25.7244 51.2488 25.5688 51.186 25.4342C51.1231 25.2988 51.0301 25.193 50.9335 25.1088C50.7364 24.9478 50.5376 24.8556 50.3142 24.7926C50.0929 24.7354 49.8659 24.724 49.6514 24.7461C49.4359 24.7678 49.2321 24.8206 49.042 24.893C48.8514 24.9648 48.6709 25.0505 48.5028 25.1522C48.4412 25.1839 48.3949 25.2336 48.3671 25.2915L48.3657 25.2946C48.1737 25.6922 48.018 26.1188 47.9524 26.579C47.9187 26.8079 47.9141 27.0482 47.9412 27.2853C47.9705 27.5239 48.0364 27.7749 48.1675 28.002C48.2971 28.2293 48.4844 28.418 48.6792 28.557C48.8748 28.6972 49.076 28.8026 49.2752 28.8982C49.6736 29.0824 50.0663 29.2291 50.4511 29.3853L50.4514 29.3852C50.6073 29.4497 50.7859 29.3757 50.8504 29.22C50.8615 29.1934 50.8684 29.1662 50.8717 29.1389L50.884 29.0283C50.8854 29.0162 50.8848 29.0046 50.8822 28.9931C50.8818 28.9831 50.8876 28.9837 50.8844 28.9778C50.886 28.9746 50.8897 28.9761 50.887 28.9722C50.895 28.9686 50.8933 28.965 50.902 28.957C50.9334 28.9238 51.0295 28.8683 51.1447 28.8113C51.26 28.7505 51.4025 28.6864 51.5493 28.549C51.5849 28.5101 51.6216 28.4752 51.6529 28.4292C51.6824 28.3807 51.7156 28.3339 51.7351 28.2805C51.753 28.2272 51.7748 28.1704 51.7822 28.1175C51.7883 28.0642 51.7925 28.0107 51.7949 27.9575Z" fill="#132D55"/>
<path d="M38.6236 53.6097C37.3784 54.986 39.0502 57.9798 36.5706 58.0164C35.6036 58.0306 34.9553 57.2311 34.6836 56.273C34.3869 55.2286 34.5344 53.9936 35.196 53.4111C35.3846 53.2456 35.7811 53.0606 36.4459 53.2674C37.4765 52.8438 38.0822 53.1073 38.3832 53.3489C38.5506 53.4827 38.6236 53.6097 38.6236 53.6097Z" fill="#FF1D74"/>
<g opacity="0.3">
<path d="M38.6237 53.6097C37.3784 54.986 39.0503 57.9798 36.5707 58.0164C35.6037 58.0307 34.9554 57.2312 34.6837 56.273C34.6837 56.273 35.5916 57.539 36.4741 57.232C37.5677 56.8526 37.3538 56.1233 37.565 54.7092C37.6503 54.144 38.0081 53.6082 38.3833 53.3492C38.5507 53.4827 38.6237 53.6097 38.6237 53.6097Z" fill="#132D55"/>
</g>
<path d="M37.2073 58.3304C38.4232 58.0046 38.4498 56.7625 38.4701 55.8225C38.4858 55.09 38.5021 54.3325 38.9163 53.875C39.0313 53.748 39.0513 53.5613 38.9658 53.4129C38.7143 52.9766 37.864 52.3192 36.4263 52.8523C35.5942 52.6417 35.1102 52.9615 34.9356 53.1153C34.0098 53.9299 33.9781 55.5817 34.418 56.7222C34.8376 57.8094 35.6241 58.425 36.5763 58.4109C36.8157 58.4075 37.0248 58.3793 37.2073 58.3304ZM38.1127 53.6346C37.7133 54.2763 37.6958 55.0826 37.6806 55.8055C37.6518 57.1392 37.5543 57.6068 36.5646 57.6217C35.7089 57.6342 35.2936 56.7981 35.1546 56.438C34.7632 55.4236 34.899 54.1989 35.457 53.7078C35.5412 53.6337 35.7949 53.4791 36.3295 53.645C36.4172 53.6722 36.5114 53.6679 36.5966 53.6331C37.4256 53.292 37.8881 53.4666 38.1127 53.6346Z" fill="#132D55"/>
<path d="M36.2419 55.8797C36.186 55.3812 36.1976 54.8734 36.3201 54.4206C36.3807 54.1954 36.4747 53.988 36.5986 53.826C36.6612 53.7454 36.7304 53.676 36.8042 53.6189C36.8798 53.5635 36.9603 53.5204 37.0432 53.4862C37.2581 53.3973 37.3603 53.1515 37.2714 52.9367C37.1826 52.7219 36.9367 52.6197 36.7218 52.7086C36.684 52.7242 36.6495 52.7449 36.6193 52.7693L36.6014 52.7839C36.4751 52.8861 36.3619 53.0025 36.2672 53.13C36.1746 53.2592 36.102 53.3971 36.0473 53.5368C35.9401 53.818 35.9049 54.1014 35.908 54.3714C35.9105 54.642 35.9492 54.9021 36.0078 55.1533C36.0667 55.4039 36.1459 55.6466 36.2419 55.8797Z" fill="#132D55"/>
<path d="M48.1523 46.4901L48.1361 46.3675L48.122 46.2771C48.1126 46.2186 48.0999 46.1631 48.088 46.1075C48.0645 45.9964 48.034 45.8888 48.0035 45.7812C47.9401 45.5669 47.8652 45.3563 47.7779 45.1495C47.6897 44.9433 47.593 44.7382 47.4784 44.5404C47.3666 44.3407 47.2412 44.145 47.0964 43.9577C46.8118 43.5807 46.455 43.2255 45.9851 42.9513C45.8712 42.883 45.7326 42.8223 45.6257 42.7804C45.513 42.7327 45.3944 42.694 45.2763 42.6548C45.0366 42.5839 44.7867 42.5308 44.5297 42.5062C44.0167 42.4544 43.4699 42.5238 42.9777 42.7298C42.484 42.932 42.0553 43.261 41.7277 43.6449C41.4016 44.0316 41.1727 44.4726 41.0336 44.9225C40.8948 45.3735 40.8355 45.8328 40.8586 46.2837C40.8678 46.4689 41.0257 46.6115 41.2112 46.6021C41.3394 46.5956 41.447 46.5182 41.4983 46.4097L41.5038 46.3979C41.6782 46.0267 41.8383 45.6725 42.0359 45.3564C42.2259 45.0375 42.4437 44.7572 42.6822 44.5257C43.1634 44.0612 43.7571 43.861 44.3943 43.9278C44.5536 43.9437 44.7158 43.9716 44.8782 44.0171C45.0386 44.0616 45.2161 44.1243 45.3356 44.1787C45.6064 44.2984 45.8765 44.5207 46.1342 44.7777C46.2609 44.9088 46.3866 45.0487 46.509 45.1954C46.6289 45.3438 46.75 45.4966 46.8651 45.6559C46.9805 45.8151 47.0938 45.9784 47.2048 46.1445L47.3675 46.3948L47.4451 46.5186L47.4816 46.5767C47.4932 46.5935 47.5035 46.6147 47.5072 46.6052C47.5391 46.7832 47.7093 46.9019 47.8874 46.87C48.0655 46.838 48.1842 46.6681 48.1523 46.4901Z" fill="#132D55"/>
<path d="M26.503 46.2413C26.7145 45.9232 26.9039 45.6191 27.1125 45.3404C27.3184 45.0614 27.5375 44.8093 27.7705 44.5929C28.0058 44.379 28.2537 44.1987 28.5245 44.0736C28.658 44.0127 28.8001 43.9532 28.9416 43.9106C29.0818 43.8624 29.2194 43.8362 29.3529 43.8187C29.6196 43.7853 29.865 43.8122 30.0986 43.9013C30.3312 43.9923 30.5558 44.1512 30.7526 44.3672C30.9481 44.5843 31.1244 44.8445 31.2726 45.1325C31.4229 45.4207 31.5413 45.7335 31.6434 46.0698L31.6497 46.0902C31.7026 46.2645 31.8871 46.363 32.0614 46.31C32.176 46.2752 32.2581 46.1829 32.2855 46.0745C32.3901 45.6567 32.3767 45.218 32.2902 44.7915C32.1979 44.3657 32.0212 43.9483 31.7504 43.5731C31.4772 43.2015 31.1063 42.8654 30.6483 42.6509C30.1912 42.4348 29.6618 42.3675 29.182 42.4296C28.9426 42.4626 28.7096 42.5164 28.495 42.5959C28.2798 42.6743 28.0741 42.764 27.8768 42.8836C27.4841 43.1171 27.1374 43.4168 26.8633 43.7574C26.3091 44.4387 26.0207 45.2416 25.9041 46.0112C25.877 46.1906 26.0003 46.3581 26.1798 46.3854C26.3101 46.405 26.434 46.3456 26.5026 46.2428L26.503 46.2413Z" fill="#132D55"/>
<defs>
<linearGradient id="paint0_linear_54_4873" x1="39.2369" y1="0.682129" x2="39.2369" y2="77.7927" gradientUnits="userSpaceOnUse">
<stop stop-color="#EFF4FF"/>
<stop offset="1" stop-color="#BDC7E3"/>
</linearGradient>
</defs>
</svg>
